G04 #@! TF.GenerationSoftware,KiCad,Pcbnew,(7.0.0)*
G04 #@! TF.CreationDate,2023-11-11T15:55:20+01:00*
G04 #@! TF.ProjectId,GameboyCartridgeV1.1,47616d65-626f-4794-9361-727472696467,rev?*
G04 #@! TF.SameCoordinates,Original*
G04 #@! TF.FileFunction,Paste,Top*
G04 #@! TF.FilePolarity,Positive*
%FSLAX46Y46*%
G04 Gerber Fmt 4.6, Leading zero omitted, Abs format (unit mm)*
G04 Created by KiCad (PCBNEW (7.0.0)) date 2023-11-11 15:55:20*
%MOMM*%
%LPD*%
G01*
G04 APERTURE LIST*
G04 Aperture macros list*
%AMRoundRect*
0 Rectangle with rounded corners*
0 $1 Rounding radius*
0 $2 $3 $4 $5 $6 $7 $8 $9 X,Y pos of 4 corners*
0 Add a 4 corners polygon primitive as box body*
4,1,4,$2,$3,$4,$5,$6,$7,$8,$9,$2,$3,0*
0 Add four circle primitives for the rounded corners*
1,1,$1+$1,$2,$3*
1,1,$1+$1,$4,$5*
1,1,$1+$1,$6,$7*
1,1,$1+$1,$8,$9*
0 Add four rect primitives between the rounded corners*
20,1,$1+$1,$2,$3,$4,$5,0*
20,1,$1+$1,$4,$5,$6,$7,0*
20,1,$1+$1,$6,$7,$8,$9,0*
20,1,$1+$1,$8,$9,$2,$3,0*%
G04 Aperture macros list end*
%ADD10R,0.600000X1.150000*%
%ADD11R,0.300000X1.150000*%
%ADD12RoundRect,0.155000X-0.212500X-0.155000X0.212500X-0.155000X0.212500X0.155000X-0.212500X0.155000X0*%
%ADD13RoundRect,0.237500X-0.237500X0.300000X-0.237500X-0.300000X0.237500X-0.300000X0.237500X0.300000X0*%
%ADD14RoundRect,0.237500X0.237500X-0.250000X0.237500X0.250000X-0.237500X0.250000X-0.237500X-0.250000X0*%
%ADD15RoundRect,0.237500X-0.237500X0.250000X-0.237500X-0.250000X0.237500X-0.250000X0.237500X0.250000X0*%
%ADD16RoundRect,0.155000X-0.155000X0.212500X-0.155000X-0.212500X0.155000X-0.212500X0.155000X0.212500X0*%
%ADD17RoundRect,0.155000X0.212500X0.155000X-0.212500X0.155000X-0.212500X-0.155000X0.212500X-0.155000X0*%
%ADD18R,1.700000X1.000000*%
%ADD19RoundRect,0.237500X0.250000X0.237500X-0.250000X0.237500X-0.250000X-0.237500X0.250000X-0.237500X0*%
%ADD20R,0.609600X1.625600*%
%ADD21R,3.175000X1.854200*%
%ADD22RoundRect,0.237500X-0.300000X-0.237500X0.300000X-0.237500X0.300000X0.237500X-0.300000X0.237500X0*%
%ADD23RoundRect,0.237500X0.237500X-0.300000X0.237500X0.300000X-0.237500X0.300000X-0.237500X-0.300000X0*%
%ADD24RoundRect,0.249999X-0.395001X-0.395001X0.395001X-0.395001X0.395001X0.395001X-0.395001X0.395001X0*%
%ADD25RoundRect,0.050000X-0.387500X-0.050000X0.387500X-0.050000X0.387500X0.050000X-0.387500X0.050000X0*%
%ADD26RoundRect,0.050000X-0.050000X-0.387500X0.050000X-0.387500X0.050000X0.387500X-0.050000X0.387500X0*%
%ADD27R,1.400000X1.200000*%
%ADD28RoundRect,0.237500X0.300000X0.237500X-0.300000X0.237500X-0.300000X-0.237500X0.300000X-0.237500X0*%
%ADD29RoundRect,0.237500X-0.250000X-0.237500X0.250000X-0.237500X0.250000X0.237500X-0.250000X0.237500X0*%
%ADD30R,1.500000X0.900000*%
%ADD31RoundRect,0.100000X-0.100000X0.637500X-0.100000X-0.637500X0.100000X-0.637500X0.100000X0.637500X0*%
%ADD32RoundRect,0.150000X-0.650000X-0.150000X0.650000X-0.150000X0.650000X0.150000X-0.650000X0.150000X0*%
%ADD33RoundRect,0.250000X-0.300000X-0.300000X0.300000X-0.300000X0.300000X0.300000X-0.300000X0.300000X0*%
%ADD34R,0.800000X1.900000*%
%ADD35RoundRect,0.250000X0.300000X0.300000X-0.300000X0.300000X-0.300000X-0.300000X0.300000X-0.300000X0*%
%ADD36R,0.750000X0.250000*%
G04 APERTURE END LIST*
D10*
X117359999Y-62739999D03*
X116559999Y-62739999D03*
D11*
X115409999Y-62739999D03*
X114409999Y-62739999D03*
X113909999Y-62739999D03*
X112909999Y-62739999D03*
D10*
X111759999Y-62739999D03*
X110959999Y-62739999D03*
X110959999Y-62739999D03*
X111759999Y-62739999D03*
D11*
X112409999Y-62739999D03*
X113409999Y-62739999D03*
X114909999Y-62739999D03*
X115909999Y-62739999D03*
D10*
X116559999Y-62739999D03*
X117359999Y-62739999D03*
D12*
X104032500Y-82300000D03*
X105167500Y-82300000D03*
D13*
X134200000Y-97937500D03*
X134200000Y-99662500D03*
D14*
X115500000Y-74612500D03*
X115500000Y-72787500D03*
D15*
X114300000Y-89737500D03*
X114300000Y-91562500D03*
D16*
X111400000Y-73932500D03*
X111400000Y-75067500D03*
X112400000Y-73932500D03*
X112400000Y-75067500D03*
D17*
X115967500Y-87100000D03*
X114832500Y-87100000D03*
X119627500Y-81600000D03*
X118492500Y-81600000D03*
D18*
X124759999Y-70649999D03*
X131059999Y-70649999D03*
X124759999Y-74449999D03*
X131059999Y-74449999D03*
D19*
X135812500Y-85600000D03*
X133987500Y-85600000D03*
D20*
X89359999Y-80873799D03*
X90629999Y-80873799D03*
X91899999Y-80873799D03*
X93169999Y-80873799D03*
X94439999Y-80873799D03*
D21*
X91899999Y-74599999D03*
D22*
X108437500Y-93300000D03*
X110162500Y-93300000D03*
D13*
X104800000Y-98037500D03*
X104800000Y-99762500D03*
D22*
X112387500Y-93300000D03*
X114112500Y-93300000D03*
D23*
X134200000Y-104062500D03*
X134200000Y-102337500D03*
X95200000Y-102312500D03*
X95200000Y-100587500D03*
X104800000Y-103762500D03*
X104800000Y-102037500D03*
D24*
X110900000Y-79800000D03*
X110900000Y-81400000D03*
X112500000Y-79800000D03*
X112500000Y-81400000D03*
D25*
X108262500Y-78000000D03*
X108262500Y-78400000D03*
X108262500Y-78800000D03*
X108262500Y-79200000D03*
X108262500Y-79600000D03*
X108262500Y-80000000D03*
X108262500Y-80400000D03*
X108262500Y-80800000D03*
X108262500Y-81200000D03*
X108262500Y-81600000D03*
X108262500Y-82000000D03*
X108262500Y-82400000D03*
X108262500Y-82800000D03*
X108262500Y-83200000D03*
D26*
X109100000Y-84037500D03*
X109500000Y-84037500D03*
X109900000Y-84037500D03*
X110300000Y-84037500D03*
X110700000Y-84037500D03*
X111100000Y-84037500D03*
X111500000Y-84037500D03*
X111900000Y-84037500D03*
X112300000Y-84037500D03*
X112700000Y-84037500D03*
X113100000Y-84037500D03*
X113500000Y-84037500D03*
X113900000Y-84037500D03*
X114300000Y-84037500D03*
D25*
X115137500Y-83200000D03*
X115137500Y-82800000D03*
X115137500Y-82400000D03*
X115137500Y-82000000D03*
X115137500Y-81600000D03*
X115137500Y-81200000D03*
X115137500Y-80800000D03*
X115137500Y-80400000D03*
X115137500Y-80000000D03*
X115137500Y-79600000D03*
X115137500Y-79200000D03*
X115137500Y-78800000D03*
X115137500Y-78400000D03*
X115137500Y-78000000D03*
D26*
X114300000Y-77162500D03*
X113900000Y-77162500D03*
X113500000Y-77162500D03*
X113100000Y-77162500D03*
X112700000Y-77162500D03*
X112300000Y-77162500D03*
X111900000Y-77162500D03*
X111500000Y-77162500D03*
X111100000Y-77162500D03*
X110700000Y-77162500D03*
X110300000Y-77162500D03*
X109900000Y-77162500D03*
X109500000Y-77162500D03*
X109100000Y-77162500D03*
D12*
X104032500Y-77700000D03*
X105167500Y-77700000D03*
D27*
X112399999Y-89799999D03*
X110199999Y-89799999D03*
X110199999Y-91499999D03*
X112399999Y-91499999D03*
D28*
X90462500Y-103200000D03*
X88737500Y-103200000D03*
D17*
X113517500Y-87100000D03*
X112382500Y-87100000D03*
D19*
X135812500Y-82900000D03*
X133987500Y-82900000D03*
D29*
X124387500Y-68100000D03*
X126212500Y-68100000D03*
D30*
X103649999Y-62549999D03*
X103649999Y-59249999D03*
X98749999Y-59249999D03*
X98749999Y-62549999D03*
D23*
X125300000Y-103862500D03*
X125300000Y-102137500D03*
D17*
X119617500Y-77200000D03*
X118482500Y-77200000D03*
D31*
X123825000Y-98237500D03*
X123175000Y-98237500D03*
X122525000Y-98237500D03*
X121875000Y-98237500D03*
X121225000Y-98237500D03*
X120575000Y-98237500D03*
X119925000Y-98237500D03*
X119275000Y-98237500D03*
X118625000Y-98237500D03*
X117975000Y-98237500D03*
X117975000Y-103962500D03*
X118625000Y-103962500D03*
X119275000Y-103962500D03*
X119925000Y-103962500D03*
X120575000Y-103962500D03*
X121225000Y-103962500D03*
X121875000Y-103962500D03*
X122525000Y-103962500D03*
X123175000Y-103962500D03*
X123825000Y-103962500D03*
D19*
X94512500Y-87000000D03*
X92687500Y-87000000D03*
D13*
X106700000Y-61137500D03*
X106700000Y-62862500D03*
D14*
X113800000Y-74612500D03*
X113800000Y-72787500D03*
D22*
X106237500Y-67900000D03*
X107962500Y-67900000D03*
X92537500Y-84100000D03*
X94262500Y-84100000D03*
D13*
X125300000Y-98037500D03*
X125300000Y-99762500D03*
D32*
X100700000Y-69795000D03*
X100700000Y-71065000D03*
X100700000Y-72335000D03*
X100700000Y-73605000D03*
X107900000Y-73605000D03*
X107900000Y-72335000D03*
X107900000Y-71065000D03*
X107900000Y-69795000D03*
D29*
X129627500Y-68100000D03*
X131452500Y-68100000D03*
D31*
X103325000Y-98237500D03*
X102675000Y-98237500D03*
X102025000Y-98237500D03*
X101375000Y-98237500D03*
X100725000Y-98237500D03*
X100075000Y-98237500D03*
X99425000Y-98237500D03*
X98775000Y-98237500D03*
X98125000Y-98237500D03*
X97475000Y-98237500D03*
X97475000Y-103962500D03*
X98125000Y-103962500D03*
X98775000Y-103962500D03*
X99425000Y-103962500D03*
X100075000Y-103962500D03*
X100725000Y-103962500D03*
X101375000Y-103962500D03*
X102025000Y-103962500D03*
X102675000Y-103962500D03*
X103325000Y-103962500D03*
X132725000Y-98137500D03*
X132075000Y-98137500D03*
X131425000Y-98137500D03*
X130775000Y-98137500D03*
X130125000Y-98137500D03*
X129475000Y-98137500D03*
X128825000Y-98137500D03*
X128175000Y-98137500D03*
X127525000Y-98137500D03*
X126875000Y-98137500D03*
X126875000Y-103862500D03*
X127525000Y-103862500D03*
X128175000Y-103862500D03*
X128825000Y-103862500D03*
X129475000Y-103862500D03*
X130125000Y-103862500D03*
X130775000Y-103862500D03*
X131425000Y-103862500D03*
X132075000Y-103862500D03*
X132725000Y-103862500D03*
D33*
X88200000Y-71400000D03*
X91000000Y-71400000D03*
D22*
X88837500Y-84100000D03*
X90562500Y-84100000D03*
D34*
X135849999Y-89699999D03*
X133949999Y-89699999D03*
X134899999Y-92699999D03*
D35*
X90900000Y-87300000D03*
X88100000Y-87300000D03*
D29*
X100687500Y-67900000D03*
X102512500Y-67900000D03*
D36*
X93649999Y-101899999D03*
X93649999Y-101399999D03*
X93649999Y-100899999D03*
X93649999Y-100399999D03*
X90549999Y-100399999D03*
X90549999Y-100899999D03*
X90549999Y-101399999D03*
X90549999Y-101899999D03*
D13*
X118500000Y-72837500D03*
X118500000Y-74562500D03*
X117000000Y-72837500D03*
X117000000Y-74562500D03*
M02*
