G04 #@! TF.GenerationSoftware,KiCad,Pcbnew,(7.0.0)*
G04 #@! TF.CreationDate,2023-11-11T15:55:20+01:00*
G04 #@! TF.ProjectId,GameboyCartridgeV1.1,47616d65-626f-4794-9361-727472696467,rev?*
G04 #@! TF.SameCoordinates,Original*
G04 #@! TF.FileFunction,Copper,L3,Inr*
G04 #@! TF.FilePolarity,Positive*
%FSLAX46Y46*%
G04 Gerber Fmt 4.6, Leading zero omitted, Abs format (unit mm)*
G04 Created by KiCad (PCBNEW (7.0.0)) date 2023-11-11 15:55:20*
%MOMM*%
%LPD*%
G01*
G04 APERTURE LIST*
G04 #@! TA.AperFunction,ComponentPad*
%ADD10O,1.000000X2.100000*%
G04 #@! TD*
G04 #@! TA.AperFunction,ComponentPad*
%ADD11O,1.000000X1.800000*%
G04 #@! TD*
G04 #@! TA.AperFunction,ComponentPad*
%ADD12C,0.800000*%
G04 #@! TD*
G04 #@! TA.AperFunction,ComponentPad*
%ADD13R,1.700000X1.700000*%
G04 #@! TD*
G04 #@! TA.AperFunction,ComponentPad*
%ADD14O,1.700000X1.700000*%
G04 #@! TD*
G04 #@! TA.AperFunction,ViaPad*
%ADD15C,0.600000*%
G04 #@! TD*
G04 #@! TA.AperFunction,Conductor*
%ADD16C,0.200000*%
G04 #@! TD*
G04 APERTURE END LIST*
D10*
X118479999Y-62164999D03*
D11*
X118479999Y-57984999D03*
D10*
X109839999Y-62164999D03*
D11*
X109839999Y-57984999D03*
D12*
X88266962Y-109283715D03*
X90016962Y-109283715D03*
X91516962Y-109283715D03*
X93016962Y-109283715D03*
X94516962Y-109283715D03*
X96016962Y-109283715D03*
X97516962Y-109283715D03*
X99016962Y-109283715D03*
X100516962Y-109283715D03*
X102016962Y-109283715D03*
X103516962Y-109283715D03*
X105016962Y-109283715D03*
X106516962Y-109283715D03*
X108016962Y-109283715D03*
X109516962Y-109283715D03*
X111016962Y-109283715D03*
X112516962Y-109283715D03*
X114016962Y-109283715D03*
X115516962Y-109283715D03*
X117016962Y-109283715D03*
X118516962Y-109283715D03*
X120016962Y-109283715D03*
X121516962Y-109283715D03*
X123016962Y-109283715D03*
X124516962Y-109283715D03*
X126016962Y-109283715D03*
X127516962Y-109283715D03*
X129016962Y-109283715D03*
X130516962Y-109283715D03*
X132016962Y-109283715D03*
X133516962Y-109283715D03*
X135266962Y-109283715D03*
D13*
X125344999Y-61374999D03*
D14*
X127884999Y-61374999D03*
D15*
X124500000Y-85400000D03*
X124100000Y-65300000D03*
X137700000Y-104200000D03*
X112800000Y-79500000D03*
X85900000Y-76200000D03*
X127900000Y-56200000D03*
X105400000Y-105300000D03*
X85900000Y-94200000D03*
X85900000Y-100200000D03*
X135000000Y-67600000D03*
X137700000Y-106200000D03*
X133953022Y-87630570D03*
X85900000Y-92200000D03*
X118500000Y-71600000D03*
X95200000Y-98400000D03*
X121900000Y-56200000D03*
X110200000Y-83000000D03*
X107500000Y-84700000D03*
X98400000Y-78900000D03*
X85900000Y-62200000D03*
X135000000Y-60900000D03*
X116900000Y-66500000D03*
X85900000Y-102200000D03*
X85900000Y-78200000D03*
X96800000Y-65900000D03*
X85900000Y-66200000D03*
X85900000Y-68200000D03*
X130700000Y-76900000D03*
X91900000Y-56200000D03*
X85900000Y-64200000D03*
X134200000Y-96700000D03*
X137700000Y-70200000D03*
X121900000Y-58100000D03*
X134200000Y-105400000D03*
X125900000Y-56200000D03*
X96600000Y-94000000D03*
X137700000Y-86200000D03*
X117400000Y-105100000D03*
X96700000Y-67900000D03*
X105800000Y-98000000D03*
X111800000Y-71300000D03*
X120550000Y-77360000D03*
X129900000Y-58000000D03*
X111700000Y-80700000D03*
X119900000Y-56200000D03*
X113500000Y-87800000D03*
X96800000Y-57900000D03*
X126600000Y-105300000D03*
X137700000Y-84200000D03*
X137700000Y-60200000D03*
X92100000Y-106500000D03*
X107800000Y-90000000D03*
X137700000Y-72200000D03*
X132000000Y-60900000D03*
X125300000Y-105300000D03*
X137700000Y-76200000D03*
X93400000Y-77400000D03*
X127900000Y-100900000D03*
X123000000Y-92900000D03*
X94900000Y-57900000D03*
X135000000Y-79700000D03*
X90000000Y-65400000D03*
X137700000Y-68200000D03*
X135000000Y-69700000D03*
X85900000Y-56200000D03*
X94600000Y-106500000D03*
X85900000Y-70200000D03*
X137700000Y-100200000D03*
X112400000Y-73000000D03*
X114900000Y-57700000D03*
X137700000Y-98200000D03*
X123900000Y-72400000D03*
X111900000Y-56200000D03*
X109900000Y-56200000D03*
X112800000Y-57700000D03*
X91900000Y-76600000D03*
X137700000Y-94200000D03*
X111400000Y-73000000D03*
X85900000Y-90200000D03*
X89900000Y-56200000D03*
X118700000Y-100000000D03*
X100800000Y-57900000D03*
X112800000Y-68800000D03*
X123300000Y-81600000D03*
X129900000Y-65300000D03*
X135000000Y-77800000D03*
X103000000Y-82800000D03*
X92200000Y-101550000D03*
X115900000Y-56200000D03*
X85900000Y-74200000D03*
X137700000Y-78200000D03*
X120560000Y-81600000D03*
X85900000Y-104200000D03*
X113900000Y-56200000D03*
X104600000Y-68300000D03*
X95800000Y-90400000D03*
X126800000Y-89700000D03*
X99900000Y-59300000D03*
X111350000Y-88650000D03*
X115700000Y-86000000D03*
X137700000Y-66200000D03*
X105900000Y-56200000D03*
X124800000Y-76900000D03*
X85900000Y-86200000D03*
X107900000Y-56200000D03*
X129532265Y-74450793D03*
X135000000Y-75700000D03*
X137700000Y-88200000D03*
X127900000Y-58000000D03*
X111700000Y-79500000D03*
X137700000Y-74200000D03*
X112700000Y-66500000D03*
X101900000Y-56200000D03*
X95200000Y-103500000D03*
X129900000Y-56200000D03*
X106900000Y-57900000D03*
X92200000Y-94200000D03*
X137700000Y-90200000D03*
X112400000Y-94250000D03*
X110505474Y-63864476D03*
X117900000Y-56200000D03*
X112800000Y-81800000D03*
X85900000Y-60200000D03*
X137700000Y-82200000D03*
X121100000Y-100000000D03*
X91000000Y-68200000D03*
X107200000Y-106500000D03*
X85900000Y-82200000D03*
X89500000Y-102100000D03*
X99900000Y-56200000D03*
X117905474Y-63864476D03*
X91900000Y-78700000D03*
X92700000Y-89300000D03*
X136400000Y-58900000D03*
X100300000Y-65900000D03*
X106700000Y-60100000D03*
X85900000Y-96200000D03*
X97900000Y-56200000D03*
X92200000Y-98100000D03*
X85900000Y-80200000D03*
X116900000Y-68800000D03*
X95300000Y-105400000D03*
X85900000Y-98200000D03*
X135000000Y-63200000D03*
X103900000Y-56200000D03*
X137700000Y-96200000D03*
X137700000Y-62200000D03*
X111700000Y-81800000D03*
X92500000Y-85400000D03*
X93700000Y-105400000D03*
X85900000Y-106200000D03*
X100700000Y-74700000D03*
X108400000Y-94200000D03*
X123900000Y-56200000D03*
X110600000Y-81800000D03*
X110600000Y-79500000D03*
X135000000Y-65200000D03*
X102700000Y-100900000D03*
X135000000Y-71700000D03*
X97000000Y-105400000D03*
X85900000Y-58200000D03*
X93900000Y-56200000D03*
X95900000Y-56200000D03*
X135300000Y-100900000D03*
X85900000Y-84200000D03*
X103000000Y-57900000D03*
X131900000Y-56200000D03*
X137700000Y-80200000D03*
X133550000Y-58900000D03*
X85900000Y-72200000D03*
X137700000Y-92200000D03*
X126275838Y-74456437D03*
X88800000Y-82900000D03*
X110600000Y-80700000D03*
X98800000Y-57900000D03*
X131300000Y-100900000D03*
X131900000Y-58000000D03*
X125300000Y-93700000D03*
X117000000Y-71600000D03*
X112800000Y-80700000D03*
X104500000Y-71700000D03*
X102900000Y-77800000D03*
X87900000Y-56200000D03*
X127500000Y-77900000D03*
X125900000Y-58100000D03*
X137700000Y-102200000D03*
X137700000Y-64200000D03*
X94100000Y-65400000D03*
X104900000Y-57900000D03*
X85900000Y-88200000D03*
X135000000Y-73700000D03*
X125300000Y-97000000D03*
X102700000Y-99600000D03*
X123200000Y-99600000D03*
X106200000Y-81900000D03*
X117500000Y-76300000D03*
X132100000Y-99400000D03*
X109475000Y-78425000D03*
X106200000Y-69800000D03*
X132500000Y-68100000D03*
X115100000Y-77200000D03*
X117460000Y-81600000D03*
X95200000Y-99450000D03*
X116600000Y-77200000D03*
X123000000Y-91800000D03*
X106700000Y-77800000D03*
X111300000Y-82950000D03*
X93700000Y-78500000D03*
X92700000Y-88200000D03*
X94500000Y-77700000D03*
X112800000Y-78200000D03*
X120800000Y-92650000D03*
X113543466Y-85156974D03*
X126800000Y-78500000D03*
X113850000Y-82950000D03*
X126000000Y-89100000D03*
X118000000Y-89100000D03*
X114200000Y-85800500D03*
X123200000Y-102500000D03*
X132100000Y-102500000D03*
X88265112Y-106594801D03*
X88272528Y-105663384D03*
X102700000Y-102700000D03*
X111705474Y-63864476D03*
X91000000Y-69300000D03*
X116605474Y-63864476D03*
X121174500Y-105400000D03*
X121200000Y-106400000D03*
X122500000Y-105400000D03*
X123800000Y-105400000D03*
X129424500Y-105400000D03*
X129904610Y-106039295D03*
X130724500Y-105400000D03*
X132700000Y-105400000D03*
X111500000Y-78300000D03*
X113000000Y-82900000D03*
X113700000Y-78500000D03*
X118000000Y-99500000D03*
X95800000Y-91500000D03*
X97500000Y-93600000D03*
X122800000Y-72400000D03*
X98800000Y-66000000D03*
D16*
X113543466Y-86543466D02*
X113543466Y-85156974D01*
X120800000Y-92650000D02*
X116250000Y-92650000D01*
X116250000Y-92650000D02*
X115700000Y-92100000D01*
X115700000Y-92100000D02*
X115700000Y-88700000D01*
X115700000Y-88700000D02*
X113543466Y-86543466D01*
X126800000Y-88300000D02*
X126800000Y-83300000D01*
X113850000Y-82950000D02*
X114200000Y-83300000D01*
X126800000Y-83300000D02*
X126800000Y-78500000D01*
X126000000Y-89100000D02*
X126800000Y-88300000D01*
X114200000Y-83300000D02*
X126800000Y-83300000D01*
X114200000Y-85800500D02*
X117499500Y-89100000D01*
X118000000Y-89100000D02*
X117499500Y-89100000D01*
X114016962Y-106683038D02*
X115000000Y-105700000D01*
X115000000Y-105700000D02*
X120874500Y-105700000D01*
X120874500Y-105700000D02*
X121174500Y-105400000D01*
X114016962Y-109283715D02*
X114016962Y-106683038D01*
X115516962Y-109283715D02*
X115516962Y-106983038D01*
X115516962Y-106983038D02*
X116100000Y-106400000D01*
X116100000Y-106400000D02*
X121200000Y-106400000D01*
X117016962Y-109283715D02*
X117016962Y-107783038D01*
X122500000Y-106200000D02*
X122500000Y-105400000D01*
X117016962Y-107783038D02*
X117600000Y-107200000D01*
X117600000Y-107200000D02*
X121500000Y-107200000D01*
X121500000Y-107200000D02*
X122500000Y-106200000D01*
X118516962Y-108383038D02*
X119100000Y-107800000D01*
X118516962Y-109283715D02*
X118516962Y-108383038D01*
X119100000Y-107800000D02*
X122600000Y-107800000D01*
X122600000Y-107800000D02*
X123800000Y-106600000D01*
X123800000Y-106600000D02*
X123800000Y-105400000D01*
X126000000Y-106300000D02*
X128524500Y-106300000D01*
X124516962Y-109283715D02*
X124516962Y-107783038D01*
X128524500Y-106300000D02*
X129424500Y-105400000D01*
X124516962Y-107783038D02*
X126000000Y-106300000D01*
X128843905Y-107100000D02*
X129904610Y-106039295D01*
X126016962Y-109283715D02*
X126016962Y-107783038D01*
X126016962Y-107783038D02*
X126700000Y-107100000D01*
X126700000Y-107100000D02*
X128843905Y-107100000D01*
X127516962Y-108383038D02*
X127516962Y-109283715D01*
X129400000Y-107800000D02*
X128100000Y-107800000D01*
X130724500Y-106475500D02*
X129400000Y-107800000D01*
X130724500Y-105400000D02*
X130724500Y-106475500D01*
X128100000Y-107800000D02*
X127516962Y-108383038D01*
X132700000Y-106500000D02*
X132700000Y-105400000D01*
X130516962Y-108683038D02*
X132700000Y-106500000D01*
X130516962Y-109283715D02*
X130516962Y-108683038D01*
X111900000Y-78900000D02*
X113700000Y-78900000D01*
X113700000Y-78900000D02*
X113700000Y-82200000D01*
X111500000Y-78300000D02*
X111500000Y-78500000D01*
X111500000Y-78500000D02*
X111900000Y-78900000D01*
X113700000Y-78900000D02*
X113700000Y-78500000D01*
X113700000Y-82200000D02*
X113000000Y-82900000D01*
X114800000Y-93500000D02*
X113300000Y-92000000D01*
X97500000Y-93600000D02*
X97500000Y-92000000D01*
X113300000Y-92000000D02*
X97500000Y-92000000D01*
X97500000Y-92000000D02*
X96300000Y-92000000D01*
X118000000Y-94900000D02*
X116600000Y-93500000D01*
X116600000Y-93500000D02*
X114800000Y-93500000D01*
X118000000Y-99500000D02*
X118000000Y-94900000D01*
X96300000Y-92000000D02*
X95800000Y-91500000D01*
G04 #@! TA.AperFunction,Conductor*
G36*
X98485557Y-66516613D02*
G01*
X98490712Y-66519589D01*
X98497159Y-66524536D01*
X98643238Y-66585044D01*
X98800000Y-66605682D01*
X98956762Y-66585044D01*
X99102841Y-66524536D01*
X99109288Y-66519588D01*
X99114443Y-66516613D01*
X99176443Y-66500000D01*
X100248715Y-66500000D01*
X100264899Y-66501060D01*
X100300000Y-66505682D01*
X100335100Y-66501060D01*
X100351285Y-66500000D01*
X109976000Y-66500000D01*
X110038000Y-66516613D01*
X110083387Y-66562000D01*
X110100000Y-66624000D01*
X110100000Y-74900000D01*
X121500000Y-75000000D01*
X121500000Y-74456437D01*
X125670156Y-74456437D01*
X125671217Y-74464496D01*
X125689732Y-74605139D01*
X125689733Y-74605145D01*
X125690794Y-74613199D01*
X125693903Y-74620705D01*
X125693904Y-74620708D01*
X125723410Y-74691941D01*
X125751302Y-74759278D01*
X125847556Y-74884719D01*
X125972997Y-74980973D01*
X126119076Y-75041481D01*
X126275838Y-75062119D01*
X126432600Y-75041481D01*
X126578679Y-74980973D01*
X126704120Y-74884719D01*
X126800374Y-74759278D01*
X126860882Y-74613199D01*
X126881520Y-74456437D01*
X126880777Y-74450793D01*
X128926583Y-74450793D01*
X128927644Y-74458852D01*
X128946159Y-74599495D01*
X128946160Y-74599501D01*
X128947221Y-74607555D01*
X128950330Y-74615061D01*
X128950331Y-74615064D01*
X128955806Y-74628282D01*
X129007729Y-74753634D01*
X129012676Y-74760081D01*
X129092623Y-74864271D01*
X129103983Y-74879075D01*
X129229424Y-74975329D01*
X129375503Y-75035837D01*
X129532265Y-75056475D01*
X129689027Y-75035837D01*
X129835106Y-74975329D01*
X129960547Y-74879075D01*
X130056801Y-74753634D01*
X130117309Y-74607555D01*
X130137947Y-74450793D01*
X130117309Y-74294031D01*
X130056801Y-74147952D01*
X129960547Y-74022511D01*
X129934912Y-74002841D01*
X129841553Y-73931204D01*
X129835106Y-73926257D01*
X129827598Y-73923147D01*
X129696536Y-73868859D01*
X129696533Y-73868858D01*
X129689027Y-73865749D01*
X129680973Y-73864688D01*
X129680967Y-73864687D01*
X129540324Y-73846172D01*
X129532265Y-73845111D01*
X129524206Y-73846172D01*
X129383562Y-73864687D01*
X129383554Y-73864689D01*
X129375503Y-73865749D01*
X129367998Y-73868857D01*
X129367993Y-73868859D01*
X129236931Y-73923147D01*
X129236927Y-73923148D01*
X129229424Y-73926257D01*
X129222979Y-73931201D01*
X129222976Y-73931204D01*
X129110429Y-74017564D01*
X129110425Y-74017567D01*
X129103983Y-74022511D01*
X129099039Y-74028953D01*
X129099036Y-74028957D01*
X129012676Y-74141504D01*
X129012673Y-74141507D01*
X129007729Y-74147952D01*
X129004620Y-74155455D01*
X129004619Y-74155459D01*
X128950331Y-74286521D01*
X128950329Y-74286526D01*
X128947221Y-74294031D01*
X128946161Y-74302082D01*
X128946159Y-74302090D01*
X128927967Y-74440275D01*
X128926583Y-74450793D01*
X126880777Y-74450793D01*
X126860882Y-74299675D01*
X126800374Y-74153596D01*
X126704120Y-74028155D01*
X126578679Y-73931901D01*
X126494805Y-73897159D01*
X126440109Y-73874503D01*
X126440106Y-73874502D01*
X126432600Y-73871393D01*
X126424546Y-73870332D01*
X126424540Y-73870331D01*
X126283897Y-73851816D01*
X126275838Y-73850755D01*
X126267779Y-73851816D01*
X126127135Y-73870331D01*
X126127127Y-73870333D01*
X126119076Y-73871393D01*
X126111571Y-73874501D01*
X126111566Y-73874503D01*
X125980504Y-73928791D01*
X125980500Y-73928792D01*
X125972997Y-73931901D01*
X125966552Y-73936845D01*
X125966549Y-73936848D01*
X125854002Y-74023208D01*
X125853998Y-74023211D01*
X125847556Y-74028155D01*
X125842612Y-74034597D01*
X125842609Y-74034601D01*
X125756249Y-74147148D01*
X125756246Y-74147151D01*
X125751302Y-74153596D01*
X125748193Y-74161099D01*
X125748192Y-74161103D01*
X125693904Y-74292165D01*
X125693902Y-74292170D01*
X125690794Y-74299675D01*
X125689734Y-74307726D01*
X125689732Y-74307734D01*
X125671960Y-74442734D01*
X125670156Y-74456437D01*
X121500000Y-74456437D01*
X121500000Y-73700000D01*
X134394318Y-73700000D01*
X134395379Y-73708059D01*
X134413894Y-73848702D01*
X134413895Y-73848708D01*
X134414956Y-73856762D01*
X134418065Y-73864268D01*
X134418066Y-73864271D01*
X134448129Y-73936848D01*
X134475464Y-74002841D01*
X134571718Y-74128282D01*
X134697159Y-74224536D01*
X134843238Y-74285044D01*
X135000000Y-74305682D01*
X135156762Y-74285044D01*
X135302841Y-74224536D01*
X135428282Y-74128282D01*
X135524536Y-74002841D01*
X135585044Y-73856762D01*
X135605682Y-73700000D01*
X135585044Y-73543238D01*
X135524536Y-73397159D01*
X135428282Y-73271718D01*
X135302841Y-73175464D01*
X135295333Y-73172354D01*
X135164271Y-73118066D01*
X135164268Y-73118065D01*
X135156762Y-73114956D01*
X135148708Y-73113895D01*
X135148702Y-73113894D01*
X135008059Y-73095379D01*
X135000000Y-73094318D01*
X134991941Y-73095379D01*
X134851297Y-73113894D01*
X134851289Y-73113896D01*
X134843238Y-73114956D01*
X134835733Y-73118064D01*
X134835728Y-73118066D01*
X134704666Y-73172354D01*
X134704662Y-73172355D01*
X134697159Y-73175464D01*
X134690714Y-73180408D01*
X134690711Y-73180411D01*
X134578164Y-73266771D01*
X134578160Y-73266774D01*
X134571718Y-73271718D01*
X134566774Y-73278160D01*
X134566771Y-73278164D01*
X134480411Y-73390711D01*
X134480408Y-73390714D01*
X134475464Y-73397159D01*
X134472355Y-73404662D01*
X134472354Y-73404666D01*
X134418066Y-73535728D01*
X134418064Y-73535733D01*
X134414956Y-73543238D01*
X134413896Y-73551289D01*
X134413894Y-73551297D01*
X134408231Y-73594318D01*
X134394318Y-73700000D01*
X121500000Y-73700000D01*
X121500000Y-72400000D01*
X122194318Y-72400000D01*
X122195379Y-72408059D01*
X122213894Y-72548702D01*
X122213895Y-72548708D01*
X122214956Y-72556762D01*
X122218065Y-72564268D01*
X122218066Y-72564271D01*
X122250000Y-72641365D01*
X122275464Y-72702841D01*
X122371718Y-72828282D01*
X122497159Y-72924536D01*
X122643238Y-72985044D01*
X122800000Y-73005682D01*
X122956762Y-72985044D01*
X123102841Y-72924536D01*
X123228282Y-72828282D01*
X123251624Y-72797861D01*
X123295156Y-72762136D01*
X123350000Y-72749348D01*
X123404844Y-72762136D01*
X123448375Y-72797861D01*
X123471718Y-72828282D01*
X123597159Y-72924536D01*
X123743238Y-72985044D01*
X123900000Y-73005682D01*
X124056762Y-72985044D01*
X124202841Y-72924536D01*
X124328282Y-72828282D01*
X124424536Y-72702841D01*
X124485044Y-72556762D01*
X124505682Y-72400000D01*
X124485044Y-72243238D01*
X124424536Y-72097159D01*
X124328282Y-71971718D01*
X124202841Y-71875464D01*
X124175819Y-71864271D01*
X124064271Y-71818066D01*
X124064268Y-71818065D01*
X124056762Y-71814956D01*
X124048708Y-71813895D01*
X124048702Y-71813894D01*
X123908059Y-71795379D01*
X123900000Y-71794318D01*
X123891941Y-71795379D01*
X123751297Y-71813894D01*
X123751289Y-71813896D01*
X123743238Y-71814956D01*
X123735733Y-71818064D01*
X123735728Y-71818066D01*
X123604666Y-71872354D01*
X123604662Y-71872355D01*
X123597159Y-71875464D01*
X123590714Y-71880408D01*
X123590711Y-71880411D01*
X123478164Y-71966771D01*
X123478160Y-71966774D01*
X123471718Y-71971718D01*
X123466774Y-71978160D01*
X123466772Y-71978163D01*
X123448375Y-72002139D01*
X123404843Y-72037864D01*
X123350000Y-72050651D01*
X123295157Y-72037864D01*
X123251625Y-72002139D01*
X123233227Y-71978163D01*
X123228282Y-71971718D01*
X123102841Y-71875464D01*
X123075819Y-71864271D01*
X122964271Y-71818066D01*
X122964268Y-71818065D01*
X122956762Y-71814956D01*
X122948708Y-71813895D01*
X122948702Y-71813894D01*
X122808059Y-71795379D01*
X122800000Y-71794318D01*
X122791941Y-71795379D01*
X122651297Y-71813894D01*
X122651289Y-71813896D01*
X122643238Y-71814956D01*
X122635733Y-71818064D01*
X122635728Y-71818066D01*
X122504666Y-71872354D01*
X122504662Y-71872355D01*
X122497159Y-71875464D01*
X122490714Y-71880408D01*
X122490711Y-71880411D01*
X122378164Y-71966771D01*
X122378160Y-71966774D01*
X122371718Y-71971718D01*
X122366774Y-71978160D01*
X122366771Y-71978164D01*
X122280411Y-72090711D01*
X122280408Y-72090714D01*
X122275464Y-72097159D01*
X122272355Y-72104662D01*
X122272354Y-72104666D01*
X122218066Y-72235728D01*
X122218064Y-72235733D01*
X122214956Y-72243238D01*
X122213896Y-72251289D01*
X122213894Y-72251297D01*
X122206735Y-72305682D01*
X122194318Y-72400000D01*
X121500000Y-72400000D01*
X121500000Y-71700000D01*
X134394318Y-71700000D01*
X134395379Y-71708059D01*
X134413894Y-71848702D01*
X134413895Y-71848708D01*
X134414956Y-71856762D01*
X134418065Y-71864268D01*
X134418066Y-71864271D01*
X134435219Y-71905682D01*
X134475464Y-72002841D01*
X134571718Y-72128282D01*
X134697159Y-72224536D01*
X134843238Y-72285044D01*
X135000000Y-72305682D01*
X135156762Y-72285044D01*
X135302841Y-72224536D01*
X135428282Y-72128282D01*
X135524536Y-72002841D01*
X135585044Y-71856762D01*
X135605682Y-71700000D01*
X135585044Y-71543238D01*
X135524536Y-71397159D01*
X135428282Y-71271718D01*
X135302841Y-71175464D01*
X135295333Y-71172354D01*
X135164271Y-71118066D01*
X135164268Y-71118065D01*
X135156762Y-71114956D01*
X135148708Y-71113895D01*
X135148702Y-71113894D01*
X135008059Y-71095379D01*
X135000000Y-71094318D01*
X134991941Y-71095379D01*
X134851297Y-71113894D01*
X134851289Y-71113896D01*
X134843238Y-71114956D01*
X134835733Y-71118064D01*
X134835728Y-71118066D01*
X134704666Y-71172354D01*
X134704662Y-71172355D01*
X134697159Y-71175464D01*
X134690714Y-71180408D01*
X134690711Y-71180411D01*
X134578164Y-71266771D01*
X134578160Y-71266774D01*
X134571718Y-71271718D01*
X134566774Y-71278160D01*
X134566771Y-71278164D01*
X134480411Y-71390711D01*
X134480408Y-71390714D01*
X134475464Y-71397159D01*
X134472355Y-71404662D01*
X134472354Y-71404666D01*
X134418066Y-71535728D01*
X134418064Y-71535733D01*
X134414956Y-71543238D01*
X134413896Y-71551289D01*
X134413894Y-71551297D01*
X134408231Y-71594318D01*
X134394318Y-71700000D01*
X121500000Y-71700000D01*
X121500000Y-69700000D01*
X134394318Y-69700000D01*
X134395379Y-69708059D01*
X134413894Y-69848702D01*
X134413895Y-69848708D01*
X134414956Y-69856762D01*
X134475464Y-70002841D01*
X134571718Y-70128282D01*
X134697159Y-70224536D01*
X134843238Y-70285044D01*
X135000000Y-70305682D01*
X135156762Y-70285044D01*
X135302841Y-70224536D01*
X135428282Y-70128282D01*
X135524536Y-70002841D01*
X135585044Y-69856762D01*
X135605682Y-69700000D01*
X135585044Y-69543238D01*
X135524536Y-69397159D01*
X135428282Y-69271718D01*
X135302841Y-69175464D01*
X135225041Y-69143238D01*
X135164271Y-69118066D01*
X135164268Y-69118065D01*
X135156762Y-69114956D01*
X135148708Y-69113895D01*
X135148702Y-69113894D01*
X135008059Y-69095379D01*
X135000000Y-69094318D01*
X134991941Y-69095379D01*
X134851297Y-69113894D01*
X134851289Y-69113896D01*
X134843238Y-69114956D01*
X134835733Y-69118064D01*
X134835728Y-69118066D01*
X134704666Y-69172354D01*
X134704662Y-69172355D01*
X134697159Y-69175464D01*
X134690714Y-69180408D01*
X134690711Y-69180411D01*
X134578164Y-69266771D01*
X134578160Y-69266774D01*
X134571718Y-69271718D01*
X134566774Y-69278160D01*
X134566771Y-69278164D01*
X134480411Y-69390711D01*
X134480408Y-69390714D01*
X134475464Y-69397159D01*
X134472355Y-69404662D01*
X134472354Y-69404666D01*
X134418066Y-69535728D01*
X134418064Y-69535733D01*
X134414956Y-69543238D01*
X134413896Y-69551289D01*
X134413894Y-69551297D01*
X134408231Y-69594318D01*
X134394318Y-69700000D01*
X121500000Y-69700000D01*
X121500000Y-67600000D01*
X134394318Y-67600000D01*
X134395379Y-67608059D01*
X134413894Y-67748702D01*
X134413895Y-67748708D01*
X134414956Y-67756762D01*
X134418065Y-67764268D01*
X134418066Y-67764271D01*
X134453044Y-67848715D01*
X134475464Y-67902841D01*
X134571718Y-68028282D01*
X134697159Y-68124536D01*
X134843238Y-68185044D01*
X135000000Y-68205682D01*
X135156762Y-68185044D01*
X135302841Y-68124536D01*
X135428282Y-68028282D01*
X135524536Y-67902841D01*
X135585044Y-67756762D01*
X135605682Y-67600000D01*
X135585044Y-67443238D01*
X135524536Y-67297159D01*
X135428282Y-67171718D01*
X135302841Y-67075464D01*
X135295333Y-67072354D01*
X135164271Y-67018066D01*
X135164268Y-67018065D01*
X135156762Y-67014956D01*
X135148708Y-67013895D01*
X135148702Y-67013894D01*
X135008059Y-66995379D01*
X135000000Y-66994318D01*
X134991941Y-66995379D01*
X134851297Y-67013894D01*
X134851289Y-67013896D01*
X134843238Y-67014956D01*
X134835733Y-67018064D01*
X134835728Y-67018066D01*
X134704666Y-67072354D01*
X134704662Y-67072355D01*
X134697159Y-67075464D01*
X134690714Y-67080408D01*
X134690711Y-67080411D01*
X134578164Y-67166771D01*
X134578160Y-67166774D01*
X134571718Y-67171718D01*
X134566774Y-67178160D01*
X134566771Y-67178164D01*
X134480411Y-67290711D01*
X134480408Y-67290714D01*
X134475464Y-67297159D01*
X134472355Y-67304662D01*
X134472354Y-67304666D01*
X134418066Y-67435728D01*
X134418064Y-67435733D01*
X134414956Y-67443238D01*
X134413896Y-67451289D01*
X134413894Y-67451297D01*
X134395702Y-67589482D01*
X134394318Y-67600000D01*
X121500000Y-67600000D01*
X121500000Y-66624000D01*
X121516613Y-66562000D01*
X121562000Y-66516613D01*
X121624000Y-66500000D01*
X136876000Y-66500000D01*
X136938000Y-66516613D01*
X136983387Y-66562000D01*
X137000000Y-66624000D01*
X137000000Y-100076000D01*
X136983387Y-100138000D01*
X136938000Y-100183387D01*
X136876000Y-100200000D01*
X121824000Y-100200000D01*
X121762000Y-100183387D01*
X121716613Y-100138000D01*
X121700000Y-100076000D01*
X121700000Y-100051285D01*
X121701061Y-100035100D01*
X121704621Y-100008059D01*
X121705682Y-100000000D01*
X121701060Y-99964899D01*
X121700000Y-99948715D01*
X121700000Y-97000000D01*
X124694318Y-97000000D01*
X124695379Y-97008059D01*
X124713894Y-97148702D01*
X124713895Y-97148708D01*
X124714956Y-97156762D01*
X124775464Y-97302841D01*
X124871718Y-97428282D01*
X124997159Y-97524536D01*
X125143238Y-97585044D01*
X125300000Y-97605682D01*
X125456762Y-97585044D01*
X125602841Y-97524536D01*
X125728282Y-97428282D01*
X125824536Y-97302841D01*
X125885044Y-97156762D01*
X125905682Y-97000000D01*
X125885044Y-96843238D01*
X125825713Y-96700000D01*
X133594318Y-96700000D01*
X133595379Y-96708059D01*
X133613894Y-96848702D01*
X133613895Y-96848708D01*
X133614956Y-96856762D01*
X133675464Y-97002841D01*
X133771718Y-97128282D01*
X133897159Y-97224536D01*
X134043238Y-97285044D01*
X134200000Y-97305682D01*
X134356762Y-97285044D01*
X134502841Y-97224536D01*
X134628282Y-97128282D01*
X134724536Y-97002841D01*
X134785044Y-96856762D01*
X134805682Y-96700000D01*
X134785044Y-96543238D01*
X134724536Y-96397159D01*
X134628282Y-96271718D01*
X134502841Y-96175464D01*
X134495333Y-96172354D01*
X134364271Y-96118066D01*
X134364268Y-96118065D01*
X134356762Y-96114956D01*
X134348708Y-96113895D01*
X134348702Y-96113894D01*
X134208059Y-96095379D01*
X134200000Y-96094318D01*
X134191941Y-96095379D01*
X134051297Y-96113894D01*
X134051289Y-96113896D01*
X134043238Y-96114956D01*
X134035733Y-96118064D01*
X134035728Y-96118066D01*
X133904666Y-96172354D01*
X133904662Y-96172355D01*
X133897159Y-96175464D01*
X133890714Y-96180408D01*
X133890711Y-96180411D01*
X133778164Y-96266771D01*
X133778160Y-96266774D01*
X133771718Y-96271718D01*
X133766774Y-96278160D01*
X133766771Y-96278164D01*
X133680411Y-96390711D01*
X133680408Y-96390714D01*
X133675464Y-96397159D01*
X133672355Y-96404662D01*
X133672354Y-96404666D01*
X133618066Y-96535728D01*
X133618064Y-96535733D01*
X133614956Y-96543238D01*
X133613896Y-96551289D01*
X133613894Y-96551297D01*
X133595702Y-96689482D01*
X133594318Y-96700000D01*
X125825713Y-96700000D01*
X125824536Y-96697159D01*
X125728282Y-96571718D01*
X125602841Y-96475464D01*
X125595333Y-96472354D01*
X125464271Y-96418066D01*
X125464268Y-96418065D01*
X125456762Y-96414956D01*
X125448708Y-96413895D01*
X125448702Y-96413894D01*
X125308059Y-96395379D01*
X125300000Y-96394318D01*
X125291941Y-96395379D01*
X125151297Y-96413894D01*
X125151289Y-96413896D01*
X125143238Y-96414956D01*
X125135733Y-96418064D01*
X125135728Y-96418066D01*
X125004666Y-96472354D01*
X125004662Y-96472355D01*
X124997159Y-96475464D01*
X124990714Y-96480408D01*
X124990711Y-96480411D01*
X124878164Y-96566771D01*
X124878160Y-96566774D01*
X124871718Y-96571718D01*
X124866774Y-96578160D01*
X124866771Y-96578164D01*
X124780411Y-96690711D01*
X124780408Y-96690714D01*
X124775464Y-96697159D01*
X124772355Y-96704662D01*
X124772354Y-96704666D01*
X124718066Y-96835728D01*
X124718064Y-96835733D01*
X124714956Y-96843238D01*
X124713896Y-96851289D01*
X124713894Y-96851297D01*
X124695702Y-96989482D01*
X124694318Y-97000000D01*
X121700000Y-97000000D01*
X121700000Y-93700000D01*
X124694318Y-93700000D01*
X124695379Y-93708059D01*
X124713894Y-93848702D01*
X124713895Y-93848708D01*
X124714956Y-93856762D01*
X124718065Y-93864268D01*
X124718066Y-93864271D01*
X124736713Y-93909288D01*
X124775464Y-94002841D01*
X124871718Y-94128282D01*
X124997159Y-94224536D01*
X125143238Y-94285044D01*
X125300000Y-94305682D01*
X125456762Y-94285044D01*
X125602841Y-94224536D01*
X125728282Y-94128282D01*
X125824536Y-94002841D01*
X125885044Y-93856762D01*
X125905682Y-93700000D01*
X125885044Y-93543238D01*
X125824536Y-93397159D01*
X125728282Y-93271718D01*
X125602841Y-93175464D01*
X125595333Y-93172354D01*
X125464271Y-93118066D01*
X125464268Y-93118065D01*
X125456762Y-93114956D01*
X125448708Y-93113895D01*
X125448702Y-93113894D01*
X125308059Y-93095379D01*
X125300000Y-93094318D01*
X125291941Y-93095379D01*
X125151297Y-93113894D01*
X125151289Y-93113896D01*
X125143238Y-93114956D01*
X125135733Y-93118064D01*
X125135728Y-93118066D01*
X125004666Y-93172354D01*
X125004662Y-93172355D01*
X124997159Y-93175464D01*
X124990714Y-93180408D01*
X124990711Y-93180411D01*
X124878164Y-93266771D01*
X124878160Y-93266774D01*
X124871718Y-93271718D01*
X124866774Y-93278160D01*
X124866771Y-93278164D01*
X124780411Y-93390711D01*
X124780408Y-93390714D01*
X124775464Y-93397159D01*
X124772355Y-93404662D01*
X124772354Y-93404666D01*
X124718066Y-93535728D01*
X124718064Y-93535733D01*
X124714956Y-93543238D01*
X124713896Y-93551289D01*
X124713894Y-93551297D01*
X124697958Y-93672354D01*
X124694318Y-93700000D01*
X121700000Y-93700000D01*
X121700000Y-92900000D01*
X122394318Y-92900000D01*
X122395379Y-92908059D01*
X122413894Y-93048702D01*
X122413895Y-93048708D01*
X122414956Y-93056762D01*
X122418065Y-93064268D01*
X122418066Y-93064271D01*
X122462836Y-93172354D01*
X122475464Y-93202841D01*
X122571718Y-93328282D01*
X122697159Y-93424536D01*
X122843238Y-93485044D01*
X123000000Y-93505682D01*
X123156762Y-93485044D01*
X123302841Y-93424536D01*
X123428282Y-93328282D01*
X123524536Y-93202841D01*
X123585044Y-93056762D01*
X123605682Y-92900000D01*
X123585044Y-92743238D01*
X123524536Y-92597159D01*
X123428282Y-92471718D01*
X123302841Y-92375464D01*
X123285157Y-92368139D01*
X123164271Y-92318066D01*
X123164268Y-92318065D01*
X123156762Y-92314956D01*
X123148708Y-92313895D01*
X123148702Y-92313894D01*
X123008059Y-92295379D01*
X123000000Y-92294318D01*
X122991941Y-92295379D01*
X122851297Y-92313894D01*
X122851289Y-92313896D01*
X122843238Y-92314956D01*
X122835733Y-92318064D01*
X122835728Y-92318066D01*
X122704666Y-92372354D01*
X122704662Y-92372355D01*
X122697159Y-92375464D01*
X122690714Y-92380408D01*
X122690711Y-92380411D01*
X122578164Y-92466771D01*
X122578160Y-92466774D01*
X122571718Y-92471718D01*
X122566774Y-92478160D01*
X122566771Y-92478164D01*
X122480411Y-92590711D01*
X122480408Y-92590714D01*
X122475464Y-92597159D01*
X122472355Y-92604662D01*
X122472354Y-92604666D01*
X122418066Y-92735728D01*
X122418064Y-92735733D01*
X122414956Y-92743238D01*
X122413896Y-92751289D01*
X122413894Y-92751297D01*
X122395853Y-92888342D01*
X122394318Y-92900000D01*
X121700000Y-92900000D01*
X121700000Y-92216326D01*
X121700000Y-92200000D01*
X121683674Y-92200000D01*
X121242071Y-92200000D01*
X121202212Y-92193419D01*
X121166585Y-92174376D01*
X121149218Y-92161050D01*
X121109288Y-92130410D01*
X121109283Y-92130407D01*
X121102841Y-92125464D01*
X121095332Y-92122353D01*
X121095331Y-92122353D01*
X120964271Y-92068066D01*
X120964268Y-92068065D01*
X120956762Y-92064956D01*
X120948708Y-92063895D01*
X120948702Y-92063894D01*
X120808059Y-92045379D01*
X120800000Y-92044318D01*
X120791941Y-92045379D01*
X120651297Y-92063894D01*
X120651289Y-92063896D01*
X120643238Y-92064956D01*
X120635733Y-92068064D01*
X120635728Y-92068066D01*
X120504668Y-92122353D01*
X120504663Y-92122355D01*
X120497159Y-92125464D01*
X120490720Y-92130404D01*
X120490711Y-92130410D01*
X120447677Y-92163433D01*
X120433414Y-92174376D01*
X120397788Y-92193419D01*
X120357929Y-92200000D01*
X120288631Y-92200000D01*
X120224279Y-92181994D01*
X120178615Y-92133206D01*
X120164902Y-92067805D01*
X120187121Y-92004784D01*
X120237539Y-91963492D01*
X120237529Y-91963473D01*
X120237630Y-91963417D01*
X120238818Y-91962444D01*
X120246734Y-91958973D01*
X120446234Y-91828633D01*
X120621560Y-91667235D01*
X120767929Y-91479179D01*
X120881349Y-91269597D01*
X120958726Y-91044206D01*
X120997950Y-90809152D01*
X120997950Y-90733660D01*
X121350393Y-90733660D01*
X121351645Y-90740763D01*
X121351646Y-90740771D01*
X121379413Y-90898240D01*
X121379414Y-90898244D01*
X121380668Y-90905354D01*
X121383527Y-90911982D01*
X121383528Y-90911985D01*
X121442655Y-91049059D01*
X121449721Y-91065438D01*
X121454034Y-91071231D01*
X121454035Y-91071233D01*
X121542984Y-91190711D01*
X121553832Y-91205283D01*
X121687386Y-91317349D01*
X121843185Y-91395594D01*
X122012829Y-91435800D01*
X122139837Y-91435800D01*
X122143436Y-91435800D01*
X122273164Y-91420637D01*
X122436993Y-91361008D01*
X122582654Y-91265205D01*
X122702296Y-91138393D01*
X122789467Y-90987407D01*
X122839469Y-90820388D01*
X122849607Y-90646340D01*
X122819332Y-90474646D01*
X122750279Y-90314562D01*
X122646168Y-90174717D01*
X122512614Y-90062651D01*
X122506163Y-90059411D01*
X122363265Y-89987645D01*
X122363262Y-89987644D01*
X122356815Y-89984406D01*
X122303280Y-89971718D01*
X122194198Y-89945865D01*
X122194194Y-89945864D01*
X122187171Y-89944200D01*
X122056564Y-89944200D01*
X122052999Y-89944616D01*
X122052993Y-89944617D01*
X121934003Y-89958525D01*
X121934000Y-89958525D01*
X121926836Y-89959363D01*
X121920057Y-89961830D01*
X121920054Y-89961831D01*
X121769792Y-90016522D01*
X121769788Y-90016523D01*
X121763007Y-90018992D01*
X121756980Y-90022955D01*
X121756970Y-90022961D01*
X121623382Y-90110824D01*
X121623376Y-90110828D01*
X121617346Y-90114795D01*
X121612393Y-90120044D01*
X121612388Y-90120049D01*
X121502661Y-90236352D01*
X121502657Y-90236356D01*
X121497704Y-90241607D01*
X121494095Y-90247857D01*
X121494092Y-90247862D01*
X121414143Y-90386339D01*
X121414140Y-90386343D01*
X121410533Y-90392593D01*
X121408463Y-90399505D01*
X121408462Y-90399509D01*
X121377527Y-90502841D01*
X121360531Y-90559612D01*
X121360111Y-90566815D01*
X121360111Y-90566818D01*
X121355479Y-90646340D01*
X121350393Y-90733660D01*
X120997950Y-90733660D01*
X120997950Y-90570848D01*
X120958726Y-90335794D01*
X120881349Y-90110403D01*
X120767929Y-89900821D01*
X120761436Y-89892479D01*
X120624710Y-89716812D01*
X120624709Y-89716811D01*
X120621560Y-89712765D01*
X120446234Y-89551367D01*
X120441950Y-89548568D01*
X120441946Y-89548565D01*
X120325296Y-89472354D01*
X120246734Y-89421027D01*
X120242044Y-89418970D01*
X120242039Y-89418967D01*
X120033198Y-89327361D01*
X120033199Y-89327361D01*
X120028502Y-89325301D01*
X120023532Y-89324042D01*
X120023531Y-89324042D01*
X119802464Y-89268060D01*
X119802457Y-89268058D01*
X119797490Y-89266801D01*
X119792378Y-89266377D01*
X119792370Y-89266376D01*
X119622038Y-89252262D01*
X119622022Y-89252261D01*
X119619472Y-89252050D01*
X119500528Y-89252050D01*
X119497978Y-89252261D01*
X119497961Y-89252262D01*
X119327629Y-89266376D01*
X119327619Y-89266377D01*
X119322510Y-89266801D01*
X119317544Y-89268058D01*
X119317535Y-89268060D01*
X119096468Y-89324042D01*
X119096463Y-89324043D01*
X119091498Y-89325301D01*
X119086804Y-89327359D01*
X119086801Y-89327361D01*
X118877960Y-89418967D01*
X118877950Y-89418972D01*
X118873266Y-89421027D01*
X118868980Y-89423826D01*
X118868971Y-89423832D01*
X118720772Y-89520655D01*
X118661657Y-89540540D01*
X118600340Y-89529131D01*
X118552332Y-89489316D01*
X118529781Y-89431165D01*
X118538389Y-89369395D01*
X118585044Y-89256762D01*
X118605682Y-89100000D01*
X118585044Y-88943238D01*
X118541228Y-88837458D01*
X118532620Y-88775688D01*
X118555171Y-88717538D01*
X118603179Y-88677722D01*
X118664497Y-88666314D01*
X118723611Y-88686198D01*
X118873266Y-88783973D01*
X119091498Y-88879699D01*
X119322510Y-88938199D01*
X119500528Y-88952950D01*
X119616902Y-88952950D01*
X119619472Y-88952950D01*
X119797490Y-88938199D01*
X120028502Y-88879699D01*
X120246734Y-88783973D01*
X120446234Y-88653633D01*
X120621560Y-88492235D01*
X120767929Y-88304179D01*
X120881349Y-88094597D01*
X120958726Y-87869206D01*
X120997950Y-87634152D01*
X120997950Y-87395848D01*
X120958726Y-87160794D01*
X120881349Y-86935403D01*
X120767929Y-86725821D01*
X120730292Y-86677465D01*
X120624710Y-86541812D01*
X120624709Y-86541811D01*
X120621560Y-86537765D01*
X120446234Y-86376367D01*
X120441950Y-86373568D01*
X120441946Y-86373565D01*
X120300276Y-86281008D01*
X120246734Y-86246027D01*
X120242044Y-86243970D01*
X120242039Y-86243967D01*
X120060350Y-86164271D01*
X120028502Y-86150301D01*
X120023532Y-86149042D01*
X120023531Y-86149042D01*
X119802464Y-86093060D01*
X119802457Y-86093058D01*
X119797490Y-86091801D01*
X119792378Y-86091377D01*
X119792370Y-86091376D01*
X119622038Y-86077262D01*
X119622022Y-86077261D01*
X119619472Y-86077050D01*
X119500528Y-86077050D01*
X119497978Y-86077261D01*
X119497961Y-86077262D01*
X119327629Y-86091376D01*
X119327619Y-86091377D01*
X119322510Y-86091801D01*
X119317544Y-86093058D01*
X119317535Y-86093060D01*
X119096468Y-86149042D01*
X119096463Y-86149043D01*
X119091498Y-86150301D01*
X119086804Y-86152359D01*
X119086801Y-86152361D01*
X118877960Y-86243967D01*
X118877950Y-86243972D01*
X118873266Y-86246027D01*
X118868978Y-86248828D01*
X118868977Y-86248829D01*
X118678053Y-86373565D01*
X118678043Y-86373572D01*
X118673766Y-86376367D01*
X118669999Y-86379834D01*
X118669996Y-86379837D01*
X118502213Y-86534291D01*
X118502208Y-86534295D01*
X118498440Y-86537765D01*
X118495296Y-86541804D01*
X118495289Y-86541812D01*
X118355221Y-86721772D01*
X118355213Y-86721783D01*
X118352071Y-86725821D01*
X118349632Y-86730327D01*
X118349628Y-86730334D01*
X118241089Y-86930896D01*
X118241084Y-86930906D01*
X118238651Y-86935403D01*
X118236990Y-86940239D01*
X118236986Y-86940250D01*
X118172130Y-87129171D01*
X118161274Y-87160794D01*
X118160431Y-87165840D01*
X118160429Y-87165852D01*
X118122894Y-87390785D01*
X118122893Y-87390795D01*
X118122050Y-87395848D01*
X118122050Y-87634152D01*
X118122893Y-87639205D01*
X118122894Y-87639214D01*
X118160429Y-87864147D01*
X118160431Y-87864156D01*
X118161274Y-87869206D01*
X118162939Y-87874058D01*
X118162940Y-87874059D01*
X118236986Y-88089749D01*
X118236989Y-88089756D01*
X118238651Y-88094597D01*
X118241086Y-88099097D01*
X118241089Y-88099103D01*
X118349628Y-88299665D01*
X118352071Y-88304179D01*
X118355217Y-88308221D01*
X118355221Y-88308227D01*
X118398896Y-88364340D01*
X118423890Y-88423640D01*
X118415798Y-88487481D01*
X118376799Y-88538669D01*
X118317397Y-88563419D01*
X118253589Y-88555063D01*
X118164271Y-88518066D01*
X118164268Y-88518065D01*
X118156762Y-88514956D01*
X118148708Y-88513895D01*
X118148702Y-88513894D01*
X118008059Y-88495379D01*
X118000000Y-88494318D01*
X117991941Y-88495379D01*
X117851297Y-88513894D01*
X117851289Y-88513896D01*
X117843238Y-88514956D01*
X117835733Y-88518064D01*
X117835728Y-88518066D01*
X117704666Y-88572354D01*
X117704662Y-88572355D01*
X117697159Y-88575464D01*
X117690712Y-88580410D01*
X117683673Y-88584475D01*
X117682543Y-88582519D01*
X117641282Y-88600656D01*
X117582482Y-88596788D01*
X117532107Y-88566214D01*
X115764315Y-86798422D01*
X115731235Y-86738898D01*
X115734577Y-86670882D01*
X115773332Y-86614887D01*
X115835811Y-86587802D01*
X115856762Y-86585044D01*
X116002841Y-86524536D01*
X116128282Y-86428282D01*
X116224536Y-86302841D01*
X116285044Y-86156762D01*
X116305682Y-86000000D01*
X116285044Y-85843238D01*
X116224536Y-85697159D01*
X116191158Y-85653660D01*
X120334393Y-85653660D01*
X120335645Y-85660763D01*
X120335646Y-85660771D01*
X120363413Y-85818240D01*
X120363414Y-85818244D01*
X120364668Y-85825354D01*
X120367527Y-85831982D01*
X120367528Y-85831985D01*
X120423879Y-85962623D01*
X120433721Y-85985438D01*
X120438034Y-85991231D01*
X120438035Y-85991233D01*
X120513843Y-86093060D01*
X120537832Y-86125283D01*
X120671386Y-86237349D01*
X120827185Y-86315594D01*
X120996829Y-86355800D01*
X121123837Y-86355800D01*
X121127436Y-86355800D01*
X121257164Y-86340637D01*
X121420993Y-86281008D01*
X121566654Y-86185205D01*
X121686296Y-86058393D01*
X121773467Y-85907407D01*
X121823469Y-85740388D01*
X121833607Y-85566340D01*
X121803332Y-85394646D01*
X121734279Y-85234562D01*
X121630168Y-85094717D01*
X121554024Y-85030824D01*
X121502145Y-84987292D01*
X121502144Y-84987291D01*
X121496614Y-84982651D01*
X121474845Y-84971718D01*
X121347265Y-84907645D01*
X121347262Y-84907644D01*
X121340815Y-84904406D01*
X121333790Y-84902741D01*
X121178198Y-84865865D01*
X121178194Y-84865864D01*
X121171171Y-84864200D01*
X121040564Y-84864200D01*
X121036999Y-84864616D01*
X121036993Y-84864617D01*
X120918003Y-84878525D01*
X120918000Y-84878525D01*
X120910836Y-84879363D01*
X120904057Y-84881830D01*
X120904054Y-84881831D01*
X120753792Y-84936522D01*
X120753788Y-84936523D01*
X120747007Y-84938992D01*
X120740980Y-84942955D01*
X120740970Y-84942961D01*
X120607382Y-85030824D01*
X120607376Y-85030828D01*
X120601346Y-85034795D01*
X120596393Y-85040044D01*
X120596388Y-85040049D01*
X120486661Y-85156352D01*
X120486657Y-85156356D01*
X120481704Y-85161607D01*
X120478095Y-85167857D01*
X120478092Y-85167862D01*
X120398143Y-85306339D01*
X120398140Y-85306343D01*
X120394533Y-85312593D01*
X120392463Y-85319505D01*
X120392462Y-85319509D01*
X120346704Y-85472354D01*
X120344531Y-85479612D01*
X120344111Y-85486815D01*
X120344111Y-85486818D01*
X120337136Y-85606574D01*
X120334393Y-85653660D01*
X116191158Y-85653660D01*
X116128282Y-85571718D01*
X116002841Y-85475464D01*
X115995333Y-85472354D01*
X115864271Y-85418066D01*
X115864268Y-85418065D01*
X115856762Y-85414956D01*
X115848708Y-85413895D01*
X115848702Y-85413894D01*
X115708059Y-85395379D01*
X115700000Y-85394318D01*
X115691941Y-85395379D01*
X115551297Y-85413894D01*
X115551289Y-85413896D01*
X115543238Y-85414956D01*
X115535733Y-85418064D01*
X115535728Y-85418066D01*
X115404666Y-85472354D01*
X115404662Y-85472355D01*
X115397159Y-85475464D01*
X115390714Y-85480408D01*
X115390711Y-85480411D01*
X115278164Y-85566771D01*
X115278160Y-85566774D01*
X115271718Y-85571718D01*
X115266774Y-85578160D01*
X115266771Y-85578164D01*
X115180411Y-85690711D01*
X115180408Y-85690714D01*
X115175464Y-85697159D01*
X115172355Y-85704662D01*
X115172354Y-85704666D01*
X115118066Y-85835728D01*
X115118064Y-85835733D01*
X115114956Y-85843238D01*
X115113895Y-85851292D01*
X115113893Y-85851302D01*
X115112196Y-85864193D01*
X115085109Y-85926671D01*
X115029114Y-85965423D01*
X114961099Y-85968763D01*
X114901577Y-85935684D01*
X114840940Y-85875047D01*
X114814060Y-85834819D01*
X114807193Y-85800300D01*
X114805682Y-85800500D01*
X114786105Y-85651797D01*
X114786104Y-85651796D01*
X114785044Y-85643738D01*
X114724536Y-85497659D01*
X114628282Y-85372218D01*
X114502841Y-85275964D01*
X114423834Y-85243238D01*
X114364271Y-85218566D01*
X114364268Y-85218565D01*
X114356762Y-85215456D01*
X114348703Y-85214395D01*
X114247654Y-85201091D01*
X114197214Y-85182732D01*
X114159259Y-85144776D01*
X114140901Y-85094338D01*
X114128510Y-85000212D01*
X114068002Y-84854133D01*
X113971748Y-84728692D01*
X113944858Y-84708059D01*
X113852754Y-84637385D01*
X113846307Y-84632438D01*
X113836274Y-84628282D01*
X113707737Y-84575040D01*
X113707734Y-84575039D01*
X113700228Y-84571930D01*
X113692174Y-84570869D01*
X113692168Y-84570868D01*
X113551525Y-84552353D01*
X113543466Y-84551292D01*
X113535407Y-84552353D01*
X113394763Y-84570868D01*
X113394755Y-84570870D01*
X113386704Y-84571930D01*
X113379199Y-84575038D01*
X113379194Y-84575040D01*
X113248132Y-84629328D01*
X113248128Y-84629329D01*
X113240625Y-84632438D01*
X113234180Y-84637382D01*
X113234177Y-84637385D01*
X113121630Y-84723745D01*
X113121626Y-84723748D01*
X113115184Y-84728692D01*
X113110240Y-84735134D01*
X113110237Y-84735138D01*
X113023877Y-84847685D01*
X113023874Y-84847688D01*
X113018930Y-84854133D01*
X113015821Y-84861636D01*
X113015820Y-84861640D01*
X112961532Y-84992702D01*
X112961530Y-84992707D01*
X112958422Y-85000212D01*
X112957362Y-85008263D01*
X112957360Y-85008271D01*
X112944670Y-85104666D01*
X112937784Y-85156974D01*
X112938845Y-85165033D01*
X112957360Y-85305676D01*
X112957361Y-85305682D01*
X112958422Y-85313736D01*
X112961531Y-85321242D01*
X112961532Y-85321245D01*
X112991800Y-85394318D01*
X113018930Y-85459815D01*
X113028815Y-85472697D01*
X113115184Y-85585256D01*
X113113974Y-85586184D01*
X113133527Y-85615447D01*
X113142966Y-85662900D01*
X113142966Y-86480033D01*
X113142966Y-86606899D01*
X113145981Y-86616180D01*
X113145982Y-86616183D01*
X113149812Y-86627972D01*
X113154353Y-86646884D01*
X113157820Y-86668770D01*
X113162249Y-86677462D01*
X113162250Y-86677465D01*
X113167878Y-86688510D01*
X113175323Y-86706485D01*
X113182170Y-86727556D01*
X113187902Y-86735446D01*
X113187906Y-86735453D01*
X113195192Y-86745481D01*
X113205355Y-86762064D01*
X113215416Y-86781808D01*
X113222316Y-86788708D01*
X113237979Y-86804371D01*
X113237982Y-86804375D01*
X113435242Y-87001635D01*
X113468321Y-87061157D01*
X113464981Y-87129171D01*
X113426229Y-87185166D01*
X113363753Y-87212254D01*
X113351301Y-87213893D01*
X113351290Y-87213895D01*
X113343238Y-87214956D01*
X113335733Y-87218064D01*
X113335728Y-87218066D01*
X113204666Y-87272354D01*
X113204662Y-87272355D01*
X113197159Y-87275464D01*
X113190714Y-87280408D01*
X113190711Y-87280411D01*
X113078164Y-87366771D01*
X113078160Y-87366774D01*
X113071718Y-87371718D01*
X113066774Y-87378160D01*
X113066771Y-87378164D01*
X112980411Y-87490711D01*
X112980408Y-87490714D01*
X112975464Y-87497159D01*
X112972355Y-87504662D01*
X112972354Y-87504666D01*
X112918066Y-87635728D01*
X112918064Y-87635733D01*
X112914956Y-87643238D01*
X112913896Y-87651289D01*
X112913894Y-87651297D01*
X112910713Y-87675464D01*
X112894318Y-87800000D01*
X112895379Y-87808059D01*
X112913894Y-87948702D01*
X112913895Y-87948708D01*
X112914956Y-87956762D01*
X112918065Y-87964268D01*
X112918066Y-87964271D01*
X112959771Y-88064956D01*
X112975464Y-88102841D01*
X112980411Y-88109288D01*
X113061997Y-88215614D01*
X113071718Y-88228282D01*
X113197159Y-88324536D01*
X113343238Y-88385044D01*
X113500000Y-88405682D01*
X113656762Y-88385044D01*
X113802841Y-88324536D01*
X113928282Y-88228282D01*
X114024536Y-88102841D01*
X114085044Y-87956762D01*
X114087744Y-87936252D01*
X114114830Y-87873773D01*
X114170824Y-87835019D01*
X114238840Y-87831677D01*
X114298364Y-87864757D01*
X115263181Y-88829574D01*
X115290061Y-88869802D01*
X115299500Y-88917255D01*
X115299500Y-92076000D01*
X115282887Y-92138000D01*
X115237500Y-92183387D01*
X115175500Y-92200000D01*
X114117755Y-92200000D01*
X114070302Y-92190561D01*
X114030074Y-92163681D01*
X113560916Y-91694523D01*
X113560915Y-91694522D01*
X113560909Y-91694516D01*
X113560905Y-91694513D01*
X113538342Y-91671950D01*
X113529649Y-91667520D01*
X113529647Y-91667519D01*
X113518598Y-91661889D01*
X113502015Y-91651726D01*
X113491987Y-91644440D01*
X113491980Y-91644436D01*
X113484090Y-91638704D01*
X113463019Y-91631857D01*
X113445044Y-91624412D01*
X113433999Y-91618784D01*
X113433996Y-91618783D01*
X113425304Y-91614354D01*
X113415667Y-91612827D01*
X113415666Y-91612827D01*
X113403418Y-91610887D01*
X113384506Y-91606346D01*
X113372717Y-91602516D01*
X113372714Y-91602515D01*
X113363433Y-91599500D01*
X113353673Y-91599500D01*
X97541275Y-91599500D01*
X97521878Y-91597973D01*
X97509641Y-91596035D01*
X97500000Y-91594508D01*
X97490359Y-91596035D01*
X97478122Y-91597973D01*
X97458725Y-91599500D01*
X96527526Y-91599500D01*
X96470269Y-91585489D01*
X96425951Y-91546623D01*
X96404587Y-91491685D01*
X96402346Y-91474665D01*
X96385044Y-91343238D01*
X96324536Y-91197159D01*
X96228282Y-91071718D01*
X96197861Y-91048375D01*
X96162136Y-91004844D01*
X96149348Y-90950000D01*
X96162136Y-90895156D01*
X96197862Y-90851624D01*
X96228282Y-90828282D01*
X96324536Y-90702841D01*
X96385044Y-90556762D01*
X96405682Y-90400000D01*
X96385044Y-90243238D01*
X96324536Y-90097159D01*
X96249983Y-90000000D01*
X107194318Y-90000000D01*
X107195379Y-90008059D01*
X107213894Y-90148702D01*
X107213895Y-90148708D01*
X107214956Y-90156762D01*
X107218065Y-90164268D01*
X107218066Y-90164271D01*
X107252691Y-90247862D01*
X107275464Y-90302841D01*
X107297025Y-90330940D01*
X107350016Y-90400000D01*
X107371718Y-90428282D01*
X107497159Y-90524536D01*
X107643238Y-90585044D01*
X107800000Y-90605682D01*
X107956762Y-90585044D01*
X108102841Y-90524536D01*
X108228282Y-90428282D01*
X108324536Y-90302841D01*
X108385044Y-90156762D01*
X108405682Y-90000000D01*
X108385044Y-89843238D01*
X108324536Y-89697159D01*
X108228282Y-89571718D01*
X108102841Y-89475464D01*
X108085157Y-89468139D01*
X107964271Y-89418066D01*
X107964268Y-89418065D01*
X107956762Y-89414956D01*
X107948708Y-89413895D01*
X107948702Y-89413894D01*
X107808059Y-89395379D01*
X107800000Y-89394318D01*
X107791941Y-89395379D01*
X107651297Y-89413894D01*
X107651289Y-89413896D01*
X107643238Y-89414956D01*
X107635733Y-89418064D01*
X107635728Y-89418066D01*
X107504666Y-89472354D01*
X107504662Y-89472355D01*
X107497159Y-89475464D01*
X107490714Y-89480408D01*
X107490711Y-89480411D01*
X107378164Y-89566771D01*
X107378160Y-89566774D01*
X107371718Y-89571718D01*
X107366774Y-89578160D01*
X107366771Y-89578164D01*
X107280411Y-89690711D01*
X107280408Y-89690714D01*
X107275464Y-89697159D01*
X107272355Y-89704662D01*
X107272354Y-89704666D01*
X107218066Y-89835728D01*
X107218064Y-89835733D01*
X107214956Y-89843238D01*
X107213896Y-89851289D01*
X107213894Y-89851297D01*
X107198041Y-89971718D01*
X107194318Y-90000000D01*
X96249983Y-90000000D01*
X96228282Y-89971718D01*
X96102841Y-89875464D01*
X96075819Y-89864271D01*
X95964271Y-89818066D01*
X95964268Y-89818065D01*
X95956762Y-89814956D01*
X95948708Y-89813895D01*
X95948702Y-89813894D01*
X95808059Y-89795379D01*
X95800000Y-89794318D01*
X95791941Y-89795379D01*
X95651297Y-89813894D01*
X95651289Y-89813896D01*
X95643238Y-89814956D01*
X95635733Y-89818064D01*
X95635728Y-89818066D01*
X95504666Y-89872354D01*
X95504662Y-89872355D01*
X95497159Y-89875464D01*
X95490714Y-89880408D01*
X95490711Y-89880411D01*
X95378164Y-89966771D01*
X95378160Y-89966774D01*
X95371718Y-89971718D01*
X95366774Y-89978160D01*
X95366771Y-89978164D01*
X95280411Y-90090711D01*
X95280408Y-90090714D01*
X95275464Y-90097159D01*
X95272355Y-90104662D01*
X95272354Y-90104666D01*
X95218066Y-90235728D01*
X95218064Y-90235733D01*
X95214956Y-90243238D01*
X95213896Y-90251289D01*
X95213894Y-90251297D01*
X95202105Y-90340852D01*
X95194318Y-90400000D01*
X95195379Y-90408059D01*
X95213894Y-90548702D01*
X95213895Y-90548708D01*
X95214956Y-90556762D01*
X95218065Y-90564268D01*
X95218066Y-90564271D01*
X95272354Y-90695333D01*
X95275464Y-90702841D01*
X95371718Y-90828282D01*
X95378164Y-90833228D01*
X95402139Y-90851625D01*
X95437864Y-90895157D01*
X95450651Y-90950000D01*
X95437864Y-91004843D01*
X95402139Y-91048375D01*
X95378163Y-91066772D01*
X95378160Y-91066774D01*
X95371718Y-91071718D01*
X95366774Y-91078160D01*
X95366771Y-91078164D01*
X95280411Y-91190711D01*
X95280408Y-91190714D01*
X95275464Y-91197159D01*
X95272355Y-91204662D01*
X95272354Y-91204666D01*
X95218066Y-91335728D01*
X95218064Y-91335733D01*
X95214956Y-91343238D01*
X95213896Y-91351289D01*
X95213894Y-91351297D01*
X95205091Y-91418168D01*
X95194318Y-91500000D01*
X95195379Y-91508059D01*
X95213894Y-91648702D01*
X95213895Y-91648708D01*
X95214956Y-91656762D01*
X95218065Y-91664268D01*
X95218066Y-91664271D01*
X95224105Y-91678850D01*
X95275464Y-91802841D01*
X95371718Y-91928282D01*
X95497159Y-92024536D01*
X95643238Y-92085044D01*
X95651296Y-92086104D01*
X95651297Y-92086105D01*
X95800000Y-92105682D01*
X95799800Y-92107193D01*
X95834319Y-92114060D01*
X95874546Y-92140939D01*
X96039091Y-92305484D01*
X96039094Y-92305486D01*
X96061658Y-92328050D01*
X96070353Y-92332480D01*
X96070354Y-92332481D01*
X96081396Y-92338107D01*
X96097980Y-92348269D01*
X96115911Y-92361296D01*
X96136982Y-92368142D01*
X96154951Y-92375585D01*
X96174696Y-92385646D01*
X96196576Y-92389111D01*
X96215501Y-92393655D01*
X96236567Y-92400500D01*
X96268481Y-92400500D01*
X96363433Y-92400500D01*
X96975500Y-92400500D01*
X97037500Y-92417113D01*
X97082887Y-92462500D01*
X97099500Y-92524500D01*
X97099500Y-93094074D01*
X97090061Y-93141527D01*
X97070508Y-93170789D01*
X97071718Y-93171718D01*
X96980411Y-93290711D01*
X96980408Y-93290714D01*
X96975464Y-93297159D01*
X96972357Y-93304658D01*
X96972351Y-93304670D01*
X96949239Y-93360468D01*
X96910164Y-93411391D01*
X96850863Y-93435953D01*
X96787227Y-93427575D01*
X96756762Y-93414956D01*
X96748708Y-93413895D01*
X96748702Y-93413894D01*
X96608059Y-93395379D01*
X96600000Y-93394318D01*
X96591941Y-93395379D01*
X96451297Y-93413894D01*
X96451289Y-93413896D01*
X96443238Y-93414956D01*
X96435733Y-93418064D01*
X96435728Y-93418066D01*
X96304666Y-93472354D01*
X96304662Y-93472355D01*
X96297159Y-93475464D01*
X96290714Y-93480408D01*
X96290711Y-93480411D01*
X96178164Y-93566771D01*
X96178160Y-93566774D01*
X96171718Y-93571718D01*
X96166774Y-93578160D01*
X96166771Y-93578164D01*
X96080411Y-93690711D01*
X96080408Y-93690714D01*
X96075464Y-93697159D01*
X96072355Y-93704662D01*
X96072354Y-93704666D01*
X96018066Y-93835728D01*
X96018064Y-93835733D01*
X96014956Y-93843238D01*
X96013896Y-93851289D01*
X96013894Y-93851297D01*
X95995702Y-93989482D01*
X95994318Y-94000000D01*
X95995379Y-94008059D01*
X96013894Y-94148702D01*
X96013895Y-94148708D01*
X96014956Y-94156762D01*
X96018065Y-94164268D01*
X96018066Y-94164271D01*
X96066804Y-94281933D01*
X96075464Y-94302841D01*
X96171718Y-94428282D01*
X96297159Y-94524536D01*
X96443238Y-94585044D01*
X96600000Y-94605682D01*
X96756762Y-94585044D01*
X96902841Y-94524536D01*
X97028282Y-94428282D01*
X97124536Y-94302841D01*
X97150759Y-94239532D01*
X97189834Y-94188609D01*
X97249137Y-94164046D01*
X97312771Y-94172424D01*
X97343238Y-94185044D01*
X97500000Y-94205682D01*
X97656762Y-94185044D01*
X97802841Y-94124536D01*
X97928282Y-94028282D01*
X98024536Y-93902841D01*
X98085044Y-93756762D01*
X98105682Y-93600000D01*
X98085044Y-93443238D01*
X98024536Y-93297159D01*
X97928282Y-93171718D01*
X97928281Y-93171718D01*
X97929491Y-93170789D01*
X97909939Y-93141527D01*
X97900500Y-93094074D01*
X97900500Y-92524500D01*
X97917113Y-92462500D01*
X97962500Y-92417113D01*
X98024500Y-92400500D01*
X104576000Y-92400500D01*
X104638000Y-92417113D01*
X104683387Y-92462500D01*
X104700000Y-92524500D01*
X104700000Y-100076000D01*
X104683387Y-100138000D01*
X104638000Y-100183387D01*
X104576000Y-100200000D01*
X87324000Y-100200000D01*
X87262000Y-100183387D01*
X87216613Y-100138000D01*
X87200000Y-100076000D01*
X87200000Y-98100000D01*
X91594318Y-98100000D01*
X91595379Y-98108059D01*
X91613894Y-98248702D01*
X91613895Y-98248708D01*
X91614956Y-98256762D01*
X91618065Y-98264268D01*
X91618066Y-98264271D01*
X91656377Y-98356762D01*
X91675464Y-98402841D01*
X91771718Y-98528282D01*
X91897159Y-98624536D01*
X92043238Y-98685044D01*
X92200000Y-98705682D01*
X92356762Y-98685044D01*
X92502841Y-98624536D01*
X92628282Y-98528282D01*
X92724536Y-98402841D01*
X92725713Y-98400000D01*
X94594318Y-98400000D01*
X94595379Y-98408059D01*
X94613894Y-98548702D01*
X94613895Y-98548708D01*
X94614956Y-98556762D01*
X94618065Y-98564268D01*
X94618066Y-98564271D01*
X94666804Y-98681933D01*
X94675464Y-98702841D01*
X94771718Y-98828282D01*
X94897159Y-98924536D01*
X95043238Y-98985044D01*
X95200000Y-99005682D01*
X95356762Y-98985044D01*
X95502841Y-98924536D01*
X95628282Y-98828282D01*
X95724536Y-98702841D01*
X95785044Y-98556762D01*
X95805682Y-98400000D01*
X95785044Y-98243238D01*
X95724536Y-98097159D01*
X95628282Y-97971718D01*
X95502841Y-97875464D01*
X95425041Y-97843238D01*
X95364271Y-97818066D01*
X95364268Y-97818065D01*
X95356762Y-97814956D01*
X95348708Y-97813895D01*
X95348702Y-97813894D01*
X95208059Y-97795379D01*
X95200000Y-97794318D01*
X95191941Y-97795379D01*
X95051297Y-97813894D01*
X95051289Y-97813896D01*
X95043238Y-97814956D01*
X95035733Y-97818064D01*
X95035728Y-97818066D01*
X94904666Y-97872354D01*
X94904662Y-97872355D01*
X94897159Y-97875464D01*
X94890714Y-97880408D01*
X94890711Y-97880411D01*
X94778164Y-97966771D01*
X94778160Y-97966774D01*
X94771718Y-97971718D01*
X94766774Y-97978160D01*
X94766771Y-97978164D01*
X94680411Y-98090711D01*
X94680408Y-98090714D01*
X94675464Y-98097159D01*
X94672355Y-98104662D01*
X94672354Y-98104666D01*
X94618066Y-98235728D01*
X94618064Y-98235733D01*
X94614956Y-98243238D01*
X94613896Y-98251289D01*
X94613894Y-98251297D01*
X94607109Y-98302841D01*
X94594318Y-98400000D01*
X92725713Y-98400000D01*
X92785044Y-98256762D01*
X92805682Y-98100000D01*
X92785044Y-97943238D01*
X92724536Y-97797159D01*
X92628282Y-97671718D01*
X92502841Y-97575464D01*
X92495333Y-97572354D01*
X92364271Y-97518066D01*
X92364268Y-97518065D01*
X92356762Y-97514956D01*
X92348708Y-97513895D01*
X92348702Y-97513894D01*
X92208059Y-97495379D01*
X92200000Y-97494318D01*
X92191941Y-97495379D01*
X92051297Y-97513894D01*
X92051289Y-97513896D01*
X92043238Y-97514956D01*
X92035733Y-97518064D01*
X92035728Y-97518066D01*
X91904666Y-97572354D01*
X91904662Y-97572355D01*
X91897159Y-97575464D01*
X91890714Y-97580408D01*
X91890711Y-97580411D01*
X91778164Y-97666771D01*
X91778160Y-97666774D01*
X91771718Y-97671718D01*
X91766774Y-97678160D01*
X91766771Y-97678164D01*
X91680411Y-97790711D01*
X91680408Y-97790714D01*
X91675464Y-97797159D01*
X91672355Y-97804662D01*
X91672354Y-97804666D01*
X91618066Y-97935728D01*
X91618064Y-97935733D01*
X91614956Y-97943238D01*
X91613896Y-97951289D01*
X91613894Y-97951297D01*
X91595702Y-98089482D01*
X91594318Y-98100000D01*
X87200000Y-98100000D01*
X87200000Y-94200000D01*
X91594318Y-94200000D01*
X91595379Y-94208059D01*
X91613894Y-94348702D01*
X91613895Y-94348708D01*
X91614956Y-94356762D01*
X91618065Y-94364268D01*
X91618066Y-94364271D01*
X91646629Y-94433228D01*
X91675464Y-94502841D01*
X91771718Y-94628282D01*
X91897159Y-94724536D01*
X92043238Y-94785044D01*
X92200000Y-94805682D01*
X92356762Y-94785044D01*
X92502841Y-94724536D01*
X92628282Y-94628282D01*
X92724536Y-94502841D01*
X92785044Y-94356762D01*
X92805682Y-94200000D01*
X92785044Y-94043238D01*
X92724536Y-93897159D01*
X92628282Y-93771718D01*
X92502841Y-93675464D01*
X92495333Y-93672354D01*
X92364271Y-93618066D01*
X92364268Y-93618065D01*
X92356762Y-93614956D01*
X92348708Y-93613895D01*
X92348702Y-93613894D01*
X92208059Y-93595379D01*
X92200000Y-93594318D01*
X92191941Y-93595379D01*
X92051297Y-93613894D01*
X92051289Y-93613896D01*
X92043238Y-93614956D01*
X92035733Y-93618064D01*
X92035728Y-93618066D01*
X91904666Y-93672354D01*
X91904662Y-93672355D01*
X91897159Y-93675464D01*
X91890714Y-93680408D01*
X91890711Y-93680411D01*
X91778164Y-93766771D01*
X91778160Y-93766774D01*
X91771718Y-93771718D01*
X91766774Y-93778160D01*
X91766771Y-93778164D01*
X91680411Y-93890711D01*
X91680408Y-93890714D01*
X91675464Y-93897159D01*
X91672355Y-93904662D01*
X91672354Y-93904666D01*
X91618066Y-94035728D01*
X91618064Y-94035733D01*
X91614956Y-94043238D01*
X91613896Y-94051289D01*
X91613894Y-94051297D01*
X91596696Y-94181934D01*
X91594318Y-94200000D01*
X87200000Y-94200000D01*
X87200000Y-89300000D01*
X92094318Y-89300000D01*
X92095379Y-89308059D01*
X92113894Y-89448702D01*
X92113895Y-89448708D01*
X92114956Y-89456762D01*
X92118065Y-89464268D01*
X92118066Y-89464271D01*
X92152982Y-89548565D01*
X92175464Y-89602841D01*
X92180411Y-89609288D01*
X92250016Y-89700000D01*
X92271718Y-89728282D01*
X92397159Y-89824536D01*
X92543238Y-89885044D01*
X92700000Y-89905682D01*
X92856762Y-89885044D01*
X93002841Y-89824536D01*
X93128282Y-89728282D01*
X93224536Y-89602841D01*
X93285044Y-89456762D01*
X93305682Y-89300000D01*
X93285044Y-89143238D01*
X93224536Y-88997159D01*
X93128282Y-88871718D01*
X93002841Y-88775464D01*
X92995333Y-88772354D01*
X92864271Y-88718066D01*
X92864268Y-88718065D01*
X92856762Y-88714956D01*
X92848708Y-88713895D01*
X92848702Y-88713894D01*
X92708059Y-88695379D01*
X92700000Y-88694318D01*
X92691941Y-88695379D01*
X92551297Y-88713894D01*
X92551289Y-88713896D01*
X92543238Y-88714956D01*
X92535733Y-88718064D01*
X92535728Y-88718066D01*
X92404666Y-88772354D01*
X92404662Y-88772355D01*
X92397159Y-88775464D01*
X92390714Y-88780408D01*
X92390711Y-88780411D01*
X92278164Y-88866771D01*
X92278160Y-88866774D01*
X92271718Y-88871718D01*
X92266774Y-88878160D01*
X92266771Y-88878164D01*
X92180411Y-88990711D01*
X92180408Y-88990714D01*
X92175464Y-88997159D01*
X92172355Y-89004662D01*
X92172354Y-89004666D01*
X92118066Y-89135728D01*
X92118064Y-89135733D01*
X92114956Y-89143238D01*
X92113896Y-89151289D01*
X92113894Y-89151297D01*
X92098689Y-89266801D01*
X92094318Y-89300000D01*
X87200000Y-89300000D01*
X87200000Y-88650000D01*
X110744318Y-88650000D01*
X110745379Y-88658059D01*
X110763894Y-88798702D01*
X110763895Y-88798708D01*
X110764956Y-88806762D01*
X110768065Y-88814268D01*
X110768066Y-88814271D01*
X110818877Y-88936939D01*
X110825464Y-88952841D01*
X110921718Y-89078282D01*
X111047159Y-89174536D01*
X111193238Y-89235044D01*
X111350000Y-89255682D01*
X111506762Y-89235044D01*
X111652841Y-89174536D01*
X111778282Y-89078282D01*
X111874536Y-88952841D01*
X111935044Y-88806762D01*
X111955682Y-88650000D01*
X111935044Y-88493238D01*
X111874536Y-88347159D01*
X111778282Y-88221718D01*
X111749978Y-88200000D01*
X111659288Y-88130411D01*
X111652841Y-88125464D01*
X111613789Y-88109288D01*
X111514271Y-88068066D01*
X111514268Y-88068065D01*
X111506762Y-88064956D01*
X111498708Y-88063895D01*
X111498702Y-88063894D01*
X111358059Y-88045379D01*
X111350000Y-88044318D01*
X111341941Y-88045379D01*
X111201297Y-88063894D01*
X111201289Y-88063896D01*
X111193238Y-88064956D01*
X111185733Y-88068064D01*
X111185728Y-88068066D01*
X111054666Y-88122354D01*
X111054662Y-88122355D01*
X111047159Y-88125464D01*
X111040714Y-88130408D01*
X111040711Y-88130411D01*
X110928164Y-88216771D01*
X110928160Y-88216774D01*
X110921718Y-88221718D01*
X110916774Y-88228160D01*
X110916771Y-88228164D01*
X110830411Y-88340711D01*
X110830408Y-88340714D01*
X110825464Y-88347159D01*
X110822355Y-88354662D01*
X110822354Y-88354666D01*
X110768066Y-88485728D01*
X110768064Y-88485733D01*
X110764956Y-88493238D01*
X110763896Y-88501289D01*
X110763894Y-88501297D01*
X110753202Y-88582519D01*
X110744318Y-88650000D01*
X87200000Y-88650000D01*
X87200000Y-85400000D01*
X91894318Y-85400000D01*
X91895379Y-85408059D01*
X91913894Y-85548702D01*
X91913895Y-85548708D01*
X91914956Y-85556762D01*
X91918065Y-85564268D01*
X91918066Y-85564271D01*
X91972354Y-85695333D01*
X91975464Y-85702841D01*
X91980411Y-85709288D01*
X92064012Y-85818240D01*
X92071718Y-85828282D01*
X92197159Y-85924536D01*
X92343238Y-85985044D01*
X92500000Y-86005682D01*
X92656762Y-85985044D01*
X92802841Y-85924536D01*
X92928282Y-85828282D01*
X93024536Y-85702841D01*
X93085044Y-85556762D01*
X93105682Y-85400000D01*
X93085044Y-85243238D01*
X93024536Y-85097159D01*
X92928282Y-84971718D01*
X92802841Y-84875464D01*
X92775819Y-84864271D01*
X92664271Y-84818066D01*
X92664268Y-84818065D01*
X92656762Y-84814956D01*
X92648708Y-84813895D01*
X92648702Y-84813894D01*
X92508059Y-84795379D01*
X92500000Y-84794318D01*
X92491941Y-84795379D01*
X92351297Y-84813894D01*
X92351289Y-84813896D01*
X92343238Y-84814956D01*
X92335733Y-84818064D01*
X92335728Y-84818066D01*
X92204666Y-84872354D01*
X92204662Y-84872355D01*
X92197159Y-84875464D01*
X92190714Y-84880408D01*
X92190711Y-84880411D01*
X92078164Y-84966771D01*
X92078160Y-84966774D01*
X92071718Y-84971718D01*
X92066774Y-84978160D01*
X92066771Y-84978164D01*
X91980411Y-85090711D01*
X91980408Y-85090714D01*
X91975464Y-85097159D01*
X91972355Y-85104662D01*
X91972354Y-85104666D01*
X91918066Y-85235728D01*
X91918064Y-85235733D01*
X91914956Y-85243238D01*
X91913896Y-85251289D01*
X91913894Y-85251297D01*
X91897127Y-85378664D01*
X91894318Y-85400000D01*
X87200000Y-85400000D01*
X87200000Y-84700000D01*
X106894318Y-84700000D01*
X106895379Y-84708059D01*
X106913894Y-84848702D01*
X106913895Y-84848708D01*
X106914956Y-84856762D01*
X106918065Y-84864268D01*
X106918066Y-84864271D01*
X106925340Y-84881831D01*
X106975464Y-85002841D01*
X107071718Y-85128282D01*
X107197159Y-85224536D01*
X107343238Y-85285044D01*
X107500000Y-85305682D01*
X107656762Y-85285044D01*
X107802841Y-85224536D01*
X107928282Y-85128282D01*
X108024536Y-85002841D01*
X108085044Y-84856762D01*
X108105682Y-84700000D01*
X108085044Y-84543238D01*
X108024536Y-84397159D01*
X107928282Y-84271718D01*
X107802841Y-84175464D01*
X107795333Y-84172354D01*
X107664271Y-84118066D01*
X107664268Y-84118065D01*
X107656762Y-84114956D01*
X107648708Y-84113895D01*
X107648702Y-84113894D01*
X107508059Y-84095379D01*
X107500000Y-84094318D01*
X107491941Y-84095379D01*
X107351297Y-84113894D01*
X107351289Y-84113896D01*
X107343238Y-84114956D01*
X107335733Y-84118064D01*
X107335728Y-84118066D01*
X107204666Y-84172354D01*
X107204662Y-84172355D01*
X107197159Y-84175464D01*
X107190714Y-84180408D01*
X107190711Y-84180411D01*
X107078164Y-84266771D01*
X107078160Y-84266774D01*
X107071718Y-84271718D01*
X107066774Y-84278160D01*
X107066771Y-84278164D01*
X106980411Y-84390711D01*
X106980408Y-84390714D01*
X106975464Y-84397159D01*
X106972355Y-84404662D01*
X106972354Y-84404666D01*
X106918066Y-84535728D01*
X106918064Y-84535733D01*
X106914956Y-84543238D01*
X106894318Y-84700000D01*
X87200000Y-84700000D01*
X87200000Y-82900000D01*
X88194318Y-82900000D01*
X88195379Y-82908059D01*
X88213894Y-83048702D01*
X88213895Y-83048708D01*
X88214956Y-83056762D01*
X88218065Y-83064268D01*
X88218066Y-83064271D01*
X88236713Y-83109288D01*
X88275464Y-83202841D01*
X88280411Y-83209288D01*
X88350016Y-83300000D01*
X88371718Y-83328282D01*
X88497159Y-83424536D01*
X88643238Y-83485044D01*
X88800000Y-83505682D01*
X88956762Y-83485044D01*
X89102841Y-83424536D01*
X89228282Y-83328282D01*
X89324536Y-83202841D01*
X89385044Y-83056762D01*
X89405682Y-82900000D01*
X89392517Y-82800000D01*
X102394318Y-82800000D01*
X102395379Y-82808059D01*
X102413894Y-82948702D01*
X102413895Y-82948708D01*
X102414956Y-82956762D01*
X102418065Y-82964268D01*
X102418066Y-82964271D01*
X102432866Y-83000000D01*
X102475464Y-83102841D01*
X102571718Y-83228282D01*
X102697159Y-83324536D01*
X102843238Y-83385044D01*
X103000000Y-83405682D01*
X103156762Y-83385044D01*
X103302841Y-83324536D01*
X103428282Y-83228282D01*
X103524536Y-83102841D01*
X103567134Y-83000000D01*
X109594318Y-83000000D01*
X109595379Y-83008059D01*
X109613894Y-83148702D01*
X109613895Y-83148708D01*
X109614956Y-83156762D01*
X109618065Y-83164268D01*
X109618066Y-83164271D01*
X109665225Y-83278122D01*
X109675464Y-83302841D01*
X109771718Y-83428282D01*
X109897159Y-83524536D01*
X110043238Y-83585044D01*
X110200000Y-83605682D01*
X110356762Y-83585044D01*
X110502841Y-83524536D01*
X110628282Y-83428282D01*
X110724536Y-83302841D01*
X110785044Y-83156762D01*
X110805682Y-83000000D01*
X110785044Y-82843238D01*
X110724536Y-82697159D01*
X110640717Y-82587924D01*
X110616155Y-82528623D01*
X110624534Y-82464985D01*
X110663609Y-82414062D01*
X110722906Y-82389501D01*
X110756762Y-82385044D01*
X110902841Y-82324536D01*
X111028282Y-82228282D01*
X111051624Y-82197861D01*
X111095156Y-82162136D01*
X111150000Y-82149348D01*
X111204844Y-82162136D01*
X111248375Y-82197861D01*
X111271718Y-82228282D01*
X111397159Y-82324536D01*
X111543238Y-82385044D01*
X111700000Y-82405682D01*
X111856762Y-82385044D01*
X112002841Y-82324536D01*
X112128282Y-82228282D01*
X112151624Y-82197861D01*
X112195156Y-82162136D01*
X112250000Y-82149348D01*
X112304844Y-82162136D01*
X112348375Y-82197861D01*
X112371718Y-82228282D01*
X112497159Y-82324536D01*
X112504673Y-82327648D01*
X112505289Y-82328004D01*
X112553280Y-82378134D01*
X112566820Y-82446199D01*
X112541668Y-82510879D01*
X112480411Y-82590711D01*
X112480408Y-82590714D01*
X112475464Y-82597159D01*
X112472355Y-82604662D01*
X112472354Y-82604666D01*
X112418066Y-82735728D01*
X112418064Y-82735733D01*
X112414956Y-82743238D01*
X112413896Y-82751289D01*
X112413894Y-82751297D01*
X112400730Y-82851297D01*
X112394318Y-82900000D01*
X112395379Y-82908059D01*
X112413894Y-83048702D01*
X112413895Y-83048708D01*
X112414956Y-83056762D01*
X112418065Y-83064268D01*
X112418066Y-83064271D01*
X112436713Y-83109288D01*
X112475464Y-83202841D01*
X112480411Y-83209288D01*
X112550016Y-83300000D01*
X112571718Y-83328282D01*
X112697159Y-83424536D01*
X112843238Y-83485044D01*
X113000000Y-83505682D01*
X113156762Y-83485044D01*
X113302841Y-83424536D01*
X113316933Y-83413722D01*
X113365578Y-83391038D01*
X113419257Y-83391037D01*
X113467902Y-83413720D01*
X113547159Y-83474536D01*
X113693238Y-83535044D01*
X113701296Y-83536104D01*
X113701297Y-83536105D01*
X113850000Y-83555682D01*
X113849800Y-83557193D01*
X113884319Y-83564060D01*
X113924547Y-83590940D01*
X113939091Y-83605484D01*
X113939094Y-83605486D01*
X113961658Y-83628050D01*
X113970353Y-83632480D01*
X113970354Y-83632481D01*
X113981396Y-83638107D01*
X113997980Y-83648269D01*
X114015911Y-83661296D01*
X114036982Y-83668142D01*
X114054951Y-83675585D01*
X114074696Y-83685646D01*
X114096576Y-83689111D01*
X114115501Y-83693655D01*
X114136567Y-83700500D01*
X114168481Y-83700500D01*
X114263433Y-83700500D01*
X126275500Y-83700500D01*
X126337500Y-83717113D01*
X126382887Y-83762500D01*
X126399500Y-83824500D01*
X126399500Y-88082745D01*
X126390061Y-88130198D01*
X126363181Y-88170426D01*
X126074546Y-88459060D01*
X126034318Y-88485940D01*
X125999797Y-88492806D01*
X125999996Y-88494318D01*
X125973428Y-88497816D01*
X125964792Y-88498953D01*
X125895881Y-88488243D01*
X125843647Y-88442035D01*
X125824615Y-88374943D01*
X125844798Y-88308200D01*
X125847929Y-88304179D01*
X125961349Y-88094597D01*
X126038726Y-87869206D01*
X126077950Y-87634152D01*
X126077950Y-87395848D01*
X126038726Y-87160794D01*
X125961349Y-86935403D01*
X125847929Y-86725821D01*
X125810292Y-86677465D01*
X125704710Y-86541812D01*
X125704709Y-86541811D01*
X125701560Y-86537765D01*
X125526234Y-86376367D01*
X125521950Y-86373568D01*
X125521946Y-86373565D01*
X125380276Y-86281008D01*
X125326734Y-86246027D01*
X125322044Y-86243970D01*
X125322039Y-86243967D01*
X125140350Y-86164271D01*
X125108502Y-86150301D01*
X125103532Y-86149042D01*
X125103531Y-86149042D01*
X124984984Y-86119022D01*
X124905514Y-86098897D01*
X124846333Y-86064388D01*
X124814507Y-86003720D01*
X124819753Y-85935412D01*
X124860467Y-85880317D01*
X124928282Y-85828282D01*
X125024536Y-85702841D01*
X125085044Y-85556762D01*
X125105682Y-85400000D01*
X125085044Y-85243238D01*
X125024536Y-85097159D01*
X124928282Y-84971718D01*
X124802841Y-84875464D01*
X124775819Y-84864271D01*
X124664271Y-84818066D01*
X124664268Y-84818065D01*
X124656762Y-84814956D01*
X124648708Y-84813895D01*
X124648702Y-84813894D01*
X124508059Y-84795379D01*
X124500000Y-84794318D01*
X124491941Y-84795379D01*
X124351297Y-84813894D01*
X124351289Y-84813896D01*
X124343238Y-84814956D01*
X124335733Y-84818064D01*
X124335728Y-84818066D01*
X124204666Y-84872354D01*
X124204662Y-84872355D01*
X124197159Y-84875464D01*
X124190714Y-84880408D01*
X124190711Y-84880411D01*
X124078164Y-84966771D01*
X124078160Y-84966774D01*
X124071718Y-84971718D01*
X124066774Y-84978160D01*
X124066771Y-84978164D01*
X123980411Y-85090711D01*
X123980408Y-85090714D01*
X123975464Y-85097159D01*
X123972356Y-85104662D01*
X123972355Y-85104664D01*
X123947703Y-85164179D01*
X123908269Y-85215375D01*
X123848432Y-85239779D01*
X123784442Y-85230761D01*
X123733679Y-85190773D01*
X123727693Y-85182732D01*
X123662168Y-85094717D01*
X123586024Y-85030824D01*
X123534145Y-84987292D01*
X123534144Y-84987291D01*
X123528614Y-84982651D01*
X123506845Y-84971718D01*
X123379265Y-84907645D01*
X123379262Y-84907644D01*
X123372815Y-84904406D01*
X123365790Y-84902741D01*
X123210198Y-84865865D01*
X123210194Y-84865864D01*
X123203171Y-84864200D01*
X123072564Y-84864200D01*
X123068999Y-84864616D01*
X123068993Y-84864617D01*
X122950003Y-84878525D01*
X122950000Y-84878525D01*
X122942836Y-84879363D01*
X122936057Y-84881830D01*
X122936054Y-84881831D01*
X122785792Y-84936522D01*
X122785788Y-84936523D01*
X122779007Y-84938992D01*
X122772980Y-84942955D01*
X122772970Y-84942961D01*
X122639382Y-85030824D01*
X122639376Y-85030828D01*
X122633346Y-85034795D01*
X122628393Y-85040044D01*
X122628388Y-85040049D01*
X122518661Y-85156352D01*
X122518657Y-85156356D01*
X122513704Y-85161607D01*
X122510095Y-85167857D01*
X122510092Y-85167862D01*
X122430143Y-85306339D01*
X122430140Y-85306343D01*
X122426533Y-85312593D01*
X122424463Y-85319505D01*
X122424462Y-85319509D01*
X122378704Y-85472354D01*
X122376531Y-85479612D01*
X122376111Y-85486815D01*
X122376111Y-85486818D01*
X122369136Y-85606574D01*
X122366393Y-85653660D01*
X122367645Y-85660763D01*
X122367646Y-85660771D01*
X122395413Y-85818240D01*
X122395414Y-85818244D01*
X122396668Y-85825354D01*
X122399527Y-85831982D01*
X122399528Y-85831985D01*
X122455879Y-85962623D01*
X122465721Y-85985438D01*
X122470034Y-85991231D01*
X122470035Y-85991233D01*
X122545843Y-86093060D01*
X122569832Y-86125283D01*
X122703386Y-86237349D01*
X122859185Y-86315594D01*
X123028829Y-86355800D01*
X123155837Y-86355800D01*
X123159436Y-86355800D01*
X123289164Y-86340637D01*
X123452993Y-86281008D01*
X123595175Y-86187492D01*
X123599493Y-86185996D01*
X123598654Y-86185205D01*
X123629644Y-86152358D01*
X123718296Y-86058393D01*
X123805467Y-85907407D01*
X123827685Y-85833190D01*
X123863705Y-85776424D01*
X123924056Y-85746799D01*
X123990998Y-85753024D01*
X124044851Y-85793268D01*
X124071718Y-85828282D01*
X124197159Y-85924536D01*
X124200567Y-85925947D01*
X124239755Y-85962623D01*
X124259619Y-86015228D01*
X124254207Y-86071198D01*
X124224632Y-86119022D01*
X124176975Y-86148867D01*
X124176452Y-86149046D01*
X124171498Y-86150301D01*
X124166814Y-86152355D01*
X124166807Y-86152358D01*
X123957960Y-86243967D01*
X123957950Y-86243972D01*
X123953266Y-86246027D01*
X123948980Y-86248826D01*
X123948971Y-86248832D01*
X123754721Y-86375741D01*
X123750701Y-86377103D01*
X123747292Y-86382325D01*
X123582213Y-86534291D01*
X123582208Y-86534295D01*
X123578440Y-86537765D01*
X123575296Y-86541804D01*
X123575289Y-86541812D01*
X123435221Y-86721772D01*
X123435213Y-86721783D01*
X123432071Y-86725821D01*
X123429632Y-86730327D01*
X123429628Y-86730334D01*
X123321089Y-86930896D01*
X123321084Y-86930906D01*
X123318651Y-86935403D01*
X123316990Y-86940239D01*
X123316986Y-86940250D01*
X123252130Y-87129171D01*
X123241274Y-87160794D01*
X123240431Y-87165840D01*
X123240429Y-87165852D01*
X123202894Y-87390785D01*
X123202893Y-87390795D01*
X123202050Y-87395848D01*
X123202050Y-87634152D01*
X123202893Y-87639205D01*
X123202894Y-87639214D01*
X123240429Y-87864147D01*
X123240431Y-87864156D01*
X123241274Y-87869206D01*
X123242939Y-87874058D01*
X123242940Y-87874059D01*
X123316986Y-88089749D01*
X123316989Y-88089756D01*
X123318651Y-88094597D01*
X123321086Y-88099097D01*
X123321089Y-88099103D01*
X123429628Y-88299665D01*
X123432071Y-88304179D01*
X123435217Y-88308221D01*
X123435221Y-88308227D01*
X123573375Y-88485728D01*
X123578440Y-88492235D01*
X123753766Y-88653633D01*
X123758051Y-88656433D01*
X123758053Y-88656434D01*
X123781447Y-88671718D01*
X123953266Y-88783973D01*
X124171498Y-88879699D01*
X124402510Y-88938199D01*
X124580528Y-88952950D01*
X124696902Y-88952950D01*
X124699472Y-88952950D01*
X124877490Y-88938199D01*
X125108502Y-88879699D01*
X125241152Y-88821512D01*
X125305238Y-88811894D01*
X125365426Y-88835918D01*
X125405275Y-88887024D01*
X125413900Y-88951254D01*
X125405174Y-89017541D01*
X125394318Y-89100000D01*
X125395379Y-89108059D01*
X125414599Y-89254052D01*
X125405974Y-89318281D01*
X125366126Y-89369388D01*
X125305938Y-89393412D01*
X125241850Y-89383793D01*
X125113198Y-89327361D01*
X125113199Y-89327361D01*
X125108502Y-89325301D01*
X125103532Y-89324042D01*
X125103531Y-89324042D01*
X124882464Y-89268060D01*
X124882457Y-89268058D01*
X124877490Y-89266801D01*
X124872378Y-89266377D01*
X124872370Y-89266376D01*
X124702038Y-89252262D01*
X124702022Y-89252261D01*
X124699472Y-89252050D01*
X124580528Y-89252050D01*
X124577978Y-89252261D01*
X124577961Y-89252262D01*
X124407629Y-89266376D01*
X124407619Y-89266377D01*
X124402510Y-89266801D01*
X124397544Y-89268058D01*
X124397535Y-89268060D01*
X124176468Y-89324042D01*
X124176463Y-89324043D01*
X124171498Y-89325301D01*
X124166804Y-89327359D01*
X124166801Y-89327361D01*
X123957960Y-89418967D01*
X123957950Y-89418972D01*
X123953266Y-89421027D01*
X123948978Y-89423828D01*
X123948977Y-89423829D01*
X123758053Y-89548565D01*
X123758043Y-89548572D01*
X123753766Y-89551367D01*
X123749999Y-89554834D01*
X123749996Y-89554837D01*
X123582213Y-89709291D01*
X123582208Y-89709295D01*
X123578440Y-89712765D01*
X123575296Y-89716804D01*
X123575289Y-89716812D01*
X123435221Y-89896772D01*
X123435213Y-89896783D01*
X123432071Y-89900821D01*
X123429632Y-89905327D01*
X123429628Y-89905334D01*
X123321089Y-90105896D01*
X123321084Y-90105906D01*
X123318651Y-90110403D01*
X123316990Y-90115239D01*
X123316986Y-90115250D01*
X123242940Y-90330940D01*
X123241274Y-90335794D01*
X123240431Y-90340840D01*
X123240429Y-90340852D01*
X123202894Y-90565785D01*
X123202893Y-90565795D01*
X123202050Y-90570848D01*
X123202050Y-90809152D01*
X123202893Y-90814205D01*
X123202894Y-90814214D01*
X123240429Y-91039147D01*
X123240431Y-91039156D01*
X123241274Y-91044206D01*
X123242939Y-91049058D01*
X123242940Y-91049059D01*
X123316986Y-91264749D01*
X123316989Y-91264756D01*
X123318651Y-91269597D01*
X123321086Y-91274097D01*
X123321089Y-91274103D01*
X123407694Y-91434134D01*
X123432071Y-91479179D01*
X123435217Y-91483221D01*
X123435221Y-91483227D01*
X123570833Y-91657462D01*
X123578440Y-91667235D01*
X123753766Y-91828633D01*
X123953266Y-91958973D01*
X124171498Y-92054699D01*
X124402510Y-92113199D01*
X124580528Y-92127950D01*
X124696902Y-92127950D01*
X124699472Y-92127950D01*
X124877490Y-92113199D01*
X125108502Y-92054699D01*
X125326734Y-91958973D01*
X125526234Y-91828633D01*
X125701560Y-91667235D01*
X125847929Y-91479179D01*
X125961349Y-91269597D01*
X126038726Y-91044206D01*
X126077950Y-90809152D01*
X126077950Y-90570848D01*
X126038726Y-90335794D01*
X125961349Y-90110403D01*
X125847929Y-89900821D01*
X125844777Y-89896772D01*
X125841973Y-89892479D01*
X125843365Y-89891569D01*
X125823081Y-89846775D01*
X125825835Y-89788776D01*
X125854691Y-89738390D01*
X125903321Y-89706664D01*
X125961059Y-89700555D01*
X126000000Y-89705682D01*
X126068805Y-89696623D01*
X126132439Y-89705000D01*
X126183363Y-89744074D01*
X126207927Y-89803375D01*
X126213641Y-89846775D01*
X126214956Y-89856762D01*
X126218065Y-89864268D01*
X126218066Y-89864271D01*
X126231689Y-89897159D01*
X126275464Y-90002841D01*
X126371718Y-90128282D01*
X126497159Y-90224536D01*
X126643238Y-90285044D01*
X126800000Y-90305682D01*
X126956762Y-90285044D01*
X127102841Y-90224536D01*
X127228282Y-90128282D01*
X127324536Y-90002841D01*
X127385044Y-89856762D01*
X127405682Y-89700000D01*
X127385044Y-89543238D01*
X127324536Y-89397159D01*
X127228282Y-89271718D01*
X127102841Y-89175464D01*
X127025041Y-89143238D01*
X126964271Y-89118066D01*
X126964268Y-89118065D01*
X126956762Y-89114956D01*
X126948708Y-89113895D01*
X126948702Y-89113894D01*
X126847886Y-89100622D01*
X126785406Y-89073536D01*
X126746652Y-89017541D01*
X126743310Y-88949525D01*
X126776390Y-88890002D01*
X126852121Y-88814271D01*
X127105484Y-88560909D01*
X127105486Y-88560905D01*
X127128050Y-88538342D01*
X127138109Y-88518598D01*
X127148274Y-88502012D01*
X127161296Y-88484089D01*
X127168142Y-88463015D01*
X127175583Y-88445052D01*
X127185646Y-88425304D01*
X127189111Y-88403422D01*
X127193653Y-88384501D01*
X127200500Y-88363433D01*
X127200500Y-88236567D01*
X127200500Y-87630570D01*
X133347340Y-87630570D01*
X133348401Y-87638629D01*
X133366916Y-87779272D01*
X133366917Y-87779278D01*
X133367978Y-87787332D01*
X133371087Y-87794838D01*
X133371088Y-87794841D01*
X133413470Y-87897159D01*
X133428486Y-87933411D01*
X133524740Y-88058852D01*
X133650181Y-88155106D01*
X133796260Y-88215614D01*
X133953022Y-88236252D01*
X134109784Y-88215614D01*
X134255863Y-88155106D01*
X134381304Y-88058852D01*
X134477558Y-87933411D01*
X134538066Y-87787332D01*
X134558704Y-87630570D01*
X134538066Y-87473808D01*
X134477558Y-87327729D01*
X134381304Y-87202288D01*
X134255863Y-87106034D01*
X134147521Y-87061157D01*
X134117293Y-87048636D01*
X134117290Y-87048635D01*
X134109784Y-87045526D01*
X134101730Y-87044465D01*
X134101724Y-87044464D01*
X133961081Y-87025949D01*
X133953022Y-87024888D01*
X133944963Y-87025949D01*
X133804319Y-87044464D01*
X133804311Y-87044466D01*
X133796260Y-87045526D01*
X133788755Y-87048634D01*
X133788750Y-87048636D01*
X133657688Y-87102924D01*
X133657684Y-87102925D01*
X133650181Y-87106034D01*
X133643736Y-87110978D01*
X133643733Y-87110981D01*
X133531186Y-87197341D01*
X133531182Y-87197344D01*
X133524740Y-87202288D01*
X133519796Y-87208730D01*
X133519793Y-87208734D01*
X133433433Y-87321281D01*
X133433430Y-87321284D01*
X133428486Y-87327729D01*
X133425377Y-87335232D01*
X133425376Y-87335236D01*
X133371088Y-87466298D01*
X133371086Y-87466303D01*
X133367978Y-87473808D01*
X133366918Y-87481859D01*
X133366916Y-87481867D01*
X133349396Y-87614956D01*
X133347340Y-87630570D01*
X127200500Y-87630570D01*
X127200500Y-83341275D01*
X127202027Y-83321878D01*
X127203965Y-83309641D01*
X127205492Y-83300000D01*
X127202027Y-83278122D01*
X127200500Y-83258725D01*
X127200500Y-79700000D01*
X134394318Y-79700000D01*
X134395379Y-79708059D01*
X134413894Y-79848702D01*
X134413895Y-79848708D01*
X134414956Y-79856762D01*
X134418065Y-79864268D01*
X134418066Y-79864271D01*
X134446629Y-79933228D01*
X134475464Y-80002841D01*
X134480411Y-80009288D01*
X134550016Y-80100000D01*
X134571718Y-80128282D01*
X134697159Y-80224536D01*
X134843238Y-80285044D01*
X135000000Y-80305682D01*
X135156762Y-80285044D01*
X135302841Y-80224536D01*
X135428282Y-80128282D01*
X135524536Y-80002841D01*
X135585044Y-79856762D01*
X135605682Y-79700000D01*
X135585044Y-79543238D01*
X135524536Y-79397159D01*
X135428282Y-79271718D01*
X135302841Y-79175464D01*
X135295333Y-79172354D01*
X135164271Y-79118066D01*
X135164268Y-79118065D01*
X135156762Y-79114956D01*
X135148708Y-79113895D01*
X135148702Y-79113894D01*
X135008059Y-79095379D01*
X135000000Y-79094318D01*
X134991941Y-79095379D01*
X134851297Y-79113894D01*
X134851289Y-79113896D01*
X134843238Y-79114956D01*
X134835733Y-79118064D01*
X134835728Y-79118066D01*
X134704666Y-79172354D01*
X134704662Y-79172355D01*
X134697159Y-79175464D01*
X134690714Y-79180408D01*
X134690711Y-79180411D01*
X134578164Y-79266771D01*
X134578160Y-79266774D01*
X134571718Y-79271718D01*
X134566774Y-79278160D01*
X134566771Y-79278164D01*
X134480411Y-79390711D01*
X134480408Y-79390714D01*
X134475464Y-79397159D01*
X134472355Y-79404662D01*
X134472354Y-79404666D01*
X134418066Y-79535728D01*
X134418064Y-79535733D01*
X134414956Y-79543238D01*
X134413896Y-79551289D01*
X134413894Y-79551297D01*
X134408231Y-79594318D01*
X134394318Y-79700000D01*
X127200500Y-79700000D01*
X127200500Y-79005926D01*
X127209939Y-78958473D01*
X127229491Y-78929210D01*
X127228282Y-78928282D01*
X127239322Y-78913894D01*
X127324536Y-78802841D01*
X127385044Y-78656762D01*
X127390880Y-78612435D01*
X127412245Y-78557497D01*
X127456562Y-78518631D01*
X127500295Y-78507929D01*
X127500000Y-78505682D01*
X127656762Y-78485044D01*
X127802841Y-78424536D01*
X127928282Y-78328282D01*
X128024536Y-78202841D01*
X128085044Y-78056762D01*
X128105682Y-77900000D01*
X128092517Y-77800000D01*
X134394318Y-77800000D01*
X134395379Y-77808059D01*
X134413894Y-77948702D01*
X134413895Y-77948708D01*
X134414956Y-77956762D01*
X134418065Y-77964268D01*
X134418066Y-77964271D01*
X134453039Y-78048702D01*
X134475464Y-78102841D01*
X134523590Y-78165561D01*
X134550016Y-78200000D01*
X134571718Y-78228282D01*
X134697159Y-78324536D01*
X134843238Y-78385044D01*
X135000000Y-78405682D01*
X135156762Y-78385044D01*
X135302841Y-78324536D01*
X135428282Y-78228282D01*
X135524536Y-78102841D01*
X135585044Y-77956762D01*
X135605682Y-77800000D01*
X135585044Y-77643238D01*
X135524536Y-77497159D01*
X135428282Y-77371718D01*
X135302841Y-77275464D01*
X135225041Y-77243238D01*
X135164271Y-77218066D01*
X135164268Y-77218065D01*
X135156762Y-77214956D01*
X135148708Y-77213895D01*
X135148702Y-77213894D01*
X135008059Y-77195379D01*
X135000000Y-77194318D01*
X134991941Y-77195379D01*
X134851297Y-77213894D01*
X134851289Y-77213896D01*
X134843238Y-77214956D01*
X134835733Y-77218064D01*
X134835728Y-77218066D01*
X134704666Y-77272354D01*
X134704662Y-77272355D01*
X134697159Y-77275464D01*
X134690714Y-77280408D01*
X134690711Y-77280411D01*
X134578164Y-77366771D01*
X134578160Y-77366774D01*
X134571718Y-77371718D01*
X134566774Y-77378160D01*
X134566771Y-77378164D01*
X134480411Y-77490711D01*
X134480408Y-77490714D01*
X134475464Y-77497159D01*
X134472355Y-77504662D01*
X134472354Y-77504666D01*
X134418066Y-77635728D01*
X134418064Y-77635733D01*
X134414956Y-77643238D01*
X134413896Y-77651289D01*
X134413894Y-77651297D01*
X134400730Y-77751296D01*
X134394318Y-77800000D01*
X128092517Y-77800000D01*
X128085044Y-77743238D01*
X128024536Y-77597159D01*
X127928282Y-77471718D01*
X127802841Y-77375464D01*
X127795333Y-77372354D01*
X127664271Y-77318066D01*
X127664268Y-77318065D01*
X127656762Y-77314956D01*
X127648708Y-77313895D01*
X127648702Y-77313894D01*
X127508059Y-77295379D01*
X127500000Y-77294318D01*
X127491941Y-77295379D01*
X127351297Y-77313894D01*
X127351289Y-77313896D01*
X127343238Y-77314956D01*
X127335733Y-77318064D01*
X127335728Y-77318066D01*
X127204666Y-77372354D01*
X127204662Y-77372355D01*
X127197159Y-77375464D01*
X127190714Y-77380408D01*
X127190711Y-77380411D01*
X127078164Y-77466771D01*
X127078160Y-77466774D01*
X127071718Y-77471718D01*
X127066774Y-77478160D01*
X127066771Y-77478164D01*
X126980411Y-77590711D01*
X126980408Y-77590714D01*
X126975464Y-77597159D01*
X126972355Y-77604662D01*
X126972354Y-77604666D01*
X126918066Y-77735728D01*
X126918064Y-77735733D01*
X126914956Y-77743238D01*
X126913895Y-77751294D01*
X126913895Y-77751296D01*
X126909120Y-77787565D01*
X126887755Y-77842503D01*
X126843438Y-77881369D01*
X126799704Y-77892070D01*
X126800000Y-77894318D01*
X126651297Y-77913894D01*
X126651289Y-77913896D01*
X126643238Y-77914956D01*
X126635733Y-77918064D01*
X126635728Y-77918066D01*
X126504666Y-77972354D01*
X126504662Y-77972355D01*
X126497159Y-77975464D01*
X126490714Y-77980408D01*
X126490711Y-77980411D01*
X126378164Y-78066771D01*
X126378160Y-78066774D01*
X126371718Y-78071718D01*
X126366774Y-78078160D01*
X126366771Y-78078164D01*
X126280411Y-78190711D01*
X126280408Y-78190714D01*
X126275464Y-78197159D01*
X126272355Y-78204662D01*
X126272354Y-78204666D01*
X126218066Y-78335728D01*
X126218064Y-78335733D01*
X126214956Y-78343238D01*
X126213896Y-78351289D01*
X126213894Y-78351297D01*
X126196287Y-78485044D01*
X126194318Y-78500000D01*
X126195379Y-78508059D01*
X126213894Y-78648702D01*
X126213895Y-78648708D01*
X126214956Y-78656762D01*
X126218065Y-78664268D01*
X126218066Y-78664271D01*
X126254114Y-78751297D01*
X126275464Y-78802841D01*
X126310654Y-78848702D01*
X126371718Y-78928282D01*
X126370508Y-78929210D01*
X126390061Y-78958473D01*
X126399500Y-79005926D01*
X126399500Y-82775500D01*
X126382887Y-82837500D01*
X126337500Y-82882887D01*
X126275500Y-82899500D01*
X114557567Y-82899500D01*
X114505162Y-82887882D01*
X114462577Y-82855205D01*
X114437792Y-82807593D01*
X114436105Y-82801297D01*
X114435044Y-82793238D01*
X114374536Y-82647159D01*
X114278282Y-82521718D01*
X114221521Y-82478164D01*
X114159291Y-82430413D01*
X114159289Y-82430412D01*
X114152841Y-82425464D01*
X114149256Y-82423979D01*
X114110259Y-82387612D01*
X114090267Y-82335528D01*
X114095131Y-82279952D01*
X114096589Y-82275464D01*
X114100499Y-82263433D01*
X114100499Y-82231525D01*
X114100500Y-82231519D01*
X114100500Y-81600000D01*
X119954318Y-81600000D01*
X119955379Y-81608059D01*
X119973894Y-81748702D01*
X119973895Y-81748708D01*
X119974956Y-81756762D01*
X119978065Y-81764268D01*
X119978066Y-81764271D01*
X119992866Y-81800000D01*
X120035464Y-81902841D01*
X120131718Y-82028282D01*
X120257159Y-82124536D01*
X120403238Y-82185044D01*
X120560000Y-82205682D01*
X120716762Y-82185044D01*
X120862841Y-82124536D01*
X120988282Y-82028282D01*
X121084536Y-81902841D01*
X121145044Y-81756762D01*
X121165682Y-81600000D01*
X122694318Y-81600000D01*
X122695379Y-81608059D01*
X122713894Y-81748702D01*
X122713895Y-81748708D01*
X122714956Y-81756762D01*
X122718065Y-81764268D01*
X122718066Y-81764271D01*
X122732866Y-81800000D01*
X122775464Y-81902841D01*
X122871718Y-82028282D01*
X122997159Y-82124536D01*
X123143238Y-82185044D01*
X123300000Y-82205682D01*
X123456762Y-82185044D01*
X123602841Y-82124536D01*
X123728282Y-82028282D01*
X123824536Y-81902841D01*
X123885044Y-81756762D01*
X123905682Y-81600000D01*
X123885044Y-81443238D01*
X123824536Y-81297159D01*
X123728282Y-81171718D01*
X123602841Y-81075464D01*
X123595333Y-81072354D01*
X123464271Y-81018066D01*
X123464268Y-81018065D01*
X123456762Y-81014956D01*
X123448708Y-81013895D01*
X123448702Y-81013894D01*
X123308059Y-80995379D01*
X123300000Y-80994318D01*
X123291941Y-80995379D01*
X123151297Y-81013894D01*
X123151289Y-81013896D01*
X123143238Y-81014956D01*
X123135733Y-81018064D01*
X123135728Y-81018066D01*
X123004666Y-81072354D01*
X123004662Y-81072355D01*
X122997159Y-81075464D01*
X122990714Y-81080408D01*
X122990711Y-81080411D01*
X122878164Y-81166771D01*
X122878160Y-81166774D01*
X122871718Y-81171718D01*
X122866774Y-81178160D01*
X122866771Y-81178164D01*
X122780411Y-81290711D01*
X122780408Y-81290714D01*
X122775464Y-81297159D01*
X122772355Y-81304662D01*
X122772354Y-81304666D01*
X122718066Y-81435728D01*
X122718064Y-81435733D01*
X122714956Y-81443238D01*
X122713896Y-81451289D01*
X122713894Y-81451297D01*
X122699764Y-81558634D01*
X122694318Y-81600000D01*
X121165682Y-81600000D01*
X121145044Y-81443238D01*
X121084536Y-81297159D01*
X120988282Y-81171718D01*
X120862841Y-81075464D01*
X120855333Y-81072354D01*
X120724271Y-81018066D01*
X120724268Y-81018065D01*
X120716762Y-81014956D01*
X120708708Y-81013895D01*
X120708702Y-81013894D01*
X120568059Y-80995379D01*
X120560000Y-80994318D01*
X120551941Y-80995379D01*
X120411297Y-81013894D01*
X120411289Y-81013896D01*
X120403238Y-81014956D01*
X120395733Y-81018064D01*
X120395728Y-81018066D01*
X120264666Y-81072354D01*
X120264662Y-81072355D01*
X120257159Y-81075464D01*
X120250714Y-81080408D01*
X120250711Y-81080411D01*
X120138164Y-81166771D01*
X120138160Y-81166774D01*
X120131718Y-81171718D01*
X120126774Y-81178160D01*
X120126771Y-81178164D01*
X120040411Y-81290711D01*
X120040408Y-81290714D01*
X120035464Y-81297159D01*
X120032355Y-81304662D01*
X120032354Y-81304666D01*
X119978066Y-81435728D01*
X119978064Y-81435733D01*
X119974956Y-81443238D01*
X119973896Y-81451289D01*
X119973894Y-81451297D01*
X119959764Y-81558634D01*
X119954318Y-81600000D01*
X114100500Y-81600000D01*
X114100500Y-79005926D01*
X114109939Y-78958473D01*
X114129491Y-78929210D01*
X114128282Y-78928282D01*
X114139322Y-78913894D01*
X114224536Y-78802841D01*
X114285044Y-78656762D01*
X114305682Y-78500000D01*
X114285044Y-78343238D01*
X114224536Y-78197159D01*
X114128282Y-78071718D01*
X114002841Y-77975464D01*
X113975819Y-77964271D01*
X113864271Y-77918066D01*
X113864268Y-77918065D01*
X113856762Y-77914956D01*
X113848708Y-77913895D01*
X113848702Y-77913894D01*
X113708059Y-77895379D01*
X113700000Y-77894318D01*
X113691941Y-77895379D01*
X113551297Y-77913894D01*
X113551289Y-77913896D01*
X113543238Y-77914956D01*
X113535733Y-77918064D01*
X113535728Y-77918066D01*
X113404666Y-77972354D01*
X113404662Y-77972355D01*
X113397159Y-77975464D01*
X113390714Y-77980408D01*
X113390711Y-77980411D01*
X113278164Y-78066771D01*
X113278160Y-78066774D01*
X113271718Y-78071718D01*
X113266774Y-78078160D01*
X113266771Y-78078164D01*
X113180411Y-78190711D01*
X113180408Y-78190714D01*
X113175464Y-78197159D01*
X113172355Y-78204662D01*
X113172354Y-78204666D01*
X113118066Y-78335728D01*
X113118064Y-78335733D01*
X113114956Y-78343238D01*
X113113895Y-78351296D01*
X113113895Y-78351297D01*
X113108578Y-78391685D01*
X113087214Y-78446623D01*
X113042896Y-78485489D01*
X112985639Y-78499500D01*
X112220812Y-78499500D01*
X112154187Y-78480081D01*
X112108430Y-78427905D01*
X112097873Y-78359315D01*
X112104621Y-78308059D01*
X112105682Y-78300000D01*
X112085044Y-78143238D01*
X112024536Y-77997159D01*
X111928282Y-77871718D01*
X111802841Y-77775464D01*
X111795333Y-77772354D01*
X111664271Y-77718066D01*
X111664268Y-77718065D01*
X111656762Y-77714956D01*
X111648708Y-77713895D01*
X111648702Y-77713894D01*
X111508059Y-77695379D01*
X111500000Y-77694318D01*
X111491941Y-77695379D01*
X111351297Y-77713894D01*
X111351289Y-77713896D01*
X111343238Y-77714956D01*
X111335733Y-77718064D01*
X111335728Y-77718066D01*
X111204666Y-77772354D01*
X111204662Y-77772355D01*
X111197159Y-77775464D01*
X111190714Y-77780408D01*
X111190711Y-77780411D01*
X111078164Y-77866771D01*
X111078160Y-77866774D01*
X111071718Y-77871718D01*
X111066774Y-77878160D01*
X111066771Y-77878164D01*
X110980411Y-77990711D01*
X110980408Y-77990714D01*
X110975464Y-77997159D01*
X110972355Y-78004662D01*
X110972354Y-78004666D01*
X110918066Y-78135728D01*
X110918064Y-78135733D01*
X110914956Y-78143238D01*
X110913896Y-78151289D01*
X110913894Y-78151297D01*
X110898041Y-78271718D01*
X110894318Y-78300000D01*
X110895379Y-78308059D01*
X110913894Y-78448702D01*
X110913895Y-78448708D01*
X110914956Y-78456762D01*
X110918065Y-78464268D01*
X110918066Y-78464271D01*
X110972354Y-78595333D01*
X110975464Y-78602841D01*
X110980411Y-78609288D01*
X111050016Y-78700000D01*
X111071718Y-78728282D01*
X111197159Y-78824536D01*
X111255501Y-78848702D01*
X111256356Y-78849056D01*
X111307278Y-78888128D01*
X111331843Y-78947427D01*
X111323468Y-79011063D01*
X111284397Y-79061987D01*
X111278170Y-79066765D01*
X111278160Y-79066774D01*
X111271718Y-79071718D01*
X111266774Y-79078160D01*
X111266772Y-79078163D01*
X111248375Y-79102139D01*
X111204843Y-79137864D01*
X111150000Y-79150651D01*
X111095157Y-79137864D01*
X111051625Y-79102139D01*
X111033227Y-79078163D01*
X111028282Y-79071718D01*
X110902841Y-78975464D01*
X110895333Y-78972354D01*
X110764271Y-78918066D01*
X110764268Y-78918065D01*
X110756762Y-78914956D01*
X110748708Y-78913895D01*
X110748702Y-78913894D01*
X110608059Y-78895379D01*
X110600000Y-78894318D01*
X110591941Y-78895379D01*
X110451297Y-78913894D01*
X110451289Y-78913896D01*
X110443238Y-78914956D01*
X110435733Y-78918064D01*
X110435728Y-78918066D01*
X110304666Y-78972354D01*
X110304662Y-78972355D01*
X110297159Y-78975464D01*
X110290714Y-78980408D01*
X110290711Y-78980411D01*
X110178164Y-79066771D01*
X110178160Y-79066774D01*
X110171718Y-79071718D01*
X110166774Y-79078160D01*
X110166771Y-79078164D01*
X110080411Y-79190711D01*
X110080408Y-79190714D01*
X110075464Y-79197159D01*
X110072355Y-79204662D01*
X110072354Y-79204666D01*
X110018066Y-79335728D01*
X110018064Y-79335733D01*
X110014956Y-79343238D01*
X110013896Y-79351289D01*
X110013894Y-79351297D01*
X109996287Y-79485044D01*
X109994318Y-79500000D01*
X109995379Y-79508059D01*
X110013894Y-79648702D01*
X110013895Y-79648708D01*
X110014956Y-79656762D01*
X110018065Y-79664268D01*
X110018066Y-79664271D01*
X110032866Y-79700000D01*
X110075464Y-79802841D01*
X110171718Y-79928282D01*
X110178164Y-79933228D01*
X110267299Y-80001624D01*
X110303025Y-80045156D01*
X110315813Y-80100000D01*
X110303025Y-80154844D01*
X110267299Y-80198376D01*
X110178164Y-80266771D01*
X110178160Y-80266774D01*
X110171718Y-80271718D01*
X110166774Y-80278160D01*
X110166771Y-80278164D01*
X110080411Y-80390711D01*
X110080408Y-80390714D01*
X110075464Y-80397159D01*
X110072355Y-80404662D01*
X110072354Y-80404666D01*
X110018066Y-80535728D01*
X110018064Y-80535733D01*
X110014956Y-80543238D01*
X110013896Y-80551289D01*
X110013894Y-80551297D01*
X109995702Y-80689482D01*
X109994318Y-80700000D01*
X109995379Y-80708059D01*
X110013894Y-80848702D01*
X110013895Y-80848708D01*
X110014956Y-80856762D01*
X110075464Y-81002841D01*
X110171718Y-81128282D01*
X110178164Y-81133228D01*
X110202139Y-81151625D01*
X110237864Y-81195157D01*
X110250651Y-81250000D01*
X110237864Y-81304843D01*
X110202139Y-81348375D01*
X110178163Y-81366772D01*
X110178160Y-81366774D01*
X110171718Y-81371718D01*
X110166774Y-81378160D01*
X110166771Y-81378164D01*
X110080411Y-81490711D01*
X110080408Y-81490714D01*
X110075464Y-81497159D01*
X110072355Y-81504662D01*
X110072354Y-81504666D01*
X110018066Y-81635728D01*
X110018064Y-81635733D01*
X110014956Y-81643238D01*
X110013896Y-81651289D01*
X110013894Y-81651297D01*
X110010713Y-81675464D01*
X109994318Y-81800000D01*
X109995379Y-81808059D01*
X110013894Y-81948702D01*
X110013895Y-81948708D01*
X110014956Y-81956762D01*
X110018065Y-81964268D01*
X110018066Y-81964271D01*
X110072354Y-82095333D01*
X110075464Y-82102841D01*
X110080411Y-82109288D01*
X110159281Y-82212074D01*
X110183844Y-82271375D01*
X110175466Y-82335012D01*
X110136392Y-82385935D01*
X110077091Y-82410499D01*
X110051297Y-82413895D01*
X110043238Y-82414956D01*
X110035733Y-82418064D01*
X110035728Y-82418066D01*
X109904666Y-82472354D01*
X109904662Y-82472355D01*
X109897159Y-82475464D01*
X109890714Y-82480408D01*
X109890711Y-82480411D01*
X109778164Y-82566771D01*
X109778160Y-82566774D01*
X109771718Y-82571718D01*
X109766774Y-82578160D01*
X109766771Y-82578164D01*
X109680411Y-82690711D01*
X109680408Y-82690714D01*
X109675464Y-82697159D01*
X109672355Y-82704662D01*
X109672354Y-82704666D01*
X109618066Y-82835728D01*
X109618064Y-82835733D01*
X109614956Y-82843238D01*
X109613896Y-82851289D01*
X109613894Y-82851297D01*
X109607483Y-82900000D01*
X109594318Y-83000000D01*
X103567134Y-83000000D01*
X103585044Y-82956762D01*
X103605682Y-82800000D01*
X103585044Y-82643238D01*
X103524536Y-82497159D01*
X103428282Y-82371718D01*
X103302841Y-82275464D01*
X103273796Y-82263433D01*
X103164271Y-82218066D01*
X103164268Y-82218065D01*
X103156762Y-82214956D01*
X103148708Y-82213895D01*
X103148702Y-82213894D01*
X103008059Y-82195379D01*
X103000000Y-82194318D01*
X102991941Y-82195379D01*
X102851297Y-82213894D01*
X102851289Y-82213896D01*
X102843238Y-82214956D01*
X102835733Y-82218064D01*
X102835728Y-82218066D01*
X102704666Y-82272354D01*
X102704662Y-82272355D01*
X102697159Y-82275464D01*
X102690714Y-82280408D01*
X102690711Y-82280411D01*
X102578164Y-82366771D01*
X102578160Y-82366774D01*
X102571718Y-82371718D01*
X102566774Y-82378160D01*
X102566771Y-82378164D01*
X102480411Y-82490711D01*
X102480408Y-82490714D01*
X102475464Y-82497159D01*
X102472355Y-82504662D01*
X102472354Y-82504666D01*
X102418066Y-82635728D01*
X102418064Y-82635733D01*
X102414956Y-82643238D01*
X102413896Y-82651289D01*
X102413894Y-82651297D01*
X102400730Y-82751297D01*
X102394318Y-82800000D01*
X89392517Y-82800000D01*
X89385044Y-82743238D01*
X89324536Y-82597159D01*
X89228282Y-82471718D01*
X89102841Y-82375464D01*
X89095333Y-82372354D01*
X88964271Y-82318066D01*
X88964268Y-82318065D01*
X88956762Y-82314956D01*
X88948708Y-82313895D01*
X88948702Y-82313894D01*
X88808059Y-82295379D01*
X88800000Y-82294318D01*
X88791941Y-82295379D01*
X88651297Y-82313894D01*
X88651289Y-82313896D01*
X88643238Y-82314956D01*
X88635733Y-82318064D01*
X88635728Y-82318066D01*
X88504666Y-82372354D01*
X88504662Y-82372355D01*
X88497159Y-82375464D01*
X88490714Y-82380408D01*
X88490711Y-82380411D01*
X88378164Y-82466771D01*
X88378160Y-82466774D01*
X88371718Y-82471718D01*
X88366774Y-82478160D01*
X88366771Y-82478164D01*
X88280411Y-82590711D01*
X88280408Y-82590714D01*
X88275464Y-82597159D01*
X88272355Y-82604662D01*
X88272354Y-82604666D01*
X88218066Y-82735728D01*
X88218064Y-82735733D01*
X88214956Y-82743238D01*
X88213896Y-82751289D01*
X88213894Y-82751297D01*
X88200730Y-82851297D01*
X88194318Y-82900000D01*
X87200000Y-82900000D01*
X87200000Y-78700000D01*
X91294318Y-78700000D01*
X91295379Y-78708059D01*
X91313894Y-78848702D01*
X91313895Y-78848708D01*
X91314956Y-78856762D01*
X91318065Y-78864268D01*
X91318066Y-78864271D01*
X91344965Y-78929210D01*
X91375464Y-79002841D01*
X91471718Y-79128282D01*
X91597159Y-79224536D01*
X91743238Y-79285044D01*
X91900000Y-79305682D01*
X92056762Y-79285044D01*
X92202841Y-79224536D01*
X92328282Y-79128282D01*
X92424536Y-79002841D01*
X92467134Y-78900000D01*
X97794318Y-78900000D01*
X97795379Y-78908059D01*
X97813894Y-79048702D01*
X97813895Y-79048708D01*
X97814956Y-79056762D01*
X97818065Y-79064268D01*
X97818066Y-79064271D01*
X97872354Y-79195333D01*
X97875464Y-79202841D01*
X97971718Y-79328282D01*
X98097159Y-79424536D01*
X98243238Y-79485044D01*
X98400000Y-79505682D01*
X98556762Y-79485044D01*
X98702841Y-79424536D01*
X98828282Y-79328282D01*
X98924536Y-79202841D01*
X98985044Y-79056762D01*
X99005682Y-78900000D01*
X98985044Y-78743238D01*
X98924536Y-78597159D01*
X98828282Y-78471718D01*
X98795577Y-78446623D01*
X98709288Y-78380411D01*
X98702841Y-78375464D01*
X98663854Y-78359315D01*
X98564271Y-78318066D01*
X98564268Y-78318065D01*
X98556762Y-78314956D01*
X98548708Y-78313895D01*
X98548702Y-78313894D01*
X98408059Y-78295379D01*
X98400000Y-78294318D01*
X98391941Y-78295379D01*
X98251297Y-78313894D01*
X98251289Y-78313896D01*
X98243238Y-78314956D01*
X98235733Y-78318064D01*
X98235728Y-78318066D01*
X98104666Y-78372354D01*
X98104662Y-78372355D01*
X98097159Y-78375464D01*
X98090714Y-78380408D01*
X98090711Y-78380411D01*
X97978164Y-78466771D01*
X97978160Y-78466774D01*
X97971718Y-78471718D01*
X97966774Y-78478160D01*
X97966771Y-78478164D01*
X97880411Y-78590711D01*
X97880408Y-78590714D01*
X97875464Y-78597159D01*
X97872355Y-78604662D01*
X97872354Y-78604666D01*
X97818066Y-78735728D01*
X97818064Y-78735733D01*
X97814956Y-78743238D01*
X97813896Y-78751289D01*
X97813894Y-78751297D01*
X97801071Y-78848702D01*
X97794318Y-78900000D01*
X92467134Y-78900000D01*
X92485044Y-78856762D01*
X92505682Y-78700000D01*
X92485044Y-78543238D01*
X92424536Y-78397159D01*
X92328282Y-78271718D01*
X92202841Y-78175464D01*
X92125041Y-78143238D01*
X92064271Y-78118066D01*
X92064268Y-78118065D01*
X92056762Y-78114956D01*
X92048708Y-78113895D01*
X92048702Y-78113894D01*
X91908059Y-78095379D01*
X91900000Y-78094318D01*
X91891941Y-78095379D01*
X91751297Y-78113894D01*
X91751289Y-78113896D01*
X91743238Y-78114956D01*
X91735733Y-78118064D01*
X91735728Y-78118066D01*
X91604666Y-78172354D01*
X91604662Y-78172355D01*
X91597159Y-78175464D01*
X91590714Y-78180408D01*
X91590711Y-78180411D01*
X91478164Y-78266771D01*
X91478160Y-78266774D01*
X91471718Y-78271718D01*
X91466774Y-78278160D01*
X91466771Y-78278164D01*
X91380411Y-78390711D01*
X91380408Y-78390714D01*
X91375464Y-78397159D01*
X91372355Y-78404662D01*
X91372354Y-78404666D01*
X91318066Y-78535728D01*
X91318064Y-78535733D01*
X91314956Y-78543238D01*
X91313896Y-78551289D01*
X91313894Y-78551297D01*
X91301071Y-78648702D01*
X91294318Y-78700000D01*
X87200000Y-78700000D01*
X87200000Y-77400000D01*
X92794318Y-77400000D01*
X92795379Y-77408059D01*
X92813894Y-77548702D01*
X92813895Y-77548708D01*
X92814956Y-77556762D01*
X92818065Y-77564268D01*
X92818066Y-77564271D01*
X92858895Y-77662841D01*
X92875464Y-77702841D01*
X92923591Y-77765561D01*
X92950016Y-77800000D01*
X92971718Y-77828282D01*
X93097159Y-77924536D01*
X93243238Y-77985044D01*
X93400000Y-78005682D01*
X93556762Y-77985044D01*
X93702841Y-77924536D01*
X93828282Y-77828282D01*
X93849983Y-77800000D01*
X102294318Y-77800000D01*
X102295379Y-77808059D01*
X102313894Y-77948702D01*
X102313895Y-77948708D01*
X102314956Y-77956762D01*
X102318065Y-77964268D01*
X102318066Y-77964271D01*
X102353039Y-78048702D01*
X102375464Y-78102841D01*
X102423590Y-78165561D01*
X102450016Y-78200000D01*
X102471718Y-78228282D01*
X102597159Y-78324536D01*
X102743238Y-78385044D01*
X102900000Y-78405682D01*
X103056762Y-78385044D01*
X103202841Y-78324536D01*
X103328282Y-78228282D01*
X103424536Y-78102841D01*
X103485044Y-77956762D01*
X103505682Y-77800000D01*
X103485044Y-77643238D01*
X103424536Y-77497159D01*
X103328282Y-77371718D01*
X103313011Y-77360000D01*
X119944318Y-77360000D01*
X119945379Y-77368059D01*
X119963894Y-77508702D01*
X119963895Y-77508708D01*
X119964956Y-77516762D01*
X119968065Y-77524268D01*
X119968066Y-77524271D01*
X120001367Y-77604666D01*
X120025464Y-77662841D01*
X120121718Y-77788282D01*
X120247159Y-77884536D01*
X120393238Y-77945044D01*
X120550000Y-77965682D01*
X120706762Y-77945044D01*
X120852841Y-77884536D01*
X120978282Y-77788282D01*
X121074536Y-77662841D01*
X121135044Y-77516762D01*
X121155682Y-77360000D01*
X121135044Y-77203238D01*
X121074536Y-77057159D01*
X120978282Y-76931718D01*
X120936946Y-76900000D01*
X124194318Y-76900000D01*
X124195379Y-76908059D01*
X124213894Y-77048702D01*
X124213895Y-77048708D01*
X124214956Y-77056762D01*
X124218065Y-77064268D01*
X124218066Y-77064271D01*
X124240979Y-77119588D01*
X124275464Y-77202841D01*
X124371718Y-77328282D01*
X124497159Y-77424536D01*
X124643238Y-77485044D01*
X124800000Y-77505682D01*
X124956762Y-77485044D01*
X125102841Y-77424536D01*
X125228282Y-77328282D01*
X125324536Y-77202841D01*
X125385044Y-77056762D01*
X125405682Y-76900000D01*
X130094318Y-76900000D01*
X130095379Y-76908059D01*
X130113894Y-77048702D01*
X130113895Y-77048708D01*
X130114956Y-77056762D01*
X130118065Y-77064268D01*
X130118066Y-77064271D01*
X130140979Y-77119588D01*
X130175464Y-77202841D01*
X130271718Y-77328282D01*
X130397159Y-77424536D01*
X130543238Y-77485044D01*
X130700000Y-77505682D01*
X130856762Y-77485044D01*
X131002841Y-77424536D01*
X131128282Y-77328282D01*
X131224536Y-77202841D01*
X131285044Y-77056762D01*
X131305682Y-76900000D01*
X131285044Y-76743238D01*
X131224536Y-76597159D01*
X131128282Y-76471718D01*
X131002841Y-76375464D01*
X130995333Y-76372354D01*
X130864271Y-76318066D01*
X130864268Y-76318065D01*
X130856762Y-76314956D01*
X130848708Y-76313895D01*
X130848702Y-76313894D01*
X130708059Y-76295379D01*
X130700000Y-76294318D01*
X130691941Y-76295379D01*
X130551297Y-76313894D01*
X130551289Y-76313896D01*
X130543238Y-76314956D01*
X130535733Y-76318064D01*
X130535728Y-76318066D01*
X130404666Y-76372354D01*
X130404662Y-76372355D01*
X130397159Y-76375464D01*
X130390714Y-76380408D01*
X130390711Y-76380411D01*
X130278164Y-76466771D01*
X130278160Y-76466774D01*
X130271718Y-76471718D01*
X130266774Y-76478160D01*
X130266771Y-76478164D01*
X130180411Y-76590711D01*
X130180408Y-76590714D01*
X130175464Y-76597159D01*
X130172355Y-76604662D01*
X130172354Y-76604666D01*
X130118066Y-76735728D01*
X130118064Y-76735733D01*
X130114956Y-76743238D01*
X130113896Y-76751289D01*
X130113894Y-76751297D01*
X130102814Y-76835464D01*
X130094318Y-76900000D01*
X125405682Y-76900000D01*
X125385044Y-76743238D01*
X125324536Y-76597159D01*
X125228282Y-76471718D01*
X125102841Y-76375464D01*
X125095333Y-76372354D01*
X124964271Y-76318066D01*
X124964268Y-76318065D01*
X124956762Y-76314956D01*
X124948708Y-76313895D01*
X124948702Y-76313894D01*
X124808059Y-76295379D01*
X124800000Y-76294318D01*
X124791941Y-76295379D01*
X124651297Y-76313894D01*
X124651289Y-76313896D01*
X124643238Y-76314956D01*
X124635733Y-76318064D01*
X124635728Y-76318066D01*
X124504666Y-76372354D01*
X124504662Y-76372355D01*
X124497159Y-76375464D01*
X124490714Y-76380408D01*
X124490711Y-76380411D01*
X124378164Y-76466771D01*
X124378160Y-76466774D01*
X124371718Y-76471718D01*
X124366774Y-76478160D01*
X124366771Y-76478164D01*
X124280411Y-76590711D01*
X124280408Y-76590714D01*
X124275464Y-76597159D01*
X124272355Y-76604662D01*
X124272354Y-76604666D01*
X124218066Y-76735728D01*
X124218064Y-76735733D01*
X124214956Y-76743238D01*
X124213896Y-76751289D01*
X124213894Y-76751297D01*
X124202814Y-76835464D01*
X124194318Y-76900000D01*
X120936946Y-76900000D01*
X120852841Y-76835464D01*
X120810839Y-76818066D01*
X120714271Y-76778066D01*
X120714268Y-76778065D01*
X120706762Y-76774956D01*
X120698708Y-76773895D01*
X120698702Y-76773894D01*
X120558059Y-76755379D01*
X120550000Y-76754318D01*
X120541941Y-76755379D01*
X120401297Y-76773894D01*
X120401289Y-76773896D01*
X120393238Y-76774956D01*
X120385733Y-76778064D01*
X120385728Y-76778066D01*
X120254666Y-76832354D01*
X120254662Y-76832355D01*
X120247159Y-76835464D01*
X120240714Y-76840408D01*
X120240711Y-76840411D01*
X120128164Y-76926771D01*
X120128160Y-76926774D01*
X120121718Y-76931718D01*
X120116774Y-76938160D01*
X120116771Y-76938164D01*
X120030411Y-77050711D01*
X120030408Y-77050714D01*
X120025464Y-77057159D01*
X120022355Y-77064662D01*
X120022354Y-77064666D01*
X119968066Y-77195728D01*
X119968064Y-77195733D01*
X119964956Y-77203238D01*
X119963896Y-77211289D01*
X119963894Y-77211297D01*
X119945702Y-77349482D01*
X119944318Y-77360000D01*
X103313011Y-77360000D01*
X103202841Y-77275464D01*
X103125041Y-77243238D01*
X103064271Y-77218066D01*
X103064268Y-77218065D01*
X103056762Y-77214956D01*
X103048708Y-77213895D01*
X103048702Y-77213894D01*
X102908059Y-77195379D01*
X102900000Y-77194318D01*
X102891941Y-77195379D01*
X102751297Y-77213894D01*
X102751289Y-77213896D01*
X102743238Y-77214956D01*
X102735733Y-77218064D01*
X102735728Y-77218066D01*
X102604666Y-77272354D01*
X102604662Y-77272355D01*
X102597159Y-77275464D01*
X102590714Y-77280408D01*
X102590711Y-77280411D01*
X102478164Y-77366771D01*
X102478160Y-77366774D01*
X102471718Y-77371718D01*
X102466774Y-77378160D01*
X102466771Y-77378164D01*
X102380411Y-77490711D01*
X102380408Y-77490714D01*
X102375464Y-77497159D01*
X102372355Y-77504662D01*
X102372354Y-77504666D01*
X102318066Y-77635728D01*
X102318064Y-77635733D01*
X102314956Y-77643238D01*
X102313896Y-77651289D01*
X102313894Y-77651297D01*
X102300730Y-77751296D01*
X102294318Y-77800000D01*
X93849983Y-77800000D01*
X93924536Y-77702841D01*
X93985044Y-77556762D01*
X94005682Y-77400000D01*
X93985044Y-77243238D01*
X93924536Y-77097159D01*
X93828282Y-76971718D01*
X93702841Y-76875464D01*
X93606273Y-76835464D01*
X93564271Y-76818066D01*
X93564268Y-76818065D01*
X93556762Y-76814956D01*
X93548708Y-76813895D01*
X93548702Y-76813894D01*
X93408059Y-76795379D01*
X93400000Y-76794318D01*
X93391941Y-76795379D01*
X93251297Y-76813894D01*
X93251289Y-76813896D01*
X93243238Y-76814956D01*
X93235733Y-76818064D01*
X93235728Y-76818066D01*
X93104666Y-76872354D01*
X93104662Y-76872355D01*
X93097159Y-76875464D01*
X93090714Y-76880408D01*
X93090711Y-76880411D01*
X92978164Y-76966771D01*
X92978160Y-76966774D01*
X92971718Y-76971718D01*
X92966774Y-76978160D01*
X92966771Y-76978164D01*
X92880411Y-77090711D01*
X92880408Y-77090714D01*
X92875464Y-77097159D01*
X92872355Y-77104662D01*
X92872354Y-77104666D01*
X92818066Y-77235728D01*
X92818064Y-77235733D01*
X92814956Y-77243238D01*
X92813896Y-77251289D01*
X92813894Y-77251297D01*
X92798523Y-77368059D01*
X92794318Y-77400000D01*
X87200000Y-77400000D01*
X87200000Y-76600000D01*
X91294318Y-76600000D01*
X91295379Y-76608059D01*
X91313894Y-76748702D01*
X91313895Y-76748708D01*
X91314956Y-76756762D01*
X91318065Y-76764268D01*
X91318066Y-76764271D01*
X91362836Y-76872354D01*
X91375464Y-76902841D01*
X91471718Y-77028282D01*
X91597159Y-77124536D01*
X91743238Y-77185044D01*
X91900000Y-77205682D01*
X92056762Y-77185044D01*
X92202841Y-77124536D01*
X92328282Y-77028282D01*
X92424536Y-76902841D01*
X92485044Y-76756762D01*
X92505682Y-76600000D01*
X92485044Y-76443238D01*
X92424536Y-76297159D01*
X92328282Y-76171718D01*
X92202841Y-76075464D01*
X92125041Y-76043238D01*
X92064271Y-76018066D01*
X92064268Y-76018065D01*
X92056762Y-76014956D01*
X92048708Y-76013895D01*
X92048702Y-76013894D01*
X91908059Y-75995379D01*
X91900000Y-75994318D01*
X91891941Y-75995379D01*
X91751297Y-76013894D01*
X91751289Y-76013896D01*
X91743238Y-76014956D01*
X91735733Y-76018064D01*
X91735728Y-76018066D01*
X91604666Y-76072354D01*
X91604662Y-76072355D01*
X91597159Y-76075464D01*
X91590714Y-76080408D01*
X91590711Y-76080411D01*
X91478164Y-76166771D01*
X91478160Y-76166774D01*
X91471718Y-76171718D01*
X91466774Y-76178160D01*
X91466771Y-76178164D01*
X91380411Y-76290711D01*
X91380408Y-76290714D01*
X91375464Y-76297159D01*
X91372355Y-76304662D01*
X91372354Y-76304666D01*
X91318066Y-76435728D01*
X91318064Y-76435733D01*
X91314956Y-76443238D01*
X91313896Y-76451289D01*
X91313894Y-76451297D01*
X91307109Y-76502841D01*
X91294318Y-76600000D01*
X87200000Y-76600000D01*
X87200000Y-75700000D01*
X134394318Y-75700000D01*
X134395379Y-75708059D01*
X134413894Y-75848702D01*
X134413895Y-75848708D01*
X134414956Y-75856762D01*
X134475464Y-76002841D01*
X134571718Y-76128282D01*
X134697159Y-76224536D01*
X134843238Y-76285044D01*
X135000000Y-76305682D01*
X135156762Y-76285044D01*
X135302841Y-76224536D01*
X135428282Y-76128282D01*
X135524536Y-76002841D01*
X135585044Y-75856762D01*
X135605682Y-75700000D01*
X135585044Y-75543238D01*
X135524536Y-75397159D01*
X135428282Y-75271718D01*
X135302841Y-75175464D01*
X135295333Y-75172354D01*
X135164271Y-75118066D01*
X135164268Y-75118065D01*
X135156762Y-75114956D01*
X135148708Y-75113895D01*
X135148702Y-75113894D01*
X135008059Y-75095379D01*
X135000000Y-75094318D01*
X134991941Y-75095379D01*
X134851297Y-75113894D01*
X134851289Y-75113896D01*
X134843238Y-75114956D01*
X134835733Y-75118064D01*
X134835728Y-75118066D01*
X134704666Y-75172354D01*
X134704662Y-75172355D01*
X134697159Y-75175464D01*
X134690714Y-75180408D01*
X134690711Y-75180411D01*
X134578164Y-75266771D01*
X134578160Y-75266774D01*
X134571718Y-75271718D01*
X134566774Y-75278160D01*
X134566771Y-75278164D01*
X134480411Y-75390711D01*
X134480408Y-75390714D01*
X134475464Y-75397159D01*
X134472355Y-75404662D01*
X134472354Y-75404666D01*
X134418066Y-75535728D01*
X134418064Y-75535733D01*
X134414956Y-75543238D01*
X134413896Y-75551289D01*
X134413894Y-75551297D01*
X134408231Y-75594318D01*
X134394318Y-75700000D01*
X87200000Y-75700000D01*
X87200000Y-74700000D01*
X100094318Y-74700000D01*
X100095379Y-74708059D01*
X100113894Y-74848702D01*
X100113895Y-74848708D01*
X100114956Y-74856762D01*
X100118065Y-74864268D01*
X100118066Y-74864271D01*
X100164068Y-74975329D01*
X100175464Y-75002841D01*
X100271718Y-75128282D01*
X100397159Y-75224536D01*
X100543238Y-75285044D01*
X100700000Y-75305682D01*
X100856762Y-75285044D01*
X101002841Y-75224536D01*
X101128282Y-75128282D01*
X101224536Y-75002841D01*
X101285044Y-74856762D01*
X101305682Y-74700000D01*
X101285044Y-74543238D01*
X101224536Y-74397159D01*
X101128282Y-74271718D01*
X101002841Y-74175464D01*
X100950047Y-74153596D01*
X100864271Y-74118066D01*
X100864268Y-74118065D01*
X100856762Y-74114956D01*
X100848708Y-74113895D01*
X100848702Y-74113894D01*
X100708059Y-74095379D01*
X100700000Y-74094318D01*
X100691941Y-74095379D01*
X100551297Y-74113894D01*
X100551289Y-74113896D01*
X100543238Y-74114956D01*
X100535733Y-74118064D01*
X100535728Y-74118066D01*
X100404666Y-74172354D01*
X100404662Y-74172355D01*
X100397159Y-74175464D01*
X100390714Y-74180408D01*
X100390711Y-74180411D01*
X100278164Y-74266771D01*
X100278160Y-74266774D01*
X100271718Y-74271718D01*
X100266774Y-74278160D01*
X100266771Y-74278164D01*
X100180411Y-74390711D01*
X100180408Y-74390714D01*
X100175464Y-74397159D01*
X100172355Y-74404662D01*
X100172354Y-74404666D01*
X100118066Y-74535728D01*
X100118064Y-74535733D01*
X100114956Y-74543238D01*
X100113896Y-74551289D01*
X100113894Y-74551297D01*
X100095702Y-74689482D01*
X100094318Y-74700000D01*
X87200000Y-74700000D01*
X87200000Y-74624000D01*
X87216613Y-74562000D01*
X87262000Y-74516613D01*
X87324000Y-74500000D01*
X97283674Y-74500000D01*
X97300000Y-74500000D01*
X97300000Y-71700000D01*
X103894318Y-71700000D01*
X103895379Y-71708059D01*
X103913894Y-71848702D01*
X103913895Y-71848708D01*
X103914956Y-71856762D01*
X103918065Y-71864268D01*
X103918066Y-71864271D01*
X103935219Y-71905682D01*
X103975464Y-72002841D01*
X104071718Y-72128282D01*
X104197159Y-72224536D01*
X104343238Y-72285044D01*
X104500000Y-72305682D01*
X104656762Y-72285044D01*
X104802841Y-72224536D01*
X104928282Y-72128282D01*
X105024536Y-72002841D01*
X105085044Y-71856762D01*
X105105682Y-71700000D01*
X105085044Y-71543238D01*
X105024536Y-71397159D01*
X104928282Y-71271718D01*
X104802841Y-71175464D01*
X104795333Y-71172354D01*
X104664271Y-71118066D01*
X104664268Y-71118065D01*
X104656762Y-71114956D01*
X104648708Y-71113895D01*
X104648702Y-71113894D01*
X104508059Y-71095379D01*
X104500000Y-71094318D01*
X104491941Y-71095379D01*
X104351297Y-71113894D01*
X104351289Y-71113896D01*
X104343238Y-71114956D01*
X104335733Y-71118064D01*
X104335728Y-71118066D01*
X104204666Y-71172354D01*
X104204662Y-71172355D01*
X104197159Y-71175464D01*
X104190714Y-71180408D01*
X104190711Y-71180411D01*
X104078164Y-71266771D01*
X104078160Y-71266774D01*
X104071718Y-71271718D01*
X104066774Y-71278160D01*
X104066771Y-71278164D01*
X103980411Y-71390711D01*
X103980408Y-71390714D01*
X103975464Y-71397159D01*
X103972355Y-71404662D01*
X103972354Y-71404666D01*
X103918066Y-71535728D01*
X103918064Y-71535733D01*
X103914956Y-71543238D01*
X103913896Y-71551289D01*
X103913894Y-71551297D01*
X103908231Y-71594318D01*
X103894318Y-71700000D01*
X97300000Y-71700000D01*
X97300000Y-68300000D01*
X103994318Y-68300000D01*
X103995379Y-68308059D01*
X104013894Y-68448702D01*
X104013895Y-68448708D01*
X104014956Y-68456762D01*
X104018065Y-68464268D01*
X104018066Y-68464271D01*
X104035219Y-68505682D01*
X104075464Y-68602841D01*
X104171718Y-68728282D01*
X104297159Y-68824536D01*
X104443238Y-68885044D01*
X104600000Y-68905682D01*
X104756762Y-68885044D01*
X104902841Y-68824536D01*
X105028282Y-68728282D01*
X105124536Y-68602841D01*
X105185044Y-68456762D01*
X105205682Y-68300000D01*
X105185044Y-68143238D01*
X105124536Y-67997159D01*
X105028282Y-67871718D01*
X104902841Y-67775464D01*
X104895333Y-67772354D01*
X104764271Y-67718066D01*
X104764268Y-67718065D01*
X104756762Y-67714956D01*
X104748708Y-67713895D01*
X104748702Y-67713894D01*
X104608059Y-67695379D01*
X104600000Y-67694318D01*
X104591941Y-67695379D01*
X104451297Y-67713894D01*
X104451289Y-67713896D01*
X104443238Y-67714956D01*
X104435733Y-67718064D01*
X104435728Y-67718066D01*
X104304666Y-67772354D01*
X104304662Y-67772355D01*
X104297159Y-67775464D01*
X104290714Y-67780408D01*
X104290711Y-67780411D01*
X104178164Y-67866771D01*
X104178160Y-67866774D01*
X104171718Y-67871718D01*
X104166774Y-67878160D01*
X104166771Y-67878164D01*
X104080411Y-67990711D01*
X104080408Y-67990714D01*
X104075464Y-67997159D01*
X104072355Y-68004662D01*
X104072354Y-68004666D01*
X104018066Y-68135728D01*
X104018064Y-68135733D01*
X104014956Y-68143238D01*
X104013896Y-68151289D01*
X104013894Y-68151297D01*
X104006735Y-68205682D01*
X103994318Y-68300000D01*
X97300000Y-68300000D01*
X97300000Y-67951285D01*
X97301061Y-67935100D01*
X97304621Y-67908059D01*
X97305682Y-67900000D01*
X97301060Y-67864899D01*
X97300000Y-67848715D01*
X97300000Y-66624000D01*
X97316613Y-66562000D01*
X97362000Y-66516613D01*
X97424000Y-66500000D01*
X98423557Y-66500000D01*
X98485557Y-66516613D01*
G37*
G04 #@! TD.AperFunction*
G04 #@! TA.AperFunction,Conductor*
G36*
X116938000Y-96016613D02*
G01*
X116983387Y-96062000D01*
X117000000Y-96124000D01*
X117000000Y-101500000D01*
X127848715Y-101500000D01*
X127864899Y-101501060D01*
X127900000Y-101505682D01*
X127935100Y-101501060D01*
X127951285Y-101500000D01*
X131248715Y-101500000D01*
X131264899Y-101501060D01*
X131300000Y-101505682D01*
X131335100Y-101501060D01*
X131351285Y-101500000D01*
X135248715Y-101500000D01*
X135264899Y-101501060D01*
X135300000Y-101505682D01*
X135335100Y-101501060D01*
X135351285Y-101500000D01*
X135876000Y-101500000D01*
X135938000Y-101516613D01*
X135983387Y-101562000D01*
X136000000Y-101624000D01*
X136000000Y-104376000D01*
X135983387Y-104438000D01*
X135938000Y-104483387D01*
X135876000Y-104500000D01*
X117451285Y-104500000D01*
X117435100Y-104498939D01*
X117408059Y-104495379D01*
X117400000Y-104494318D01*
X117391941Y-104495379D01*
X117364900Y-104498939D01*
X117348715Y-104500000D01*
X114365482Y-104500000D01*
X114307510Y-104485614D01*
X114262989Y-104445795D01*
X114242250Y-104389780D01*
X114250104Y-104330569D01*
X114282003Y-104285730D01*
X114281333Y-104285025D01*
X114281332Y-104285025D01*
X114564401Y-104015949D01*
X114818795Y-103719616D01*
X115041904Y-103399066D01*
X115231439Y-103057590D01*
X115385455Y-102698690D01*
X115502371Y-102326051D01*
X115580988Y-101943495D01*
X115620500Y-101554948D01*
X115620500Y-101164398D01*
X115580988Y-100775851D01*
X115502371Y-100393295D01*
X115385455Y-100020656D01*
X115231439Y-99661756D01*
X115041904Y-99320280D01*
X114818795Y-98999730D01*
X114564401Y-98703397D01*
X114281333Y-98434321D01*
X114225936Y-98391440D01*
X113974985Y-98197189D01*
X113974979Y-98197185D01*
X113972495Y-98195262D01*
X113815103Y-98097159D01*
X113643723Y-97990337D01*
X113643717Y-97990334D01*
X113641056Y-97988675D01*
X113290418Y-97816679D01*
X113287465Y-97815585D01*
X113287462Y-97815584D01*
X112927119Y-97682128D01*
X112927121Y-97682128D01*
X112924179Y-97681039D01*
X112921157Y-97680256D01*
X112921149Y-97680254D01*
X112549136Y-97583933D01*
X112549133Y-97583932D01*
X112546096Y-97583146D01*
X112542996Y-97582671D01*
X112542986Y-97582669D01*
X112163163Y-97524483D01*
X112163162Y-97524482D01*
X112160049Y-97524006D01*
X112156911Y-97523846D01*
X112156903Y-97523846D01*
X111869119Y-97509251D01*
X111869089Y-97509250D01*
X111867566Y-97509173D01*
X111672434Y-97509173D01*
X111670911Y-97509250D01*
X111670880Y-97509251D01*
X111383096Y-97523846D01*
X111383086Y-97523847D01*
X111379951Y-97524006D01*
X111376839Y-97524482D01*
X111376836Y-97524483D01*
X110997013Y-97582669D01*
X110996999Y-97582671D01*
X110993904Y-97583146D01*
X110990869Y-97583931D01*
X110990863Y-97583933D01*
X110618850Y-97680254D01*
X110618836Y-97680258D01*
X110615821Y-97681039D01*
X110612884Y-97682126D01*
X110612880Y-97682128D01*
X110252537Y-97815584D01*
X110252526Y-97815588D01*
X110249582Y-97816679D01*
X110246759Y-97818063D01*
X110246756Y-97818065D01*
X109901762Y-97987292D01*
X109901751Y-97987298D01*
X109898944Y-97988675D01*
X109896290Y-97990329D01*
X109896276Y-97990337D01*
X109570177Y-98193596D01*
X109570169Y-98193601D01*
X109567505Y-98195262D01*
X109565029Y-98197178D01*
X109565014Y-98197189D01*
X109261153Y-98432396D01*
X109261144Y-98432403D01*
X109258667Y-98434321D01*
X109256402Y-98436473D01*
X109256388Y-98436486D01*
X108977876Y-98701232D01*
X108977870Y-98701237D01*
X108975599Y-98703397D01*
X108973556Y-98705776D01*
X108973552Y-98705781D01*
X108723255Y-98997341D01*
X108723246Y-98997351D01*
X108721205Y-98999730D01*
X108719413Y-99002303D01*
X108719408Y-99002311D01*
X108499889Y-99317703D01*
X108499883Y-99317711D01*
X108498096Y-99320280D01*
X108496577Y-99323015D01*
X108496573Y-99323023D01*
X108358536Y-99571718D01*
X108308561Y-99661756D01*
X108307329Y-99664626D01*
X108307324Y-99664637D01*
X108155785Y-100017764D01*
X108155778Y-100017781D01*
X108154545Y-100020656D01*
X108153606Y-100023646D01*
X108153601Y-100023662D01*
X108038569Y-100390298D01*
X108037629Y-100393295D01*
X108037002Y-100396344D01*
X108036997Y-100396365D01*
X107959642Y-100772782D01*
X107959639Y-100772795D01*
X107959012Y-100775851D01*
X107958695Y-100778967D01*
X107958695Y-100778968D01*
X107919817Y-101161274D01*
X107919816Y-101161287D01*
X107919500Y-101164398D01*
X107919500Y-101554948D01*
X107919816Y-101558059D01*
X107919817Y-101558071D01*
X107934198Y-101699486D01*
X107959012Y-101943495D01*
X107959640Y-101946553D01*
X107959642Y-101946563D01*
X108036997Y-102322980D01*
X108037001Y-102322996D01*
X108037629Y-102326051D01*
X108038569Y-102329047D01*
X108153601Y-102695683D01*
X108153604Y-102695692D01*
X108154545Y-102698690D01*
X108155781Y-102701570D01*
X108155785Y-102701581D01*
X108271983Y-102972354D01*
X108308561Y-103057590D01*
X108498096Y-103399066D01*
X108721205Y-103719616D01*
X108975599Y-104015949D01*
X109048287Y-104085044D01*
X109258667Y-104285025D01*
X109257996Y-104285730D01*
X109289896Y-104330569D01*
X109297750Y-104389780D01*
X109277011Y-104445795D01*
X109232490Y-104485614D01*
X109174518Y-104500000D01*
X91000000Y-104500000D01*
X90992529Y-104516062D01*
X90992526Y-104516066D01*
X89041086Y-108711659D01*
X89041083Y-108711671D01*
X89000000Y-108800000D01*
X89000000Y-108904229D01*
X88354643Y-109549587D01*
X88299056Y-109581681D01*
X88234868Y-109581681D01*
X88179281Y-109549587D01*
X87488794Y-108859100D01*
X87459627Y-108840963D01*
X87450907Y-108838134D01*
X87411921Y-108802205D01*
X87391505Y-108753277D01*
X87344365Y-108494006D01*
X87834683Y-108494006D01*
X87840592Y-108503792D01*
X88255419Y-108918619D01*
X88266961Y-108925283D01*
X88278504Y-108918619D01*
X88693330Y-108503792D01*
X88699239Y-108494006D01*
X88690214Y-108486986D01*
X88552541Y-108425691D01*
X88540256Y-108421699D01*
X88367916Y-108385067D01*
X88355054Y-108383715D01*
X88178870Y-108383715D01*
X88166007Y-108385067D01*
X87993667Y-108421699D01*
X87981382Y-108425691D01*
X87843708Y-108486986D01*
X87834683Y-108494006D01*
X87344365Y-108494006D01*
X87202000Y-107711000D01*
X87200000Y-107688818D01*
X87200000Y-103500000D01*
X94594318Y-103500000D01*
X94595379Y-103508059D01*
X94613894Y-103648702D01*
X94613895Y-103648708D01*
X94614956Y-103656762D01*
X94618065Y-103664268D01*
X94618066Y-103664271D01*
X94640991Y-103719616D01*
X94675464Y-103802841D01*
X94771718Y-103928282D01*
X94897159Y-104024536D01*
X95043238Y-104085044D01*
X95200000Y-104105682D01*
X95356762Y-104085044D01*
X95502841Y-104024536D01*
X95628282Y-103928282D01*
X95724536Y-103802841D01*
X95785044Y-103656762D01*
X95805682Y-103500000D01*
X95785044Y-103343238D01*
X95724536Y-103197159D01*
X95628282Y-103071718D01*
X95502841Y-102975464D01*
X95495333Y-102972354D01*
X95364271Y-102918066D01*
X95364268Y-102918065D01*
X95356762Y-102914956D01*
X95348708Y-102913895D01*
X95348702Y-102913894D01*
X95208059Y-102895379D01*
X95200000Y-102894318D01*
X95191941Y-102895379D01*
X95051297Y-102913894D01*
X95051289Y-102913896D01*
X95043238Y-102914956D01*
X95035733Y-102918064D01*
X95035728Y-102918066D01*
X94904666Y-102972354D01*
X94904662Y-102972355D01*
X94897159Y-102975464D01*
X94890714Y-102980408D01*
X94890711Y-102980411D01*
X94778164Y-103066771D01*
X94778160Y-103066774D01*
X94771718Y-103071718D01*
X94766774Y-103078160D01*
X94766771Y-103078164D01*
X94680411Y-103190711D01*
X94680408Y-103190714D01*
X94675464Y-103197159D01*
X94672355Y-103204662D01*
X94672354Y-103204666D01*
X94618066Y-103335728D01*
X94618064Y-103335733D01*
X94614956Y-103343238D01*
X94613896Y-103351289D01*
X94613894Y-103351297D01*
X94595702Y-103489482D01*
X94594318Y-103500000D01*
X87200000Y-103500000D01*
X87200000Y-101624000D01*
X87216613Y-101562000D01*
X87262000Y-101516613D01*
X87324000Y-101500000D01*
X88952035Y-101500000D01*
X89017515Y-101518699D01*
X89063247Y-101569156D01*
X89075438Y-101636154D01*
X89050411Y-101699486D01*
X88980411Y-101790711D01*
X88980408Y-101790714D01*
X88975464Y-101797159D01*
X88972355Y-101804662D01*
X88972354Y-101804666D01*
X88918066Y-101935728D01*
X88918064Y-101935733D01*
X88914956Y-101943238D01*
X88913896Y-101951289D01*
X88913894Y-101951297D01*
X88898322Y-102069588D01*
X88894318Y-102100000D01*
X88895379Y-102108059D01*
X88913894Y-102248702D01*
X88913895Y-102248708D01*
X88914956Y-102256762D01*
X88975464Y-102402841D01*
X89071718Y-102528282D01*
X89197159Y-102624536D01*
X89343238Y-102685044D01*
X89500000Y-102705682D01*
X89656762Y-102685044D01*
X89802841Y-102624536D01*
X89928282Y-102528282D01*
X90024536Y-102402841D01*
X90085044Y-102256762D01*
X90105682Y-102100000D01*
X90085044Y-101943238D01*
X90024536Y-101797159D01*
X89949588Y-101699485D01*
X89924562Y-101636154D01*
X89936753Y-101569156D01*
X89982485Y-101518699D01*
X90047965Y-101500000D01*
X91478990Y-101500000D01*
X91536247Y-101514011D01*
X91580565Y-101552876D01*
X91601929Y-101607814D01*
X91614956Y-101706762D01*
X91675464Y-101852841D01*
X91771718Y-101978282D01*
X91897159Y-102074536D01*
X92043238Y-102135044D01*
X92200000Y-102155682D01*
X92356762Y-102135044D01*
X92502841Y-102074536D01*
X92628282Y-101978282D01*
X92724536Y-101852841D01*
X92785044Y-101706762D01*
X92798071Y-101607814D01*
X92819435Y-101552876D01*
X92863753Y-101514011D01*
X92921010Y-101500000D01*
X102648715Y-101500000D01*
X102664899Y-101501060D01*
X102700000Y-101505682D01*
X102735100Y-101501060D01*
X102751285Y-101500000D01*
X106583674Y-101500000D01*
X106600000Y-101500000D01*
X106600000Y-96124000D01*
X106616613Y-96062000D01*
X106662000Y-96016613D01*
X106724000Y-96000000D01*
X116876000Y-96000000D01*
X116938000Y-96016613D01*
G37*
G04 #@! TD.AperFunction*
G04 #@! TA.AperFunction,Conductor*
G36*
X99245879Y-59119420D02*
G01*
X99291636Y-59171596D01*
X99302192Y-59240184D01*
X99294318Y-59300000D01*
X99295379Y-59308059D01*
X99313894Y-59448702D01*
X99313895Y-59448708D01*
X99314956Y-59456762D01*
X99318065Y-59464268D01*
X99318066Y-59464271D01*
X99338621Y-59513894D01*
X99375464Y-59602841D01*
X99471718Y-59728282D01*
X99597159Y-59824536D01*
X99743238Y-59885044D01*
X99900000Y-59905682D01*
X100056762Y-59885044D01*
X100202841Y-59824536D01*
X100328282Y-59728282D01*
X100424536Y-59602841D01*
X100485044Y-59456762D01*
X100505682Y-59300000D01*
X100497807Y-59240184D01*
X100508364Y-59171596D01*
X100554121Y-59119420D01*
X100620746Y-59100000D01*
X109441568Y-59100000D01*
X109490356Y-59111135D01*
X109490478Y-59110789D01*
X109660745Y-59170368D01*
X109840000Y-59190565D01*
X110019255Y-59170368D01*
X110189522Y-59110789D01*
X110189643Y-59111135D01*
X110238432Y-59100000D01*
X118081568Y-59100000D01*
X118130356Y-59111135D01*
X118130478Y-59110789D01*
X118300745Y-59170368D01*
X118480000Y-59190565D01*
X118659255Y-59170368D01*
X118829522Y-59110789D01*
X118829643Y-59111135D01*
X118878432Y-59100000D01*
X122876000Y-59100000D01*
X122938000Y-59116613D01*
X122983387Y-59162000D01*
X123000000Y-59224000D01*
X123000000Y-65276000D01*
X122983387Y-65338000D01*
X122938000Y-65383387D01*
X122876000Y-65400000D01*
X100676443Y-65400000D01*
X100614443Y-65383387D01*
X100609287Y-65380410D01*
X100602841Y-65375464D01*
X100595333Y-65372354D01*
X100464271Y-65318066D01*
X100464268Y-65318065D01*
X100456762Y-65314956D01*
X100448708Y-65313895D01*
X100448702Y-65313894D01*
X100308059Y-65295379D01*
X100300000Y-65294318D01*
X100291941Y-65295379D01*
X100151297Y-65313894D01*
X100151289Y-65313896D01*
X100143238Y-65314956D01*
X100135733Y-65318064D01*
X100135728Y-65318066D01*
X100004666Y-65372354D01*
X100004662Y-65372355D01*
X99997159Y-65375464D01*
X99990713Y-65380409D01*
X99985557Y-65383387D01*
X99923557Y-65400000D01*
X98851285Y-65400000D01*
X98835100Y-65398939D01*
X98808059Y-65395379D01*
X98800000Y-65394318D01*
X98791941Y-65395379D01*
X98764900Y-65398939D01*
X98748715Y-65400000D01*
X97176443Y-65400000D01*
X97114443Y-65383387D01*
X97109287Y-65380410D01*
X97102841Y-65375464D01*
X97095333Y-65372354D01*
X96964271Y-65318066D01*
X96964268Y-65318065D01*
X96956762Y-65314956D01*
X96948708Y-65313895D01*
X96948702Y-65313894D01*
X96808059Y-65295379D01*
X96800000Y-65294318D01*
X96791941Y-65295379D01*
X96651297Y-65313894D01*
X96651289Y-65313896D01*
X96643238Y-65314956D01*
X96635733Y-65318064D01*
X96635728Y-65318066D01*
X96504666Y-65372354D01*
X96504662Y-65372355D01*
X96497159Y-65375464D01*
X96490713Y-65380409D01*
X96485557Y-65383387D01*
X96423557Y-65400000D01*
X96100000Y-65400000D01*
X96100000Y-65416326D01*
X96100000Y-67848715D01*
X96098939Y-67864899D01*
X96094318Y-67900000D01*
X96095379Y-67908059D01*
X96098939Y-67935100D01*
X96100000Y-67951285D01*
X96100000Y-72676000D01*
X96083387Y-72738000D01*
X96038000Y-72783387D01*
X95976000Y-72800000D01*
X88024000Y-72800000D01*
X87962000Y-72783387D01*
X87916613Y-72738000D01*
X87900000Y-72676000D01*
X87900000Y-68200000D01*
X90394318Y-68200000D01*
X90395379Y-68208059D01*
X90413894Y-68348702D01*
X90413895Y-68348708D01*
X90414956Y-68356762D01*
X90475464Y-68502841D01*
X90571718Y-68628282D01*
X90697159Y-68724536D01*
X90843238Y-68785044D01*
X91000000Y-68805682D01*
X91156762Y-68785044D01*
X91302841Y-68724536D01*
X91428282Y-68628282D01*
X91524536Y-68502841D01*
X91585044Y-68356762D01*
X91605682Y-68200000D01*
X91585044Y-68043238D01*
X91524536Y-67897159D01*
X91428282Y-67771718D01*
X91302841Y-67675464D01*
X91295333Y-67672354D01*
X91164271Y-67618066D01*
X91164268Y-67618065D01*
X91156762Y-67614956D01*
X91148708Y-67613895D01*
X91148702Y-67613894D01*
X91008059Y-67595379D01*
X91000000Y-67594318D01*
X90991941Y-67595379D01*
X90851297Y-67613894D01*
X90851289Y-67613896D01*
X90843238Y-67614956D01*
X90835733Y-67618064D01*
X90835728Y-67618066D01*
X90704666Y-67672354D01*
X90704662Y-67672355D01*
X90697159Y-67675464D01*
X90690714Y-67680408D01*
X90690711Y-67680411D01*
X90578164Y-67766771D01*
X90578160Y-67766774D01*
X90571718Y-67771718D01*
X90566774Y-67778160D01*
X90566771Y-67778164D01*
X90480411Y-67890711D01*
X90480408Y-67890714D01*
X90475464Y-67897159D01*
X90472355Y-67904662D01*
X90472354Y-67904666D01*
X90418066Y-68035728D01*
X90418064Y-68035733D01*
X90414956Y-68043238D01*
X90413896Y-68051289D01*
X90413894Y-68051297D01*
X90395702Y-68189482D01*
X90394318Y-68200000D01*
X87900000Y-68200000D01*
X87900000Y-65400000D01*
X89394318Y-65400000D01*
X89395379Y-65408059D01*
X89413894Y-65548702D01*
X89413895Y-65548708D01*
X89414956Y-65556762D01*
X89475464Y-65702841D01*
X89571718Y-65828282D01*
X89697159Y-65924536D01*
X89843238Y-65985044D01*
X90000000Y-66005682D01*
X90156762Y-65985044D01*
X90302841Y-65924536D01*
X90428282Y-65828282D01*
X90524536Y-65702841D01*
X90585044Y-65556762D01*
X90605682Y-65400000D01*
X93494318Y-65400000D01*
X93495379Y-65408059D01*
X93513894Y-65548702D01*
X93513895Y-65548708D01*
X93514956Y-65556762D01*
X93575464Y-65702841D01*
X93671718Y-65828282D01*
X93797159Y-65924536D01*
X93943238Y-65985044D01*
X94100000Y-66005682D01*
X94256762Y-65985044D01*
X94402841Y-65924536D01*
X94528282Y-65828282D01*
X94624536Y-65702841D01*
X94685044Y-65556762D01*
X94705682Y-65400000D01*
X94685044Y-65243238D01*
X94624536Y-65097159D01*
X94528282Y-64971718D01*
X94402841Y-64875464D01*
X94395333Y-64872354D01*
X94264271Y-64818066D01*
X94264268Y-64818065D01*
X94256762Y-64814956D01*
X94248708Y-64813895D01*
X94248702Y-64813894D01*
X94108059Y-64795379D01*
X94100000Y-64794318D01*
X94091941Y-64795379D01*
X93951297Y-64813894D01*
X93951289Y-64813896D01*
X93943238Y-64814956D01*
X93935733Y-64818064D01*
X93935728Y-64818066D01*
X93804666Y-64872354D01*
X93804662Y-64872355D01*
X93797159Y-64875464D01*
X93790714Y-64880408D01*
X93790711Y-64880411D01*
X93678164Y-64966771D01*
X93678160Y-64966774D01*
X93671718Y-64971718D01*
X93666774Y-64978160D01*
X93666771Y-64978164D01*
X93580411Y-65090711D01*
X93580408Y-65090714D01*
X93575464Y-65097159D01*
X93572355Y-65104662D01*
X93572354Y-65104666D01*
X93518066Y-65235728D01*
X93518064Y-65235733D01*
X93514956Y-65243238D01*
X93513896Y-65251289D01*
X93513894Y-65251297D01*
X93502480Y-65338000D01*
X93494318Y-65400000D01*
X90605682Y-65400000D01*
X90585044Y-65243238D01*
X90524536Y-65097159D01*
X90428282Y-64971718D01*
X90302841Y-64875464D01*
X90295333Y-64872354D01*
X90164271Y-64818066D01*
X90164268Y-64818065D01*
X90156762Y-64814956D01*
X90148708Y-64813895D01*
X90148702Y-64813894D01*
X90008059Y-64795379D01*
X90000000Y-64794318D01*
X89991941Y-64795379D01*
X89851297Y-64813894D01*
X89851289Y-64813896D01*
X89843238Y-64814956D01*
X89835733Y-64818064D01*
X89835728Y-64818066D01*
X89704666Y-64872354D01*
X89704662Y-64872355D01*
X89697159Y-64875464D01*
X89690714Y-64880408D01*
X89690711Y-64880411D01*
X89578164Y-64966771D01*
X89578160Y-64966774D01*
X89571718Y-64971718D01*
X89566774Y-64978160D01*
X89566771Y-64978164D01*
X89480411Y-65090711D01*
X89480408Y-65090714D01*
X89475464Y-65097159D01*
X89472355Y-65104662D01*
X89472354Y-65104666D01*
X89418066Y-65235728D01*
X89418064Y-65235733D01*
X89414956Y-65243238D01*
X89413896Y-65251289D01*
X89413894Y-65251297D01*
X89402480Y-65338000D01*
X89394318Y-65400000D01*
X87900000Y-65400000D01*
X87900000Y-62759954D01*
X109039500Y-62759954D01*
X109054632Y-62894255D01*
X109114211Y-63064522D01*
X109210184Y-63217262D01*
X109337738Y-63344816D01*
X109490478Y-63440789D01*
X109660745Y-63500368D01*
X109827179Y-63519120D01*
X109880729Y-63538280D01*
X109920094Y-63579336D01*
X109936987Y-63633648D01*
X109927854Y-63689789D01*
X109923541Y-63700201D01*
X109923539Y-63700207D01*
X109920430Y-63707714D01*
X109919370Y-63715765D01*
X109919368Y-63715773D01*
X109901176Y-63853958D01*
X109899792Y-63864476D01*
X109900853Y-63872535D01*
X109919368Y-64013178D01*
X109919369Y-64013184D01*
X109920430Y-64021238D01*
X109980938Y-64167317D01*
X110077192Y-64292758D01*
X110202633Y-64389012D01*
X110348712Y-64449520D01*
X110505474Y-64470158D01*
X110662236Y-64449520D01*
X110808315Y-64389012D01*
X110933756Y-64292758D01*
X111030010Y-64167317D01*
X111090518Y-64021238D01*
X111111156Y-63864476D01*
X111090518Y-63707714D01*
X111030010Y-63561635D01*
X110933756Y-63436194D01*
X110808315Y-63339940D01*
X110800807Y-63336830D01*
X110669745Y-63282542D01*
X110669742Y-63282541D01*
X110662236Y-63279432D01*
X110654181Y-63278371D01*
X110654179Y-63278371D01*
X110640088Y-63276516D01*
X110583108Y-63253688D01*
X110544058Y-63206328D01*
X110532507Y-63146042D01*
X110551285Y-63087604D01*
X110565789Y-63064522D01*
X110625368Y-62894255D01*
X110640500Y-62759954D01*
X110640500Y-62154265D01*
X110654015Y-62097970D01*
X110691615Y-62053947D01*
X110745102Y-62031792D01*
X110802818Y-62036334D01*
X110852181Y-62066584D01*
X110854605Y-62069008D01*
X110859549Y-62075451D01*
X110865991Y-62080394D01*
X110973319Y-62162751D01*
X110973322Y-62162753D01*
X110979767Y-62167698D01*
X111119764Y-62225687D01*
X111232280Y-62240500D01*
X111303667Y-62240500D01*
X111307720Y-62240500D01*
X111420236Y-62225687D01*
X111560233Y-62167698D01*
X111680451Y-62075451D01*
X111772698Y-61955233D01*
X111830687Y-61815236D01*
X111850466Y-61665000D01*
X116469534Y-61665000D01*
X116470595Y-61673059D01*
X116488251Y-61807176D01*
X116488252Y-61807182D01*
X116489313Y-61815236D01*
X116547302Y-61955233D01*
X116552245Y-61961674D01*
X116552248Y-61961680D01*
X116606048Y-62031792D01*
X116639549Y-62075451D01*
X116645991Y-62080394D01*
X116753319Y-62162751D01*
X116753322Y-62162753D01*
X116759767Y-62167698D01*
X116899764Y-62225687D01*
X117012280Y-62240500D01*
X117083667Y-62240500D01*
X117087720Y-62240500D01*
X117200236Y-62225687D01*
X117340233Y-62167698D01*
X117460451Y-62075451D01*
X117465395Y-62069007D01*
X117467819Y-62066584D01*
X117517182Y-62036334D01*
X117574898Y-62031792D01*
X117628385Y-62053947D01*
X117665985Y-62097970D01*
X117679500Y-62154265D01*
X117679500Y-62759954D01*
X117694632Y-62894255D01*
X117754211Y-63064522D01*
X117757910Y-63070409D01*
X117757912Y-63070413D01*
X117782098Y-63108904D01*
X117800117Y-63159266D01*
X117795248Y-63212532D01*
X117768396Y-63258791D01*
X117724557Y-63289437D01*
X117610140Y-63336830D01*
X117610136Y-63336831D01*
X117602633Y-63339940D01*
X117596188Y-63344884D01*
X117596185Y-63344887D01*
X117483638Y-63431247D01*
X117483634Y-63431250D01*
X117477192Y-63436194D01*
X117472248Y-63442636D01*
X117472245Y-63442640D01*
X117385885Y-63555187D01*
X117385882Y-63555190D01*
X117380938Y-63561635D01*
X117377829Y-63569138D01*
X117377828Y-63569142D01*
X117323540Y-63700204D01*
X117323539Y-63700208D01*
X117320430Y-63707714D01*
X117319370Y-63715765D01*
X117319368Y-63715773D01*
X117301176Y-63853958D01*
X117299792Y-63864476D01*
X117300853Y-63872535D01*
X117319368Y-64013178D01*
X117319369Y-64013184D01*
X117320430Y-64021238D01*
X117380938Y-64167317D01*
X117477192Y-64292758D01*
X117602633Y-64389012D01*
X117748712Y-64449520D01*
X117905474Y-64470158D01*
X118062236Y-64449520D01*
X118208315Y-64389012D01*
X118333756Y-64292758D01*
X118430010Y-64167317D01*
X118490518Y-64021238D01*
X118511156Y-63864476D01*
X118490518Y-63707714D01*
X118479038Y-63680000D01*
X118469905Y-63623861D01*
X118486797Y-63569548D01*
X118526163Y-63528490D01*
X118579715Y-63509329D01*
X118659255Y-63500368D01*
X118829522Y-63440789D01*
X118982262Y-63344816D01*
X119109816Y-63217262D01*
X119205789Y-63064522D01*
X119265368Y-62894255D01*
X119280500Y-62759954D01*
X119280500Y-61570046D01*
X119265368Y-61435745D01*
X119205789Y-61265478D01*
X119109816Y-61112738D01*
X118982262Y-60985184D01*
X118829522Y-60889211D01*
X118822959Y-60886914D01*
X118822956Y-60886913D01*
X118665824Y-60831930D01*
X118665819Y-60831928D01*
X118659255Y-60829632D01*
X118652335Y-60828852D01*
X118652334Y-60828852D01*
X118486923Y-60810215D01*
X118480000Y-60809435D01*
X118473077Y-60810215D01*
X118307665Y-60828852D01*
X118307662Y-60828852D01*
X118300745Y-60829632D01*
X118294182Y-60831928D01*
X118294175Y-60831930D01*
X118137043Y-60886913D01*
X118137036Y-60886915D01*
X118130478Y-60889211D01*
X118124590Y-60892910D01*
X118124587Y-60892912D01*
X117983638Y-60981476D01*
X117983633Y-60981479D01*
X117977738Y-60985184D01*
X117972813Y-60990108D01*
X117972809Y-60990112D01*
X117855112Y-61107809D01*
X117855108Y-61107813D01*
X117850184Y-61112738D01*
X117846479Y-61118633D01*
X117846476Y-61118638D01*
X117757912Y-61259587D01*
X117757910Y-61259590D01*
X117754211Y-61265478D01*
X117751914Y-61272039D01*
X117751911Y-61272048D01*
X117740599Y-61304376D01*
X117703115Y-61358534D01*
X117643185Y-61385857D01*
X117577717Y-61378635D01*
X117525183Y-61338907D01*
X117465399Y-61260996D01*
X117465394Y-61260991D01*
X117460451Y-61254549D01*
X117454008Y-61249605D01*
X117346680Y-61167248D01*
X117346674Y-61167245D01*
X117340233Y-61162302D01*
X117332724Y-61159191D01*
X117332723Y-61159191D01*
X117207745Y-61107423D01*
X117207742Y-61107422D01*
X117200236Y-61104313D01*
X117192182Y-61103252D01*
X117192176Y-61103251D01*
X117091739Y-61090029D01*
X117091737Y-61090028D01*
X117087720Y-61089500D01*
X117012280Y-61089500D01*
X117008263Y-61090028D01*
X117008260Y-61090029D01*
X116907823Y-61103251D01*
X116907815Y-61103252D01*
X116899764Y-61104313D01*
X116892259Y-61107421D01*
X116892254Y-61107423D01*
X116767276Y-61159191D01*
X116767272Y-61159193D01*
X116759767Y-61162302D01*
X116753328Y-61167242D01*
X116753319Y-61167248D01*
X116645991Y-61249605D01*
X116645987Y-61249608D01*
X116639549Y-61254549D01*
X116634608Y-61260987D01*
X116634605Y-61260991D01*
X116552248Y-61368319D01*
X116552242Y-61368328D01*
X116547302Y-61374767D01*
X116544193Y-61382272D01*
X116544191Y-61382276D01*
X116492423Y-61507254D01*
X116492421Y-61507259D01*
X116489313Y-61514764D01*
X116488252Y-61522815D01*
X116488251Y-61522823D01*
X116481576Y-61573530D01*
X116469534Y-61665000D01*
X111850466Y-61665000D01*
X111830687Y-61514764D01*
X111772698Y-61374767D01*
X111767753Y-61368322D01*
X111767751Y-61368319D01*
X111698838Y-61278512D01*
X111680451Y-61254549D01*
X111674008Y-61249605D01*
X111566680Y-61167248D01*
X111566674Y-61167245D01*
X111560233Y-61162302D01*
X111552724Y-61159191D01*
X111552723Y-61159191D01*
X111427745Y-61107423D01*
X111427742Y-61107422D01*
X111420236Y-61104313D01*
X111412182Y-61103252D01*
X111412176Y-61103251D01*
X111311739Y-61090029D01*
X111311737Y-61090028D01*
X111307720Y-61089500D01*
X111232280Y-61089500D01*
X111228263Y-61090028D01*
X111228260Y-61090029D01*
X111127823Y-61103251D01*
X111127815Y-61103252D01*
X111119764Y-61104313D01*
X111112259Y-61107421D01*
X111112254Y-61107423D01*
X110987276Y-61159191D01*
X110987272Y-61159193D01*
X110979767Y-61162302D01*
X110973328Y-61167242D01*
X110973319Y-61167248D01*
X110865991Y-61249605D01*
X110865987Y-61249608D01*
X110859549Y-61254549D01*
X110854608Y-61260987D01*
X110854603Y-61260993D01*
X110794816Y-61338908D01*
X110742281Y-61378636D01*
X110676812Y-61385857D01*
X110616882Y-61358532D01*
X110579399Y-61304373D01*
X110568088Y-61272047D01*
X110568086Y-61272043D01*
X110565789Y-61265478D01*
X110469816Y-61112738D01*
X110342262Y-60985184D01*
X110189522Y-60889211D01*
X110182959Y-60886914D01*
X110182956Y-60886913D01*
X110025824Y-60831930D01*
X110025819Y-60831928D01*
X110019255Y-60829632D01*
X110012335Y-60828852D01*
X110012334Y-60828852D01*
X109846923Y-60810215D01*
X109840000Y-60809435D01*
X109833077Y-60810215D01*
X109667665Y-60828852D01*
X109667662Y-60828852D01*
X109660745Y-60829632D01*
X109654182Y-60831928D01*
X109654175Y-60831930D01*
X109497043Y-60886913D01*
X109497036Y-60886915D01*
X109490478Y-60889211D01*
X109484590Y-60892910D01*
X109484587Y-60892912D01*
X109343638Y-60981476D01*
X109343633Y-60981479D01*
X109337738Y-60985184D01*
X109332813Y-60990108D01*
X109332809Y-60990112D01*
X109215112Y-61107809D01*
X109215108Y-61107813D01*
X109210184Y-61112738D01*
X109206479Y-61118633D01*
X109206476Y-61118638D01*
X109117912Y-61259587D01*
X109117910Y-61259590D01*
X109114211Y-61265478D01*
X109111915Y-61272036D01*
X109111913Y-61272043D01*
X109056931Y-61429174D01*
X109054632Y-61435745D01*
X109053852Y-61442664D01*
X109053852Y-61442666D01*
X109044821Y-61522823D01*
X109039500Y-61570046D01*
X109039500Y-62759954D01*
X87900000Y-62759954D01*
X87900000Y-60100000D01*
X106094318Y-60100000D01*
X106095379Y-60108059D01*
X106113894Y-60248702D01*
X106113895Y-60248708D01*
X106114956Y-60256762D01*
X106175464Y-60402841D01*
X106271718Y-60528282D01*
X106397159Y-60624536D01*
X106543238Y-60685044D01*
X106700000Y-60705682D01*
X106856762Y-60685044D01*
X107002841Y-60624536D01*
X107128282Y-60528282D01*
X107224536Y-60402841D01*
X107285044Y-60256762D01*
X107305682Y-60100000D01*
X107285044Y-59943238D01*
X107224536Y-59797159D01*
X107128282Y-59671718D01*
X107002841Y-59575464D01*
X106995333Y-59572354D01*
X106864271Y-59518066D01*
X106864268Y-59518065D01*
X106856762Y-59514956D01*
X106848708Y-59513895D01*
X106848702Y-59513894D01*
X106708059Y-59495379D01*
X106700000Y-59494318D01*
X106691941Y-59495379D01*
X106551297Y-59513894D01*
X106551289Y-59513896D01*
X106543238Y-59514956D01*
X106535733Y-59518064D01*
X106535728Y-59518066D01*
X106404666Y-59572354D01*
X106404662Y-59572355D01*
X106397159Y-59575464D01*
X106390714Y-59580408D01*
X106390711Y-59580411D01*
X106278164Y-59666771D01*
X106278160Y-59666774D01*
X106271718Y-59671718D01*
X106266774Y-59678160D01*
X106266771Y-59678164D01*
X106180411Y-59790711D01*
X106180408Y-59790714D01*
X106175464Y-59797159D01*
X106172355Y-59804662D01*
X106172354Y-59804666D01*
X106118066Y-59935728D01*
X106118064Y-59935733D01*
X106114956Y-59943238D01*
X106113896Y-59951289D01*
X106113894Y-59951297D01*
X106095702Y-60089482D01*
X106094318Y-60100000D01*
X87900000Y-60100000D01*
X87900000Y-59224000D01*
X87916613Y-59162000D01*
X87962000Y-59116613D01*
X88024000Y-59100000D01*
X99179254Y-59100000D01*
X99245879Y-59119420D01*
G37*
G04 #@! TD.AperFunction*
M02*
