G04 #@! TF.GenerationSoftware,KiCad,Pcbnew,(7.0.0)*
G04 #@! TF.CreationDate,2023-11-11T15:55:20+01:00*
G04 #@! TF.ProjectId,GameboyCartridgeV1.1,47616d65-626f-4794-9361-727472696467,rev?*
G04 #@! TF.SameCoordinates,Original*
G04 #@! TF.FileFunction,Copper,L2,Inr*
G04 #@! TF.FilePolarity,Positive*
%FSLAX46Y46*%
G04 Gerber Fmt 4.6, Leading zero omitted, Abs format (unit mm)*
G04 Created by KiCad (PCBNEW (7.0.0)) date 2023-11-11 15:55:20*
%MOMM*%
%LPD*%
G01*
G04 APERTURE LIST*
G04 #@! TA.AperFunction,ComponentPad*
%ADD10O,1.000000X2.100000*%
G04 #@! TD*
G04 #@! TA.AperFunction,ComponentPad*
%ADD11O,1.000000X1.800000*%
G04 #@! TD*
G04 #@! TA.AperFunction,ComponentPad*
%ADD12C,0.800000*%
G04 #@! TD*
G04 #@! TA.AperFunction,ComponentPad*
%ADD13R,1.700000X1.700000*%
G04 #@! TD*
G04 #@! TA.AperFunction,ComponentPad*
%ADD14O,1.700000X1.700000*%
G04 #@! TD*
G04 #@! TA.AperFunction,ViaPad*
%ADD15C,0.600000*%
G04 #@! TD*
G04 APERTURE END LIST*
D10*
X118479999Y-62164999D03*
D11*
X118479999Y-57984999D03*
D10*
X109839999Y-62164999D03*
D11*
X109839999Y-57984999D03*
D12*
X88266962Y-109283715D03*
X90016962Y-109283715D03*
X91516962Y-109283715D03*
X93016962Y-109283715D03*
X94516962Y-109283715D03*
X96016962Y-109283715D03*
X97516962Y-109283715D03*
X99016962Y-109283715D03*
X100516962Y-109283715D03*
X102016962Y-109283715D03*
X103516962Y-109283715D03*
X105016962Y-109283715D03*
X106516962Y-109283715D03*
X108016962Y-109283715D03*
X109516962Y-109283715D03*
X111016962Y-109283715D03*
X112516962Y-109283715D03*
X114016962Y-109283715D03*
X115516962Y-109283715D03*
X117016962Y-109283715D03*
X118516962Y-109283715D03*
X120016962Y-109283715D03*
X121516962Y-109283715D03*
X123016962Y-109283715D03*
X124516962Y-109283715D03*
X126016962Y-109283715D03*
X127516962Y-109283715D03*
X129016962Y-109283715D03*
X130516962Y-109283715D03*
X132016962Y-109283715D03*
X133516962Y-109283715D03*
X135266962Y-109283715D03*
D13*
X125344999Y-61374999D03*
D14*
X127884999Y-61374999D03*
D15*
X124500000Y-85400000D03*
X124100000Y-65300000D03*
X137700000Y-104200000D03*
X112800000Y-79500000D03*
X85900000Y-76200000D03*
X127900000Y-56200000D03*
X105400000Y-105300000D03*
X85900000Y-94200000D03*
X85900000Y-100200000D03*
X135000000Y-67600000D03*
X137700000Y-106200000D03*
X133953022Y-87630570D03*
X85900000Y-92200000D03*
X118500000Y-71600000D03*
X95200000Y-98400000D03*
X121900000Y-56200000D03*
X110200000Y-83000000D03*
X107500000Y-84700000D03*
X98400000Y-78900000D03*
X85900000Y-62200000D03*
X135000000Y-60900000D03*
X116900000Y-66500000D03*
X85900000Y-102200000D03*
X85900000Y-78200000D03*
X96800000Y-65900000D03*
X85900000Y-66200000D03*
X85900000Y-68200000D03*
X130700000Y-76900000D03*
X91900000Y-56200000D03*
X85900000Y-64200000D03*
X134200000Y-96700000D03*
X137700000Y-70200000D03*
X121900000Y-58100000D03*
X134200000Y-105400000D03*
X125900000Y-56200000D03*
X96600000Y-94000000D03*
X137700000Y-86200000D03*
X117400000Y-105100000D03*
X96700000Y-67900000D03*
X105800000Y-98000000D03*
X111800000Y-71300000D03*
X120550000Y-77360000D03*
X129900000Y-58000000D03*
X111700000Y-80700000D03*
X119900000Y-56200000D03*
X113500000Y-87800000D03*
X96800000Y-57900000D03*
X126600000Y-105300000D03*
X137700000Y-84200000D03*
X137700000Y-60200000D03*
X92100000Y-106500000D03*
X107800000Y-90000000D03*
X137700000Y-72200000D03*
X132000000Y-60900000D03*
X125300000Y-105300000D03*
X137700000Y-76200000D03*
X93400000Y-77400000D03*
X127900000Y-100900000D03*
X123000000Y-92900000D03*
X94900000Y-57900000D03*
X135000000Y-79700000D03*
X90000000Y-65400000D03*
X137700000Y-68200000D03*
X135000000Y-69700000D03*
X85900000Y-56200000D03*
X94600000Y-106500000D03*
X85900000Y-70200000D03*
X137700000Y-100200000D03*
X112400000Y-73000000D03*
X114900000Y-57700000D03*
X137700000Y-98200000D03*
X123900000Y-72400000D03*
X111900000Y-56200000D03*
X109900000Y-56200000D03*
X112800000Y-57700000D03*
X91900000Y-76600000D03*
X137700000Y-94200000D03*
X111400000Y-73000000D03*
X85900000Y-90200000D03*
X89900000Y-56200000D03*
X118700000Y-100000000D03*
X100800000Y-57900000D03*
X112800000Y-68800000D03*
X123300000Y-81600000D03*
X129900000Y-65300000D03*
X135000000Y-77800000D03*
X103000000Y-82800000D03*
X92200000Y-101550000D03*
X115900000Y-56200000D03*
X85900000Y-74200000D03*
X137700000Y-78200000D03*
X120560000Y-81600000D03*
X85900000Y-104200000D03*
X113900000Y-56200000D03*
X104600000Y-68300000D03*
X95800000Y-90400000D03*
X126800000Y-89700000D03*
X99900000Y-59300000D03*
X111350000Y-88650000D03*
X115700000Y-86000000D03*
X137700000Y-66200000D03*
X105900000Y-56200000D03*
X124800000Y-76900000D03*
X85900000Y-86200000D03*
X107900000Y-56200000D03*
X129532265Y-74450793D03*
X135000000Y-75700000D03*
X137700000Y-88200000D03*
X127900000Y-58000000D03*
X111700000Y-79500000D03*
X137700000Y-74200000D03*
X112700000Y-66500000D03*
X101900000Y-56200000D03*
X95200000Y-103500000D03*
X129900000Y-56200000D03*
X106900000Y-57900000D03*
X92200000Y-94200000D03*
X137700000Y-90200000D03*
X112400000Y-94250000D03*
X110505474Y-63864476D03*
X117900000Y-56200000D03*
X112800000Y-81800000D03*
X85900000Y-60200000D03*
X137700000Y-82200000D03*
X121100000Y-100000000D03*
X91000000Y-68200000D03*
X107200000Y-106500000D03*
X85900000Y-82200000D03*
X89500000Y-102100000D03*
X99900000Y-56200000D03*
X117905474Y-63864476D03*
X91900000Y-78700000D03*
X92700000Y-89300000D03*
X136400000Y-58900000D03*
X100300000Y-65900000D03*
X106700000Y-60100000D03*
X85900000Y-96200000D03*
X97900000Y-56200000D03*
X92200000Y-98100000D03*
X85900000Y-80200000D03*
X116900000Y-68800000D03*
X95300000Y-105400000D03*
X85900000Y-98200000D03*
X135000000Y-63200000D03*
X103900000Y-56200000D03*
X137700000Y-96200000D03*
X137700000Y-62200000D03*
X111700000Y-81800000D03*
X92500000Y-85400000D03*
X93700000Y-105400000D03*
X85900000Y-106200000D03*
X100700000Y-74700000D03*
X108400000Y-94200000D03*
X123900000Y-56200000D03*
X110600000Y-81800000D03*
X110600000Y-79500000D03*
X135000000Y-65200000D03*
X102700000Y-100900000D03*
X135000000Y-71700000D03*
X97000000Y-105400000D03*
X85900000Y-58200000D03*
X93900000Y-56200000D03*
X95900000Y-56200000D03*
X135300000Y-100900000D03*
X85900000Y-84200000D03*
X103000000Y-57900000D03*
X131900000Y-56200000D03*
X137700000Y-80200000D03*
X133550000Y-58900000D03*
X85900000Y-72200000D03*
X137700000Y-92200000D03*
X126275838Y-74456437D03*
X88800000Y-82900000D03*
X110600000Y-80700000D03*
X98800000Y-57900000D03*
X131300000Y-100900000D03*
X131900000Y-58000000D03*
X125300000Y-93700000D03*
X117000000Y-71600000D03*
X112800000Y-80700000D03*
X104500000Y-71700000D03*
X102900000Y-77800000D03*
X87900000Y-56200000D03*
X127500000Y-77900000D03*
X125900000Y-58100000D03*
X137700000Y-102200000D03*
X137700000Y-64200000D03*
X94100000Y-65400000D03*
X104900000Y-57900000D03*
X85900000Y-88200000D03*
X135000000Y-73700000D03*
X125300000Y-97000000D03*
X102700000Y-99600000D03*
X123200000Y-99600000D03*
X106200000Y-81900000D03*
X117500000Y-76300000D03*
X132100000Y-99400000D03*
X109475000Y-78425000D03*
X106200000Y-69800000D03*
X132500000Y-68100000D03*
X115100000Y-77200000D03*
X117460000Y-81600000D03*
X95200000Y-99450000D03*
X116600000Y-77200000D03*
X123000000Y-91800000D03*
X106700000Y-77800000D03*
X111300000Y-82950000D03*
X93700000Y-78500000D03*
X92700000Y-88200000D03*
X94500000Y-77700000D03*
X112800000Y-78200000D03*
X120800000Y-92650000D03*
X113543466Y-85156974D03*
X126800000Y-78500000D03*
X113850000Y-82950000D03*
X126000000Y-89100000D03*
X118000000Y-89100000D03*
X114200000Y-85800500D03*
X123200000Y-102500000D03*
X132100000Y-102500000D03*
X88265112Y-106594801D03*
X88272528Y-105663384D03*
X102700000Y-102700000D03*
X111705474Y-63864476D03*
X91000000Y-69300000D03*
X116605474Y-63864476D03*
X121174500Y-105400000D03*
X121200000Y-106400000D03*
X122500000Y-105400000D03*
X123800000Y-105400000D03*
X129424500Y-105400000D03*
X129904610Y-106039295D03*
X130724500Y-105400000D03*
X132700000Y-105400000D03*
X111500000Y-78300000D03*
X113000000Y-82900000D03*
X113700000Y-78500000D03*
X118000000Y-99500000D03*
X95800000Y-91500000D03*
X97500000Y-93600000D03*
X122800000Y-72400000D03*
X98800000Y-66000000D03*
G04 #@! TA.AperFunction,Conductor*
G36*
X133320737Y-55791070D02*
G01*
X133382637Y-55807762D01*
X133427927Y-55853138D01*
X133444500Y-55915070D01*
X133444500Y-58299111D01*
X133443912Y-58305070D01*
X133444039Y-58305712D01*
X133442399Y-58309673D01*
X133444500Y-58314745D01*
X133450483Y-58329190D01*
X133470000Y-58337274D01*
X133473961Y-58335632D01*
X133474601Y-58335760D01*
X133480563Y-58335173D01*
X137876000Y-58335173D01*
X137938000Y-58351786D01*
X137983387Y-58397173D01*
X138000000Y-58459173D01*
X138000000Y-106550500D01*
X137983387Y-106612500D01*
X137938000Y-106657887D01*
X137876000Y-106674500D01*
X136380562Y-106674500D01*
X136374602Y-106673912D01*
X136373960Y-106674039D01*
X136370000Y-106672399D01*
X136364928Y-106674500D01*
X136350483Y-106680483D01*
X136342399Y-106700000D01*
X136344039Y-106703960D01*
X136343912Y-106704601D01*
X136344500Y-106710563D01*
X136344500Y-108904671D01*
X136325197Y-108971113D01*
X136273297Y-109016869D01*
X136204959Y-109027693D01*
X136141460Y-109000215D01*
X136102569Y-108942990D01*
X136095688Y-108921815D01*
X136090431Y-108910007D01*
X136062347Y-108861365D01*
X136054669Y-108853167D01*
X136045127Y-108859101D01*
X135632058Y-109272171D01*
X135625393Y-109283715D01*
X135632057Y-109295257D01*
X136045127Y-109708327D01*
X136054670Y-109714261D01*
X136062346Y-109706065D01*
X136090434Y-109657416D01*
X136095687Y-109645619D01*
X136102569Y-109624440D01*
X136141460Y-109567215D01*
X136204959Y-109539737D01*
X136273297Y-109550561D01*
X136325197Y-109596317D01*
X136344500Y-109662759D01*
X136344500Y-113676000D01*
X136327887Y-113738000D01*
X136282500Y-113783387D01*
X136220500Y-113800000D01*
X87319500Y-113800000D01*
X87257500Y-113783387D01*
X87212113Y-113738000D01*
X87195500Y-113676000D01*
X87195500Y-110073422D01*
X134834683Y-110073422D01*
X134843709Y-110080442D01*
X134981382Y-110141738D01*
X134993667Y-110145730D01*
X135166007Y-110182362D01*
X135178870Y-110183715D01*
X135355054Y-110183715D01*
X135367916Y-110182362D01*
X135540250Y-110145731D01*
X135552544Y-110141737D01*
X135690216Y-110080441D01*
X135699239Y-110073422D01*
X135693330Y-110063636D01*
X135278504Y-109648810D01*
X135266962Y-109642146D01*
X135255418Y-109648811D01*
X134840592Y-110063636D01*
X134834683Y-110073422D01*
X87195500Y-110073422D01*
X87195500Y-109283715D01*
X87561317Y-109283715D01*
X87562221Y-109291160D01*
X87580917Y-109445138D01*
X87580918Y-109445142D01*
X87581822Y-109452587D01*
X87584480Y-109459597D01*
X87584482Y-109459603D01*
X87639482Y-109604627D01*
X87642144Y-109611645D01*
X87738779Y-109751644D01*
X87866110Y-109864449D01*
X88016737Y-109943505D01*
X88181906Y-109984215D01*
X88344518Y-109984215D01*
X88352018Y-109984215D01*
X88517187Y-109943505D01*
X88667814Y-109864449D01*
X88795145Y-109751644D01*
X88891780Y-109611645D01*
X88952102Y-109452587D01*
X88972607Y-109283715D01*
X89311317Y-109283715D01*
X89312221Y-109291160D01*
X89330917Y-109445138D01*
X89330918Y-109445142D01*
X89331822Y-109452587D01*
X89334480Y-109459597D01*
X89334482Y-109459603D01*
X89389482Y-109604627D01*
X89392144Y-109611645D01*
X89488779Y-109751644D01*
X89616110Y-109864449D01*
X89766737Y-109943505D01*
X89931906Y-109984215D01*
X90094518Y-109984215D01*
X90102018Y-109984215D01*
X90267187Y-109943505D01*
X90417814Y-109864449D01*
X90545145Y-109751644D01*
X90641780Y-109611645D01*
X90651020Y-109587280D01*
X90684734Y-109538436D01*
X90737286Y-109510854D01*
X90796638Y-109510854D01*
X90849190Y-109538436D01*
X90882903Y-109587280D01*
X90892144Y-109611645D01*
X90988779Y-109751644D01*
X91116110Y-109864449D01*
X91266737Y-109943505D01*
X91431906Y-109984215D01*
X91594518Y-109984215D01*
X91602018Y-109984215D01*
X91767187Y-109943505D01*
X91917814Y-109864449D01*
X92045145Y-109751644D01*
X92141780Y-109611645D01*
X92151020Y-109587280D01*
X92184734Y-109538436D01*
X92237286Y-109510854D01*
X92296638Y-109510854D01*
X92349190Y-109538436D01*
X92382903Y-109587280D01*
X92392144Y-109611645D01*
X92488779Y-109751644D01*
X92616110Y-109864449D01*
X92766737Y-109943505D01*
X92931906Y-109984215D01*
X93094518Y-109984215D01*
X93102018Y-109984215D01*
X93267187Y-109943505D01*
X93417814Y-109864449D01*
X93545145Y-109751644D01*
X93641780Y-109611645D01*
X93651020Y-109587280D01*
X93684734Y-109538436D01*
X93737286Y-109510854D01*
X93796638Y-109510854D01*
X93849190Y-109538436D01*
X93882903Y-109587280D01*
X93892144Y-109611645D01*
X93988779Y-109751644D01*
X94116110Y-109864449D01*
X94266737Y-109943505D01*
X94431906Y-109984215D01*
X94594518Y-109984215D01*
X94602018Y-109984215D01*
X94767187Y-109943505D01*
X94917814Y-109864449D01*
X95045145Y-109751644D01*
X95141780Y-109611645D01*
X95151020Y-109587280D01*
X95184734Y-109538436D01*
X95237286Y-109510854D01*
X95296638Y-109510854D01*
X95349190Y-109538436D01*
X95382903Y-109587280D01*
X95392144Y-109611645D01*
X95488779Y-109751644D01*
X95616110Y-109864449D01*
X95766737Y-109943505D01*
X95931906Y-109984215D01*
X96094518Y-109984215D01*
X96102018Y-109984215D01*
X96267187Y-109943505D01*
X96417814Y-109864449D01*
X96545145Y-109751644D01*
X96641780Y-109611645D01*
X96651020Y-109587280D01*
X96684734Y-109538436D01*
X96737286Y-109510854D01*
X96796638Y-109510854D01*
X96849190Y-109538436D01*
X96882903Y-109587280D01*
X96892144Y-109611645D01*
X96988779Y-109751644D01*
X97116110Y-109864449D01*
X97266737Y-109943505D01*
X97431906Y-109984215D01*
X97594518Y-109984215D01*
X97602018Y-109984215D01*
X97767187Y-109943505D01*
X97917814Y-109864449D01*
X98045145Y-109751644D01*
X98141780Y-109611645D01*
X98151020Y-109587280D01*
X98184734Y-109538436D01*
X98237286Y-109510854D01*
X98296638Y-109510854D01*
X98349190Y-109538436D01*
X98382903Y-109587280D01*
X98392144Y-109611645D01*
X98488779Y-109751644D01*
X98616110Y-109864449D01*
X98766737Y-109943505D01*
X98931906Y-109984215D01*
X99094518Y-109984215D01*
X99102018Y-109984215D01*
X99267187Y-109943505D01*
X99417814Y-109864449D01*
X99545145Y-109751644D01*
X99641780Y-109611645D01*
X99651020Y-109587280D01*
X99684734Y-109538436D01*
X99737286Y-109510854D01*
X99796638Y-109510854D01*
X99849190Y-109538436D01*
X99882903Y-109587280D01*
X99892144Y-109611645D01*
X99988779Y-109751644D01*
X100116110Y-109864449D01*
X100266737Y-109943505D01*
X100431906Y-109984215D01*
X100594518Y-109984215D01*
X100602018Y-109984215D01*
X100767187Y-109943505D01*
X100917814Y-109864449D01*
X101045145Y-109751644D01*
X101141780Y-109611645D01*
X101151020Y-109587280D01*
X101184734Y-109538436D01*
X101237286Y-109510854D01*
X101296638Y-109510854D01*
X101349190Y-109538436D01*
X101382903Y-109587280D01*
X101392144Y-109611645D01*
X101488779Y-109751644D01*
X101616110Y-109864449D01*
X101766737Y-109943505D01*
X101931906Y-109984215D01*
X102094518Y-109984215D01*
X102102018Y-109984215D01*
X102267187Y-109943505D01*
X102417814Y-109864449D01*
X102545145Y-109751644D01*
X102641780Y-109611645D01*
X102651020Y-109587280D01*
X102684734Y-109538436D01*
X102737286Y-109510854D01*
X102796638Y-109510854D01*
X102849190Y-109538436D01*
X102882903Y-109587280D01*
X102892144Y-109611645D01*
X102988779Y-109751644D01*
X103116110Y-109864449D01*
X103266737Y-109943505D01*
X103431906Y-109984215D01*
X103594518Y-109984215D01*
X103602018Y-109984215D01*
X103767187Y-109943505D01*
X103917814Y-109864449D01*
X104045145Y-109751644D01*
X104141780Y-109611645D01*
X104151020Y-109587280D01*
X104184734Y-109538436D01*
X104237286Y-109510854D01*
X104296638Y-109510854D01*
X104349190Y-109538436D01*
X104382903Y-109587280D01*
X104392144Y-109611645D01*
X104488779Y-109751644D01*
X104616110Y-109864449D01*
X104766737Y-109943505D01*
X104931906Y-109984215D01*
X105094518Y-109984215D01*
X105102018Y-109984215D01*
X105267187Y-109943505D01*
X105417814Y-109864449D01*
X105545145Y-109751644D01*
X105641780Y-109611645D01*
X105651020Y-109587280D01*
X105684734Y-109538436D01*
X105737286Y-109510854D01*
X105796638Y-109510854D01*
X105849190Y-109538436D01*
X105882903Y-109587280D01*
X105892144Y-109611645D01*
X105988779Y-109751644D01*
X106116110Y-109864449D01*
X106266737Y-109943505D01*
X106431906Y-109984215D01*
X106594518Y-109984215D01*
X106602018Y-109984215D01*
X106767187Y-109943505D01*
X106917814Y-109864449D01*
X107045145Y-109751644D01*
X107141780Y-109611645D01*
X107151020Y-109587280D01*
X107184734Y-109538436D01*
X107237286Y-109510854D01*
X107296638Y-109510854D01*
X107349190Y-109538436D01*
X107382903Y-109587280D01*
X107392144Y-109611645D01*
X107488779Y-109751644D01*
X107616110Y-109864449D01*
X107766737Y-109943505D01*
X107931906Y-109984215D01*
X108094518Y-109984215D01*
X108102018Y-109984215D01*
X108267187Y-109943505D01*
X108417814Y-109864449D01*
X108545145Y-109751644D01*
X108641780Y-109611645D01*
X108651020Y-109587280D01*
X108684734Y-109538436D01*
X108737286Y-109510854D01*
X108796638Y-109510854D01*
X108849190Y-109538436D01*
X108882903Y-109587280D01*
X108892144Y-109611645D01*
X108988779Y-109751644D01*
X109116110Y-109864449D01*
X109266737Y-109943505D01*
X109431906Y-109984215D01*
X109594518Y-109984215D01*
X109602018Y-109984215D01*
X109767187Y-109943505D01*
X109917814Y-109864449D01*
X110045145Y-109751644D01*
X110141780Y-109611645D01*
X110151020Y-109587280D01*
X110184734Y-109538436D01*
X110237286Y-109510854D01*
X110296638Y-109510854D01*
X110349190Y-109538436D01*
X110382903Y-109587280D01*
X110392144Y-109611645D01*
X110488779Y-109751644D01*
X110616110Y-109864449D01*
X110766737Y-109943505D01*
X110931906Y-109984215D01*
X111094518Y-109984215D01*
X111102018Y-109984215D01*
X111267187Y-109943505D01*
X111417814Y-109864449D01*
X111545145Y-109751644D01*
X111641780Y-109611645D01*
X111651020Y-109587280D01*
X111684734Y-109538436D01*
X111737286Y-109510854D01*
X111796638Y-109510854D01*
X111849190Y-109538436D01*
X111882903Y-109587280D01*
X111892144Y-109611645D01*
X111988779Y-109751644D01*
X112116110Y-109864449D01*
X112266737Y-109943505D01*
X112431906Y-109984215D01*
X112594518Y-109984215D01*
X112602018Y-109984215D01*
X112767187Y-109943505D01*
X112917814Y-109864449D01*
X113045145Y-109751644D01*
X113141780Y-109611645D01*
X113151020Y-109587280D01*
X113184734Y-109538436D01*
X113237286Y-109510854D01*
X113296638Y-109510854D01*
X113349190Y-109538436D01*
X113382903Y-109587280D01*
X113392144Y-109611645D01*
X113488779Y-109751644D01*
X113616110Y-109864449D01*
X113766737Y-109943505D01*
X113931906Y-109984215D01*
X114094518Y-109984215D01*
X114102018Y-109984215D01*
X114267187Y-109943505D01*
X114417814Y-109864449D01*
X114545145Y-109751644D01*
X114641780Y-109611645D01*
X114651020Y-109587280D01*
X114684734Y-109538436D01*
X114737286Y-109510854D01*
X114796638Y-109510854D01*
X114849190Y-109538436D01*
X114882903Y-109587280D01*
X114892144Y-109611645D01*
X114988779Y-109751644D01*
X115116110Y-109864449D01*
X115266737Y-109943505D01*
X115431906Y-109984215D01*
X115594518Y-109984215D01*
X115602018Y-109984215D01*
X115767187Y-109943505D01*
X115917814Y-109864449D01*
X116045145Y-109751644D01*
X116141780Y-109611645D01*
X116151020Y-109587280D01*
X116184734Y-109538436D01*
X116237286Y-109510854D01*
X116296638Y-109510854D01*
X116349190Y-109538436D01*
X116382903Y-109587280D01*
X116392144Y-109611645D01*
X116488779Y-109751644D01*
X116616110Y-109864449D01*
X116766737Y-109943505D01*
X116931906Y-109984215D01*
X117094518Y-109984215D01*
X117102018Y-109984215D01*
X117267187Y-109943505D01*
X117417814Y-109864449D01*
X117545145Y-109751644D01*
X117641780Y-109611645D01*
X117651020Y-109587280D01*
X117684734Y-109538436D01*
X117737286Y-109510854D01*
X117796638Y-109510854D01*
X117849190Y-109538436D01*
X117882903Y-109587280D01*
X117892144Y-109611645D01*
X117988779Y-109751644D01*
X118116110Y-109864449D01*
X118266737Y-109943505D01*
X118431906Y-109984215D01*
X118594518Y-109984215D01*
X118602018Y-109984215D01*
X118767187Y-109943505D01*
X118917814Y-109864449D01*
X119045145Y-109751644D01*
X119141780Y-109611645D01*
X119151020Y-109587280D01*
X119184734Y-109538436D01*
X119237286Y-109510854D01*
X119296638Y-109510854D01*
X119349190Y-109538436D01*
X119382903Y-109587280D01*
X119392144Y-109611645D01*
X119488779Y-109751644D01*
X119616110Y-109864449D01*
X119766737Y-109943505D01*
X119931906Y-109984215D01*
X120094518Y-109984215D01*
X120102018Y-109984215D01*
X120267187Y-109943505D01*
X120417814Y-109864449D01*
X120545145Y-109751644D01*
X120641780Y-109611645D01*
X120651020Y-109587280D01*
X120684734Y-109538436D01*
X120737286Y-109510854D01*
X120796638Y-109510854D01*
X120849190Y-109538436D01*
X120882903Y-109587280D01*
X120892144Y-109611645D01*
X120988779Y-109751644D01*
X121116110Y-109864449D01*
X121266737Y-109943505D01*
X121431906Y-109984215D01*
X121594518Y-109984215D01*
X121602018Y-109984215D01*
X121767187Y-109943505D01*
X121917814Y-109864449D01*
X122045145Y-109751644D01*
X122141780Y-109611645D01*
X122151020Y-109587280D01*
X122184734Y-109538436D01*
X122237286Y-109510854D01*
X122296638Y-109510854D01*
X122349190Y-109538436D01*
X122382903Y-109587280D01*
X122392144Y-109611645D01*
X122488779Y-109751644D01*
X122616110Y-109864449D01*
X122766737Y-109943505D01*
X122931906Y-109984215D01*
X123094518Y-109984215D01*
X123102018Y-109984215D01*
X123267187Y-109943505D01*
X123417814Y-109864449D01*
X123545145Y-109751644D01*
X123641780Y-109611645D01*
X123651020Y-109587280D01*
X123684734Y-109538436D01*
X123737286Y-109510854D01*
X123796638Y-109510854D01*
X123849190Y-109538436D01*
X123882903Y-109587280D01*
X123892144Y-109611645D01*
X123988779Y-109751644D01*
X124116110Y-109864449D01*
X124266737Y-109943505D01*
X124431906Y-109984215D01*
X124594518Y-109984215D01*
X124602018Y-109984215D01*
X124767187Y-109943505D01*
X124917814Y-109864449D01*
X125045145Y-109751644D01*
X125141780Y-109611645D01*
X125151020Y-109587280D01*
X125184734Y-109538436D01*
X125237286Y-109510854D01*
X125296638Y-109510854D01*
X125349190Y-109538436D01*
X125382903Y-109587280D01*
X125392144Y-109611645D01*
X125488779Y-109751644D01*
X125616110Y-109864449D01*
X125766737Y-109943505D01*
X125931906Y-109984215D01*
X126094518Y-109984215D01*
X126102018Y-109984215D01*
X126267187Y-109943505D01*
X126417814Y-109864449D01*
X126545145Y-109751644D01*
X126641780Y-109611645D01*
X126651020Y-109587280D01*
X126684734Y-109538436D01*
X126737286Y-109510854D01*
X126796638Y-109510854D01*
X126849190Y-109538436D01*
X126882903Y-109587280D01*
X126892144Y-109611645D01*
X126988779Y-109751644D01*
X127116110Y-109864449D01*
X127266737Y-109943505D01*
X127431906Y-109984215D01*
X127594518Y-109984215D01*
X127602018Y-109984215D01*
X127767187Y-109943505D01*
X127917814Y-109864449D01*
X128045145Y-109751644D01*
X128141780Y-109611645D01*
X128151020Y-109587280D01*
X128184734Y-109538436D01*
X128237286Y-109510854D01*
X128296638Y-109510854D01*
X128349190Y-109538436D01*
X128382903Y-109587280D01*
X128392144Y-109611645D01*
X128488779Y-109751644D01*
X128616110Y-109864449D01*
X128766737Y-109943505D01*
X128931906Y-109984215D01*
X129094518Y-109984215D01*
X129102018Y-109984215D01*
X129267187Y-109943505D01*
X129417814Y-109864449D01*
X129545145Y-109751644D01*
X129641780Y-109611645D01*
X129651020Y-109587280D01*
X129684734Y-109538436D01*
X129737286Y-109510854D01*
X129796638Y-109510854D01*
X129849190Y-109538436D01*
X129882903Y-109587280D01*
X129892144Y-109611645D01*
X129988779Y-109751644D01*
X130116110Y-109864449D01*
X130266737Y-109943505D01*
X130431906Y-109984215D01*
X130594518Y-109984215D01*
X130602018Y-109984215D01*
X130767187Y-109943505D01*
X130917814Y-109864449D01*
X131045145Y-109751644D01*
X131141780Y-109611645D01*
X131151020Y-109587280D01*
X131184734Y-109538436D01*
X131237286Y-109510854D01*
X131296638Y-109510854D01*
X131349190Y-109538436D01*
X131382903Y-109587280D01*
X131392144Y-109611645D01*
X131488779Y-109751644D01*
X131616110Y-109864449D01*
X131766737Y-109943505D01*
X131931906Y-109984215D01*
X132094518Y-109984215D01*
X132102018Y-109984215D01*
X132267187Y-109943505D01*
X132417814Y-109864449D01*
X132545145Y-109751644D01*
X132641780Y-109611645D01*
X132651020Y-109587280D01*
X132684734Y-109538436D01*
X132737286Y-109510854D01*
X132796638Y-109510854D01*
X132849190Y-109538436D01*
X132882903Y-109587280D01*
X132892144Y-109611645D01*
X132988779Y-109751644D01*
X133116110Y-109864449D01*
X133266737Y-109943505D01*
X133431906Y-109984215D01*
X133594518Y-109984215D01*
X133602018Y-109984215D01*
X133767187Y-109943505D01*
X133917814Y-109864449D01*
X134045145Y-109751644D01*
X134141780Y-109611645D01*
X134170530Y-109535835D01*
X134205144Y-109486203D01*
X134259128Y-109458860D01*
X134319624Y-109460322D01*
X134372224Y-109490240D01*
X134404402Y-109541489D01*
X134438235Y-109645614D01*
X134443492Y-109657422D01*
X134471575Y-109706063D01*
X134479253Y-109714261D01*
X134488794Y-109708328D01*
X134901866Y-109295257D01*
X134908530Y-109283715D01*
X134901866Y-109272172D01*
X134488794Y-108859100D01*
X134479253Y-108853167D01*
X134471575Y-108861365D01*
X134443491Y-108910009D01*
X134438235Y-108921815D01*
X134404402Y-109025940D01*
X134372224Y-109077189D01*
X134319624Y-109107107D01*
X134259128Y-109108569D01*
X134205144Y-109081226D01*
X134170529Y-109031591D01*
X134144442Y-108962804D01*
X134144441Y-108962802D01*
X134141780Y-108955785D01*
X134045145Y-108815786D01*
X133917814Y-108702981D01*
X133892785Y-108689844D01*
X133773828Y-108627410D01*
X133773824Y-108627408D01*
X133767187Y-108623925D01*
X133759909Y-108622131D01*
X133759906Y-108622130D01*
X133609299Y-108585009D01*
X133609294Y-108585008D01*
X133602018Y-108583215D01*
X133431906Y-108583215D01*
X133424630Y-108585008D01*
X133424624Y-108585009D01*
X133274017Y-108622130D01*
X133274012Y-108622131D01*
X133266737Y-108623925D01*
X133260102Y-108627407D01*
X133260095Y-108627410D01*
X133122753Y-108699494D01*
X133122750Y-108699495D01*
X133116110Y-108702981D01*
X133110499Y-108707951D01*
X133110493Y-108707956D01*
X132994392Y-108810813D01*
X132988779Y-108815786D01*
X132984524Y-108821950D01*
X132984519Y-108821956D01*
X132896407Y-108949608D01*
X132896404Y-108949612D01*
X132892144Y-108955785D01*
X132889485Y-108962796D01*
X132889482Y-108962802D01*
X132882904Y-108980149D01*
X132849189Y-109028993D01*
X132796637Y-109056575D01*
X132737287Y-109056575D01*
X132684735Y-109028993D01*
X132651020Y-108980149D01*
X132644441Y-108962802D01*
X132641780Y-108955785D01*
X132545145Y-108815786D01*
X132417814Y-108702981D01*
X132392785Y-108689844D01*
X132273828Y-108627410D01*
X132273824Y-108627408D01*
X132267187Y-108623925D01*
X132259909Y-108622131D01*
X132259906Y-108622130D01*
X132109299Y-108585009D01*
X132109294Y-108585008D01*
X132102018Y-108583215D01*
X131931906Y-108583215D01*
X131924630Y-108585008D01*
X131924624Y-108585009D01*
X131774017Y-108622130D01*
X131774012Y-108622131D01*
X131766737Y-108623925D01*
X131760102Y-108627407D01*
X131760095Y-108627410D01*
X131622753Y-108699494D01*
X131622750Y-108699495D01*
X131616110Y-108702981D01*
X131610499Y-108707951D01*
X131610493Y-108707956D01*
X131494392Y-108810813D01*
X131488779Y-108815786D01*
X131484524Y-108821950D01*
X131484519Y-108821956D01*
X131396407Y-108949608D01*
X131396404Y-108949612D01*
X131392144Y-108955785D01*
X131389485Y-108962796D01*
X131389482Y-108962802D01*
X131382904Y-108980149D01*
X131349189Y-109028993D01*
X131296637Y-109056575D01*
X131237287Y-109056575D01*
X131184735Y-109028993D01*
X131151020Y-108980149D01*
X131144441Y-108962802D01*
X131141780Y-108955785D01*
X131045145Y-108815786D01*
X130917814Y-108702981D01*
X130892785Y-108689844D01*
X130773828Y-108627410D01*
X130773824Y-108627408D01*
X130767187Y-108623925D01*
X130759909Y-108622131D01*
X130759906Y-108622130D01*
X130609299Y-108585009D01*
X130609294Y-108585008D01*
X130602018Y-108583215D01*
X130431906Y-108583215D01*
X130424630Y-108585008D01*
X130424624Y-108585009D01*
X130274017Y-108622130D01*
X130274012Y-108622131D01*
X130266737Y-108623925D01*
X130260102Y-108627407D01*
X130260095Y-108627410D01*
X130122753Y-108699494D01*
X130122750Y-108699495D01*
X130116110Y-108702981D01*
X130110499Y-108707951D01*
X130110493Y-108707956D01*
X129994392Y-108810813D01*
X129988779Y-108815786D01*
X129984524Y-108821950D01*
X129984519Y-108821956D01*
X129896407Y-108949608D01*
X129896404Y-108949612D01*
X129892144Y-108955785D01*
X129889485Y-108962796D01*
X129889482Y-108962802D01*
X129882904Y-108980149D01*
X129849189Y-109028993D01*
X129796637Y-109056575D01*
X129737287Y-109056575D01*
X129684735Y-109028993D01*
X129651020Y-108980149D01*
X129644441Y-108962802D01*
X129641780Y-108955785D01*
X129545145Y-108815786D01*
X129417814Y-108702981D01*
X129392785Y-108689844D01*
X129273828Y-108627410D01*
X129273824Y-108627408D01*
X129267187Y-108623925D01*
X129259909Y-108622131D01*
X129259906Y-108622130D01*
X129109299Y-108585009D01*
X129109294Y-108585008D01*
X129102018Y-108583215D01*
X128931906Y-108583215D01*
X128924630Y-108585008D01*
X128924624Y-108585009D01*
X128774017Y-108622130D01*
X128774012Y-108622131D01*
X128766737Y-108623925D01*
X128760102Y-108627407D01*
X128760095Y-108627410D01*
X128622753Y-108699494D01*
X128622750Y-108699495D01*
X128616110Y-108702981D01*
X128610499Y-108707951D01*
X128610493Y-108707956D01*
X128494392Y-108810813D01*
X128488779Y-108815786D01*
X128484524Y-108821950D01*
X128484519Y-108821956D01*
X128396407Y-108949608D01*
X128396404Y-108949612D01*
X128392144Y-108955785D01*
X128389485Y-108962796D01*
X128389482Y-108962802D01*
X128382904Y-108980149D01*
X128349189Y-109028993D01*
X128296637Y-109056575D01*
X128237287Y-109056575D01*
X128184735Y-109028993D01*
X128151020Y-108980149D01*
X128144441Y-108962802D01*
X128141780Y-108955785D01*
X128045145Y-108815786D01*
X127917814Y-108702981D01*
X127892785Y-108689844D01*
X127773828Y-108627410D01*
X127773824Y-108627408D01*
X127767187Y-108623925D01*
X127759909Y-108622131D01*
X127759906Y-108622130D01*
X127609299Y-108585009D01*
X127609294Y-108585008D01*
X127602018Y-108583215D01*
X127431906Y-108583215D01*
X127424630Y-108585008D01*
X127424624Y-108585009D01*
X127274017Y-108622130D01*
X127274012Y-108622131D01*
X127266737Y-108623925D01*
X127260102Y-108627407D01*
X127260095Y-108627410D01*
X127122753Y-108699494D01*
X127122750Y-108699495D01*
X127116110Y-108702981D01*
X127110499Y-108707951D01*
X127110493Y-108707956D01*
X126994392Y-108810813D01*
X126988779Y-108815786D01*
X126984524Y-108821950D01*
X126984519Y-108821956D01*
X126896407Y-108949608D01*
X126896404Y-108949612D01*
X126892144Y-108955785D01*
X126889485Y-108962796D01*
X126889482Y-108962802D01*
X126882904Y-108980149D01*
X126849189Y-109028993D01*
X126796637Y-109056575D01*
X126737287Y-109056575D01*
X126684735Y-109028993D01*
X126651020Y-108980149D01*
X126644441Y-108962802D01*
X126641780Y-108955785D01*
X126545145Y-108815786D01*
X126417814Y-108702981D01*
X126392785Y-108689844D01*
X126273828Y-108627410D01*
X126273824Y-108627408D01*
X126267187Y-108623925D01*
X126259909Y-108622131D01*
X126259906Y-108622130D01*
X126109299Y-108585009D01*
X126109294Y-108585008D01*
X126102018Y-108583215D01*
X125931906Y-108583215D01*
X125924630Y-108585008D01*
X125924624Y-108585009D01*
X125774017Y-108622130D01*
X125774012Y-108622131D01*
X125766737Y-108623925D01*
X125760102Y-108627407D01*
X125760095Y-108627410D01*
X125622753Y-108699494D01*
X125622750Y-108699495D01*
X125616110Y-108702981D01*
X125610499Y-108707951D01*
X125610493Y-108707956D01*
X125494392Y-108810813D01*
X125488779Y-108815786D01*
X125484524Y-108821950D01*
X125484519Y-108821956D01*
X125396407Y-108949608D01*
X125396404Y-108949612D01*
X125392144Y-108955785D01*
X125389485Y-108962796D01*
X125389482Y-108962802D01*
X125382904Y-108980149D01*
X125349189Y-109028993D01*
X125296637Y-109056575D01*
X125237287Y-109056575D01*
X125184735Y-109028993D01*
X125151020Y-108980149D01*
X125144441Y-108962802D01*
X125141780Y-108955785D01*
X125045145Y-108815786D01*
X124917814Y-108702981D01*
X124892785Y-108689844D01*
X124773828Y-108627410D01*
X124773824Y-108627408D01*
X124767187Y-108623925D01*
X124759909Y-108622131D01*
X124759906Y-108622130D01*
X124609299Y-108585009D01*
X124609294Y-108585008D01*
X124602018Y-108583215D01*
X124431906Y-108583215D01*
X124424630Y-108585008D01*
X124424624Y-108585009D01*
X124274017Y-108622130D01*
X124274012Y-108622131D01*
X124266737Y-108623925D01*
X124260102Y-108627407D01*
X124260095Y-108627410D01*
X124122753Y-108699494D01*
X124122750Y-108699495D01*
X124116110Y-108702981D01*
X124110499Y-108707951D01*
X124110493Y-108707956D01*
X123994392Y-108810813D01*
X123988779Y-108815786D01*
X123984524Y-108821950D01*
X123984519Y-108821956D01*
X123896407Y-108949608D01*
X123896404Y-108949612D01*
X123892144Y-108955785D01*
X123889485Y-108962796D01*
X123889482Y-108962802D01*
X123882904Y-108980149D01*
X123849189Y-109028993D01*
X123796637Y-109056575D01*
X123737287Y-109056575D01*
X123684735Y-109028993D01*
X123651020Y-108980149D01*
X123644441Y-108962802D01*
X123641780Y-108955785D01*
X123545145Y-108815786D01*
X123417814Y-108702981D01*
X123392785Y-108689844D01*
X123273828Y-108627410D01*
X123273824Y-108627408D01*
X123267187Y-108623925D01*
X123259909Y-108622131D01*
X123259906Y-108622130D01*
X123109299Y-108585009D01*
X123109294Y-108585008D01*
X123102018Y-108583215D01*
X122931906Y-108583215D01*
X122924630Y-108585008D01*
X122924624Y-108585009D01*
X122774017Y-108622130D01*
X122774012Y-108622131D01*
X122766737Y-108623925D01*
X122760102Y-108627407D01*
X122760095Y-108627410D01*
X122622753Y-108699494D01*
X122622750Y-108699495D01*
X122616110Y-108702981D01*
X122610499Y-108707951D01*
X122610493Y-108707956D01*
X122494392Y-108810813D01*
X122488779Y-108815786D01*
X122484524Y-108821950D01*
X122484519Y-108821956D01*
X122396407Y-108949608D01*
X122396404Y-108949612D01*
X122392144Y-108955785D01*
X122389485Y-108962796D01*
X122389482Y-108962802D01*
X122382904Y-108980149D01*
X122349189Y-109028993D01*
X122296637Y-109056575D01*
X122237287Y-109056575D01*
X122184735Y-109028993D01*
X122151020Y-108980149D01*
X122144441Y-108962802D01*
X122141780Y-108955785D01*
X122045145Y-108815786D01*
X121917814Y-108702981D01*
X121892785Y-108689844D01*
X121773828Y-108627410D01*
X121773824Y-108627408D01*
X121767187Y-108623925D01*
X121759909Y-108622131D01*
X121759906Y-108622130D01*
X121609299Y-108585009D01*
X121609294Y-108585008D01*
X121602018Y-108583215D01*
X121431906Y-108583215D01*
X121424630Y-108585008D01*
X121424624Y-108585009D01*
X121274017Y-108622130D01*
X121274012Y-108622131D01*
X121266737Y-108623925D01*
X121260102Y-108627407D01*
X121260095Y-108627410D01*
X121122753Y-108699494D01*
X121122750Y-108699495D01*
X121116110Y-108702981D01*
X121110499Y-108707951D01*
X121110493Y-108707956D01*
X120994392Y-108810813D01*
X120988779Y-108815786D01*
X120984524Y-108821950D01*
X120984519Y-108821956D01*
X120896407Y-108949608D01*
X120896404Y-108949612D01*
X120892144Y-108955785D01*
X120889485Y-108962796D01*
X120889482Y-108962802D01*
X120882904Y-108980149D01*
X120849189Y-109028993D01*
X120796637Y-109056575D01*
X120737287Y-109056575D01*
X120684735Y-109028993D01*
X120651020Y-108980149D01*
X120644441Y-108962802D01*
X120641780Y-108955785D01*
X120545145Y-108815786D01*
X120417814Y-108702981D01*
X120392785Y-108689844D01*
X120273828Y-108627410D01*
X120273824Y-108627408D01*
X120267187Y-108623925D01*
X120259909Y-108622131D01*
X120259906Y-108622130D01*
X120109299Y-108585009D01*
X120109294Y-108585008D01*
X120102018Y-108583215D01*
X119931906Y-108583215D01*
X119924630Y-108585008D01*
X119924624Y-108585009D01*
X119774017Y-108622130D01*
X119774012Y-108622131D01*
X119766737Y-108623925D01*
X119760102Y-108627407D01*
X119760095Y-108627410D01*
X119622753Y-108699494D01*
X119622750Y-108699495D01*
X119616110Y-108702981D01*
X119610499Y-108707951D01*
X119610493Y-108707956D01*
X119494392Y-108810813D01*
X119488779Y-108815786D01*
X119484524Y-108821950D01*
X119484519Y-108821956D01*
X119396407Y-108949608D01*
X119396404Y-108949612D01*
X119392144Y-108955785D01*
X119389485Y-108962796D01*
X119389482Y-108962802D01*
X119382904Y-108980149D01*
X119349189Y-109028993D01*
X119296637Y-109056575D01*
X119237287Y-109056575D01*
X119184735Y-109028993D01*
X119151020Y-108980149D01*
X119144441Y-108962802D01*
X119141780Y-108955785D01*
X119045145Y-108815786D01*
X118917814Y-108702981D01*
X118892785Y-108689844D01*
X118773828Y-108627410D01*
X118773824Y-108627408D01*
X118767187Y-108623925D01*
X118759909Y-108622131D01*
X118759906Y-108622130D01*
X118609299Y-108585009D01*
X118609294Y-108585008D01*
X118602018Y-108583215D01*
X118431906Y-108583215D01*
X118424630Y-108585008D01*
X118424624Y-108585009D01*
X118274017Y-108622130D01*
X118274012Y-108622131D01*
X118266737Y-108623925D01*
X118260102Y-108627407D01*
X118260095Y-108627410D01*
X118122753Y-108699494D01*
X118122750Y-108699495D01*
X118116110Y-108702981D01*
X118110499Y-108707951D01*
X118110493Y-108707956D01*
X117994392Y-108810813D01*
X117988779Y-108815786D01*
X117984524Y-108821950D01*
X117984519Y-108821956D01*
X117896407Y-108949608D01*
X117896404Y-108949612D01*
X117892144Y-108955785D01*
X117889485Y-108962796D01*
X117889482Y-108962802D01*
X117882904Y-108980149D01*
X117849189Y-109028993D01*
X117796637Y-109056575D01*
X117737287Y-109056575D01*
X117684735Y-109028993D01*
X117651020Y-108980149D01*
X117644441Y-108962802D01*
X117641780Y-108955785D01*
X117545145Y-108815786D01*
X117417814Y-108702981D01*
X117392785Y-108689844D01*
X117273828Y-108627410D01*
X117273824Y-108627408D01*
X117267187Y-108623925D01*
X117259909Y-108622131D01*
X117259906Y-108622130D01*
X117109299Y-108585009D01*
X117109294Y-108585008D01*
X117102018Y-108583215D01*
X116931906Y-108583215D01*
X116924630Y-108585008D01*
X116924624Y-108585009D01*
X116774017Y-108622130D01*
X116774012Y-108622131D01*
X116766737Y-108623925D01*
X116760102Y-108627407D01*
X116760095Y-108627410D01*
X116622753Y-108699494D01*
X116622750Y-108699495D01*
X116616110Y-108702981D01*
X116610499Y-108707951D01*
X116610493Y-108707956D01*
X116494392Y-108810813D01*
X116488779Y-108815786D01*
X116484524Y-108821950D01*
X116484519Y-108821956D01*
X116396407Y-108949608D01*
X116396404Y-108949612D01*
X116392144Y-108955785D01*
X116389485Y-108962796D01*
X116389482Y-108962802D01*
X116382904Y-108980149D01*
X116349189Y-109028993D01*
X116296637Y-109056575D01*
X116237287Y-109056575D01*
X116184735Y-109028993D01*
X116151020Y-108980149D01*
X116144441Y-108962802D01*
X116141780Y-108955785D01*
X116045145Y-108815786D01*
X115917814Y-108702981D01*
X115892785Y-108689844D01*
X115773828Y-108627410D01*
X115773824Y-108627408D01*
X115767187Y-108623925D01*
X115759909Y-108622131D01*
X115759906Y-108622130D01*
X115609299Y-108585009D01*
X115609294Y-108585008D01*
X115602018Y-108583215D01*
X115431906Y-108583215D01*
X115424630Y-108585008D01*
X115424624Y-108585009D01*
X115274017Y-108622130D01*
X115274012Y-108622131D01*
X115266737Y-108623925D01*
X115260102Y-108627407D01*
X115260095Y-108627410D01*
X115122753Y-108699494D01*
X115122750Y-108699495D01*
X115116110Y-108702981D01*
X115110499Y-108707951D01*
X115110493Y-108707956D01*
X114994392Y-108810813D01*
X114988779Y-108815786D01*
X114984524Y-108821950D01*
X114984519Y-108821956D01*
X114896407Y-108949608D01*
X114896404Y-108949612D01*
X114892144Y-108955785D01*
X114889485Y-108962796D01*
X114889482Y-108962802D01*
X114882904Y-108980149D01*
X114849189Y-109028993D01*
X114796637Y-109056575D01*
X114737287Y-109056575D01*
X114684735Y-109028993D01*
X114651020Y-108980149D01*
X114644441Y-108962802D01*
X114641780Y-108955785D01*
X114545145Y-108815786D01*
X114417814Y-108702981D01*
X114392785Y-108689844D01*
X114273828Y-108627410D01*
X114273824Y-108627408D01*
X114267187Y-108623925D01*
X114259909Y-108622131D01*
X114259906Y-108622130D01*
X114109299Y-108585009D01*
X114109294Y-108585008D01*
X114102018Y-108583215D01*
X113931906Y-108583215D01*
X113924630Y-108585008D01*
X113924624Y-108585009D01*
X113774017Y-108622130D01*
X113774012Y-108622131D01*
X113766737Y-108623925D01*
X113760102Y-108627407D01*
X113760095Y-108627410D01*
X113622753Y-108699494D01*
X113622750Y-108699495D01*
X113616110Y-108702981D01*
X113610499Y-108707951D01*
X113610493Y-108707956D01*
X113494392Y-108810813D01*
X113488779Y-108815786D01*
X113484524Y-108821950D01*
X113484519Y-108821956D01*
X113396407Y-108949608D01*
X113396404Y-108949612D01*
X113392144Y-108955785D01*
X113389485Y-108962796D01*
X113389482Y-108962802D01*
X113382904Y-108980149D01*
X113349189Y-109028993D01*
X113296637Y-109056575D01*
X113237287Y-109056575D01*
X113184735Y-109028993D01*
X113151020Y-108980149D01*
X113144441Y-108962802D01*
X113141780Y-108955785D01*
X113045145Y-108815786D01*
X112917814Y-108702981D01*
X112892785Y-108689844D01*
X112773828Y-108627410D01*
X112773824Y-108627408D01*
X112767187Y-108623925D01*
X112759909Y-108622131D01*
X112759906Y-108622130D01*
X112609299Y-108585009D01*
X112609294Y-108585008D01*
X112602018Y-108583215D01*
X112431906Y-108583215D01*
X112424630Y-108585008D01*
X112424624Y-108585009D01*
X112274017Y-108622130D01*
X112274012Y-108622131D01*
X112266737Y-108623925D01*
X112260102Y-108627407D01*
X112260095Y-108627410D01*
X112122753Y-108699494D01*
X112122750Y-108699495D01*
X112116110Y-108702981D01*
X112110499Y-108707951D01*
X112110493Y-108707956D01*
X111994392Y-108810813D01*
X111988779Y-108815786D01*
X111984524Y-108821950D01*
X111984519Y-108821956D01*
X111896407Y-108949608D01*
X111896404Y-108949612D01*
X111892144Y-108955785D01*
X111889485Y-108962796D01*
X111889482Y-108962802D01*
X111882904Y-108980149D01*
X111849189Y-109028993D01*
X111796637Y-109056575D01*
X111737287Y-109056575D01*
X111684735Y-109028993D01*
X111651020Y-108980149D01*
X111644441Y-108962802D01*
X111641780Y-108955785D01*
X111545145Y-108815786D01*
X111417814Y-108702981D01*
X111392785Y-108689844D01*
X111273828Y-108627410D01*
X111273824Y-108627408D01*
X111267187Y-108623925D01*
X111259909Y-108622131D01*
X111259906Y-108622130D01*
X111109299Y-108585009D01*
X111109294Y-108585008D01*
X111102018Y-108583215D01*
X110931906Y-108583215D01*
X110924630Y-108585008D01*
X110924624Y-108585009D01*
X110774017Y-108622130D01*
X110774012Y-108622131D01*
X110766737Y-108623925D01*
X110760102Y-108627407D01*
X110760095Y-108627410D01*
X110622753Y-108699494D01*
X110622750Y-108699495D01*
X110616110Y-108702981D01*
X110610499Y-108707951D01*
X110610493Y-108707956D01*
X110494392Y-108810813D01*
X110488779Y-108815786D01*
X110484524Y-108821950D01*
X110484519Y-108821956D01*
X110396407Y-108949608D01*
X110396404Y-108949612D01*
X110392144Y-108955785D01*
X110389485Y-108962796D01*
X110389482Y-108962802D01*
X110382904Y-108980149D01*
X110349189Y-109028993D01*
X110296637Y-109056575D01*
X110237287Y-109056575D01*
X110184735Y-109028993D01*
X110151020Y-108980149D01*
X110144441Y-108962802D01*
X110141780Y-108955785D01*
X110045145Y-108815786D01*
X109917814Y-108702981D01*
X109892785Y-108689844D01*
X109773828Y-108627410D01*
X109773824Y-108627408D01*
X109767187Y-108623925D01*
X109759909Y-108622131D01*
X109759906Y-108622130D01*
X109609299Y-108585009D01*
X109609294Y-108585008D01*
X109602018Y-108583215D01*
X109431906Y-108583215D01*
X109424630Y-108585008D01*
X109424624Y-108585009D01*
X109274017Y-108622130D01*
X109274012Y-108622131D01*
X109266737Y-108623925D01*
X109260102Y-108627407D01*
X109260095Y-108627410D01*
X109122753Y-108699494D01*
X109122750Y-108699495D01*
X109116110Y-108702981D01*
X109110499Y-108707951D01*
X109110493Y-108707956D01*
X108994392Y-108810813D01*
X108988779Y-108815786D01*
X108984524Y-108821950D01*
X108984519Y-108821956D01*
X108896407Y-108949608D01*
X108896404Y-108949612D01*
X108892144Y-108955785D01*
X108889485Y-108962796D01*
X108889482Y-108962802D01*
X108882904Y-108980149D01*
X108849189Y-109028993D01*
X108796637Y-109056575D01*
X108737287Y-109056575D01*
X108684735Y-109028993D01*
X108651020Y-108980149D01*
X108644441Y-108962802D01*
X108641780Y-108955785D01*
X108545145Y-108815786D01*
X108417814Y-108702981D01*
X108392785Y-108689844D01*
X108273828Y-108627410D01*
X108273824Y-108627408D01*
X108267187Y-108623925D01*
X108259909Y-108622131D01*
X108259906Y-108622130D01*
X108109299Y-108585009D01*
X108109294Y-108585008D01*
X108102018Y-108583215D01*
X107931906Y-108583215D01*
X107924630Y-108585008D01*
X107924624Y-108585009D01*
X107774017Y-108622130D01*
X107774012Y-108622131D01*
X107766737Y-108623925D01*
X107760102Y-108627407D01*
X107760095Y-108627410D01*
X107622753Y-108699494D01*
X107622750Y-108699495D01*
X107616110Y-108702981D01*
X107610499Y-108707951D01*
X107610493Y-108707956D01*
X107494392Y-108810813D01*
X107488779Y-108815786D01*
X107484524Y-108821950D01*
X107484519Y-108821956D01*
X107396407Y-108949608D01*
X107396404Y-108949612D01*
X107392144Y-108955785D01*
X107389485Y-108962796D01*
X107389482Y-108962802D01*
X107382904Y-108980149D01*
X107349189Y-109028993D01*
X107296637Y-109056575D01*
X107237287Y-109056575D01*
X107184735Y-109028993D01*
X107151020Y-108980149D01*
X107144441Y-108962802D01*
X107141780Y-108955785D01*
X107045145Y-108815786D01*
X106917814Y-108702981D01*
X106892785Y-108689844D01*
X106773828Y-108627410D01*
X106773824Y-108627408D01*
X106767187Y-108623925D01*
X106759909Y-108622131D01*
X106759906Y-108622130D01*
X106609299Y-108585009D01*
X106609294Y-108585008D01*
X106602018Y-108583215D01*
X106431906Y-108583215D01*
X106424630Y-108585008D01*
X106424624Y-108585009D01*
X106274017Y-108622130D01*
X106274012Y-108622131D01*
X106266737Y-108623925D01*
X106260102Y-108627407D01*
X106260095Y-108627410D01*
X106122753Y-108699494D01*
X106122750Y-108699495D01*
X106116110Y-108702981D01*
X106110499Y-108707951D01*
X106110493Y-108707956D01*
X105994392Y-108810813D01*
X105988779Y-108815786D01*
X105984524Y-108821950D01*
X105984519Y-108821956D01*
X105896407Y-108949608D01*
X105896404Y-108949612D01*
X105892144Y-108955785D01*
X105889485Y-108962796D01*
X105889482Y-108962802D01*
X105882904Y-108980149D01*
X105849189Y-109028993D01*
X105796637Y-109056575D01*
X105737287Y-109056575D01*
X105684735Y-109028993D01*
X105651020Y-108980149D01*
X105644441Y-108962802D01*
X105641780Y-108955785D01*
X105545145Y-108815786D01*
X105417814Y-108702981D01*
X105392785Y-108689844D01*
X105273828Y-108627410D01*
X105273824Y-108627408D01*
X105267187Y-108623925D01*
X105259909Y-108622131D01*
X105259906Y-108622130D01*
X105109299Y-108585009D01*
X105109294Y-108585008D01*
X105102018Y-108583215D01*
X104931906Y-108583215D01*
X104924630Y-108585008D01*
X104924624Y-108585009D01*
X104774017Y-108622130D01*
X104774012Y-108622131D01*
X104766737Y-108623925D01*
X104760102Y-108627407D01*
X104760095Y-108627410D01*
X104622753Y-108699494D01*
X104622750Y-108699495D01*
X104616110Y-108702981D01*
X104610499Y-108707951D01*
X104610493Y-108707956D01*
X104494392Y-108810813D01*
X104488779Y-108815786D01*
X104484524Y-108821950D01*
X104484519Y-108821956D01*
X104396407Y-108949608D01*
X104396404Y-108949612D01*
X104392144Y-108955785D01*
X104389485Y-108962796D01*
X104389482Y-108962802D01*
X104382904Y-108980149D01*
X104349189Y-109028993D01*
X104296637Y-109056575D01*
X104237287Y-109056575D01*
X104184735Y-109028993D01*
X104151020Y-108980149D01*
X104144441Y-108962802D01*
X104141780Y-108955785D01*
X104045145Y-108815786D01*
X103917814Y-108702981D01*
X103892785Y-108689844D01*
X103773828Y-108627410D01*
X103773824Y-108627408D01*
X103767187Y-108623925D01*
X103759909Y-108622131D01*
X103759906Y-108622130D01*
X103609299Y-108585009D01*
X103609294Y-108585008D01*
X103602018Y-108583215D01*
X103431906Y-108583215D01*
X103424630Y-108585008D01*
X103424624Y-108585009D01*
X103274017Y-108622130D01*
X103274012Y-108622131D01*
X103266737Y-108623925D01*
X103260102Y-108627407D01*
X103260095Y-108627410D01*
X103122753Y-108699494D01*
X103122750Y-108699495D01*
X103116110Y-108702981D01*
X103110499Y-108707951D01*
X103110493Y-108707956D01*
X102994392Y-108810813D01*
X102988779Y-108815786D01*
X102984524Y-108821950D01*
X102984519Y-108821956D01*
X102896407Y-108949608D01*
X102896404Y-108949612D01*
X102892144Y-108955785D01*
X102889485Y-108962796D01*
X102889482Y-108962802D01*
X102882904Y-108980149D01*
X102849189Y-109028993D01*
X102796637Y-109056575D01*
X102737287Y-109056575D01*
X102684735Y-109028993D01*
X102651020Y-108980149D01*
X102644441Y-108962802D01*
X102641780Y-108955785D01*
X102545145Y-108815786D01*
X102417814Y-108702981D01*
X102392785Y-108689844D01*
X102273828Y-108627410D01*
X102273824Y-108627408D01*
X102267187Y-108623925D01*
X102259909Y-108622131D01*
X102259906Y-108622130D01*
X102109299Y-108585009D01*
X102109294Y-108585008D01*
X102102018Y-108583215D01*
X101931906Y-108583215D01*
X101924630Y-108585008D01*
X101924624Y-108585009D01*
X101774017Y-108622130D01*
X101774012Y-108622131D01*
X101766737Y-108623925D01*
X101760102Y-108627407D01*
X101760095Y-108627410D01*
X101622753Y-108699494D01*
X101622750Y-108699495D01*
X101616110Y-108702981D01*
X101610499Y-108707951D01*
X101610493Y-108707956D01*
X101494392Y-108810813D01*
X101488779Y-108815786D01*
X101484524Y-108821950D01*
X101484519Y-108821956D01*
X101396407Y-108949608D01*
X101396404Y-108949612D01*
X101392144Y-108955785D01*
X101389485Y-108962796D01*
X101389482Y-108962802D01*
X101382904Y-108980149D01*
X101349189Y-109028993D01*
X101296637Y-109056575D01*
X101237287Y-109056575D01*
X101184735Y-109028993D01*
X101151020Y-108980149D01*
X101144441Y-108962802D01*
X101141780Y-108955785D01*
X101045145Y-108815786D01*
X100917814Y-108702981D01*
X100892785Y-108689844D01*
X100773828Y-108627410D01*
X100773824Y-108627408D01*
X100767187Y-108623925D01*
X100759909Y-108622131D01*
X100759906Y-108622130D01*
X100609299Y-108585009D01*
X100609294Y-108585008D01*
X100602018Y-108583215D01*
X100431906Y-108583215D01*
X100424630Y-108585008D01*
X100424624Y-108585009D01*
X100274017Y-108622130D01*
X100274012Y-108622131D01*
X100266737Y-108623925D01*
X100260102Y-108627407D01*
X100260095Y-108627410D01*
X100122753Y-108699494D01*
X100122750Y-108699495D01*
X100116110Y-108702981D01*
X100110499Y-108707951D01*
X100110493Y-108707956D01*
X99994392Y-108810813D01*
X99988779Y-108815786D01*
X99984524Y-108821950D01*
X99984519Y-108821956D01*
X99896407Y-108949608D01*
X99896404Y-108949612D01*
X99892144Y-108955785D01*
X99889485Y-108962796D01*
X99889482Y-108962802D01*
X99882904Y-108980149D01*
X99849189Y-109028993D01*
X99796637Y-109056575D01*
X99737287Y-109056575D01*
X99684735Y-109028993D01*
X99651020Y-108980149D01*
X99644441Y-108962802D01*
X99641780Y-108955785D01*
X99545145Y-108815786D01*
X99417814Y-108702981D01*
X99392785Y-108689844D01*
X99273828Y-108627410D01*
X99273824Y-108627408D01*
X99267187Y-108623925D01*
X99259909Y-108622131D01*
X99259906Y-108622130D01*
X99109299Y-108585009D01*
X99109294Y-108585008D01*
X99102018Y-108583215D01*
X98931906Y-108583215D01*
X98924630Y-108585008D01*
X98924624Y-108585009D01*
X98774017Y-108622130D01*
X98774012Y-108622131D01*
X98766737Y-108623925D01*
X98760102Y-108627407D01*
X98760095Y-108627410D01*
X98622753Y-108699494D01*
X98622750Y-108699495D01*
X98616110Y-108702981D01*
X98610499Y-108707951D01*
X98610493Y-108707956D01*
X98494392Y-108810813D01*
X98488779Y-108815786D01*
X98484524Y-108821950D01*
X98484519Y-108821956D01*
X98396407Y-108949608D01*
X98396404Y-108949612D01*
X98392144Y-108955785D01*
X98389485Y-108962796D01*
X98389482Y-108962802D01*
X98382904Y-108980149D01*
X98349189Y-109028993D01*
X98296637Y-109056575D01*
X98237287Y-109056575D01*
X98184735Y-109028993D01*
X98151020Y-108980149D01*
X98144441Y-108962802D01*
X98141780Y-108955785D01*
X98045145Y-108815786D01*
X97917814Y-108702981D01*
X97892785Y-108689844D01*
X97773828Y-108627410D01*
X97773824Y-108627408D01*
X97767187Y-108623925D01*
X97759909Y-108622131D01*
X97759906Y-108622130D01*
X97609299Y-108585009D01*
X97609294Y-108585008D01*
X97602018Y-108583215D01*
X97431906Y-108583215D01*
X97424630Y-108585008D01*
X97424624Y-108585009D01*
X97274017Y-108622130D01*
X97274012Y-108622131D01*
X97266737Y-108623925D01*
X97260102Y-108627407D01*
X97260095Y-108627410D01*
X97122753Y-108699494D01*
X97122750Y-108699495D01*
X97116110Y-108702981D01*
X97110499Y-108707951D01*
X97110493Y-108707956D01*
X96994392Y-108810813D01*
X96988779Y-108815786D01*
X96984524Y-108821950D01*
X96984519Y-108821956D01*
X96896407Y-108949608D01*
X96896404Y-108949612D01*
X96892144Y-108955785D01*
X96889485Y-108962796D01*
X96889482Y-108962802D01*
X96882904Y-108980149D01*
X96849189Y-109028993D01*
X96796637Y-109056575D01*
X96737287Y-109056575D01*
X96684735Y-109028993D01*
X96651020Y-108980149D01*
X96644441Y-108962802D01*
X96641780Y-108955785D01*
X96545145Y-108815786D01*
X96417814Y-108702981D01*
X96392785Y-108689844D01*
X96273828Y-108627410D01*
X96273824Y-108627408D01*
X96267187Y-108623925D01*
X96259909Y-108622131D01*
X96259906Y-108622130D01*
X96109299Y-108585009D01*
X96109294Y-108585008D01*
X96102018Y-108583215D01*
X95931906Y-108583215D01*
X95924630Y-108585008D01*
X95924624Y-108585009D01*
X95774017Y-108622130D01*
X95774012Y-108622131D01*
X95766737Y-108623925D01*
X95760102Y-108627407D01*
X95760095Y-108627410D01*
X95622753Y-108699494D01*
X95622750Y-108699495D01*
X95616110Y-108702981D01*
X95610499Y-108707951D01*
X95610493Y-108707956D01*
X95494392Y-108810813D01*
X95488779Y-108815786D01*
X95484524Y-108821950D01*
X95484519Y-108821956D01*
X95396407Y-108949608D01*
X95396404Y-108949612D01*
X95392144Y-108955785D01*
X95389485Y-108962796D01*
X95389482Y-108962802D01*
X95382904Y-108980149D01*
X95349189Y-109028993D01*
X95296637Y-109056575D01*
X95237287Y-109056575D01*
X95184735Y-109028993D01*
X95151020Y-108980149D01*
X95144441Y-108962802D01*
X95141780Y-108955785D01*
X95045145Y-108815786D01*
X94917814Y-108702981D01*
X94892785Y-108689844D01*
X94773828Y-108627410D01*
X94773824Y-108627408D01*
X94767187Y-108623925D01*
X94759909Y-108622131D01*
X94759906Y-108622130D01*
X94609299Y-108585009D01*
X94609294Y-108585008D01*
X94602018Y-108583215D01*
X94431906Y-108583215D01*
X94424630Y-108585008D01*
X94424624Y-108585009D01*
X94274017Y-108622130D01*
X94274012Y-108622131D01*
X94266737Y-108623925D01*
X94260102Y-108627407D01*
X94260095Y-108627410D01*
X94122753Y-108699494D01*
X94122750Y-108699495D01*
X94116110Y-108702981D01*
X94110499Y-108707951D01*
X94110493Y-108707956D01*
X93994392Y-108810813D01*
X93988779Y-108815786D01*
X93984524Y-108821950D01*
X93984519Y-108821956D01*
X93896407Y-108949608D01*
X93896404Y-108949612D01*
X93892144Y-108955785D01*
X93889485Y-108962796D01*
X93889482Y-108962802D01*
X93882904Y-108980149D01*
X93849189Y-109028993D01*
X93796637Y-109056575D01*
X93737287Y-109056575D01*
X93684735Y-109028993D01*
X93651020Y-108980149D01*
X93644441Y-108962802D01*
X93641780Y-108955785D01*
X93545145Y-108815786D01*
X93417814Y-108702981D01*
X93392785Y-108689844D01*
X93273828Y-108627410D01*
X93273824Y-108627408D01*
X93267187Y-108623925D01*
X93259909Y-108622131D01*
X93259906Y-108622130D01*
X93109299Y-108585009D01*
X93109294Y-108585008D01*
X93102018Y-108583215D01*
X92931906Y-108583215D01*
X92924630Y-108585008D01*
X92924624Y-108585009D01*
X92774017Y-108622130D01*
X92774012Y-108622131D01*
X92766737Y-108623925D01*
X92760102Y-108627407D01*
X92760095Y-108627410D01*
X92622753Y-108699494D01*
X92622750Y-108699495D01*
X92616110Y-108702981D01*
X92610499Y-108707951D01*
X92610493Y-108707956D01*
X92494392Y-108810813D01*
X92488779Y-108815786D01*
X92484524Y-108821950D01*
X92484519Y-108821956D01*
X92396407Y-108949608D01*
X92396404Y-108949612D01*
X92392144Y-108955785D01*
X92389485Y-108962796D01*
X92389482Y-108962802D01*
X92382904Y-108980149D01*
X92349189Y-109028993D01*
X92296637Y-109056575D01*
X92237287Y-109056575D01*
X92184735Y-109028993D01*
X92151020Y-108980149D01*
X92144441Y-108962802D01*
X92141780Y-108955785D01*
X92045145Y-108815786D01*
X91917814Y-108702981D01*
X91892785Y-108689844D01*
X91773828Y-108627410D01*
X91773824Y-108627408D01*
X91767187Y-108623925D01*
X91759909Y-108622131D01*
X91759906Y-108622130D01*
X91609299Y-108585009D01*
X91609294Y-108585008D01*
X91602018Y-108583215D01*
X91431906Y-108583215D01*
X91424630Y-108585008D01*
X91424624Y-108585009D01*
X91274017Y-108622130D01*
X91274012Y-108622131D01*
X91266737Y-108623925D01*
X91260102Y-108627407D01*
X91260095Y-108627410D01*
X91122753Y-108699494D01*
X91122750Y-108699495D01*
X91116110Y-108702981D01*
X91110499Y-108707951D01*
X91110493Y-108707956D01*
X90994392Y-108810813D01*
X90988779Y-108815786D01*
X90984524Y-108821950D01*
X90984519Y-108821956D01*
X90896407Y-108949608D01*
X90896404Y-108949612D01*
X90892144Y-108955785D01*
X90889485Y-108962796D01*
X90889482Y-108962802D01*
X90882904Y-108980149D01*
X90849189Y-109028993D01*
X90796637Y-109056575D01*
X90737287Y-109056575D01*
X90684735Y-109028993D01*
X90651020Y-108980149D01*
X90644441Y-108962802D01*
X90641780Y-108955785D01*
X90545145Y-108815786D01*
X90417814Y-108702981D01*
X90392785Y-108689844D01*
X90273828Y-108627410D01*
X90273824Y-108627408D01*
X90267187Y-108623925D01*
X90259909Y-108622131D01*
X90259906Y-108622130D01*
X90109299Y-108585009D01*
X90109294Y-108585008D01*
X90102018Y-108583215D01*
X89931906Y-108583215D01*
X89924630Y-108585008D01*
X89924624Y-108585009D01*
X89774017Y-108622130D01*
X89774012Y-108622131D01*
X89766737Y-108623925D01*
X89760102Y-108627407D01*
X89760095Y-108627410D01*
X89622753Y-108699494D01*
X89622750Y-108699495D01*
X89616110Y-108702981D01*
X89610499Y-108707951D01*
X89610493Y-108707956D01*
X89494392Y-108810813D01*
X89488779Y-108815786D01*
X89484524Y-108821950D01*
X89484519Y-108821956D01*
X89396407Y-108949608D01*
X89396404Y-108949612D01*
X89392144Y-108955785D01*
X89389485Y-108962796D01*
X89389482Y-108962802D01*
X89334482Y-109107826D01*
X89334479Y-109107834D01*
X89331822Y-109114843D01*
X89330918Y-109122285D01*
X89330917Y-109122291D01*
X89312719Y-109272171D01*
X89311317Y-109283715D01*
X88972607Y-109283715D01*
X88952102Y-109114843D01*
X88891780Y-108955785D01*
X88795145Y-108815786D01*
X88667814Y-108702981D01*
X88642785Y-108689844D01*
X88523828Y-108627410D01*
X88523824Y-108627408D01*
X88517187Y-108623925D01*
X88509909Y-108622131D01*
X88509906Y-108622130D01*
X88359299Y-108585009D01*
X88359294Y-108585008D01*
X88352018Y-108583215D01*
X88181906Y-108583215D01*
X88174630Y-108585008D01*
X88174624Y-108585009D01*
X88024017Y-108622130D01*
X88024012Y-108622131D01*
X88016737Y-108623925D01*
X88010102Y-108627407D01*
X88010095Y-108627410D01*
X87872753Y-108699494D01*
X87872750Y-108699495D01*
X87866110Y-108702981D01*
X87860499Y-108707951D01*
X87860493Y-108707956D01*
X87744392Y-108810813D01*
X87738779Y-108815786D01*
X87734524Y-108821950D01*
X87734519Y-108821956D01*
X87646407Y-108949608D01*
X87646404Y-108949612D01*
X87642144Y-108955785D01*
X87639485Y-108962796D01*
X87639482Y-108962802D01*
X87584482Y-109107826D01*
X87584479Y-109107834D01*
X87581822Y-109114843D01*
X87580918Y-109122285D01*
X87580917Y-109122291D01*
X87562719Y-109272171D01*
X87561317Y-109283715D01*
X87195500Y-109283715D01*
X87195500Y-108494006D01*
X134834683Y-108494006D01*
X134840592Y-108503792D01*
X135255419Y-108918619D01*
X135266961Y-108925283D01*
X135278504Y-108918619D01*
X135693330Y-108503792D01*
X135699239Y-108494006D01*
X135690214Y-108486986D01*
X135552541Y-108425691D01*
X135540256Y-108421699D01*
X135367916Y-108385067D01*
X135355054Y-108383715D01*
X135178870Y-108383715D01*
X135166007Y-108385067D01*
X134993667Y-108421699D01*
X134981382Y-108425691D01*
X134843708Y-108486986D01*
X134834683Y-108494006D01*
X87195500Y-108494006D01*
X87195500Y-106710563D01*
X87196087Y-106704601D01*
X87195959Y-106703961D01*
X87197601Y-106700000D01*
X87189517Y-106680483D01*
X87175072Y-106674500D01*
X87170000Y-106672399D01*
X87166039Y-106674039D01*
X87165397Y-106673912D01*
X87159438Y-106674500D01*
X85724000Y-106674500D01*
X85662000Y-106657887D01*
X85616613Y-106612500D01*
X85611871Y-106594801D01*
X87659430Y-106594801D01*
X87660491Y-106602860D01*
X87679006Y-106743503D01*
X87679007Y-106743509D01*
X87680068Y-106751563D01*
X87683177Y-106759069D01*
X87683178Y-106759072D01*
X87711846Y-106828282D01*
X87740576Y-106897642D01*
X87836830Y-107023083D01*
X87962271Y-107119337D01*
X88108350Y-107179845D01*
X88265112Y-107200483D01*
X88421874Y-107179845D01*
X88567953Y-107119337D01*
X88693394Y-107023083D01*
X88789648Y-106897642D01*
X88850156Y-106751563D01*
X88870794Y-106594801D01*
X88850156Y-106438039D01*
X88789648Y-106291960D01*
X88758446Y-106251297D01*
X88726306Y-106209410D01*
X88703621Y-106160762D01*
X88703621Y-106107085D01*
X88726303Y-106058441D01*
X88797064Y-105966225D01*
X88857572Y-105820146D01*
X88878210Y-105663384D01*
X88857572Y-105506622D01*
X88813408Y-105400000D01*
X120568818Y-105400000D01*
X120569879Y-105408059D01*
X120588394Y-105548702D01*
X120588395Y-105548708D01*
X120589456Y-105556762D01*
X120592565Y-105564268D01*
X120592566Y-105564271D01*
X120639061Y-105676520D01*
X120649964Y-105702841D01*
X120746218Y-105828282D01*
X120748260Y-105829849D01*
X120777259Y-105877636D01*
X120781114Y-105936456D01*
X120757374Y-105990410D01*
X120680411Y-106090711D01*
X120680408Y-106090714D01*
X120675464Y-106097159D01*
X120672355Y-106104662D01*
X120672354Y-106104666D01*
X120618066Y-106235728D01*
X120618064Y-106235733D01*
X120614956Y-106243238D01*
X120613896Y-106251289D01*
X120613894Y-106251297D01*
X120607553Y-106299467D01*
X120594318Y-106400000D01*
X120595379Y-106408059D01*
X120613894Y-106548702D01*
X120613895Y-106548708D01*
X120614956Y-106556762D01*
X120675464Y-106702841D01*
X120771718Y-106828282D01*
X120897159Y-106924536D01*
X121043238Y-106985044D01*
X121200000Y-107005682D01*
X121356762Y-106985044D01*
X121502841Y-106924536D01*
X121628282Y-106828282D01*
X121724536Y-106702841D01*
X121785044Y-106556762D01*
X121805682Y-106400000D01*
X121785044Y-106243238D01*
X121724536Y-106097159D01*
X121628282Y-105971718D01*
X121626238Y-105970150D01*
X121597240Y-105922362D01*
X121593385Y-105863542D01*
X121617123Y-105809592D01*
X121699036Y-105702841D01*
X121712042Y-105671443D01*
X121722689Y-105645738D01*
X121756718Y-105598900D01*
X121808303Y-105572616D01*
X121866197Y-105572616D01*
X121917782Y-105598900D01*
X121951811Y-105645738D01*
X121972352Y-105695331D01*
X121972356Y-105695338D01*
X121975464Y-105702841D01*
X122071718Y-105828282D01*
X122197159Y-105924536D01*
X122343238Y-105985044D01*
X122500000Y-106005682D01*
X122656762Y-105985044D01*
X122802841Y-105924536D01*
X122928282Y-105828282D01*
X123024536Y-105702841D01*
X123035439Y-105676518D01*
X123069468Y-105629681D01*
X123121053Y-105603397D01*
X123178947Y-105603397D01*
X123230532Y-105629681D01*
X123264560Y-105676518D01*
X123275464Y-105702841D01*
X123371718Y-105828282D01*
X123497159Y-105924536D01*
X123643238Y-105985044D01*
X123800000Y-106005682D01*
X123956762Y-105985044D01*
X124102841Y-105924536D01*
X124228282Y-105828282D01*
X124324536Y-105702841D01*
X124385044Y-105556762D01*
X124405682Y-105400000D01*
X128818818Y-105400000D01*
X128819879Y-105408059D01*
X128838394Y-105548702D01*
X128838395Y-105548708D01*
X128839456Y-105556762D01*
X128842565Y-105564268D01*
X128842566Y-105564271D01*
X128889061Y-105676520D01*
X128899964Y-105702841D01*
X128996218Y-105828282D01*
X129121659Y-105924536D01*
X129129163Y-105927644D01*
X129129168Y-105927647D01*
X129227030Y-105968182D01*
X129277954Y-106007256D01*
X129302517Y-106066558D01*
X129318504Y-106187997D01*
X129318505Y-106188003D01*
X129319566Y-106196057D01*
X129322675Y-106203563D01*
X129322676Y-106203566D01*
X129359290Y-106291960D01*
X129380074Y-106342136D01*
X129476328Y-106467577D01*
X129601769Y-106563831D01*
X129747848Y-106624339D01*
X129904610Y-106644977D01*
X130061372Y-106624339D01*
X130207451Y-106563831D01*
X130332892Y-106467577D01*
X130429146Y-106342136D01*
X130489654Y-106196057D01*
X130502106Y-106101472D01*
X130526669Y-106042172D01*
X130577592Y-106003097D01*
X130641229Y-105994719D01*
X130724500Y-106005682D01*
X130881262Y-105985044D01*
X131027341Y-105924536D01*
X131152782Y-105828282D01*
X131249036Y-105702841D01*
X131309544Y-105556762D01*
X131330182Y-105400000D01*
X132094318Y-105400000D01*
X132095379Y-105408059D01*
X132113894Y-105548702D01*
X132113895Y-105548708D01*
X132114956Y-105556762D01*
X132118065Y-105564268D01*
X132118066Y-105564271D01*
X132164561Y-105676520D01*
X132175464Y-105702841D01*
X132271718Y-105828282D01*
X132397159Y-105924536D01*
X132543238Y-105985044D01*
X132700000Y-106005682D01*
X132856762Y-105985044D01*
X133002841Y-105924536D01*
X133128282Y-105828282D01*
X133224536Y-105702841D01*
X133285044Y-105556762D01*
X133305682Y-105400000D01*
X133285044Y-105243238D01*
X133224536Y-105097159D01*
X133128282Y-104971718D01*
X133002841Y-104875464D01*
X132995333Y-104872354D01*
X132864271Y-104818066D01*
X132864268Y-104818065D01*
X132856762Y-104814956D01*
X132848708Y-104813895D01*
X132848702Y-104813894D01*
X132708059Y-104795379D01*
X132700000Y-104794318D01*
X132691941Y-104795379D01*
X132551297Y-104813894D01*
X132551289Y-104813896D01*
X132543238Y-104814956D01*
X132535733Y-104818064D01*
X132535728Y-104818066D01*
X132404666Y-104872354D01*
X132404662Y-104872355D01*
X132397159Y-104875464D01*
X132390714Y-104880408D01*
X132390711Y-104880411D01*
X132278164Y-104966771D01*
X132278160Y-104966774D01*
X132271718Y-104971718D01*
X132266774Y-104978160D01*
X132266771Y-104978164D01*
X132180411Y-105090711D01*
X132180408Y-105090714D01*
X132175464Y-105097159D01*
X132172355Y-105104662D01*
X132172354Y-105104666D01*
X132118066Y-105235728D01*
X132118064Y-105235733D01*
X132114956Y-105243238D01*
X132113896Y-105251289D01*
X132113894Y-105251297D01*
X132098524Y-105368050D01*
X132094318Y-105400000D01*
X131330182Y-105400000D01*
X131309544Y-105243238D01*
X131249036Y-105097159D01*
X131152782Y-104971718D01*
X131027341Y-104875464D01*
X131019833Y-104872354D01*
X130888771Y-104818066D01*
X130888768Y-104818065D01*
X130881262Y-104814956D01*
X130873208Y-104813895D01*
X130873202Y-104813894D01*
X130732559Y-104795379D01*
X130724500Y-104794318D01*
X130716441Y-104795379D01*
X130575797Y-104813894D01*
X130575789Y-104813896D01*
X130567738Y-104814956D01*
X130560233Y-104818064D01*
X130560228Y-104818066D01*
X130429166Y-104872354D01*
X130429162Y-104872355D01*
X130421659Y-104875464D01*
X130415214Y-104880408D01*
X130415211Y-104880411D01*
X130302664Y-104966771D01*
X130302660Y-104966774D01*
X130296218Y-104971718D01*
X130291274Y-104978160D01*
X130291271Y-104978164D01*
X130204911Y-105090711D01*
X130204908Y-105090714D01*
X130199964Y-105097159D01*
X130196855Y-105104662D01*
X130196854Y-105104666D01*
X130189061Y-105123481D01*
X130155031Y-105170318D01*
X130103447Y-105196602D01*
X130045553Y-105196602D01*
X129993969Y-105170318D01*
X129959939Y-105123481D01*
X129959198Y-105121693D01*
X129949036Y-105097159D01*
X129852782Y-104971718D01*
X129727341Y-104875464D01*
X129719833Y-104872354D01*
X129588771Y-104818066D01*
X129588768Y-104818065D01*
X129581262Y-104814956D01*
X129573208Y-104813895D01*
X129573202Y-104813894D01*
X129432559Y-104795379D01*
X129424500Y-104794318D01*
X129416441Y-104795379D01*
X129275797Y-104813894D01*
X129275789Y-104813896D01*
X129267738Y-104814956D01*
X129260233Y-104818064D01*
X129260228Y-104818066D01*
X129129166Y-104872354D01*
X129129162Y-104872355D01*
X129121659Y-104875464D01*
X129115214Y-104880408D01*
X129115211Y-104880411D01*
X129002664Y-104966771D01*
X129002660Y-104966774D01*
X128996218Y-104971718D01*
X128991274Y-104978160D01*
X128991271Y-104978164D01*
X128904911Y-105090711D01*
X128904908Y-105090714D01*
X128899964Y-105097159D01*
X128896855Y-105104662D01*
X128896854Y-105104666D01*
X128842566Y-105235728D01*
X128842564Y-105235733D01*
X128839456Y-105243238D01*
X128838396Y-105251289D01*
X128838394Y-105251297D01*
X128823024Y-105368050D01*
X128818818Y-105400000D01*
X124405682Y-105400000D01*
X124385044Y-105243238D01*
X124324536Y-105097159D01*
X124228282Y-104971718D01*
X124102841Y-104875464D01*
X124095333Y-104872354D01*
X123964271Y-104818066D01*
X123964268Y-104818065D01*
X123956762Y-104814956D01*
X123948708Y-104813895D01*
X123948702Y-104813894D01*
X123808059Y-104795379D01*
X123800000Y-104794318D01*
X123791941Y-104795379D01*
X123651297Y-104813894D01*
X123651289Y-104813896D01*
X123643238Y-104814956D01*
X123635733Y-104818064D01*
X123635728Y-104818066D01*
X123504666Y-104872354D01*
X123504662Y-104872355D01*
X123497159Y-104875464D01*
X123490714Y-104880408D01*
X123490711Y-104880411D01*
X123378164Y-104966771D01*
X123378160Y-104966774D01*
X123371718Y-104971718D01*
X123366774Y-104978160D01*
X123366771Y-104978164D01*
X123280411Y-105090711D01*
X123280408Y-105090714D01*
X123275464Y-105097159D01*
X123272355Y-105104662D01*
X123272354Y-105104666D01*
X123264561Y-105123481D01*
X123230531Y-105170318D01*
X123178947Y-105196602D01*
X123121053Y-105196602D01*
X123069469Y-105170318D01*
X123035439Y-105123481D01*
X123034698Y-105121693D01*
X123024536Y-105097159D01*
X122928282Y-104971718D01*
X122802841Y-104875464D01*
X122795333Y-104872354D01*
X122664271Y-104818066D01*
X122664268Y-104818065D01*
X122656762Y-104814956D01*
X122648708Y-104813895D01*
X122648702Y-104813894D01*
X122508059Y-104795379D01*
X122500000Y-104794318D01*
X122491941Y-104795379D01*
X122351297Y-104813894D01*
X122351289Y-104813896D01*
X122343238Y-104814956D01*
X122335733Y-104818064D01*
X122335728Y-104818066D01*
X122204666Y-104872354D01*
X122204662Y-104872355D01*
X122197159Y-104875464D01*
X122190714Y-104880408D01*
X122190711Y-104880411D01*
X122078164Y-104966771D01*
X122078160Y-104966774D01*
X122071718Y-104971718D01*
X122066774Y-104978160D01*
X122066771Y-104978164D01*
X121980411Y-105090711D01*
X121980408Y-105090714D01*
X121975464Y-105097159D01*
X121972355Y-105104662D01*
X121972354Y-105104666D01*
X121951811Y-105154262D01*
X121917781Y-105201099D01*
X121866197Y-105227383D01*
X121808303Y-105227383D01*
X121756719Y-105201099D01*
X121722689Y-105154262D01*
X121716304Y-105138848D01*
X121699036Y-105097159D01*
X121602782Y-104971718D01*
X121477341Y-104875464D01*
X121469833Y-104872354D01*
X121338771Y-104818066D01*
X121338768Y-104818065D01*
X121331262Y-104814956D01*
X121323208Y-104813895D01*
X121323202Y-104813894D01*
X121182559Y-104795379D01*
X121174500Y-104794318D01*
X121166441Y-104795379D01*
X121025797Y-104813894D01*
X121025789Y-104813896D01*
X121017738Y-104814956D01*
X121010233Y-104818064D01*
X121010228Y-104818066D01*
X120879166Y-104872354D01*
X120879162Y-104872355D01*
X120871659Y-104875464D01*
X120865214Y-104880408D01*
X120865211Y-104880411D01*
X120752664Y-104966771D01*
X120752660Y-104966774D01*
X120746218Y-104971718D01*
X120741274Y-104978160D01*
X120741271Y-104978164D01*
X120654911Y-105090711D01*
X120654908Y-105090714D01*
X120649964Y-105097159D01*
X120646855Y-105104662D01*
X120646854Y-105104666D01*
X120592566Y-105235728D01*
X120592564Y-105235733D01*
X120589456Y-105243238D01*
X120588396Y-105251289D01*
X120588394Y-105251297D01*
X120573024Y-105368050D01*
X120568818Y-105400000D01*
X88813408Y-105400000D01*
X88797064Y-105360543D01*
X88700810Y-105235102D01*
X88575369Y-105138848D01*
X88538270Y-105123481D01*
X88436799Y-105081450D01*
X88436796Y-105081449D01*
X88429290Y-105078340D01*
X88421236Y-105077279D01*
X88421230Y-105077278D01*
X88280587Y-105058763D01*
X88272528Y-105057702D01*
X88264469Y-105058763D01*
X88123825Y-105077278D01*
X88123817Y-105077280D01*
X88115766Y-105078340D01*
X88108261Y-105081448D01*
X88108256Y-105081450D01*
X87977194Y-105135738D01*
X87977190Y-105135739D01*
X87969687Y-105138848D01*
X87963242Y-105143792D01*
X87963239Y-105143795D01*
X87850692Y-105230155D01*
X87850688Y-105230158D01*
X87844246Y-105235102D01*
X87839302Y-105241544D01*
X87839299Y-105241548D01*
X87752939Y-105354095D01*
X87752936Y-105354098D01*
X87747992Y-105360543D01*
X87744883Y-105368046D01*
X87744882Y-105368050D01*
X87690594Y-105499112D01*
X87690592Y-105499117D01*
X87687484Y-105506622D01*
X87686424Y-105514673D01*
X87686422Y-105514681D01*
X87675335Y-105598900D01*
X87666846Y-105663384D01*
X87667907Y-105671443D01*
X87686422Y-105812086D01*
X87686423Y-105812092D01*
X87687484Y-105820146D01*
X87690593Y-105827652D01*
X87690594Y-105827655D01*
X87732012Y-105927647D01*
X87747992Y-105966225D01*
X87752939Y-105972672D01*
X87811333Y-106048774D01*
X87834018Y-106097422D01*
X87834018Y-106151098D01*
X87811333Y-106199746D01*
X87745523Y-106285512D01*
X87745520Y-106285515D01*
X87740576Y-106291960D01*
X87737467Y-106299463D01*
X87737466Y-106299467D01*
X87683178Y-106430529D01*
X87683176Y-106430534D01*
X87680068Y-106438039D01*
X87679008Y-106446090D01*
X87679006Y-106446098D01*
X87663507Y-106563831D01*
X87659430Y-106594801D01*
X85611871Y-106594801D01*
X85600000Y-106550500D01*
X85600000Y-102700000D01*
X102094318Y-102700000D01*
X102095379Y-102708059D01*
X102113894Y-102848702D01*
X102113895Y-102848708D01*
X102114956Y-102856762D01*
X102118065Y-102864268D01*
X102118066Y-102864271D01*
X102146629Y-102933228D01*
X102175464Y-103002841D01*
X102271718Y-103128282D01*
X102397159Y-103224536D01*
X102543238Y-103285044D01*
X102700000Y-103305682D01*
X102856762Y-103285044D01*
X103002841Y-103224536D01*
X103128282Y-103128282D01*
X103224536Y-103002841D01*
X103285044Y-102856762D01*
X103305682Y-102700000D01*
X103285044Y-102543238D01*
X103224536Y-102397159D01*
X103128282Y-102271718D01*
X103002841Y-102175464D01*
X102995333Y-102172354D01*
X102864271Y-102118066D01*
X102864268Y-102118065D01*
X102856762Y-102114956D01*
X102848708Y-102113895D01*
X102848702Y-102113894D01*
X102708059Y-102095379D01*
X102700000Y-102094318D01*
X102691941Y-102095379D01*
X102551297Y-102113894D01*
X102551289Y-102113896D01*
X102543238Y-102114956D01*
X102535733Y-102118064D01*
X102535728Y-102118066D01*
X102404666Y-102172354D01*
X102404662Y-102172355D01*
X102397159Y-102175464D01*
X102390714Y-102180408D01*
X102390711Y-102180411D01*
X102278164Y-102266771D01*
X102278160Y-102266774D01*
X102271718Y-102271718D01*
X102266774Y-102278160D01*
X102266771Y-102278164D01*
X102180411Y-102390711D01*
X102180408Y-102390714D01*
X102175464Y-102397159D01*
X102172355Y-102404662D01*
X102172354Y-102404666D01*
X102118066Y-102535728D01*
X102118064Y-102535733D01*
X102114956Y-102543238D01*
X102113896Y-102551289D01*
X102113894Y-102551297D01*
X102101071Y-102648702D01*
X102094318Y-102700000D01*
X85600000Y-102700000D01*
X85600000Y-101554948D01*
X107919500Y-101554948D01*
X107919816Y-101558059D01*
X107919817Y-101558071D01*
X107954011Y-101894318D01*
X107959012Y-101943495D01*
X107959640Y-101946553D01*
X107959642Y-101946563D01*
X108036997Y-102322980D01*
X108037001Y-102322996D01*
X108037629Y-102326051D01*
X108038569Y-102329047D01*
X108153601Y-102695683D01*
X108153604Y-102695692D01*
X108154545Y-102698690D01*
X108155781Y-102701570D01*
X108155785Y-102701581D01*
X108307324Y-103054708D01*
X108308561Y-103057590D01*
X108498096Y-103399066D01*
X108721205Y-103719616D01*
X108975599Y-104015949D01*
X109258667Y-104285025D01*
X109567505Y-104524084D01*
X109898944Y-104730671D01*
X110249582Y-104902667D01*
X110615821Y-105038307D01*
X110993904Y-105136200D01*
X111379951Y-105195340D01*
X111672434Y-105210173D01*
X111866008Y-105210173D01*
X111867566Y-105210173D01*
X112160049Y-105195340D01*
X112546096Y-105136200D01*
X112924179Y-105038307D01*
X113290418Y-104902667D01*
X113641056Y-104730671D01*
X113972495Y-104524084D01*
X114281333Y-104285025D01*
X114564401Y-104015949D01*
X114818795Y-103719616D01*
X115041904Y-103399066D01*
X115231439Y-103057590D01*
X115385455Y-102698690D01*
X115447794Y-102500000D01*
X122594318Y-102500000D01*
X122595379Y-102508059D01*
X122613894Y-102648702D01*
X122613895Y-102648708D01*
X122614956Y-102656762D01*
X122618065Y-102664268D01*
X122618066Y-102664271D01*
X122636204Y-102708059D01*
X122675464Y-102802841D01*
X122771718Y-102928282D01*
X122897159Y-103024536D01*
X123043238Y-103085044D01*
X123200000Y-103105682D01*
X123356762Y-103085044D01*
X123502841Y-103024536D01*
X123628282Y-102928282D01*
X123724536Y-102802841D01*
X123785044Y-102656762D01*
X123805682Y-102500000D01*
X131494318Y-102500000D01*
X131495379Y-102508059D01*
X131513894Y-102648702D01*
X131513895Y-102648708D01*
X131514956Y-102656762D01*
X131518065Y-102664268D01*
X131518066Y-102664271D01*
X131536204Y-102708059D01*
X131575464Y-102802841D01*
X131671718Y-102928282D01*
X131797159Y-103024536D01*
X131943238Y-103085044D01*
X132100000Y-103105682D01*
X132256762Y-103085044D01*
X132402841Y-103024536D01*
X132528282Y-102928282D01*
X132624536Y-102802841D01*
X132685044Y-102656762D01*
X132705682Y-102500000D01*
X132685044Y-102343238D01*
X132624536Y-102197159D01*
X132528282Y-102071718D01*
X132402841Y-101975464D01*
X132333068Y-101946563D01*
X132264271Y-101918066D01*
X132264268Y-101918065D01*
X132256762Y-101914956D01*
X132248708Y-101913895D01*
X132248702Y-101913894D01*
X132108059Y-101895379D01*
X132100000Y-101894318D01*
X132091941Y-101895379D01*
X131951297Y-101913894D01*
X131951289Y-101913896D01*
X131943238Y-101914956D01*
X131935733Y-101918064D01*
X131935728Y-101918066D01*
X131804666Y-101972354D01*
X131804662Y-101972355D01*
X131797159Y-101975464D01*
X131790714Y-101980408D01*
X131790711Y-101980411D01*
X131678164Y-102066771D01*
X131678160Y-102066774D01*
X131671718Y-102071718D01*
X131666774Y-102078160D01*
X131666771Y-102078164D01*
X131580411Y-102190711D01*
X131580408Y-102190714D01*
X131575464Y-102197159D01*
X131572355Y-102204662D01*
X131572354Y-102204666D01*
X131518066Y-102335728D01*
X131518064Y-102335733D01*
X131514956Y-102343238D01*
X131513896Y-102351289D01*
X131513894Y-102351297D01*
X131495702Y-102489482D01*
X131494318Y-102500000D01*
X123805682Y-102500000D01*
X123785044Y-102343238D01*
X123724536Y-102197159D01*
X123628282Y-102071718D01*
X123502841Y-101975464D01*
X123433068Y-101946563D01*
X123364271Y-101918066D01*
X123364268Y-101918065D01*
X123356762Y-101914956D01*
X123348708Y-101913895D01*
X123348702Y-101913894D01*
X123208059Y-101895379D01*
X123200000Y-101894318D01*
X123191941Y-101895379D01*
X123051297Y-101913894D01*
X123051289Y-101913896D01*
X123043238Y-101914956D01*
X123035733Y-101918064D01*
X123035728Y-101918066D01*
X122904666Y-101972354D01*
X122904662Y-101972355D01*
X122897159Y-101975464D01*
X122890714Y-101980408D01*
X122890711Y-101980411D01*
X122778164Y-102066771D01*
X122778160Y-102066774D01*
X122771718Y-102071718D01*
X122766774Y-102078160D01*
X122766771Y-102078164D01*
X122680411Y-102190711D01*
X122680408Y-102190714D01*
X122675464Y-102197159D01*
X122672355Y-102204662D01*
X122672354Y-102204666D01*
X122618066Y-102335728D01*
X122618064Y-102335733D01*
X122614956Y-102343238D01*
X122613896Y-102351289D01*
X122613894Y-102351297D01*
X122595702Y-102489482D01*
X122594318Y-102500000D01*
X115447794Y-102500000D01*
X115502371Y-102326051D01*
X115580988Y-101943495D01*
X115620500Y-101554948D01*
X115620500Y-101164398D01*
X115580988Y-100775851D01*
X115502371Y-100393295D01*
X115385455Y-100020656D01*
X115231439Y-99661756D01*
X115141657Y-99500000D01*
X117394318Y-99500000D01*
X117395379Y-99508059D01*
X117413894Y-99648702D01*
X117413895Y-99648708D01*
X117414956Y-99656762D01*
X117418065Y-99664268D01*
X117418066Y-99664271D01*
X117436713Y-99709288D01*
X117475464Y-99802841D01*
X117571718Y-99928282D01*
X117697159Y-100024536D01*
X117843238Y-100085044D01*
X118000000Y-100105682D01*
X118156762Y-100085044D01*
X118302841Y-100024536D01*
X118428282Y-99928282D01*
X118524536Y-99802841D01*
X118585044Y-99656762D01*
X118592517Y-99600000D01*
X122594318Y-99600000D01*
X122595379Y-99608059D01*
X122613894Y-99748702D01*
X122613895Y-99748708D01*
X122614956Y-99756762D01*
X122618065Y-99764268D01*
X122618066Y-99764271D01*
X122646629Y-99833228D01*
X122675464Y-99902841D01*
X122771718Y-100028282D01*
X122897159Y-100124536D01*
X123043238Y-100185044D01*
X123200000Y-100205682D01*
X123356762Y-100185044D01*
X123502841Y-100124536D01*
X123628282Y-100028282D01*
X123724536Y-99902841D01*
X123785044Y-99756762D01*
X123805682Y-99600000D01*
X123785044Y-99443238D01*
X123767134Y-99400000D01*
X131494318Y-99400000D01*
X131495379Y-99408059D01*
X131513894Y-99548702D01*
X131513895Y-99548708D01*
X131514956Y-99556762D01*
X131518065Y-99564268D01*
X131518066Y-99564271D01*
X131558446Y-99661756D01*
X131575464Y-99702841D01*
X131671718Y-99828282D01*
X131797159Y-99924536D01*
X131943238Y-99985044D01*
X132100000Y-100005682D01*
X132256762Y-99985044D01*
X132402841Y-99924536D01*
X132528282Y-99828282D01*
X132624536Y-99702841D01*
X132685044Y-99556762D01*
X132705682Y-99400000D01*
X132685044Y-99243238D01*
X132624536Y-99097159D01*
X132528282Y-98971718D01*
X132402841Y-98875464D01*
X132384981Y-98868066D01*
X132264271Y-98818066D01*
X132264268Y-98818065D01*
X132256762Y-98814956D01*
X132248708Y-98813895D01*
X132248702Y-98813894D01*
X132108059Y-98795379D01*
X132100000Y-98794318D01*
X132091941Y-98795379D01*
X131951297Y-98813894D01*
X131951289Y-98813896D01*
X131943238Y-98814956D01*
X131935733Y-98818064D01*
X131935728Y-98818066D01*
X131804666Y-98872354D01*
X131804662Y-98872355D01*
X131797159Y-98875464D01*
X131790714Y-98880408D01*
X131790711Y-98880411D01*
X131678164Y-98966771D01*
X131678160Y-98966774D01*
X131671718Y-98971718D01*
X131666774Y-98978160D01*
X131666771Y-98978164D01*
X131580411Y-99090711D01*
X131580408Y-99090714D01*
X131575464Y-99097159D01*
X131572355Y-99104662D01*
X131572354Y-99104666D01*
X131518066Y-99235728D01*
X131518064Y-99235733D01*
X131514956Y-99243238D01*
X131513896Y-99251289D01*
X131513894Y-99251297D01*
X131500730Y-99351297D01*
X131494318Y-99400000D01*
X123767134Y-99400000D01*
X123724536Y-99297159D01*
X123628282Y-99171718D01*
X123502841Y-99075464D01*
X123495333Y-99072354D01*
X123364271Y-99018066D01*
X123364268Y-99018065D01*
X123356762Y-99014956D01*
X123348708Y-99013895D01*
X123348702Y-99013894D01*
X123208059Y-98995379D01*
X123200000Y-98994318D01*
X123191941Y-98995379D01*
X123051297Y-99013894D01*
X123051289Y-99013896D01*
X123043238Y-99014956D01*
X123035733Y-99018064D01*
X123035728Y-99018066D01*
X122904666Y-99072354D01*
X122904662Y-99072355D01*
X122897159Y-99075464D01*
X122890714Y-99080408D01*
X122890711Y-99080411D01*
X122778164Y-99166771D01*
X122778160Y-99166774D01*
X122771718Y-99171718D01*
X122766774Y-99178160D01*
X122766771Y-99178164D01*
X122680411Y-99290711D01*
X122680408Y-99290714D01*
X122675464Y-99297159D01*
X122672355Y-99304662D01*
X122672354Y-99304666D01*
X122618066Y-99435728D01*
X122618064Y-99435733D01*
X122614956Y-99443238D01*
X122613896Y-99451289D01*
X122613894Y-99451297D01*
X122607483Y-99500000D01*
X122594318Y-99600000D01*
X118592517Y-99600000D01*
X118605682Y-99500000D01*
X118585044Y-99343238D01*
X118524536Y-99197159D01*
X118428282Y-99071718D01*
X118302841Y-98975464D01*
X118295333Y-98972354D01*
X118164271Y-98918066D01*
X118164268Y-98918065D01*
X118156762Y-98914956D01*
X118148708Y-98913895D01*
X118148702Y-98913894D01*
X118008059Y-98895379D01*
X118000000Y-98894318D01*
X117991941Y-98895379D01*
X117851297Y-98913894D01*
X117851289Y-98913896D01*
X117843238Y-98914956D01*
X117835733Y-98918064D01*
X117835728Y-98918066D01*
X117704666Y-98972354D01*
X117704662Y-98972355D01*
X117697159Y-98975464D01*
X117690714Y-98980408D01*
X117690711Y-98980411D01*
X117578164Y-99066771D01*
X117578160Y-99066774D01*
X117571718Y-99071718D01*
X117566774Y-99078160D01*
X117566771Y-99078164D01*
X117480411Y-99190711D01*
X117480408Y-99190714D01*
X117475464Y-99197159D01*
X117472355Y-99204662D01*
X117472354Y-99204666D01*
X117418066Y-99335728D01*
X117418064Y-99335733D01*
X117414956Y-99343238D01*
X117413896Y-99351289D01*
X117413894Y-99351297D01*
X117395702Y-99489482D01*
X117394318Y-99500000D01*
X115141657Y-99500000D01*
X115041904Y-99320280D01*
X114818795Y-98999730D01*
X114564401Y-98703397D01*
X114281333Y-98434321D01*
X114225936Y-98391440D01*
X113974985Y-98197189D01*
X113974979Y-98197185D01*
X113972495Y-98195262D01*
X113903349Y-98152163D01*
X113643723Y-97990337D01*
X113643717Y-97990334D01*
X113641056Y-97988675D01*
X113290418Y-97816679D01*
X113287465Y-97815585D01*
X113287462Y-97815584D01*
X112927119Y-97682128D01*
X112927121Y-97682128D01*
X112924179Y-97681039D01*
X112921157Y-97680256D01*
X112921149Y-97680254D01*
X112549136Y-97583933D01*
X112549133Y-97583932D01*
X112546096Y-97583146D01*
X112542996Y-97582671D01*
X112542986Y-97582669D01*
X112163163Y-97524483D01*
X112163162Y-97524482D01*
X112160049Y-97524006D01*
X112156911Y-97523846D01*
X112156903Y-97523846D01*
X111869119Y-97509251D01*
X111869089Y-97509250D01*
X111867566Y-97509173D01*
X111672434Y-97509173D01*
X111670911Y-97509250D01*
X111670880Y-97509251D01*
X111383096Y-97523846D01*
X111383086Y-97523847D01*
X111379951Y-97524006D01*
X111376839Y-97524482D01*
X111376836Y-97524483D01*
X110997013Y-97582669D01*
X110996999Y-97582671D01*
X110993904Y-97583146D01*
X110990869Y-97583931D01*
X110990863Y-97583933D01*
X110618850Y-97680254D01*
X110618836Y-97680258D01*
X110615821Y-97681039D01*
X110612884Y-97682126D01*
X110612880Y-97682128D01*
X110252537Y-97815584D01*
X110252526Y-97815588D01*
X110249582Y-97816679D01*
X110246759Y-97818063D01*
X110246756Y-97818065D01*
X109901762Y-97987292D01*
X109901751Y-97987298D01*
X109898944Y-97988675D01*
X109896290Y-97990329D01*
X109896276Y-97990337D01*
X109570177Y-98193596D01*
X109570169Y-98193601D01*
X109567505Y-98195262D01*
X109565029Y-98197178D01*
X109565014Y-98197189D01*
X109261153Y-98432396D01*
X109261144Y-98432403D01*
X109258667Y-98434321D01*
X109256402Y-98436473D01*
X109256388Y-98436486D01*
X108977876Y-98701232D01*
X108977870Y-98701237D01*
X108975599Y-98703397D01*
X108973556Y-98705776D01*
X108973552Y-98705781D01*
X108723255Y-98997341D01*
X108723246Y-98997351D01*
X108721205Y-98999730D01*
X108719413Y-99002303D01*
X108719408Y-99002311D01*
X108499889Y-99317703D01*
X108499883Y-99317711D01*
X108498096Y-99320280D01*
X108496577Y-99323015D01*
X108496573Y-99323023D01*
X108311333Y-99656762D01*
X108308561Y-99661756D01*
X108307329Y-99664626D01*
X108307324Y-99664637D01*
X108155785Y-100017764D01*
X108155778Y-100017781D01*
X108154545Y-100020656D01*
X108153606Y-100023646D01*
X108153601Y-100023662D01*
X108038569Y-100390298D01*
X108037629Y-100393295D01*
X108037002Y-100396344D01*
X108036997Y-100396365D01*
X107959642Y-100772782D01*
X107959639Y-100772795D01*
X107959012Y-100775851D01*
X107958695Y-100778967D01*
X107958695Y-100778968D01*
X107919817Y-101161274D01*
X107919816Y-101161287D01*
X107919500Y-101164398D01*
X107919500Y-101554948D01*
X85600000Y-101554948D01*
X85600000Y-99450000D01*
X94594318Y-99450000D01*
X94595379Y-99458059D01*
X94613894Y-99598702D01*
X94613895Y-99598708D01*
X94614956Y-99606762D01*
X94618065Y-99614268D01*
X94618066Y-99614271D01*
X94651643Y-99695333D01*
X94675464Y-99752841D01*
X94771718Y-99878282D01*
X94897159Y-99974536D01*
X95043238Y-100035044D01*
X95200000Y-100055682D01*
X95356762Y-100035044D01*
X95502841Y-99974536D01*
X95628282Y-99878282D01*
X95724536Y-99752841D01*
X95785044Y-99606762D01*
X95785934Y-99600000D01*
X102094318Y-99600000D01*
X102095379Y-99608059D01*
X102113894Y-99748702D01*
X102113895Y-99748708D01*
X102114956Y-99756762D01*
X102118065Y-99764268D01*
X102118066Y-99764271D01*
X102146629Y-99833228D01*
X102175464Y-99902841D01*
X102271718Y-100028282D01*
X102397159Y-100124536D01*
X102543238Y-100185044D01*
X102700000Y-100205682D01*
X102856762Y-100185044D01*
X103002841Y-100124536D01*
X103128282Y-100028282D01*
X103224536Y-99902841D01*
X103285044Y-99756762D01*
X103305682Y-99600000D01*
X103285044Y-99443238D01*
X103224536Y-99297159D01*
X103128282Y-99171718D01*
X103002841Y-99075464D01*
X102995333Y-99072354D01*
X102864271Y-99018066D01*
X102864268Y-99018065D01*
X102856762Y-99014956D01*
X102848708Y-99013895D01*
X102848702Y-99013894D01*
X102708059Y-98995379D01*
X102700000Y-98994318D01*
X102691941Y-98995379D01*
X102551297Y-99013894D01*
X102551289Y-99013896D01*
X102543238Y-99014956D01*
X102535733Y-99018064D01*
X102535728Y-99018066D01*
X102404666Y-99072354D01*
X102404662Y-99072355D01*
X102397159Y-99075464D01*
X102390714Y-99080408D01*
X102390711Y-99080411D01*
X102278164Y-99166771D01*
X102278160Y-99166774D01*
X102271718Y-99171718D01*
X102266774Y-99178160D01*
X102266771Y-99178164D01*
X102180411Y-99290711D01*
X102180408Y-99290714D01*
X102175464Y-99297159D01*
X102172355Y-99304662D01*
X102172354Y-99304666D01*
X102118066Y-99435728D01*
X102118064Y-99435733D01*
X102114956Y-99443238D01*
X102113896Y-99451289D01*
X102113894Y-99451297D01*
X102107483Y-99500000D01*
X102094318Y-99600000D01*
X95785934Y-99600000D01*
X95805682Y-99450000D01*
X95785044Y-99293238D01*
X95724536Y-99147159D01*
X95628282Y-99021718D01*
X95502841Y-98925464D01*
X95484981Y-98918066D01*
X95364271Y-98868066D01*
X95364268Y-98868065D01*
X95356762Y-98864956D01*
X95348708Y-98863895D01*
X95348702Y-98863894D01*
X95208059Y-98845379D01*
X95200000Y-98844318D01*
X95191941Y-98845379D01*
X95051297Y-98863894D01*
X95051289Y-98863896D01*
X95043238Y-98864956D01*
X95035733Y-98868064D01*
X95035728Y-98868066D01*
X94904666Y-98922354D01*
X94904662Y-98922355D01*
X94897159Y-98925464D01*
X94890714Y-98930408D01*
X94890711Y-98930411D01*
X94778164Y-99016771D01*
X94778160Y-99016774D01*
X94771718Y-99021718D01*
X94766774Y-99028160D01*
X94766771Y-99028164D01*
X94680411Y-99140711D01*
X94680408Y-99140714D01*
X94675464Y-99147159D01*
X94672355Y-99154662D01*
X94672354Y-99154666D01*
X94618066Y-99285728D01*
X94618064Y-99285733D01*
X94614956Y-99293238D01*
X94613896Y-99301289D01*
X94613894Y-99301297D01*
X94596197Y-99435728D01*
X94594318Y-99450000D01*
X85600000Y-99450000D01*
X85600000Y-93600000D01*
X96894318Y-93600000D01*
X96895379Y-93608059D01*
X96913894Y-93748702D01*
X96913895Y-93748708D01*
X96914956Y-93756762D01*
X96975464Y-93902841D01*
X97071718Y-94028282D01*
X97197159Y-94124536D01*
X97343238Y-94185044D01*
X97500000Y-94205682D01*
X97656762Y-94185044D01*
X97802841Y-94124536D01*
X97928282Y-94028282D01*
X98024536Y-93902841D01*
X98085044Y-93756762D01*
X98105682Y-93600000D01*
X98085044Y-93443238D01*
X98024536Y-93297159D01*
X97928282Y-93171718D01*
X97802841Y-93075464D01*
X97794080Y-93071835D01*
X97664271Y-93018066D01*
X97664268Y-93018065D01*
X97656762Y-93014956D01*
X97648708Y-93013895D01*
X97648702Y-93013894D01*
X97508059Y-92995379D01*
X97500000Y-92994318D01*
X97491941Y-92995379D01*
X97351297Y-93013894D01*
X97351289Y-93013896D01*
X97343238Y-93014956D01*
X97335733Y-93018064D01*
X97335728Y-93018066D01*
X97204666Y-93072354D01*
X97204662Y-93072355D01*
X97197159Y-93075464D01*
X97190714Y-93080408D01*
X97190711Y-93080411D01*
X97078164Y-93166771D01*
X97078160Y-93166774D01*
X97071718Y-93171718D01*
X97066774Y-93178160D01*
X97066771Y-93178164D01*
X96980411Y-93290711D01*
X96980408Y-93290714D01*
X96975464Y-93297159D01*
X96972355Y-93304662D01*
X96972354Y-93304666D01*
X96918066Y-93435728D01*
X96918064Y-93435733D01*
X96914956Y-93443238D01*
X96913896Y-93451289D01*
X96913894Y-93451297D01*
X96895702Y-93589482D01*
X96894318Y-93600000D01*
X85600000Y-93600000D01*
X85600000Y-92650000D01*
X120194318Y-92650000D01*
X120195379Y-92658059D01*
X120213894Y-92798702D01*
X120213895Y-92798708D01*
X120214956Y-92806762D01*
X120275464Y-92952841D01*
X120371718Y-93078282D01*
X120497159Y-93174536D01*
X120643238Y-93235044D01*
X120800000Y-93255682D01*
X120956762Y-93235044D01*
X121102841Y-93174536D01*
X121228282Y-93078282D01*
X121324536Y-92952841D01*
X121385044Y-92806762D01*
X121405682Y-92650000D01*
X121385044Y-92493238D01*
X121324536Y-92347159D01*
X121228282Y-92221718D01*
X121102841Y-92125464D01*
X121095333Y-92122354D01*
X120964271Y-92068066D01*
X120964268Y-92068065D01*
X120956762Y-92064956D01*
X120948708Y-92063895D01*
X120948702Y-92063894D01*
X120808059Y-92045379D01*
X120800000Y-92044318D01*
X120791941Y-92045379D01*
X120651297Y-92063894D01*
X120651289Y-92063896D01*
X120643238Y-92064956D01*
X120635733Y-92068064D01*
X120635728Y-92068066D01*
X120504666Y-92122354D01*
X120504662Y-92122355D01*
X120497159Y-92125464D01*
X120490714Y-92130408D01*
X120490711Y-92130411D01*
X120378164Y-92216771D01*
X120378160Y-92216774D01*
X120371718Y-92221718D01*
X120366774Y-92228160D01*
X120366771Y-92228164D01*
X120280411Y-92340711D01*
X120280408Y-92340714D01*
X120275464Y-92347159D01*
X120272355Y-92354662D01*
X120272354Y-92354666D01*
X120218066Y-92485728D01*
X120218064Y-92485733D01*
X120214956Y-92493238D01*
X120213896Y-92501289D01*
X120213894Y-92501297D01*
X120195702Y-92639482D01*
X120194318Y-92650000D01*
X85600000Y-92650000D01*
X85600000Y-91500000D01*
X95194318Y-91500000D01*
X95195379Y-91508059D01*
X95213894Y-91648702D01*
X95213895Y-91648708D01*
X95214956Y-91656762D01*
X95218065Y-91664268D01*
X95218066Y-91664271D01*
X95223530Y-91677462D01*
X95275464Y-91802841D01*
X95371718Y-91928282D01*
X95497159Y-92024536D01*
X95643238Y-92085044D01*
X95800000Y-92105682D01*
X95956762Y-92085044D01*
X96102841Y-92024536D01*
X96228282Y-91928282D01*
X96324536Y-91802841D01*
X96385044Y-91656762D01*
X96405682Y-91500000D01*
X96385044Y-91343238D01*
X96324536Y-91197159D01*
X96228282Y-91071718D01*
X96102841Y-90975464D01*
X96095333Y-90972354D01*
X95964271Y-90918066D01*
X95964268Y-90918065D01*
X95956762Y-90914956D01*
X95948708Y-90913895D01*
X95948702Y-90913894D01*
X95808059Y-90895379D01*
X95800000Y-90894318D01*
X95791941Y-90895379D01*
X95651297Y-90913894D01*
X95651289Y-90913896D01*
X95643238Y-90914956D01*
X95635733Y-90918064D01*
X95635728Y-90918066D01*
X95504666Y-90972354D01*
X95504662Y-90972355D01*
X95497159Y-90975464D01*
X95490714Y-90980408D01*
X95490711Y-90980411D01*
X95378164Y-91066771D01*
X95378160Y-91066774D01*
X95371718Y-91071718D01*
X95366774Y-91078160D01*
X95366771Y-91078164D01*
X95280411Y-91190711D01*
X95280408Y-91190714D01*
X95275464Y-91197159D01*
X95272355Y-91204662D01*
X95272354Y-91204666D01*
X95218066Y-91335728D01*
X95218064Y-91335733D01*
X95214956Y-91343238D01*
X95213896Y-91351289D01*
X95213894Y-91351297D01*
X95197653Y-91474665D01*
X95194318Y-91500000D01*
X85600000Y-91500000D01*
X85600000Y-89100000D01*
X117394318Y-89100000D01*
X117395379Y-89108059D01*
X117413894Y-89248702D01*
X117413895Y-89248708D01*
X117414956Y-89256762D01*
X117418065Y-89264268D01*
X117418066Y-89264271D01*
X117440438Y-89318281D01*
X117475464Y-89402841D01*
X117571718Y-89528282D01*
X117697159Y-89624536D01*
X117843238Y-89685044D01*
X118000000Y-89705682D01*
X118156762Y-89685044D01*
X118259336Y-89642556D01*
X118323138Y-89634201D01*
X118382541Y-89658950D01*
X118421541Y-89710138D01*
X118429633Y-89773979D01*
X118404639Y-89833279D01*
X118355226Y-89896766D01*
X118355222Y-89896772D01*
X118352071Y-89900821D01*
X118349632Y-89905327D01*
X118349628Y-89905334D01*
X118241089Y-90105896D01*
X118241084Y-90105906D01*
X118238651Y-90110403D01*
X118236990Y-90115239D01*
X118236986Y-90115250D01*
X118162940Y-90330940D01*
X118161274Y-90335794D01*
X118160431Y-90340840D01*
X118160429Y-90340852D01*
X118122894Y-90565785D01*
X118122893Y-90565795D01*
X118122050Y-90570848D01*
X118122050Y-90809152D01*
X118122893Y-90814205D01*
X118122894Y-90814214D01*
X118160429Y-91039147D01*
X118160431Y-91039156D01*
X118161274Y-91044206D01*
X118162939Y-91049058D01*
X118162940Y-91049059D01*
X118236986Y-91264749D01*
X118236989Y-91264756D01*
X118238651Y-91269597D01*
X118241086Y-91274097D01*
X118241089Y-91274103D01*
X118327694Y-91434134D01*
X118352071Y-91479179D01*
X118355217Y-91483221D01*
X118355221Y-91483227D01*
X118495289Y-91663187D01*
X118498440Y-91667235D01*
X118673766Y-91828633D01*
X118873266Y-91958973D01*
X119091498Y-92054699D01*
X119322510Y-92113199D01*
X119500528Y-92127950D01*
X119616902Y-92127950D01*
X119619472Y-92127950D01*
X119797490Y-92113199D01*
X120028502Y-92054699D01*
X120246734Y-91958973D01*
X120446234Y-91828633D01*
X120621560Y-91667235D01*
X120767929Y-91479179D01*
X120881349Y-91269597D01*
X120958726Y-91044206D01*
X120997950Y-90809152D01*
X120997950Y-90733660D01*
X121350393Y-90733660D01*
X121351645Y-90740763D01*
X121351646Y-90740771D01*
X121379413Y-90898240D01*
X121379414Y-90898244D01*
X121380668Y-90905354D01*
X121383527Y-90911982D01*
X121383528Y-90911985D01*
X121444996Y-91054486D01*
X121449721Y-91065438D01*
X121553832Y-91205283D01*
X121687386Y-91317349D01*
X121843185Y-91395594D01*
X122012829Y-91435800D01*
X122139837Y-91435800D01*
X122143436Y-91435800D01*
X122273164Y-91420637D01*
X122283879Y-91416736D01*
X122340326Y-91410053D01*
X122393826Y-91429259D01*
X122433134Y-91470319D01*
X122449992Y-91524605D01*
X122440856Y-91580708D01*
X122418066Y-91635728D01*
X122418064Y-91635733D01*
X122414956Y-91643238D01*
X122413896Y-91651289D01*
X122413894Y-91651297D01*
X122410450Y-91677462D01*
X122394318Y-91800000D01*
X122395379Y-91808059D01*
X122413894Y-91948702D01*
X122413895Y-91948708D01*
X122414956Y-91956762D01*
X122418065Y-91964268D01*
X122418066Y-91964271D01*
X122459771Y-92064956D01*
X122475464Y-92102841D01*
X122571718Y-92228282D01*
X122697159Y-92324536D01*
X122843238Y-92385044D01*
X123000000Y-92405682D01*
X123156762Y-92385044D01*
X123302841Y-92324536D01*
X123428282Y-92228282D01*
X123524536Y-92102841D01*
X123585044Y-91956762D01*
X123588208Y-91932722D01*
X123611357Y-91875301D01*
X123659387Y-91836228D01*
X123720321Y-91825248D01*
X123778969Y-91845099D01*
X123953266Y-91958973D01*
X124171498Y-92054699D01*
X124402510Y-92113199D01*
X124580528Y-92127950D01*
X124696902Y-92127950D01*
X124699472Y-92127950D01*
X124877490Y-92113199D01*
X125108502Y-92054699D01*
X125326734Y-91958973D01*
X125526234Y-91828633D01*
X125701560Y-91667235D01*
X125847929Y-91479179D01*
X125961349Y-91269597D01*
X126038726Y-91044206D01*
X126077950Y-90809152D01*
X126077950Y-90570848D01*
X126038726Y-90335794D01*
X125961349Y-90110403D01*
X125847929Y-89900821D01*
X125844777Y-89896772D01*
X125841973Y-89892479D01*
X125843365Y-89891569D01*
X125823081Y-89846775D01*
X125825835Y-89788776D01*
X125854691Y-89738390D01*
X125903321Y-89706664D01*
X125961059Y-89700555D01*
X126000000Y-89705682D01*
X126156762Y-89685044D01*
X126302841Y-89624536D01*
X126428282Y-89528282D01*
X126524536Y-89402841D01*
X126585044Y-89256762D01*
X126605682Y-89100000D01*
X126585044Y-88943238D01*
X126524536Y-88797159D01*
X126428282Y-88671718D01*
X126408363Y-88656434D01*
X126309288Y-88580411D01*
X126302841Y-88575464D01*
X126253589Y-88555063D01*
X126164271Y-88518066D01*
X126164268Y-88518065D01*
X126156762Y-88514956D01*
X126148708Y-88513895D01*
X126148702Y-88513894D01*
X126008059Y-88495379D01*
X126000000Y-88494318D01*
X125973550Y-88497800D01*
X125964792Y-88498953D01*
X125895881Y-88488243D01*
X125843647Y-88442035D01*
X125824615Y-88374943D01*
X125844798Y-88308200D01*
X125847929Y-88304179D01*
X125961349Y-88094597D01*
X126038726Y-87869206D01*
X126077950Y-87634152D01*
X126077950Y-87395848D01*
X126038726Y-87160794D01*
X125961349Y-86935403D01*
X125847929Y-86725821D01*
X125701560Y-86537765D01*
X125526234Y-86376367D01*
X125521950Y-86373568D01*
X125521946Y-86373565D01*
X125380276Y-86281008D01*
X125326734Y-86246027D01*
X125322044Y-86243970D01*
X125322039Y-86243967D01*
X125113198Y-86152361D01*
X125113199Y-86152361D01*
X125108502Y-86150301D01*
X125103532Y-86149042D01*
X125103531Y-86149042D01*
X124882464Y-86093060D01*
X124882457Y-86093058D01*
X124877490Y-86091801D01*
X124872378Y-86091377D01*
X124872370Y-86091376D01*
X124702038Y-86077262D01*
X124702022Y-86077261D01*
X124699472Y-86077050D01*
X124580528Y-86077050D01*
X124577978Y-86077261D01*
X124577961Y-86077262D01*
X124407629Y-86091376D01*
X124407619Y-86091377D01*
X124402510Y-86091801D01*
X124397544Y-86093058D01*
X124397535Y-86093060D01*
X124176468Y-86149042D01*
X124176463Y-86149043D01*
X124171498Y-86150301D01*
X124166804Y-86152359D01*
X124166801Y-86152361D01*
X123957960Y-86243967D01*
X123957950Y-86243972D01*
X123953266Y-86246027D01*
X123948980Y-86248826D01*
X123948971Y-86248832D01*
X123754721Y-86375741D01*
X123750701Y-86377103D01*
X123747292Y-86382325D01*
X123582213Y-86534291D01*
X123582208Y-86534295D01*
X123578440Y-86537765D01*
X123575296Y-86541804D01*
X123575289Y-86541812D01*
X123435221Y-86721772D01*
X123435213Y-86721783D01*
X123432071Y-86725821D01*
X123429632Y-86730327D01*
X123429628Y-86730334D01*
X123321089Y-86930896D01*
X123321084Y-86930906D01*
X123318651Y-86935403D01*
X123316990Y-86940239D01*
X123316986Y-86940250D01*
X123242940Y-87155940D01*
X123241274Y-87160794D01*
X123240431Y-87165840D01*
X123240429Y-87165852D01*
X123202894Y-87390785D01*
X123202893Y-87390795D01*
X123202050Y-87395848D01*
X123202050Y-87634152D01*
X123202893Y-87639205D01*
X123202894Y-87639214D01*
X123240429Y-87864147D01*
X123240431Y-87864156D01*
X123241274Y-87869206D01*
X123242939Y-87874058D01*
X123242940Y-87874059D01*
X123316986Y-88089749D01*
X123316989Y-88089756D01*
X123318651Y-88094597D01*
X123321086Y-88099097D01*
X123321089Y-88099103D01*
X123429628Y-88299665D01*
X123432071Y-88304179D01*
X123435217Y-88308221D01*
X123435221Y-88308227D01*
X123539368Y-88442035D01*
X123578440Y-88492235D01*
X123753766Y-88653633D01*
X123953266Y-88783973D01*
X124171498Y-88879699D01*
X124402510Y-88938199D01*
X124580528Y-88952950D01*
X124696902Y-88952950D01*
X124699472Y-88952950D01*
X124877490Y-88938199D01*
X125108502Y-88879699D01*
X125241152Y-88821512D01*
X125305238Y-88811894D01*
X125365426Y-88835918D01*
X125405275Y-88887024D01*
X125413900Y-88951254D01*
X125413705Y-88952737D01*
X125394318Y-89100000D01*
X125395379Y-89108059D01*
X125414599Y-89254052D01*
X125405974Y-89318281D01*
X125366126Y-89369388D01*
X125305938Y-89393412D01*
X125241850Y-89383793D01*
X125113198Y-89327361D01*
X125113199Y-89327361D01*
X125108502Y-89325301D01*
X125103532Y-89324042D01*
X125103531Y-89324042D01*
X124882464Y-89268060D01*
X124882457Y-89268058D01*
X124877490Y-89266801D01*
X124872378Y-89266377D01*
X124872370Y-89266376D01*
X124702038Y-89252262D01*
X124702022Y-89252261D01*
X124699472Y-89252050D01*
X124580528Y-89252050D01*
X124577978Y-89252261D01*
X124577961Y-89252262D01*
X124407629Y-89266376D01*
X124407619Y-89266377D01*
X124402510Y-89266801D01*
X124397544Y-89268058D01*
X124397535Y-89268060D01*
X124176468Y-89324042D01*
X124176463Y-89324043D01*
X124171498Y-89325301D01*
X124166804Y-89327359D01*
X124166801Y-89327361D01*
X123957960Y-89418967D01*
X123957950Y-89418972D01*
X123953266Y-89421027D01*
X123948978Y-89423828D01*
X123948977Y-89423829D01*
X123758053Y-89548565D01*
X123758043Y-89548572D01*
X123753766Y-89551367D01*
X123749999Y-89554834D01*
X123749996Y-89554837D01*
X123582213Y-89709291D01*
X123582208Y-89709295D01*
X123578440Y-89712765D01*
X123575296Y-89716804D01*
X123575289Y-89716812D01*
X123435221Y-89896772D01*
X123435213Y-89896783D01*
X123432071Y-89900821D01*
X123429632Y-89905327D01*
X123429628Y-89905334D01*
X123321089Y-90105896D01*
X123321084Y-90105906D01*
X123318651Y-90110403D01*
X123316990Y-90115239D01*
X123316986Y-90115250D01*
X123242940Y-90330940D01*
X123241274Y-90335794D01*
X123240431Y-90340840D01*
X123240429Y-90340852D01*
X123202894Y-90565785D01*
X123202893Y-90565795D01*
X123202050Y-90570848D01*
X123202050Y-90809152D01*
X123202893Y-90814205D01*
X123202894Y-90814214D01*
X123240429Y-91039147D01*
X123240431Y-91039156D01*
X123241274Y-91044206D01*
X123242939Y-91049056D01*
X123244198Y-91054026D01*
X123242380Y-91054486D01*
X123246436Y-91107543D01*
X123220362Y-91164142D01*
X123170049Y-91200911D01*
X123108204Y-91208563D01*
X123008059Y-91195379D01*
X123000000Y-91194318D01*
X122991941Y-91195379D01*
X122991939Y-91195379D01*
X122892155Y-91208515D01*
X122824794Y-91198523D01*
X122772868Y-91154465D01*
X122752037Y-91089631D01*
X122768584Y-91023577D01*
X122789467Y-90987407D01*
X122839469Y-90820388D01*
X122849607Y-90646340D01*
X122819332Y-90474646D01*
X122750279Y-90314562D01*
X122646168Y-90174717D01*
X122512614Y-90062651D01*
X122425682Y-90018992D01*
X122363265Y-89987645D01*
X122363262Y-89987644D01*
X122356815Y-89984406D01*
X122349790Y-89982741D01*
X122194198Y-89945865D01*
X122194194Y-89945864D01*
X122187171Y-89944200D01*
X122056564Y-89944200D01*
X122052999Y-89944616D01*
X122052993Y-89944617D01*
X121934003Y-89958525D01*
X121934000Y-89958525D01*
X121926836Y-89959363D01*
X121920057Y-89961830D01*
X121920054Y-89961831D01*
X121769792Y-90016522D01*
X121769788Y-90016523D01*
X121763007Y-90018992D01*
X121756980Y-90022955D01*
X121756970Y-90022961D01*
X121623382Y-90110824D01*
X121623376Y-90110828D01*
X121617346Y-90114795D01*
X121612393Y-90120044D01*
X121612388Y-90120049D01*
X121502661Y-90236352D01*
X121502657Y-90236356D01*
X121497704Y-90241607D01*
X121494095Y-90247857D01*
X121494092Y-90247862D01*
X121414143Y-90386339D01*
X121414140Y-90386343D01*
X121410533Y-90392593D01*
X121408463Y-90399505D01*
X121408462Y-90399509D01*
X121362601Y-90552697D01*
X121360531Y-90559612D01*
X121360111Y-90566815D01*
X121360111Y-90566818D01*
X121355479Y-90646340D01*
X121350393Y-90733660D01*
X120997950Y-90733660D01*
X120997950Y-90570848D01*
X120958726Y-90335794D01*
X120881349Y-90110403D01*
X120767929Y-89900821D01*
X120761436Y-89892479D01*
X120624710Y-89716812D01*
X120624709Y-89716811D01*
X120621560Y-89712765D01*
X120446234Y-89551367D01*
X120441950Y-89548568D01*
X120441946Y-89548565D01*
X120251027Y-89423832D01*
X120246734Y-89421027D01*
X120242044Y-89418970D01*
X120242039Y-89418967D01*
X120033198Y-89327361D01*
X120033199Y-89327361D01*
X120028502Y-89325301D01*
X120023532Y-89324042D01*
X120023531Y-89324042D01*
X119802464Y-89268060D01*
X119802457Y-89268058D01*
X119797490Y-89266801D01*
X119792378Y-89266377D01*
X119792370Y-89266376D01*
X119622038Y-89252262D01*
X119622022Y-89252261D01*
X119619472Y-89252050D01*
X119500528Y-89252050D01*
X119497978Y-89252261D01*
X119497961Y-89252262D01*
X119327629Y-89266376D01*
X119327619Y-89266377D01*
X119322510Y-89266801D01*
X119317544Y-89268058D01*
X119317535Y-89268060D01*
X119096468Y-89324042D01*
X119096463Y-89324043D01*
X119091498Y-89325301D01*
X119086804Y-89327359D01*
X119086801Y-89327361D01*
X118877960Y-89418967D01*
X118877950Y-89418972D01*
X118873266Y-89421027D01*
X118868980Y-89423826D01*
X118868971Y-89423832D01*
X118720772Y-89520655D01*
X118661657Y-89540540D01*
X118600340Y-89529131D01*
X118552332Y-89489316D01*
X118529781Y-89431165D01*
X118538389Y-89369395D01*
X118585044Y-89256762D01*
X118605682Y-89100000D01*
X118585044Y-88943238D01*
X118541228Y-88837458D01*
X118532620Y-88775688D01*
X118555171Y-88717538D01*
X118603179Y-88677722D01*
X118664497Y-88666314D01*
X118723611Y-88686198D01*
X118873266Y-88783973D01*
X119091498Y-88879699D01*
X119322510Y-88938199D01*
X119500528Y-88952950D01*
X119616902Y-88952950D01*
X119619472Y-88952950D01*
X119797490Y-88938199D01*
X120028502Y-88879699D01*
X120246734Y-88783973D01*
X120446234Y-88653633D01*
X120621560Y-88492235D01*
X120767929Y-88304179D01*
X120881349Y-88094597D01*
X120958726Y-87869206D01*
X120997950Y-87634152D01*
X120997950Y-87395848D01*
X120958726Y-87160794D01*
X120881349Y-86935403D01*
X120767929Y-86725821D01*
X120621560Y-86537765D01*
X120446234Y-86376367D01*
X120441950Y-86373568D01*
X120441946Y-86373565D01*
X120300276Y-86281008D01*
X120246734Y-86246027D01*
X120242044Y-86243970D01*
X120242039Y-86243967D01*
X120033198Y-86152361D01*
X120033199Y-86152361D01*
X120028502Y-86150301D01*
X120023532Y-86149042D01*
X120023531Y-86149042D01*
X119802464Y-86093060D01*
X119802457Y-86093058D01*
X119797490Y-86091801D01*
X119792378Y-86091377D01*
X119792370Y-86091376D01*
X119622038Y-86077262D01*
X119622022Y-86077261D01*
X119619472Y-86077050D01*
X119500528Y-86077050D01*
X119497978Y-86077261D01*
X119497961Y-86077262D01*
X119327629Y-86091376D01*
X119327619Y-86091377D01*
X119322510Y-86091801D01*
X119317544Y-86093058D01*
X119317535Y-86093060D01*
X119096468Y-86149042D01*
X119096463Y-86149043D01*
X119091498Y-86150301D01*
X119086804Y-86152359D01*
X119086801Y-86152361D01*
X118877960Y-86243967D01*
X118877950Y-86243972D01*
X118873266Y-86246027D01*
X118868978Y-86248828D01*
X118868977Y-86248829D01*
X118678053Y-86373565D01*
X118678043Y-86373572D01*
X118673766Y-86376367D01*
X118669999Y-86379834D01*
X118669996Y-86379837D01*
X118502213Y-86534291D01*
X118502208Y-86534295D01*
X118498440Y-86537765D01*
X118495296Y-86541804D01*
X118495289Y-86541812D01*
X118355221Y-86721772D01*
X118355213Y-86721783D01*
X118352071Y-86725821D01*
X118349632Y-86730327D01*
X118349628Y-86730334D01*
X118241089Y-86930896D01*
X118241084Y-86930906D01*
X118238651Y-86935403D01*
X118236990Y-86940239D01*
X118236986Y-86940250D01*
X118162940Y-87155940D01*
X118161274Y-87160794D01*
X118160431Y-87165840D01*
X118160429Y-87165852D01*
X118122894Y-87390785D01*
X118122893Y-87390795D01*
X118122050Y-87395848D01*
X118122050Y-87634152D01*
X118122893Y-87639205D01*
X118122894Y-87639214D01*
X118160429Y-87864147D01*
X118160431Y-87864156D01*
X118161274Y-87869206D01*
X118162939Y-87874058D01*
X118162940Y-87874059D01*
X118236986Y-88089749D01*
X118236989Y-88089756D01*
X118238651Y-88094597D01*
X118241086Y-88099097D01*
X118241089Y-88099103D01*
X118349628Y-88299665D01*
X118352071Y-88304179D01*
X118355217Y-88308221D01*
X118355221Y-88308227D01*
X118398896Y-88364340D01*
X118423890Y-88423640D01*
X118415798Y-88487481D01*
X118376799Y-88538669D01*
X118317397Y-88563419D01*
X118253589Y-88555063D01*
X118164271Y-88518066D01*
X118164268Y-88518065D01*
X118156762Y-88514956D01*
X118148708Y-88513895D01*
X118148702Y-88513894D01*
X118008059Y-88495379D01*
X118000000Y-88494318D01*
X117991941Y-88495379D01*
X117851297Y-88513894D01*
X117851289Y-88513896D01*
X117843238Y-88514956D01*
X117835733Y-88518064D01*
X117835728Y-88518066D01*
X117704666Y-88572354D01*
X117704662Y-88572355D01*
X117697159Y-88575464D01*
X117690714Y-88580408D01*
X117690711Y-88580411D01*
X117578164Y-88666771D01*
X117578160Y-88666774D01*
X117571718Y-88671718D01*
X117566774Y-88678160D01*
X117566771Y-88678164D01*
X117480411Y-88790711D01*
X117480408Y-88790714D01*
X117475464Y-88797159D01*
X117472355Y-88804662D01*
X117472354Y-88804666D01*
X117418066Y-88935728D01*
X117418064Y-88935733D01*
X117414956Y-88943238D01*
X117413896Y-88951289D01*
X117413894Y-88951297D01*
X117395702Y-89089482D01*
X117394318Y-89100000D01*
X85600000Y-89100000D01*
X85600000Y-88200000D01*
X92094318Y-88200000D01*
X92095379Y-88208059D01*
X92113894Y-88348702D01*
X92113895Y-88348708D01*
X92114956Y-88356762D01*
X92175464Y-88502841D01*
X92271718Y-88628282D01*
X92397159Y-88724536D01*
X92543238Y-88785044D01*
X92700000Y-88805682D01*
X92856762Y-88785044D01*
X93002841Y-88724536D01*
X93128282Y-88628282D01*
X93224536Y-88502841D01*
X93285044Y-88356762D01*
X93305682Y-88200000D01*
X93285044Y-88043238D01*
X93224536Y-87897159D01*
X93128282Y-87771718D01*
X93002841Y-87675464D01*
X92915326Y-87639214D01*
X92864271Y-87618066D01*
X92864268Y-87618065D01*
X92856762Y-87614956D01*
X92848708Y-87613895D01*
X92848702Y-87613894D01*
X92708059Y-87595379D01*
X92700000Y-87594318D01*
X92691941Y-87595379D01*
X92551297Y-87613894D01*
X92551289Y-87613896D01*
X92543238Y-87614956D01*
X92535733Y-87618064D01*
X92535728Y-87618066D01*
X92404666Y-87672354D01*
X92404662Y-87672355D01*
X92397159Y-87675464D01*
X92390714Y-87680408D01*
X92390711Y-87680411D01*
X92278164Y-87766771D01*
X92278160Y-87766774D01*
X92271718Y-87771718D01*
X92266774Y-87778160D01*
X92266771Y-87778164D01*
X92180411Y-87890711D01*
X92180408Y-87890714D01*
X92175464Y-87897159D01*
X92172355Y-87904662D01*
X92172354Y-87904666D01*
X92118066Y-88035728D01*
X92118064Y-88035733D01*
X92114956Y-88043238D01*
X92113896Y-88051289D01*
X92113894Y-88051297D01*
X92108194Y-88094597D01*
X92094318Y-88200000D01*
X85600000Y-88200000D01*
X85600000Y-85156974D01*
X112937784Y-85156974D01*
X112938845Y-85165033D01*
X112957360Y-85305676D01*
X112957361Y-85305682D01*
X112958422Y-85313736D01*
X113018930Y-85459815D01*
X113115184Y-85585256D01*
X113240625Y-85681510D01*
X113386704Y-85742018D01*
X113394762Y-85743078D01*
X113394763Y-85743079D01*
X113495810Y-85756382D01*
X113546250Y-85774740D01*
X113584205Y-85812696D01*
X113602564Y-85863136D01*
X113613894Y-85949202D01*
X113613895Y-85949208D01*
X113614956Y-85957262D01*
X113618065Y-85964768D01*
X113618066Y-85964771D01*
X113656846Y-86058393D01*
X113675464Y-86103341D01*
X113771718Y-86228782D01*
X113897159Y-86325036D01*
X114043238Y-86385544D01*
X114200000Y-86406182D01*
X114356762Y-86385544D01*
X114502841Y-86325036D01*
X114628282Y-86228782D01*
X114724536Y-86103341D01*
X114785044Y-85957262D01*
X114805682Y-85800500D01*
X114786350Y-85653660D01*
X120334393Y-85653660D01*
X120335645Y-85660763D01*
X120335646Y-85660771D01*
X120363413Y-85818240D01*
X120363414Y-85818244D01*
X120364668Y-85825354D01*
X120433721Y-85985438D01*
X120438034Y-85991231D01*
X120438035Y-85991233D01*
X120513843Y-86093060D01*
X120537832Y-86125283D01*
X120671386Y-86237349D01*
X120827185Y-86315594D01*
X120996829Y-86355800D01*
X121123837Y-86355800D01*
X121127436Y-86355800D01*
X121257164Y-86340637D01*
X121420993Y-86281008D01*
X121566654Y-86185205D01*
X121686296Y-86058393D01*
X121773467Y-85907407D01*
X121823469Y-85740388D01*
X121828521Y-85653660D01*
X122366393Y-85653660D01*
X122367645Y-85660763D01*
X122367646Y-85660771D01*
X122395413Y-85818240D01*
X122395414Y-85818244D01*
X122396668Y-85825354D01*
X122465721Y-85985438D01*
X122470034Y-85991231D01*
X122470035Y-85991233D01*
X122545843Y-86093060D01*
X122569832Y-86125283D01*
X122703386Y-86237349D01*
X122859185Y-86315594D01*
X123028829Y-86355800D01*
X123155837Y-86355800D01*
X123159436Y-86355800D01*
X123289164Y-86340637D01*
X123452993Y-86281008D01*
X123595175Y-86187492D01*
X123599493Y-86185996D01*
X123598654Y-86185205D01*
X123629641Y-86152361D01*
X123718296Y-86058393D01*
X123805467Y-85907407D01*
X123855469Y-85740388D01*
X123865607Y-85566340D01*
X123835332Y-85394646D01*
X123766279Y-85234562D01*
X123662168Y-85094717D01*
X123586024Y-85030824D01*
X123534145Y-84987292D01*
X123534144Y-84987291D01*
X123528614Y-84982651D01*
X123441682Y-84938992D01*
X123379265Y-84907645D01*
X123379262Y-84907644D01*
X123372815Y-84904406D01*
X123365790Y-84902741D01*
X123210198Y-84865865D01*
X123210194Y-84865864D01*
X123203171Y-84864200D01*
X123072564Y-84864200D01*
X123068999Y-84864616D01*
X123068993Y-84864617D01*
X122950003Y-84878525D01*
X122950000Y-84878525D01*
X122942836Y-84879363D01*
X122936057Y-84881830D01*
X122936054Y-84881831D01*
X122785792Y-84936522D01*
X122785788Y-84936523D01*
X122779007Y-84938992D01*
X122772980Y-84942955D01*
X122772970Y-84942961D01*
X122639382Y-85030824D01*
X122639376Y-85030828D01*
X122633346Y-85034795D01*
X122628393Y-85040044D01*
X122628388Y-85040049D01*
X122518661Y-85156352D01*
X122518657Y-85156356D01*
X122513704Y-85161607D01*
X122510095Y-85167857D01*
X122510092Y-85167862D01*
X122430143Y-85306339D01*
X122430140Y-85306343D01*
X122426533Y-85312593D01*
X122424463Y-85319505D01*
X122424462Y-85319509D01*
X122378601Y-85472697D01*
X122376531Y-85479612D01*
X122376111Y-85486815D01*
X122376111Y-85486818D01*
X122371479Y-85566340D01*
X122366393Y-85653660D01*
X121828521Y-85653660D01*
X121833607Y-85566340D01*
X121803332Y-85394646D01*
X121734279Y-85234562D01*
X121630168Y-85094717D01*
X121554024Y-85030824D01*
X121502145Y-84987292D01*
X121502144Y-84987291D01*
X121496614Y-84982651D01*
X121409682Y-84938992D01*
X121347265Y-84907645D01*
X121347262Y-84907644D01*
X121340815Y-84904406D01*
X121333790Y-84902741D01*
X121178198Y-84865865D01*
X121178194Y-84865864D01*
X121171171Y-84864200D01*
X121040564Y-84864200D01*
X121036999Y-84864616D01*
X121036993Y-84864617D01*
X120918003Y-84878525D01*
X120918000Y-84878525D01*
X120910836Y-84879363D01*
X120904057Y-84881830D01*
X120904054Y-84881831D01*
X120753792Y-84936522D01*
X120753788Y-84936523D01*
X120747007Y-84938992D01*
X120740980Y-84942955D01*
X120740970Y-84942961D01*
X120607382Y-85030824D01*
X120607376Y-85030828D01*
X120601346Y-85034795D01*
X120596393Y-85040044D01*
X120596388Y-85040049D01*
X120486661Y-85156352D01*
X120486657Y-85156356D01*
X120481704Y-85161607D01*
X120478095Y-85167857D01*
X120478092Y-85167862D01*
X120398143Y-85306339D01*
X120398140Y-85306343D01*
X120394533Y-85312593D01*
X120392463Y-85319505D01*
X120392462Y-85319509D01*
X120346601Y-85472697D01*
X120344531Y-85479612D01*
X120344111Y-85486815D01*
X120344111Y-85486818D01*
X120339479Y-85566340D01*
X120334393Y-85653660D01*
X114786350Y-85653660D01*
X114785044Y-85643738D01*
X114724536Y-85497659D01*
X114628282Y-85372218D01*
X114502841Y-85275964D01*
X114495333Y-85272854D01*
X114364271Y-85218566D01*
X114364268Y-85218565D01*
X114356762Y-85215456D01*
X114348703Y-85214395D01*
X114247654Y-85201091D01*
X114197214Y-85182732D01*
X114159259Y-85144776D01*
X114140901Y-85094338D01*
X114128510Y-85000212D01*
X114068002Y-84854133D01*
X113971748Y-84728692D01*
X113846307Y-84632438D01*
X113838799Y-84629328D01*
X113707737Y-84575040D01*
X113707734Y-84575039D01*
X113700228Y-84571930D01*
X113692174Y-84570869D01*
X113692168Y-84570868D01*
X113551525Y-84552353D01*
X113543466Y-84551292D01*
X113535407Y-84552353D01*
X113394763Y-84570868D01*
X113394755Y-84570870D01*
X113386704Y-84571930D01*
X113379199Y-84575038D01*
X113379194Y-84575040D01*
X113248132Y-84629328D01*
X113248128Y-84629329D01*
X113240625Y-84632438D01*
X113234180Y-84637382D01*
X113234177Y-84637385D01*
X113121630Y-84723745D01*
X113121626Y-84723748D01*
X113115184Y-84728692D01*
X113110240Y-84735134D01*
X113110237Y-84735138D01*
X113023877Y-84847685D01*
X113023874Y-84847688D01*
X113018930Y-84854133D01*
X113015821Y-84861636D01*
X113015820Y-84861640D01*
X112961532Y-84992702D01*
X112961530Y-84992707D01*
X112958422Y-85000212D01*
X112957362Y-85008263D01*
X112957360Y-85008271D01*
X112953177Y-85040049D01*
X112937784Y-85156974D01*
X85600000Y-85156974D01*
X85600000Y-82950000D01*
X110694318Y-82950000D01*
X110695379Y-82958059D01*
X110713894Y-83098702D01*
X110713895Y-83098708D01*
X110714956Y-83106762D01*
X110775464Y-83252841D01*
X110871718Y-83378282D01*
X110997159Y-83474536D01*
X111143238Y-83535044D01*
X111300000Y-83555682D01*
X111456762Y-83535044D01*
X111602841Y-83474536D01*
X111728282Y-83378282D01*
X111824536Y-83252841D01*
X111885044Y-83106762D01*
X111905682Y-82950000D01*
X111899099Y-82900000D01*
X112394318Y-82900000D01*
X112395379Y-82908059D01*
X112413894Y-83048702D01*
X112413895Y-83048708D01*
X112414956Y-83056762D01*
X112418065Y-83064268D01*
X112418066Y-83064271D01*
X112438777Y-83114271D01*
X112475464Y-83202841D01*
X112571718Y-83328282D01*
X112697159Y-83424536D01*
X112843238Y-83485044D01*
X113000000Y-83505682D01*
X113156762Y-83485044D01*
X113302841Y-83424536D01*
X113316933Y-83413722D01*
X113365578Y-83391038D01*
X113419257Y-83391037D01*
X113467902Y-83413720D01*
X113547159Y-83474536D01*
X113693238Y-83535044D01*
X113850000Y-83555682D01*
X114006762Y-83535044D01*
X114152841Y-83474536D01*
X114278282Y-83378282D01*
X114374536Y-83252841D01*
X114435044Y-83106762D01*
X114455682Y-82950000D01*
X114435044Y-82793238D01*
X114374536Y-82647159D01*
X114278282Y-82521718D01*
X114152841Y-82425464D01*
X114032131Y-82375464D01*
X114014271Y-82368066D01*
X114014268Y-82368065D01*
X114006762Y-82364956D01*
X113998708Y-82363895D01*
X113998702Y-82363894D01*
X113858059Y-82345379D01*
X113850000Y-82344318D01*
X113841941Y-82345379D01*
X113701297Y-82363894D01*
X113701289Y-82363896D01*
X113693238Y-82364956D01*
X113685733Y-82368064D01*
X113685728Y-82368066D01*
X113554666Y-82422354D01*
X113554662Y-82422355D01*
X113547159Y-82425464D01*
X113540715Y-82430408D01*
X113540709Y-82430412D01*
X113533062Y-82436280D01*
X113484415Y-82458962D01*
X113430740Y-82458961D01*
X113382094Y-82436277D01*
X113374449Y-82430411D01*
X113302841Y-82375464D01*
X113284981Y-82368066D01*
X113164271Y-82318066D01*
X113164268Y-82318065D01*
X113156762Y-82314956D01*
X113148708Y-82313895D01*
X113148702Y-82313894D01*
X113008059Y-82295379D01*
X113000000Y-82294318D01*
X112991941Y-82295379D01*
X112851297Y-82313894D01*
X112851289Y-82313896D01*
X112843238Y-82314956D01*
X112835733Y-82318064D01*
X112835728Y-82318066D01*
X112704666Y-82372354D01*
X112704662Y-82372355D01*
X112697159Y-82375464D01*
X112690714Y-82380408D01*
X112690711Y-82380411D01*
X112578164Y-82466771D01*
X112578160Y-82466774D01*
X112571718Y-82471718D01*
X112566774Y-82478160D01*
X112566771Y-82478164D01*
X112480411Y-82590711D01*
X112480408Y-82590714D01*
X112475464Y-82597159D01*
X112472355Y-82604662D01*
X112472354Y-82604666D01*
X112418066Y-82735728D01*
X112418064Y-82735733D01*
X112414956Y-82743238D01*
X112413896Y-82751289D01*
X112413894Y-82751297D01*
X112408373Y-82793238D01*
X112394318Y-82900000D01*
X111899099Y-82900000D01*
X111885044Y-82793238D01*
X111824536Y-82647159D01*
X111728282Y-82521718D01*
X111602841Y-82425464D01*
X111482131Y-82375464D01*
X111464271Y-82368066D01*
X111464268Y-82368065D01*
X111456762Y-82364956D01*
X111448708Y-82363895D01*
X111448702Y-82363894D01*
X111308059Y-82345379D01*
X111300000Y-82344318D01*
X111291941Y-82345379D01*
X111151297Y-82363894D01*
X111151289Y-82363896D01*
X111143238Y-82364956D01*
X111135733Y-82368064D01*
X111135728Y-82368066D01*
X111004666Y-82422354D01*
X111004662Y-82422355D01*
X110997159Y-82425464D01*
X110990714Y-82430408D01*
X110990711Y-82430411D01*
X110878164Y-82516771D01*
X110878160Y-82516774D01*
X110871718Y-82521718D01*
X110866774Y-82528160D01*
X110866771Y-82528164D01*
X110780411Y-82640711D01*
X110780408Y-82640714D01*
X110775464Y-82647159D01*
X110772355Y-82654662D01*
X110772354Y-82654666D01*
X110718066Y-82785728D01*
X110718064Y-82785733D01*
X110714956Y-82793238D01*
X110713896Y-82801289D01*
X110713894Y-82801297D01*
X110695702Y-82939482D01*
X110694318Y-82950000D01*
X85600000Y-82950000D01*
X85600000Y-81900000D01*
X105594318Y-81900000D01*
X105595379Y-81908059D01*
X105613894Y-82048702D01*
X105613895Y-82048708D01*
X105614956Y-82056762D01*
X105675464Y-82202841D01*
X105771718Y-82328282D01*
X105897159Y-82424536D01*
X106043238Y-82485044D01*
X106200000Y-82505682D01*
X106356762Y-82485044D01*
X106502841Y-82424536D01*
X106628282Y-82328282D01*
X106724536Y-82202841D01*
X106785044Y-82056762D01*
X106805682Y-81900000D01*
X106785044Y-81743238D01*
X106725713Y-81600000D01*
X116854318Y-81600000D01*
X116855379Y-81608059D01*
X116873894Y-81748702D01*
X116873895Y-81748708D01*
X116874956Y-81756762D01*
X116935464Y-81902841D01*
X117031718Y-82028282D01*
X117157159Y-82124536D01*
X117303238Y-82185044D01*
X117460000Y-82205682D01*
X117616762Y-82185044D01*
X117762841Y-82124536D01*
X117888282Y-82028282D01*
X117984536Y-81902841D01*
X118045044Y-81756762D01*
X118065682Y-81600000D01*
X118045044Y-81443238D01*
X117984536Y-81297159D01*
X117888282Y-81171718D01*
X117762841Y-81075464D01*
X117755333Y-81072354D01*
X117624271Y-81018066D01*
X117624268Y-81018065D01*
X117616762Y-81014956D01*
X117608708Y-81013895D01*
X117608702Y-81013894D01*
X117468059Y-80995379D01*
X117460000Y-80994318D01*
X117451941Y-80995379D01*
X117311297Y-81013894D01*
X117311289Y-81013896D01*
X117303238Y-81014956D01*
X117295733Y-81018064D01*
X117295728Y-81018066D01*
X117164666Y-81072354D01*
X117164662Y-81072355D01*
X117157159Y-81075464D01*
X117150714Y-81080408D01*
X117150711Y-81080411D01*
X117038164Y-81166771D01*
X117038160Y-81166774D01*
X117031718Y-81171718D01*
X117026774Y-81178160D01*
X117026771Y-81178164D01*
X116940411Y-81290711D01*
X116940408Y-81290714D01*
X116935464Y-81297159D01*
X116932355Y-81304662D01*
X116932354Y-81304666D01*
X116878066Y-81435728D01*
X116878064Y-81435733D01*
X116874956Y-81443238D01*
X116873896Y-81451289D01*
X116873894Y-81451297D01*
X116855702Y-81589482D01*
X116854318Y-81600000D01*
X106725713Y-81600000D01*
X106724536Y-81597159D01*
X106628282Y-81471718D01*
X106502841Y-81375464D01*
X106495333Y-81372354D01*
X106364271Y-81318066D01*
X106364268Y-81318065D01*
X106356762Y-81314956D01*
X106348708Y-81313895D01*
X106348702Y-81313894D01*
X106208059Y-81295379D01*
X106200000Y-81294318D01*
X106191941Y-81295379D01*
X106051297Y-81313894D01*
X106051289Y-81313896D01*
X106043238Y-81314956D01*
X106035733Y-81318064D01*
X106035728Y-81318066D01*
X105904666Y-81372354D01*
X105904662Y-81372355D01*
X105897159Y-81375464D01*
X105890714Y-81380408D01*
X105890711Y-81380411D01*
X105778164Y-81466771D01*
X105778160Y-81466774D01*
X105771718Y-81471718D01*
X105766774Y-81478160D01*
X105766771Y-81478164D01*
X105680411Y-81590711D01*
X105680408Y-81590714D01*
X105675464Y-81597159D01*
X105672355Y-81604662D01*
X105672354Y-81604666D01*
X105618066Y-81735728D01*
X105618064Y-81735733D01*
X105614956Y-81743238D01*
X105613896Y-81751289D01*
X105613894Y-81751297D01*
X105595702Y-81889482D01*
X105594318Y-81900000D01*
X85600000Y-81900000D01*
X85600000Y-78500000D01*
X93094318Y-78500000D01*
X93095379Y-78508059D01*
X93113894Y-78648702D01*
X93113895Y-78648708D01*
X93114956Y-78656762D01*
X93118065Y-78664268D01*
X93118066Y-78664271D01*
X93156301Y-78756578D01*
X93175464Y-78802841D01*
X93271718Y-78928282D01*
X93397159Y-79024536D01*
X93543238Y-79085044D01*
X93700000Y-79105682D01*
X93856762Y-79085044D01*
X94002841Y-79024536D01*
X94128282Y-78928282D01*
X94224536Y-78802841D01*
X94285044Y-78656762D01*
X94305682Y-78500000D01*
X94297313Y-78436434D01*
X94298439Y-78425000D01*
X108869318Y-78425000D01*
X108870379Y-78433059D01*
X108888894Y-78573702D01*
X108888895Y-78573708D01*
X108889956Y-78581762D01*
X108893065Y-78589268D01*
X108893066Y-78589271D01*
X108921022Y-78656762D01*
X108950464Y-78727841D01*
X109046718Y-78853282D01*
X109172159Y-78949536D01*
X109318238Y-79010044D01*
X109475000Y-79030682D01*
X109631762Y-79010044D01*
X109777841Y-78949536D01*
X109903282Y-78853282D01*
X109999536Y-78727841D01*
X110060044Y-78581762D01*
X110080682Y-78425000D01*
X110064226Y-78300000D01*
X110894318Y-78300000D01*
X110895379Y-78308059D01*
X110913894Y-78448702D01*
X110913895Y-78448708D01*
X110914956Y-78456762D01*
X110918065Y-78464268D01*
X110918066Y-78464271D01*
X110936714Y-78509291D01*
X110975464Y-78602841D01*
X110980411Y-78609288D01*
X111065618Y-78720333D01*
X111071718Y-78728282D01*
X111197159Y-78824536D01*
X111343238Y-78885044D01*
X111500000Y-78905682D01*
X111656762Y-78885044D01*
X111802841Y-78824536D01*
X111928282Y-78728282D01*
X112024536Y-78602841D01*
X112057763Y-78522623D01*
X112100096Y-78469284D01*
X112164212Y-78446342D01*
X112230775Y-78460717D01*
X112274816Y-78503337D01*
X112275464Y-78502841D01*
X112371718Y-78628282D01*
X112497159Y-78724536D01*
X112643238Y-78785044D01*
X112800000Y-78805682D01*
X112956762Y-78785044D01*
X113025486Y-78756577D01*
X113083741Y-78747610D01*
X113139558Y-78766555D01*
X113174791Y-78803357D01*
X113175464Y-78802841D01*
X113180174Y-78808980D01*
X113180177Y-78808983D01*
X113271718Y-78928282D01*
X113397159Y-79024536D01*
X113543238Y-79085044D01*
X113700000Y-79105682D01*
X113856762Y-79085044D01*
X114002841Y-79024536D01*
X114128282Y-78928282D01*
X114224536Y-78802841D01*
X114285044Y-78656762D01*
X114305682Y-78500000D01*
X126194318Y-78500000D01*
X126195379Y-78508059D01*
X126213894Y-78648702D01*
X126213895Y-78648708D01*
X126214956Y-78656762D01*
X126218065Y-78664268D01*
X126218066Y-78664271D01*
X126256301Y-78756578D01*
X126275464Y-78802841D01*
X126371718Y-78928282D01*
X126497159Y-79024536D01*
X126643238Y-79085044D01*
X126800000Y-79105682D01*
X126956762Y-79085044D01*
X127102841Y-79024536D01*
X127228282Y-78928282D01*
X127324536Y-78802841D01*
X127385044Y-78656762D01*
X127405682Y-78500000D01*
X127385044Y-78343238D01*
X127324536Y-78197159D01*
X127228282Y-78071718D01*
X127102841Y-77975464D01*
X127075819Y-77964271D01*
X126964271Y-77918066D01*
X126964268Y-77918065D01*
X126956762Y-77914956D01*
X126948708Y-77913895D01*
X126948702Y-77913894D01*
X126808059Y-77895379D01*
X126800000Y-77894318D01*
X126791941Y-77895379D01*
X126651297Y-77913894D01*
X126651289Y-77913896D01*
X126643238Y-77914956D01*
X126635733Y-77918064D01*
X126635728Y-77918066D01*
X126504666Y-77972354D01*
X126504662Y-77972355D01*
X126497159Y-77975464D01*
X126490714Y-77980408D01*
X126490711Y-77980411D01*
X126378164Y-78066771D01*
X126378160Y-78066774D01*
X126371718Y-78071718D01*
X126366774Y-78078160D01*
X126366771Y-78078164D01*
X126280411Y-78190711D01*
X126280408Y-78190714D01*
X126275464Y-78197159D01*
X126272355Y-78204662D01*
X126272354Y-78204666D01*
X126218066Y-78335728D01*
X126218064Y-78335733D01*
X126214956Y-78343238D01*
X126213896Y-78351289D01*
X126213894Y-78351297D01*
X126199022Y-78464271D01*
X126194318Y-78500000D01*
X114305682Y-78500000D01*
X114285044Y-78343238D01*
X114224536Y-78197159D01*
X114128282Y-78071718D01*
X114002841Y-77975464D01*
X113975819Y-77964271D01*
X113864271Y-77918066D01*
X113864268Y-77918065D01*
X113856762Y-77914956D01*
X113848708Y-77913895D01*
X113848702Y-77913894D01*
X113708059Y-77895379D01*
X113700000Y-77894318D01*
X113691941Y-77895379D01*
X113551297Y-77913894D01*
X113551289Y-77913896D01*
X113543238Y-77914956D01*
X113535733Y-77918064D01*
X113535728Y-77918066D01*
X113474515Y-77943422D01*
X113416255Y-77952389D01*
X113360437Y-77933442D01*
X113325209Y-77896642D01*
X113324536Y-77897159D01*
X113319818Y-77891010D01*
X113319816Y-77891008D01*
X113228282Y-77771718D01*
X113102841Y-77675464D01*
X113025041Y-77643238D01*
X112964271Y-77618066D01*
X112964268Y-77618065D01*
X112956762Y-77614956D01*
X112948708Y-77613895D01*
X112948702Y-77613894D01*
X112808059Y-77595379D01*
X112800000Y-77594318D01*
X112791941Y-77595379D01*
X112651297Y-77613894D01*
X112651289Y-77613896D01*
X112643238Y-77614956D01*
X112635733Y-77618064D01*
X112635728Y-77618066D01*
X112504666Y-77672354D01*
X112504662Y-77672355D01*
X112497159Y-77675464D01*
X112490714Y-77680408D01*
X112490711Y-77680411D01*
X112378164Y-77766771D01*
X112378160Y-77766774D01*
X112371718Y-77771718D01*
X112366774Y-77778160D01*
X112366771Y-77778164D01*
X112280411Y-77890711D01*
X112280408Y-77890714D01*
X112275464Y-77897159D01*
X112272356Y-77904662D01*
X112272355Y-77904664D01*
X112242236Y-77977377D01*
X112199901Y-78030717D01*
X112135784Y-78053658D01*
X112069220Y-78039281D01*
X112025184Y-77996661D01*
X112024536Y-77997159D01*
X111928282Y-77871718D01*
X111802841Y-77775464D01*
X111795333Y-77772354D01*
X111664271Y-77718066D01*
X111664268Y-77718065D01*
X111656762Y-77714956D01*
X111648708Y-77713895D01*
X111648702Y-77713894D01*
X111508059Y-77695379D01*
X111500000Y-77694318D01*
X111491941Y-77695379D01*
X111351297Y-77713894D01*
X111351289Y-77713896D01*
X111343238Y-77714956D01*
X111335733Y-77718064D01*
X111335728Y-77718066D01*
X111204666Y-77772354D01*
X111204662Y-77772355D01*
X111197159Y-77775464D01*
X111190714Y-77780408D01*
X111190711Y-77780411D01*
X111078164Y-77866771D01*
X111078160Y-77866774D01*
X111071718Y-77871718D01*
X111066774Y-77878160D01*
X111066771Y-77878164D01*
X110980411Y-77990711D01*
X110980408Y-77990714D01*
X110975464Y-77997159D01*
X110972355Y-78004662D01*
X110972354Y-78004666D01*
X110918066Y-78135728D01*
X110918064Y-78135733D01*
X110914956Y-78143238D01*
X110913896Y-78151289D01*
X110913894Y-78151297D01*
X110896287Y-78285044D01*
X110894318Y-78300000D01*
X110064226Y-78300000D01*
X110060044Y-78268238D01*
X109999536Y-78122159D01*
X109903282Y-77996718D01*
X109777841Y-77900464D01*
X109755017Y-77891010D01*
X109639271Y-77843066D01*
X109639268Y-77843065D01*
X109631762Y-77839956D01*
X109623708Y-77838895D01*
X109623702Y-77838894D01*
X109483059Y-77820379D01*
X109475000Y-77819318D01*
X109466941Y-77820379D01*
X109326297Y-77838894D01*
X109326289Y-77838896D01*
X109318238Y-77839956D01*
X109310733Y-77843064D01*
X109310728Y-77843066D01*
X109179666Y-77897354D01*
X109179662Y-77897355D01*
X109172159Y-77900464D01*
X109165714Y-77905408D01*
X109165711Y-77905411D01*
X109053164Y-77991771D01*
X109053160Y-77991774D01*
X109046718Y-77996718D01*
X109041774Y-78003160D01*
X109041771Y-78003164D01*
X108955411Y-78115711D01*
X108955408Y-78115714D01*
X108950464Y-78122159D01*
X108947355Y-78129662D01*
X108947354Y-78129666D01*
X108893066Y-78260728D01*
X108893064Y-78260733D01*
X108889956Y-78268238D01*
X108888896Y-78276289D01*
X108888894Y-78276297D01*
X108872001Y-78404621D01*
X108869318Y-78425000D01*
X94298439Y-78425000D01*
X94302832Y-78380394D01*
X94332571Y-78332571D01*
X94380394Y-78302832D01*
X94436434Y-78297313D01*
X94500000Y-78305682D01*
X94656762Y-78285044D01*
X94802841Y-78224536D01*
X94928282Y-78128282D01*
X95024536Y-78002841D01*
X95085044Y-77856762D01*
X95092517Y-77800000D01*
X106094318Y-77800000D01*
X106095379Y-77808059D01*
X106113894Y-77948702D01*
X106113895Y-77948708D01*
X106114956Y-77956762D01*
X106118065Y-77964268D01*
X106118066Y-77964271D01*
X106155092Y-78053658D01*
X106175464Y-78102841D01*
X106223590Y-78165561D01*
X106250016Y-78200000D01*
X106271718Y-78228282D01*
X106397159Y-78324536D01*
X106543238Y-78385044D01*
X106700000Y-78405682D01*
X106856762Y-78385044D01*
X107002841Y-78324536D01*
X107128282Y-78228282D01*
X107224536Y-78102841D01*
X107285044Y-77956762D01*
X107305682Y-77800000D01*
X107285044Y-77643238D01*
X107224536Y-77497159D01*
X107128282Y-77371718D01*
X107002841Y-77275464D01*
X106995333Y-77272354D01*
X106864271Y-77218066D01*
X106864268Y-77218065D01*
X106856762Y-77214956D01*
X106848708Y-77213895D01*
X106848702Y-77213894D01*
X106743161Y-77200000D01*
X114494318Y-77200000D01*
X114495379Y-77208059D01*
X114513894Y-77348702D01*
X114513895Y-77348708D01*
X114514956Y-77356762D01*
X114518065Y-77364268D01*
X114518066Y-77364271D01*
X114572354Y-77495333D01*
X114575464Y-77502841D01*
X114671718Y-77628282D01*
X114797159Y-77724536D01*
X114943238Y-77785044D01*
X115100000Y-77805682D01*
X115256762Y-77785044D01*
X115402841Y-77724536D01*
X115528282Y-77628282D01*
X115624536Y-77502841D01*
X115685044Y-77356762D01*
X115705682Y-77200000D01*
X115994318Y-77200000D01*
X115995379Y-77208059D01*
X116013894Y-77348702D01*
X116013895Y-77348708D01*
X116014956Y-77356762D01*
X116018065Y-77364268D01*
X116018066Y-77364271D01*
X116072354Y-77495333D01*
X116075464Y-77502841D01*
X116171718Y-77628282D01*
X116297159Y-77724536D01*
X116443238Y-77785044D01*
X116600000Y-77805682D01*
X116756762Y-77785044D01*
X116902841Y-77724536D01*
X117028282Y-77628282D01*
X117124536Y-77502841D01*
X117185044Y-77356762D01*
X117205682Y-77200000D01*
X117185044Y-77043238D01*
X117181933Y-77035727D01*
X117181228Y-77033096D01*
X117181228Y-76968909D01*
X117213322Y-76913322D01*
X117268909Y-76881228D01*
X117333096Y-76881228D01*
X117335727Y-76881933D01*
X117343238Y-76885044D01*
X117500000Y-76905682D01*
X117656762Y-76885044D01*
X117802841Y-76824536D01*
X117928282Y-76728282D01*
X118024536Y-76602841D01*
X118085044Y-76456762D01*
X118105682Y-76300000D01*
X118085044Y-76143238D01*
X118024536Y-75997159D01*
X117928282Y-75871718D01*
X117802841Y-75775464D01*
X117795333Y-75772354D01*
X117664271Y-75718066D01*
X117664268Y-75718065D01*
X117656762Y-75714956D01*
X117648708Y-75713895D01*
X117648702Y-75713894D01*
X117508059Y-75695379D01*
X117500000Y-75694318D01*
X117491941Y-75695379D01*
X117351297Y-75713894D01*
X117351289Y-75713896D01*
X117343238Y-75714956D01*
X117335733Y-75718064D01*
X117335728Y-75718066D01*
X117204666Y-75772354D01*
X117204662Y-75772355D01*
X117197159Y-75775464D01*
X117190714Y-75780408D01*
X117190711Y-75780411D01*
X117078164Y-75866771D01*
X117078160Y-75866774D01*
X117071718Y-75871718D01*
X117066774Y-75878160D01*
X117066771Y-75878164D01*
X116980411Y-75990711D01*
X116980408Y-75990714D01*
X116975464Y-75997159D01*
X116972355Y-76004662D01*
X116972354Y-76004666D01*
X116918066Y-76135728D01*
X116918064Y-76135733D01*
X116914956Y-76143238D01*
X116913896Y-76151289D01*
X116913894Y-76151297D01*
X116895702Y-76289482D01*
X116894318Y-76300000D01*
X116895379Y-76308059D01*
X116913894Y-76448702D01*
X116913895Y-76448708D01*
X116914956Y-76456762D01*
X116918065Y-76464268D01*
X116918772Y-76466906D01*
X116918770Y-76531091D01*
X116886677Y-76586677D01*
X116831091Y-76618770D01*
X116766906Y-76618772D01*
X116764268Y-76618065D01*
X116756762Y-76614956D01*
X116748708Y-76613895D01*
X116748702Y-76613894D01*
X116608059Y-76595379D01*
X116600000Y-76594318D01*
X116591941Y-76595379D01*
X116451297Y-76613894D01*
X116451289Y-76613896D01*
X116443238Y-76614956D01*
X116435733Y-76618064D01*
X116435728Y-76618066D01*
X116304666Y-76672354D01*
X116304662Y-76672355D01*
X116297159Y-76675464D01*
X116290714Y-76680408D01*
X116290711Y-76680411D01*
X116178164Y-76766771D01*
X116178160Y-76766774D01*
X116171718Y-76771718D01*
X116166774Y-76778160D01*
X116166771Y-76778164D01*
X116080411Y-76890711D01*
X116080408Y-76890714D01*
X116075464Y-76897159D01*
X116072355Y-76904662D01*
X116072354Y-76904666D01*
X116018066Y-77035728D01*
X116018064Y-77035733D01*
X116014956Y-77043238D01*
X116013896Y-77051289D01*
X116013894Y-77051297D01*
X115997958Y-77172354D01*
X115994318Y-77200000D01*
X115705682Y-77200000D01*
X115685044Y-77043238D01*
X115624536Y-76897159D01*
X115528282Y-76771718D01*
X115402841Y-76675464D01*
X115265975Y-76618772D01*
X115264271Y-76618066D01*
X115264268Y-76618065D01*
X115256762Y-76614956D01*
X115248708Y-76613895D01*
X115248702Y-76613894D01*
X115108059Y-76595379D01*
X115100000Y-76594318D01*
X115091941Y-76595379D01*
X114951297Y-76613894D01*
X114951289Y-76613896D01*
X114943238Y-76614956D01*
X114935733Y-76618064D01*
X114935728Y-76618066D01*
X114804666Y-76672354D01*
X114804662Y-76672355D01*
X114797159Y-76675464D01*
X114790714Y-76680408D01*
X114790711Y-76680411D01*
X114678164Y-76766771D01*
X114678160Y-76766774D01*
X114671718Y-76771718D01*
X114666774Y-76778160D01*
X114666771Y-76778164D01*
X114580411Y-76890711D01*
X114580408Y-76890714D01*
X114575464Y-76897159D01*
X114572355Y-76904662D01*
X114572354Y-76904666D01*
X114518066Y-77035728D01*
X114518064Y-77035733D01*
X114514956Y-77043238D01*
X114513896Y-77051289D01*
X114513894Y-77051297D01*
X114497958Y-77172354D01*
X114494318Y-77200000D01*
X106743161Y-77200000D01*
X106708059Y-77195379D01*
X106700000Y-77194318D01*
X106691941Y-77195379D01*
X106551297Y-77213894D01*
X106551289Y-77213896D01*
X106543238Y-77214956D01*
X106535733Y-77218064D01*
X106535728Y-77218066D01*
X106404666Y-77272354D01*
X106404662Y-77272355D01*
X106397159Y-77275464D01*
X106390714Y-77280408D01*
X106390711Y-77280411D01*
X106278164Y-77366771D01*
X106278160Y-77366774D01*
X106271718Y-77371718D01*
X106266774Y-77378160D01*
X106266771Y-77378164D01*
X106180411Y-77490711D01*
X106180408Y-77490714D01*
X106175464Y-77497159D01*
X106172355Y-77504662D01*
X106172354Y-77504666D01*
X106118066Y-77635728D01*
X106118064Y-77635733D01*
X106114956Y-77643238D01*
X106113896Y-77651289D01*
X106113894Y-77651297D01*
X106096287Y-77785044D01*
X106094318Y-77800000D01*
X95092517Y-77800000D01*
X95105682Y-77700000D01*
X95085044Y-77543238D01*
X95024536Y-77397159D01*
X94928282Y-77271718D01*
X94802841Y-77175464D01*
X94795333Y-77172354D01*
X94664271Y-77118066D01*
X94664268Y-77118065D01*
X94656762Y-77114956D01*
X94648708Y-77113895D01*
X94648702Y-77113894D01*
X94508059Y-77095379D01*
X94500000Y-77094318D01*
X94491941Y-77095379D01*
X94351297Y-77113894D01*
X94351289Y-77113896D01*
X94343238Y-77114956D01*
X94335733Y-77118064D01*
X94335728Y-77118066D01*
X94204666Y-77172354D01*
X94204662Y-77172355D01*
X94197159Y-77175464D01*
X94190714Y-77180408D01*
X94190711Y-77180411D01*
X94078164Y-77266771D01*
X94078160Y-77266774D01*
X94071718Y-77271718D01*
X94066774Y-77278160D01*
X94066771Y-77278164D01*
X93980411Y-77390711D01*
X93980408Y-77390714D01*
X93975464Y-77397159D01*
X93972355Y-77404662D01*
X93972354Y-77404666D01*
X93918066Y-77535728D01*
X93918064Y-77535733D01*
X93914956Y-77543238D01*
X93913896Y-77551289D01*
X93913894Y-77551297D01*
X93900730Y-77651297D01*
X93894318Y-77700000D01*
X93895379Y-77708059D01*
X93902686Y-77763562D01*
X93897166Y-77819606D01*
X93867428Y-77867428D01*
X93819606Y-77897166D01*
X93763562Y-77902686D01*
X93700000Y-77894318D01*
X93691941Y-77895379D01*
X93551297Y-77913894D01*
X93551289Y-77913896D01*
X93543238Y-77914956D01*
X93535733Y-77918064D01*
X93535728Y-77918066D01*
X93404666Y-77972354D01*
X93404662Y-77972355D01*
X93397159Y-77975464D01*
X93390714Y-77980408D01*
X93390711Y-77980411D01*
X93278164Y-78066771D01*
X93278160Y-78066774D01*
X93271718Y-78071718D01*
X93266774Y-78078160D01*
X93266771Y-78078164D01*
X93180411Y-78190711D01*
X93180408Y-78190714D01*
X93175464Y-78197159D01*
X93172355Y-78204662D01*
X93172354Y-78204666D01*
X93118066Y-78335728D01*
X93118064Y-78335733D01*
X93114956Y-78343238D01*
X93113896Y-78351289D01*
X93113894Y-78351297D01*
X93099022Y-78464271D01*
X93094318Y-78500000D01*
X85600000Y-78500000D01*
X85600000Y-72400000D01*
X122194318Y-72400000D01*
X122195379Y-72408059D01*
X122213894Y-72548702D01*
X122213895Y-72548708D01*
X122214956Y-72556762D01*
X122275464Y-72702841D01*
X122371718Y-72828282D01*
X122497159Y-72924536D01*
X122643238Y-72985044D01*
X122800000Y-73005682D01*
X122956762Y-72985044D01*
X123102841Y-72924536D01*
X123228282Y-72828282D01*
X123324536Y-72702841D01*
X123385044Y-72556762D01*
X123405682Y-72400000D01*
X123385044Y-72243238D01*
X123324536Y-72097159D01*
X123228282Y-71971718D01*
X123102841Y-71875464D01*
X123095333Y-71872354D01*
X122964271Y-71818066D01*
X122964268Y-71818065D01*
X122956762Y-71814956D01*
X122948708Y-71813895D01*
X122948702Y-71813894D01*
X122808059Y-71795379D01*
X122800000Y-71794318D01*
X122791941Y-71795379D01*
X122651297Y-71813894D01*
X122651289Y-71813896D01*
X122643238Y-71814956D01*
X122635733Y-71818064D01*
X122635728Y-71818066D01*
X122504666Y-71872354D01*
X122504662Y-71872355D01*
X122497159Y-71875464D01*
X122490714Y-71880408D01*
X122490711Y-71880411D01*
X122378164Y-71966771D01*
X122378160Y-71966774D01*
X122371718Y-71971718D01*
X122366774Y-71978160D01*
X122366771Y-71978164D01*
X122280411Y-72090711D01*
X122280408Y-72090714D01*
X122275464Y-72097159D01*
X122272355Y-72104662D01*
X122272354Y-72104666D01*
X122218066Y-72235728D01*
X122218064Y-72235733D01*
X122214956Y-72243238D01*
X122213896Y-72251289D01*
X122213894Y-72251297D01*
X122195702Y-72389482D01*
X122194318Y-72400000D01*
X85600000Y-72400000D01*
X85600000Y-69300000D01*
X90394318Y-69300000D01*
X90395379Y-69308059D01*
X90413894Y-69448702D01*
X90413895Y-69448708D01*
X90414956Y-69456762D01*
X90418065Y-69464268D01*
X90418066Y-69464271D01*
X90472354Y-69595333D01*
X90475464Y-69602841D01*
X90571718Y-69728282D01*
X90697159Y-69824536D01*
X90843238Y-69885044D01*
X91000000Y-69905682D01*
X91156762Y-69885044D01*
X91302841Y-69824536D01*
X91334817Y-69800000D01*
X105594318Y-69800000D01*
X105595379Y-69808059D01*
X105613894Y-69948702D01*
X105613895Y-69948708D01*
X105614956Y-69956762D01*
X105675464Y-70102841D01*
X105771718Y-70228282D01*
X105897159Y-70324536D01*
X106043238Y-70385044D01*
X106200000Y-70405682D01*
X106356762Y-70385044D01*
X106502841Y-70324536D01*
X106628282Y-70228282D01*
X106724536Y-70102841D01*
X106785044Y-69956762D01*
X106805682Y-69800000D01*
X106785044Y-69643238D01*
X106724536Y-69497159D01*
X106628282Y-69371718D01*
X106502841Y-69275464D01*
X106495333Y-69272354D01*
X106364271Y-69218066D01*
X106364268Y-69218065D01*
X106356762Y-69214956D01*
X106348708Y-69213895D01*
X106348702Y-69213894D01*
X106208059Y-69195379D01*
X106200000Y-69194318D01*
X106191941Y-69195379D01*
X106051297Y-69213894D01*
X106051289Y-69213896D01*
X106043238Y-69214956D01*
X106035733Y-69218064D01*
X106035728Y-69218066D01*
X105904666Y-69272354D01*
X105904662Y-69272355D01*
X105897159Y-69275464D01*
X105890714Y-69280408D01*
X105890711Y-69280411D01*
X105778164Y-69366771D01*
X105778160Y-69366774D01*
X105771718Y-69371718D01*
X105766774Y-69378160D01*
X105766771Y-69378164D01*
X105680411Y-69490711D01*
X105680408Y-69490714D01*
X105675464Y-69497159D01*
X105672355Y-69504662D01*
X105672354Y-69504666D01*
X105618066Y-69635728D01*
X105618064Y-69635733D01*
X105614956Y-69643238D01*
X105613896Y-69651289D01*
X105613894Y-69651297D01*
X105595702Y-69789482D01*
X105594318Y-69800000D01*
X91334817Y-69800000D01*
X91428282Y-69728282D01*
X91524536Y-69602841D01*
X91585044Y-69456762D01*
X91605682Y-69300000D01*
X91585044Y-69143238D01*
X91524536Y-68997159D01*
X91428282Y-68871718D01*
X91302841Y-68775464D01*
X91295333Y-68772354D01*
X91164271Y-68718066D01*
X91164268Y-68718065D01*
X91156762Y-68714956D01*
X91148708Y-68713895D01*
X91148702Y-68713894D01*
X91008059Y-68695379D01*
X91000000Y-68694318D01*
X90991941Y-68695379D01*
X90851297Y-68713894D01*
X90851289Y-68713896D01*
X90843238Y-68714956D01*
X90835733Y-68718064D01*
X90835728Y-68718066D01*
X90704666Y-68772354D01*
X90704662Y-68772355D01*
X90697159Y-68775464D01*
X90690714Y-68780408D01*
X90690711Y-68780411D01*
X90578164Y-68866771D01*
X90578160Y-68866774D01*
X90571718Y-68871718D01*
X90566774Y-68878160D01*
X90566771Y-68878164D01*
X90480411Y-68990711D01*
X90480408Y-68990714D01*
X90475464Y-68997159D01*
X90472355Y-69004662D01*
X90472354Y-69004666D01*
X90418066Y-69135728D01*
X90418064Y-69135733D01*
X90414956Y-69143238D01*
X90413896Y-69151289D01*
X90413894Y-69151297D01*
X90397958Y-69272354D01*
X90394318Y-69300000D01*
X85600000Y-69300000D01*
X85600000Y-68100000D01*
X131894318Y-68100000D01*
X131895379Y-68108059D01*
X131913894Y-68248702D01*
X131913895Y-68248708D01*
X131914956Y-68256762D01*
X131975464Y-68402841D01*
X132071718Y-68528282D01*
X132197159Y-68624536D01*
X132343238Y-68685044D01*
X132500000Y-68705682D01*
X132656762Y-68685044D01*
X132802841Y-68624536D01*
X132928282Y-68528282D01*
X133024536Y-68402841D01*
X133085044Y-68256762D01*
X133105682Y-68100000D01*
X133085044Y-67943238D01*
X133024536Y-67797159D01*
X132928282Y-67671718D01*
X132802841Y-67575464D01*
X132795333Y-67572354D01*
X132664271Y-67518066D01*
X132664268Y-67518065D01*
X132656762Y-67514956D01*
X132648708Y-67513895D01*
X132648702Y-67513894D01*
X132508059Y-67495379D01*
X132500000Y-67494318D01*
X132491941Y-67495379D01*
X132351297Y-67513894D01*
X132351289Y-67513896D01*
X132343238Y-67514956D01*
X132335733Y-67518064D01*
X132335728Y-67518066D01*
X132204666Y-67572354D01*
X132204662Y-67572355D01*
X132197159Y-67575464D01*
X132190714Y-67580408D01*
X132190711Y-67580411D01*
X132078164Y-67666771D01*
X132078160Y-67666774D01*
X132071718Y-67671718D01*
X132066774Y-67678160D01*
X132066771Y-67678164D01*
X131980411Y-67790711D01*
X131980408Y-67790714D01*
X131975464Y-67797159D01*
X131972355Y-67804662D01*
X131972354Y-67804666D01*
X131918066Y-67935728D01*
X131918064Y-67935733D01*
X131914956Y-67943238D01*
X131913896Y-67951289D01*
X131913894Y-67951297D01*
X131895702Y-68089482D01*
X131894318Y-68100000D01*
X85600000Y-68100000D01*
X85600000Y-66000000D01*
X98194318Y-66000000D01*
X98195379Y-66008059D01*
X98213894Y-66148702D01*
X98213895Y-66148708D01*
X98214956Y-66156762D01*
X98275464Y-66302841D01*
X98371718Y-66428282D01*
X98497159Y-66524536D01*
X98643238Y-66585044D01*
X98800000Y-66605682D01*
X98956762Y-66585044D01*
X99102841Y-66524536D01*
X99228282Y-66428282D01*
X99324536Y-66302841D01*
X99385044Y-66156762D01*
X99405682Y-66000000D01*
X99385044Y-65843238D01*
X99324536Y-65697159D01*
X99228282Y-65571718D01*
X99102841Y-65475464D01*
X99095333Y-65472354D01*
X98964271Y-65418066D01*
X98964268Y-65418065D01*
X98956762Y-65414956D01*
X98948708Y-65413895D01*
X98948702Y-65413894D01*
X98808059Y-65395379D01*
X98800000Y-65394318D01*
X98791941Y-65395379D01*
X98651297Y-65413894D01*
X98651289Y-65413896D01*
X98643238Y-65414956D01*
X98635733Y-65418064D01*
X98635728Y-65418066D01*
X98504666Y-65472354D01*
X98504662Y-65472355D01*
X98497159Y-65475464D01*
X98490714Y-65480408D01*
X98490711Y-65480411D01*
X98378164Y-65566771D01*
X98378160Y-65566774D01*
X98371718Y-65571718D01*
X98366774Y-65578160D01*
X98366771Y-65578164D01*
X98280411Y-65690711D01*
X98280408Y-65690714D01*
X98275464Y-65697159D01*
X98272355Y-65704662D01*
X98272354Y-65704666D01*
X98218066Y-65835728D01*
X98218064Y-65835733D01*
X98214956Y-65843238D01*
X98213896Y-65851289D01*
X98213894Y-65851297D01*
X98195702Y-65989482D01*
X98194318Y-66000000D01*
X85600000Y-66000000D01*
X85600000Y-63864476D01*
X111099792Y-63864476D01*
X111100853Y-63872535D01*
X111119368Y-64013178D01*
X111119369Y-64013184D01*
X111120430Y-64021238D01*
X111180938Y-64167317D01*
X111277192Y-64292758D01*
X111402633Y-64389012D01*
X111548712Y-64449520D01*
X111705474Y-64470158D01*
X111862236Y-64449520D01*
X112008315Y-64389012D01*
X112133756Y-64292758D01*
X112230010Y-64167317D01*
X112290518Y-64021238D01*
X112311156Y-63864476D01*
X115999792Y-63864476D01*
X116000853Y-63872535D01*
X116019368Y-64013178D01*
X116019369Y-64013184D01*
X116020430Y-64021238D01*
X116080938Y-64167317D01*
X116177192Y-64292758D01*
X116302633Y-64389012D01*
X116448712Y-64449520D01*
X116605474Y-64470158D01*
X116762236Y-64449520D01*
X116908315Y-64389012D01*
X117033756Y-64292758D01*
X117130010Y-64167317D01*
X117190518Y-64021238D01*
X117211156Y-63864476D01*
X117190518Y-63707714D01*
X117130010Y-63561635D01*
X117033756Y-63436194D01*
X116908315Y-63339940D01*
X116797363Y-63293982D01*
X116769745Y-63282542D01*
X116769742Y-63282541D01*
X116762236Y-63279432D01*
X116754182Y-63278371D01*
X116754176Y-63278370D01*
X116613533Y-63259855D01*
X116605474Y-63258794D01*
X116597415Y-63259855D01*
X116456771Y-63278370D01*
X116456763Y-63278372D01*
X116448712Y-63279432D01*
X116441207Y-63282540D01*
X116441202Y-63282542D01*
X116310140Y-63336830D01*
X116310136Y-63336831D01*
X116302633Y-63339940D01*
X116296188Y-63344884D01*
X116296185Y-63344887D01*
X116183638Y-63431247D01*
X116183634Y-63431250D01*
X116177192Y-63436194D01*
X116172248Y-63442636D01*
X116172245Y-63442640D01*
X116085885Y-63555187D01*
X116085882Y-63555190D01*
X116080938Y-63561635D01*
X116077829Y-63569138D01*
X116077828Y-63569142D01*
X116023540Y-63700204D01*
X116023538Y-63700209D01*
X116020430Y-63707714D01*
X116019370Y-63715765D01*
X116019368Y-63715773D01*
X116001176Y-63853958D01*
X115999792Y-63864476D01*
X112311156Y-63864476D01*
X112290518Y-63707714D01*
X112230010Y-63561635D01*
X112133756Y-63436194D01*
X112008315Y-63339940D01*
X111897363Y-63293982D01*
X111869745Y-63282542D01*
X111869742Y-63282541D01*
X111862236Y-63279432D01*
X111854182Y-63278371D01*
X111854176Y-63278370D01*
X111713533Y-63259855D01*
X111705474Y-63258794D01*
X111697415Y-63259855D01*
X111556771Y-63278370D01*
X111556763Y-63278372D01*
X111548712Y-63279432D01*
X111541207Y-63282540D01*
X111541202Y-63282542D01*
X111410140Y-63336830D01*
X111410136Y-63336831D01*
X111402633Y-63339940D01*
X111396188Y-63344884D01*
X111396185Y-63344887D01*
X111283638Y-63431247D01*
X111283634Y-63431250D01*
X111277192Y-63436194D01*
X111272248Y-63442636D01*
X111272245Y-63442640D01*
X111185885Y-63555187D01*
X111185882Y-63555190D01*
X111180938Y-63561635D01*
X111177829Y-63569138D01*
X111177828Y-63569142D01*
X111123540Y-63700204D01*
X111123538Y-63700209D01*
X111120430Y-63707714D01*
X111119370Y-63715765D01*
X111119368Y-63715773D01*
X111101176Y-63853958D01*
X111099792Y-63864476D01*
X85600000Y-63864476D01*
X85600000Y-62762570D01*
X108840000Y-62762570D01*
X108840317Y-62768835D01*
X108854783Y-62911084D01*
X108857301Y-62923335D01*
X108914419Y-63105385D01*
X108919355Y-63116889D01*
X109011954Y-63283720D01*
X109019097Y-63293982D01*
X109143379Y-63438754D01*
X109152458Y-63447385D01*
X109303329Y-63564167D01*
X109313957Y-63570792D01*
X109485256Y-63654817D01*
X109496997Y-63659165D01*
X109576253Y-63679686D01*
X109587464Y-63679971D01*
X109588627Y-63674962D01*
X110090000Y-63674962D01*
X110092337Y-63685645D01*
X110097502Y-63685973D01*
X110097840Y-63685885D01*
X110276760Y-63619621D01*
X110288006Y-63614105D01*
X110449926Y-63513180D01*
X110459820Y-63505521D01*
X110598114Y-63374063D01*
X110606262Y-63364572D01*
X110715265Y-63207963D01*
X110721334Y-63197029D01*
X110796581Y-63021681D01*
X110800324Y-63009752D01*
X110838734Y-62822847D01*
X110840000Y-62810402D01*
X110840000Y-62295384D01*
X110854642Y-62236931D01*
X110895109Y-62192282D01*
X110951846Y-62171981D01*
X111011453Y-62180823D01*
X111119764Y-62225687D01*
X111232280Y-62240500D01*
X111303667Y-62240500D01*
X111307720Y-62240500D01*
X111420236Y-62225687D01*
X111560233Y-62167698D01*
X111680451Y-62075451D01*
X111772698Y-61955233D01*
X111830687Y-61815236D01*
X111850466Y-61665000D01*
X116469534Y-61665000D01*
X116470595Y-61673059D01*
X116488251Y-61807176D01*
X116488252Y-61807182D01*
X116489313Y-61815236D01*
X116492422Y-61822742D01*
X116492423Y-61822745D01*
X116523874Y-61898674D01*
X116547302Y-61955233D01*
X116552245Y-61961674D01*
X116552248Y-61961680D01*
X116606485Y-62032362D01*
X116639549Y-62075451D01*
X116645991Y-62080394D01*
X116753319Y-62162751D01*
X116753322Y-62162753D01*
X116759767Y-62167698D01*
X116899764Y-62225687D01*
X117012280Y-62240500D01*
X117083667Y-62240500D01*
X117087720Y-62240500D01*
X117200236Y-62225687D01*
X117308546Y-62180823D01*
X117368154Y-62171981D01*
X117424891Y-62192282D01*
X117465358Y-62236931D01*
X117480000Y-62295384D01*
X117480000Y-62762570D01*
X117480317Y-62768835D01*
X117494783Y-62911084D01*
X117497301Y-62923335D01*
X117554419Y-63105385D01*
X117559355Y-63116889D01*
X117651954Y-63283720D01*
X117659097Y-63293982D01*
X117783379Y-63438754D01*
X117792458Y-63447385D01*
X117943329Y-63564167D01*
X117953957Y-63570792D01*
X118125256Y-63654817D01*
X118136997Y-63659165D01*
X118216253Y-63679686D01*
X118227464Y-63679971D01*
X118228627Y-63674962D01*
X118730000Y-63674962D01*
X118732337Y-63685645D01*
X118737502Y-63685973D01*
X118737840Y-63685885D01*
X118916760Y-63619621D01*
X118928006Y-63614105D01*
X119089926Y-63513180D01*
X119099820Y-63505521D01*
X119238114Y-63374063D01*
X119246262Y-63364572D01*
X119355265Y-63207963D01*
X119361334Y-63197029D01*
X119436581Y-63021681D01*
X119440324Y-63009752D01*
X119478734Y-62822847D01*
X119480000Y-62810402D01*
X119480000Y-62431326D01*
X119476549Y-62418450D01*
X119463674Y-62415000D01*
X118746326Y-62415000D01*
X118733450Y-62418450D01*
X118730000Y-62431326D01*
X118730000Y-63674962D01*
X118228627Y-63674962D01*
X118230000Y-63669046D01*
X118230000Y-62266302D01*
X124194500Y-62266302D01*
X124194501Y-62269864D01*
X124194912Y-62273411D01*
X124194913Y-62273422D01*
X124196340Y-62285722D01*
X124197415Y-62294991D01*
X124242794Y-62397765D01*
X124322235Y-62477206D01*
X124393111Y-62508501D01*
X124416477Y-62518818D01*
X124416478Y-62518818D01*
X124425009Y-62522585D01*
X124450135Y-62525500D01*
X126239864Y-62525499D01*
X126264991Y-62522585D01*
X126367765Y-62477206D01*
X126447206Y-62397765D01*
X126492585Y-62294991D01*
X126495500Y-62269865D01*
X126495499Y-62137517D01*
X126511046Y-62077404D01*
X126553788Y-62032362D01*
X126613009Y-62013690D01*
X126673856Y-62026069D01*
X126721074Y-62066396D01*
X126843784Y-62241643D01*
X126850721Y-62249909D01*
X127010090Y-62409278D01*
X127018356Y-62416215D01*
X127202991Y-62545498D01*
X127212323Y-62550886D01*
X127416602Y-62646143D01*
X127426736Y-62649831D01*
X127621219Y-62701943D01*
X127632448Y-62702311D01*
X127635000Y-62691369D01*
X128135000Y-62691369D01*
X128137551Y-62702311D01*
X128148780Y-62701943D01*
X128343263Y-62649831D01*
X128353397Y-62646143D01*
X128557676Y-62550886D01*
X128567008Y-62545498D01*
X128751643Y-62416215D01*
X128759909Y-62409278D01*
X128919278Y-62249909D01*
X128926215Y-62241643D01*
X129055498Y-62057008D01*
X129060886Y-62047676D01*
X129156143Y-61843397D01*
X129159831Y-61833263D01*
X129211943Y-61638780D01*
X129212311Y-61627551D01*
X129201369Y-61625000D01*
X128151326Y-61625000D01*
X128138450Y-61628450D01*
X128135000Y-61641326D01*
X128135000Y-62691369D01*
X127635000Y-62691369D01*
X127635000Y-61108674D01*
X128135000Y-61108674D01*
X128138450Y-61121549D01*
X128151326Y-61125000D01*
X129201369Y-61125000D01*
X129212311Y-61122448D01*
X129211943Y-61111219D01*
X129159831Y-60916736D01*
X129156143Y-60906602D01*
X129060889Y-60702332D01*
X129055491Y-60692982D01*
X128926215Y-60508357D01*
X128919280Y-60500092D01*
X128759909Y-60340721D01*
X128751643Y-60333784D01*
X128567008Y-60204501D01*
X128557676Y-60199113D01*
X128353397Y-60103856D01*
X128343263Y-60100168D01*
X128148780Y-60048056D01*
X128137551Y-60047688D01*
X128135000Y-60058631D01*
X128135000Y-61108674D01*
X127635000Y-61108674D01*
X127635000Y-60058631D01*
X127632448Y-60047688D01*
X127621219Y-60048056D01*
X127426736Y-60100168D01*
X127416602Y-60103856D01*
X127212332Y-60199110D01*
X127202982Y-60204508D01*
X127018357Y-60333784D01*
X127010092Y-60340719D01*
X126850719Y-60500092D01*
X126843788Y-60508352D01*
X126721074Y-60683606D01*
X126673857Y-60723933D01*
X126613009Y-60736312D01*
X126553789Y-60717640D01*
X126511046Y-60672598D01*
X126495499Y-60612482D01*
X126495499Y-60483714D01*
X126495499Y-60483709D01*
X126495499Y-60480136D01*
X126492585Y-60455009D01*
X126447206Y-60352235D01*
X126367765Y-60272794D01*
X126352833Y-60266201D01*
X126273522Y-60231181D01*
X126273517Y-60231179D01*
X126264991Y-60227415D01*
X126255726Y-60226340D01*
X126243414Y-60224911D01*
X126243401Y-60224910D01*
X126239865Y-60224500D01*
X126236290Y-60224500D01*
X124453714Y-60224500D01*
X124453696Y-60224500D01*
X124450136Y-60224501D01*
X124446589Y-60224912D01*
X124446577Y-60224913D01*
X124434277Y-60226340D01*
X124434275Y-60226340D01*
X124425009Y-60227415D01*
X124416479Y-60231180D01*
X124416476Y-60231182D01*
X124332745Y-60268153D01*
X124332743Y-60268154D01*
X124322235Y-60272794D01*
X124314112Y-60280916D01*
X124314109Y-60280919D01*
X124250919Y-60344109D01*
X124250916Y-60344112D01*
X124242794Y-60352235D01*
X124238154Y-60362743D01*
X124238153Y-60362745D01*
X124201181Y-60446477D01*
X124201179Y-60446484D01*
X124197415Y-60455009D01*
X124196340Y-60464271D01*
X124196340Y-60464273D01*
X124194911Y-60476585D01*
X124194910Y-60476599D01*
X124194500Y-60480135D01*
X124194500Y-60483708D01*
X124194500Y-60483709D01*
X124194500Y-62266285D01*
X124194500Y-62266302D01*
X118230000Y-62266302D01*
X118230000Y-61898674D01*
X118730000Y-61898674D01*
X118733450Y-61911549D01*
X118746326Y-61915000D01*
X119463674Y-61915000D01*
X119476549Y-61911549D01*
X119480000Y-61898674D01*
X119480000Y-61567430D01*
X119479682Y-61561164D01*
X119465216Y-61418915D01*
X119462698Y-61406664D01*
X119405580Y-61224614D01*
X119400644Y-61213110D01*
X119308045Y-61046279D01*
X119300902Y-61036017D01*
X119176620Y-60891245D01*
X119167541Y-60882614D01*
X119016670Y-60765832D01*
X119006042Y-60759207D01*
X118834743Y-60675182D01*
X118823002Y-60670834D01*
X118743746Y-60650313D01*
X118732535Y-60650028D01*
X118730000Y-60660954D01*
X118730000Y-61898674D01*
X118230000Y-61898674D01*
X118230000Y-60655038D01*
X118227662Y-60644354D01*
X118222497Y-60644026D01*
X118222159Y-60644114D01*
X118043239Y-60710378D01*
X118031993Y-60715894D01*
X117870073Y-60816819D01*
X117860179Y-60824478D01*
X117721885Y-60955936D01*
X117713737Y-60965427D01*
X117604734Y-61122036D01*
X117598664Y-61132973D01*
X117588076Y-61157645D01*
X117554994Y-61202745D01*
X117505459Y-61228719D01*
X117449549Y-61230283D01*
X117398639Y-61207118D01*
X117346685Y-61167251D01*
X117346675Y-61167245D01*
X117340233Y-61162302D01*
X117332724Y-61159191D01*
X117332723Y-61159191D01*
X117207745Y-61107423D01*
X117207742Y-61107422D01*
X117200236Y-61104313D01*
X117192182Y-61103252D01*
X117192176Y-61103251D01*
X117091739Y-61090029D01*
X117091737Y-61090028D01*
X117087720Y-61089500D01*
X117012280Y-61089500D01*
X117008263Y-61090028D01*
X117008260Y-61090029D01*
X116907823Y-61103251D01*
X116907815Y-61103252D01*
X116899764Y-61104313D01*
X116892259Y-61107421D01*
X116892254Y-61107423D01*
X116767276Y-61159191D01*
X116767272Y-61159193D01*
X116759767Y-61162302D01*
X116753328Y-61167242D01*
X116753319Y-61167248D01*
X116645991Y-61249605D01*
X116645987Y-61249608D01*
X116639549Y-61254549D01*
X116634608Y-61260987D01*
X116634605Y-61260991D01*
X116552248Y-61368319D01*
X116552242Y-61368328D01*
X116547302Y-61374767D01*
X116544193Y-61382272D01*
X116544191Y-61382276D01*
X116492423Y-61507254D01*
X116492421Y-61507259D01*
X116489313Y-61514764D01*
X116488252Y-61522815D01*
X116488251Y-61522823D01*
X116483204Y-61561164D01*
X116469534Y-61665000D01*
X111850466Y-61665000D01*
X111830687Y-61514764D01*
X111772698Y-61374767D01*
X111767753Y-61368322D01*
X111767751Y-61368319D01*
X111685394Y-61260991D01*
X111680451Y-61254549D01*
X111674008Y-61249605D01*
X111566680Y-61167248D01*
X111566674Y-61167245D01*
X111560233Y-61162302D01*
X111552724Y-61159191D01*
X111552723Y-61159191D01*
X111427745Y-61107423D01*
X111427742Y-61107422D01*
X111420236Y-61104313D01*
X111412182Y-61103252D01*
X111412176Y-61103251D01*
X111311739Y-61090029D01*
X111311737Y-61090028D01*
X111307720Y-61089500D01*
X111232280Y-61089500D01*
X111228263Y-61090028D01*
X111228260Y-61090029D01*
X111127823Y-61103251D01*
X111127815Y-61103252D01*
X111119764Y-61104313D01*
X111112259Y-61107421D01*
X111112254Y-61107423D01*
X110987276Y-61159191D01*
X110987272Y-61159193D01*
X110979767Y-61162302D01*
X110973321Y-61167247D01*
X110973316Y-61167251D01*
X110920420Y-61207839D01*
X110872581Y-61230341D01*
X110819717Y-61230871D01*
X110771437Y-61209332D01*
X110736516Y-61169640D01*
X110668045Y-61046279D01*
X110660902Y-61036017D01*
X110536620Y-60891245D01*
X110527541Y-60882614D01*
X110376670Y-60765832D01*
X110366042Y-60759207D01*
X110194743Y-60675182D01*
X110183002Y-60670834D01*
X110103746Y-60650313D01*
X110092535Y-60650028D01*
X110090000Y-60660954D01*
X110090000Y-63674962D01*
X109588627Y-63674962D01*
X109590000Y-63669046D01*
X109590000Y-62431326D01*
X109586549Y-62418450D01*
X109573674Y-62415000D01*
X108856326Y-62415000D01*
X108843450Y-62418450D01*
X108840000Y-62431326D01*
X108840000Y-62762570D01*
X85600000Y-62762570D01*
X85600000Y-61898674D01*
X108840000Y-61898674D01*
X108843450Y-61911549D01*
X108856326Y-61915000D01*
X109573674Y-61915000D01*
X109586549Y-61911549D01*
X109590000Y-61898674D01*
X109590000Y-60655038D01*
X109587662Y-60644354D01*
X109582497Y-60644026D01*
X109582159Y-60644114D01*
X109403239Y-60710378D01*
X109391993Y-60715894D01*
X109230073Y-60816819D01*
X109220179Y-60824478D01*
X109081885Y-60955936D01*
X109073737Y-60965427D01*
X108964734Y-61122036D01*
X108958665Y-61132970D01*
X108883418Y-61308318D01*
X108879675Y-61320247D01*
X108841265Y-61507152D01*
X108840000Y-61519598D01*
X108840000Y-61898674D01*
X85600000Y-61898674D01*
X85600000Y-58432570D01*
X108840000Y-58432570D01*
X108840317Y-58438835D01*
X108854783Y-58581084D01*
X108857301Y-58593335D01*
X108914419Y-58775385D01*
X108919355Y-58786889D01*
X109011954Y-58953720D01*
X109019097Y-58963982D01*
X109143379Y-59108754D01*
X109152458Y-59117385D01*
X109303329Y-59234167D01*
X109313957Y-59240792D01*
X109485256Y-59324817D01*
X109496997Y-59329165D01*
X109576253Y-59349686D01*
X109587464Y-59349971D01*
X109588627Y-59344962D01*
X110090000Y-59344962D01*
X110092337Y-59355645D01*
X110097502Y-59355973D01*
X110097840Y-59355885D01*
X110276760Y-59289621D01*
X110288006Y-59284105D01*
X110449926Y-59183180D01*
X110459820Y-59175521D01*
X110598114Y-59044063D01*
X110606262Y-59034572D01*
X110715265Y-58877963D01*
X110721334Y-58867029D01*
X110796581Y-58691681D01*
X110800324Y-58679752D01*
X110838734Y-58492847D01*
X110840000Y-58480402D01*
X110840000Y-58432570D01*
X117480000Y-58432570D01*
X117480317Y-58438835D01*
X117494783Y-58581084D01*
X117497301Y-58593335D01*
X117554419Y-58775385D01*
X117559355Y-58786889D01*
X117651954Y-58953720D01*
X117659097Y-58963982D01*
X117783379Y-59108754D01*
X117792458Y-59117385D01*
X117943329Y-59234167D01*
X117953957Y-59240792D01*
X118125256Y-59324817D01*
X118136997Y-59329165D01*
X118216253Y-59349686D01*
X118227464Y-59349971D01*
X118228627Y-59344962D01*
X118730000Y-59344962D01*
X118732337Y-59355645D01*
X118737502Y-59355973D01*
X118737840Y-59355885D01*
X118916760Y-59289621D01*
X118928006Y-59284105D01*
X119089926Y-59183180D01*
X119099820Y-59175521D01*
X119238114Y-59044063D01*
X119246262Y-59034572D01*
X119355265Y-58877963D01*
X119361334Y-58867029D01*
X119436581Y-58691681D01*
X119440324Y-58679752D01*
X119478734Y-58492847D01*
X119480000Y-58480402D01*
X119480000Y-58251326D01*
X119476549Y-58238450D01*
X119463674Y-58235000D01*
X118746326Y-58235000D01*
X118733450Y-58238450D01*
X118730000Y-58251326D01*
X118730000Y-59344962D01*
X118228627Y-59344962D01*
X118230000Y-59339046D01*
X118230000Y-58251326D01*
X118226549Y-58238450D01*
X118213674Y-58235000D01*
X117496326Y-58235000D01*
X117483450Y-58238450D01*
X117480000Y-58251326D01*
X117480000Y-58432570D01*
X110840000Y-58432570D01*
X110840000Y-58251326D01*
X110836549Y-58238450D01*
X110823674Y-58235000D01*
X110106326Y-58235000D01*
X110093450Y-58238450D01*
X110090000Y-58251326D01*
X110090000Y-59344962D01*
X109588627Y-59344962D01*
X109590000Y-59339046D01*
X109590000Y-58251326D01*
X109586549Y-58238450D01*
X109573674Y-58235000D01*
X108856326Y-58235000D01*
X108843450Y-58238450D01*
X108840000Y-58251326D01*
X108840000Y-58432570D01*
X85600000Y-58432570D01*
X85600000Y-57718674D01*
X108840000Y-57718674D01*
X108843450Y-57731549D01*
X108856326Y-57735000D01*
X109573674Y-57735000D01*
X109586549Y-57731549D01*
X109590000Y-57718674D01*
X110090000Y-57718674D01*
X110093450Y-57731549D01*
X110106326Y-57735000D01*
X110823674Y-57735000D01*
X110836549Y-57731549D01*
X110840000Y-57718674D01*
X117480000Y-57718674D01*
X117483450Y-57731549D01*
X117496326Y-57735000D01*
X118213674Y-57735000D01*
X118226549Y-57731549D01*
X118230000Y-57718674D01*
X118730000Y-57718674D01*
X118733450Y-57731549D01*
X118746326Y-57735000D01*
X119463674Y-57735000D01*
X119476549Y-57731549D01*
X119480000Y-57718674D01*
X119480000Y-57537430D01*
X119479682Y-57531164D01*
X119465216Y-57388915D01*
X119462698Y-57376664D01*
X119405580Y-57194614D01*
X119400644Y-57183110D01*
X119308045Y-57016279D01*
X119300902Y-57006017D01*
X119176620Y-56861245D01*
X119167541Y-56852614D01*
X119016670Y-56735832D01*
X119006042Y-56729207D01*
X118834743Y-56645182D01*
X118823002Y-56640834D01*
X118743746Y-56620313D01*
X118732535Y-56620028D01*
X118730000Y-56630954D01*
X118730000Y-57718674D01*
X118230000Y-57718674D01*
X118230000Y-56625038D01*
X118227662Y-56614354D01*
X118222497Y-56614026D01*
X118222159Y-56614114D01*
X118043239Y-56680378D01*
X118031993Y-56685894D01*
X117870073Y-56786819D01*
X117860179Y-56794478D01*
X117721885Y-56925936D01*
X117713737Y-56935427D01*
X117604734Y-57092036D01*
X117598665Y-57102970D01*
X117523418Y-57278318D01*
X117519675Y-57290247D01*
X117481265Y-57477152D01*
X117480000Y-57489598D01*
X117480000Y-57718674D01*
X110840000Y-57718674D01*
X110840000Y-57537430D01*
X110839682Y-57531164D01*
X110825216Y-57388915D01*
X110822698Y-57376664D01*
X110765580Y-57194614D01*
X110760644Y-57183110D01*
X110668045Y-57016279D01*
X110660902Y-57006017D01*
X110536620Y-56861245D01*
X110527541Y-56852614D01*
X110376670Y-56735832D01*
X110366042Y-56729207D01*
X110194743Y-56645182D01*
X110183002Y-56640834D01*
X110103746Y-56620313D01*
X110092535Y-56620028D01*
X110090000Y-56630954D01*
X110090000Y-57718674D01*
X109590000Y-57718674D01*
X109590000Y-56625038D01*
X109587662Y-56614354D01*
X109582497Y-56614026D01*
X109582159Y-56614114D01*
X109403239Y-56680378D01*
X109391993Y-56685894D01*
X109230073Y-56786819D01*
X109220179Y-56794478D01*
X109081885Y-56925936D01*
X109073737Y-56935427D01*
X108964734Y-57092036D01*
X108958665Y-57102970D01*
X108883418Y-57278318D01*
X108879675Y-57290247D01*
X108841265Y-57477152D01*
X108840000Y-57489598D01*
X108840000Y-57718674D01*
X85600000Y-57718674D01*
X85600000Y-55859173D01*
X85616613Y-55797173D01*
X85662000Y-55751786D01*
X85724000Y-55735173D01*
X104030646Y-55735173D01*
X133320737Y-55791070D01*
G37*
G04 #@! TD.AperFunction*
M02*
