G04 #@! TF.GenerationSoftware,KiCad,Pcbnew,(7.0.0)*
G04 #@! TF.CreationDate,2023-11-11T15:55:20+01:00*
G04 #@! TF.ProjectId,GameboyCartridgeV1.1,47616d65-626f-4794-9361-727472696467,rev?*
G04 #@! TF.SameCoordinates,Original*
G04 #@! TF.FileFunction,Copper,L1,Top*
G04 #@! TF.FilePolarity,Positive*
%FSLAX46Y46*%
G04 Gerber Fmt 4.6, Leading zero omitted, Abs format (unit mm)*
G04 Created by KiCad (PCBNEW (7.0.0)) date 2023-11-11 15:55:20*
%MOMM*%
%LPD*%
G01*
G04 APERTURE LIST*
G04 Aperture macros list*
%AMRoundRect*
0 Rectangle with rounded corners*
0 $1 Rounding radius*
0 $2 $3 $4 $5 $6 $7 $8 $9 X,Y pos of 4 corners*
0 Add a 4 corners polygon primitive as box body*
4,1,4,$2,$3,$4,$5,$6,$7,$8,$9,$2,$3,0*
0 Add four circle primitives for the rounded corners*
1,1,$1+$1,$2,$3*
1,1,$1+$1,$4,$5*
1,1,$1+$1,$6,$7*
1,1,$1+$1,$8,$9*
0 Add four rect primitives between the rounded corners*
20,1,$1+$1,$2,$3,$4,$5,0*
20,1,$1+$1,$4,$5,$6,$7,0*
20,1,$1+$1,$6,$7,$8,$9,0*
20,1,$1+$1,$8,$9,$2,$3,0*%
%AMFreePoly0*
4,1,6,0.750000,-6.800000,-0.350000,-6.800000,-0.750000,-6.400000,-0.750000,0.500000,0.750000,0.500000,0.750000,-6.800000,0.750000,-6.800000,$1*%
%AMFreePoly1*
4,1,5,0.500000,-6.500000,-0.500000,-6.500000,-0.500000,0.500000,0.500000,0.500000,0.500000,-6.500000,0.500000,-6.500000,$1*%
%AMFreePoly2*
4,1,6,0.750000,-6.300000,0.250000,-6.800000,-0.750000,-6.800000,-0.750000,0.500000,0.750000,0.500000,0.750000,-6.300000,0.750000,-6.300000,$1*%
%AMFreePoly3*
4,1,19,0.500000,-0.750000,0.000000,-0.750000,0.000000,-0.744911,-0.071157,-0.744911,-0.207708,-0.704816,-0.327430,-0.627875,-0.420627,-0.520320,-0.479746,-0.390866,-0.500000,-0.250000,-0.500000,0.250000,-0.479746,0.390866,-0.420627,0.520320,-0.327430,0.627875,-0.207708,0.704816,-0.071157,0.744911,0.000000,0.744911,0.000000,0.750000,0.500000,0.750000,0.500000,-0.750000,0.500000,-0.750000,
$1*%
%AMFreePoly4*
4,1,19,0.000000,0.744911,0.071157,0.744911,0.207708,0.704816,0.327430,0.627875,0.420627,0.520320,0.479746,0.390866,0.500000,0.250000,0.500000,-0.250000,0.479746,-0.390866,0.420627,-0.520320,0.327430,-0.627875,0.207708,-0.704816,0.071157,-0.744911,0.000000,-0.744911,0.000000,-0.750000,-0.500000,-0.750000,-0.500000,0.750000,0.000000,0.750000,0.000000,0.744911,0.000000,0.744911,
$1*%
G04 Aperture macros list end*
G04 #@! TA.AperFunction,SMDPad,CuDef*
%ADD10R,0.600000X1.150000*%
G04 #@! TD*
G04 #@! TA.AperFunction,SMDPad,CuDef*
%ADD11R,0.300000X1.150000*%
G04 #@! TD*
G04 #@! TA.AperFunction,ComponentPad*
%ADD12O,1.000000X2.100000*%
G04 #@! TD*
G04 #@! TA.AperFunction,ComponentPad*
%ADD13O,1.000000X1.800000*%
G04 #@! TD*
G04 #@! TA.AperFunction,SMDPad,CuDef*
%ADD14RoundRect,0.155000X-0.212500X-0.155000X0.212500X-0.155000X0.212500X0.155000X-0.212500X0.155000X0*%
G04 #@! TD*
G04 #@! TA.AperFunction,SMDPad,CuDef*
%ADD15RoundRect,0.237500X-0.237500X0.300000X-0.237500X-0.300000X0.237500X-0.300000X0.237500X0.300000X0*%
G04 #@! TD*
G04 #@! TA.AperFunction,SMDPad,CuDef*
%ADD16RoundRect,0.237500X0.237500X-0.250000X0.237500X0.250000X-0.237500X0.250000X-0.237500X-0.250000X0*%
G04 #@! TD*
G04 #@! TA.AperFunction,SMDPad,CuDef*
%ADD17RoundRect,0.237500X-0.237500X0.250000X-0.237500X-0.250000X0.237500X-0.250000X0.237500X0.250000X0*%
G04 #@! TD*
G04 #@! TA.AperFunction,SMDPad,CuDef*
%ADD18RoundRect,0.155000X-0.155000X0.212500X-0.155000X-0.212500X0.155000X-0.212500X0.155000X0.212500X0*%
G04 #@! TD*
G04 #@! TA.AperFunction,SMDPad,CuDef*
%ADD19RoundRect,0.155000X0.212500X0.155000X-0.212500X0.155000X-0.212500X-0.155000X0.212500X-0.155000X0*%
G04 #@! TD*
G04 #@! TA.AperFunction,ComponentPad*
%ADD20C,0.800000*%
G04 #@! TD*
G04 #@! TA.AperFunction,ConnectorPad*
%ADD21FreePoly0,0.000000*%
G04 #@! TD*
G04 #@! TA.AperFunction,ConnectorPad*
%ADD22FreePoly1,0.000000*%
G04 #@! TD*
G04 #@! TA.AperFunction,ConnectorPad*
%ADD23FreePoly2,0.000000*%
G04 #@! TD*
G04 #@! TA.AperFunction,SMDPad,CuDef*
%ADD24R,1.700000X1.000000*%
G04 #@! TD*
G04 #@! TA.AperFunction,SMDPad,CuDef*
%ADD25RoundRect,0.237500X0.250000X0.237500X-0.250000X0.237500X-0.250000X-0.237500X0.250000X-0.237500X0*%
G04 #@! TD*
G04 #@! TA.AperFunction,SMDPad,CuDef*
%ADD26R,0.609600X1.625600*%
G04 #@! TD*
G04 #@! TA.AperFunction,SMDPad,CuDef*
%ADD27R,3.175000X1.854200*%
G04 #@! TD*
G04 #@! TA.AperFunction,SMDPad,CuDef*
%ADD28RoundRect,0.237500X-0.300000X-0.237500X0.300000X-0.237500X0.300000X0.237500X-0.300000X0.237500X0*%
G04 #@! TD*
G04 #@! TA.AperFunction,ConnectorPad*
%ADD29C,0.787400*%
G04 #@! TD*
G04 #@! TA.AperFunction,SMDPad,CuDef*
%ADD30C,1.000000*%
G04 #@! TD*
G04 #@! TA.AperFunction,SMDPad,CuDef*
%ADD31RoundRect,0.237500X0.237500X-0.300000X0.237500X0.300000X-0.237500X0.300000X-0.237500X-0.300000X0*%
G04 #@! TD*
G04 #@! TA.AperFunction,SMDPad,CuDef*
%ADD32RoundRect,0.050000X-0.387500X-0.050000X0.387500X-0.050000X0.387500X0.050000X-0.387500X0.050000X0*%
G04 #@! TD*
G04 #@! TA.AperFunction,SMDPad,CuDef*
%ADD33RoundRect,0.050000X-0.050000X-0.387500X0.050000X-0.387500X0.050000X0.387500X-0.050000X0.387500X0*%
G04 #@! TD*
G04 #@! TA.AperFunction,SMDPad,CuDef*
%ADD34R,3.200000X3.200000*%
G04 #@! TD*
G04 #@! TA.AperFunction,ComponentPad*
%ADD35R,1.700000X1.700000*%
G04 #@! TD*
G04 #@! TA.AperFunction,ComponentPad*
%ADD36O,1.700000X1.700000*%
G04 #@! TD*
G04 #@! TA.AperFunction,SMDPad,CuDef*
%ADD37R,1.400000X1.200000*%
G04 #@! TD*
G04 #@! TA.AperFunction,SMDPad,CuDef*
%ADD38RoundRect,0.237500X0.300000X0.237500X-0.300000X0.237500X-0.300000X-0.237500X0.300000X-0.237500X0*%
G04 #@! TD*
G04 #@! TA.AperFunction,SMDPad,CuDef*
%ADD39RoundRect,0.237500X-0.250000X-0.237500X0.250000X-0.237500X0.250000X0.237500X-0.250000X0.237500X0*%
G04 #@! TD*
G04 #@! TA.AperFunction,SMDPad,CuDef*
%ADD40R,1.500000X0.900000*%
G04 #@! TD*
G04 #@! TA.AperFunction,SMDPad,CuDef*
%ADD41RoundRect,0.100000X-0.100000X0.637500X-0.100000X-0.637500X0.100000X-0.637500X0.100000X0.637500X0*%
G04 #@! TD*
G04 #@! TA.AperFunction,SMDPad,CuDef*
%ADD42FreePoly3,90.000000*%
G04 #@! TD*
G04 #@! TA.AperFunction,SMDPad,CuDef*
%ADD43FreePoly4,90.000000*%
G04 #@! TD*
G04 #@! TA.AperFunction,SMDPad,CuDef*
%ADD44RoundRect,0.150000X-0.650000X-0.150000X0.650000X-0.150000X0.650000X0.150000X-0.650000X0.150000X0*%
G04 #@! TD*
G04 #@! TA.AperFunction,SMDPad,CuDef*
%ADD45RoundRect,0.250000X-0.300000X-0.300000X0.300000X-0.300000X0.300000X0.300000X-0.300000X0.300000X0*%
G04 #@! TD*
G04 #@! TA.AperFunction,SMDPad,CuDef*
%ADD46R,0.800000X1.900000*%
G04 #@! TD*
G04 #@! TA.AperFunction,SMDPad,CuDef*
%ADD47RoundRect,0.250000X0.300000X0.300000X-0.300000X0.300000X-0.300000X-0.300000X0.300000X-0.300000X0*%
G04 #@! TD*
G04 #@! TA.AperFunction,SMDPad,CuDef*
%ADD48R,0.750000X0.250000*%
G04 #@! TD*
G04 #@! TA.AperFunction,ViaPad*
%ADD49C,0.600000*%
G04 #@! TD*
G04 #@! TA.AperFunction,Conductor*
%ADD50C,0.200000*%
G04 #@! TD*
G04 #@! TA.AperFunction,Conductor*
%ADD51C,0.400000*%
G04 #@! TD*
G04 #@! TA.AperFunction,Conductor*
%ADD52C,0.600000*%
G04 #@! TD*
G04 #@! TA.AperFunction,Conductor*
%ADD53C,0.800000*%
G04 #@! TD*
G04 #@! TA.AperFunction,Conductor*
%ADD54C,0.339000*%
G04 #@! TD*
G04 APERTURE END LIST*
D10*
X117359999Y-62739999D03*
X116559999Y-62739999D03*
D11*
X115409999Y-62739999D03*
X114409999Y-62739999D03*
X113909999Y-62739999D03*
X112909999Y-62739999D03*
D10*
X111759999Y-62739999D03*
X110959999Y-62739999D03*
X110959999Y-62739999D03*
X111759999Y-62739999D03*
D11*
X112409999Y-62739999D03*
X113409999Y-62739999D03*
X114909999Y-62739999D03*
X115909999Y-62739999D03*
D10*
X116559999Y-62739999D03*
X117359999Y-62739999D03*
D12*
X118479999Y-62164999D03*
D13*
X118479999Y-57984999D03*
D12*
X109839999Y-62164999D03*
D13*
X109839999Y-57984999D03*
D14*
X104032500Y-82300000D03*
X105167500Y-82300000D03*
D15*
X134200000Y-97937500D03*
X134200000Y-99662500D03*
D16*
X115500000Y-74612500D03*
X115500000Y-72787500D03*
D17*
X114300000Y-89737500D03*
X114300000Y-91562500D03*
D18*
X111400000Y-73932500D03*
X111400000Y-75067500D03*
X112400000Y-73932500D03*
X112400000Y-75067500D03*
D19*
X115967500Y-87100000D03*
X114832500Y-87100000D03*
D20*
X88266962Y-109283715D03*
D21*
X88266962Y-109283715D03*
D20*
X90016962Y-109283715D03*
D22*
X90016962Y-109283715D03*
D20*
X91516962Y-109283715D03*
D22*
X91516962Y-109283715D03*
D20*
X93016962Y-109283715D03*
D22*
X93016962Y-109283715D03*
D20*
X94516962Y-109283715D03*
D22*
X94516962Y-109283715D03*
D20*
X96016962Y-109283715D03*
D22*
X96016962Y-109283715D03*
D20*
X97516962Y-109283715D03*
D22*
X97516962Y-109283715D03*
D20*
X99016962Y-109283715D03*
D22*
X99016962Y-109283715D03*
D20*
X100516962Y-109283715D03*
D22*
X100516962Y-109283715D03*
D20*
X102016962Y-109283715D03*
D22*
X102016962Y-109283715D03*
D20*
X103516962Y-109283715D03*
D22*
X103516962Y-109283715D03*
D20*
X105016962Y-109283715D03*
D22*
X105016962Y-109283715D03*
D20*
X106516962Y-109283715D03*
D22*
X106516962Y-109283715D03*
D20*
X108016962Y-109283715D03*
D22*
X108016962Y-109283715D03*
D20*
X109516962Y-109283715D03*
D22*
X109516962Y-109283715D03*
D20*
X111016962Y-109283715D03*
D22*
X111016962Y-109283715D03*
D20*
X112516962Y-109283715D03*
D22*
X112516962Y-109283715D03*
D20*
X114016962Y-109283715D03*
D22*
X114016962Y-109283715D03*
D20*
X115516962Y-109283715D03*
D22*
X115516962Y-109283715D03*
D20*
X117016962Y-109283715D03*
D22*
X117016962Y-109283715D03*
D20*
X118516962Y-109283715D03*
D22*
X118516962Y-109283715D03*
D20*
X120016962Y-109283715D03*
D22*
X120016962Y-109283715D03*
D20*
X121516962Y-109283715D03*
D22*
X121516962Y-109283715D03*
D20*
X123016962Y-109283715D03*
D22*
X123016962Y-109283715D03*
D20*
X124516962Y-109283715D03*
D22*
X124516962Y-109283715D03*
D20*
X126016962Y-109283715D03*
D22*
X126016962Y-109283715D03*
D20*
X127516962Y-109283715D03*
D22*
X127516962Y-109283715D03*
D20*
X129016962Y-109283715D03*
D22*
X129016962Y-109283715D03*
D20*
X130516962Y-109283715D03*
D22*
X130516962Y-109283715D03*
D20*
X132016962Y-109283715D03*
D22*
X132016962Y-109283715D03*
D20*
X133516962Y-109283715D03*
D22*
X133516962Y-109283715D03*
D20*
X135266962Y-109283715D03*
D23*
X135266962Y-109283715D03*
D19*
X119627500Y-81600000D03*
X118492500Y-81600000D03*
D24*
X124759999Y-70649999D03*
X131059999Y-70649999D03*
X124759999Y-74449999D03*
X131059999Y-74449999D03*
D25*
X135812500Y-85600000D03*
X133987500Y-85600000D03*
D26*
X89359999Y-80873799D03*
X90629999Y-80873799D03*
X91899999Y-80873799D03*
X93169999Y-80873799D03*
X94439999Y-80873799D03*
D27*
X91899999Y-74599999D03*
D28*
X108437500Y-93300000D03*
X110162500Y-93300000D03*
D15*
X104800000Y-98037500D03*
X104800000Y-99762500D03*
D29*
X122735000Y-89420000D03*
X121465000Y-89420000D03*
X122735000Y-88150000D03*
X121465000Y-88150000D03*
X122735000Y-86880000D03*
X121465000Y-86880000D03*
D30*
X92100000Y-96100000D03*
D28*
X112387500Y-93300000D03*
X114112500Y-93300000D03*
D31*
X134200000Y-104062500D03*
X134200000Y-102337500D03*
X95200000Y-102312500D03*
X95200000Y-100587500D03*
X104800000Y-103762500D03*
X104800000Y-102037500D03*
D32*
X108262500Y-78000000D03*
X108262500Y-78400000D03*
X108262500Y-78800000D03*
X108262500Y-79200000D03*
X108262500Y-79600000D03*
X108262500Y-80000000D03*
X108262500Y-80400000D03*
X108262500Y-80800000D03*
X108262500Y-81200000D03*
X108262500Y-81600000D03*
X108262500Y-82000000D03*
X108262500Y-82400000D03*
X108262500Y-82800000D03*
X108262500Y-83200000D03*
D33*
X109100000Y-84037500D03*
X109500000Y-84037500D03*
X109900000Y-84037500D03*
X110300000Y-84037500D03*
X110700000Y-84037500D03*
X111100000Y-84037500D03*
X111500000Y-84037500D03*
X111900000Y-84037500D03*
X112300000Y-84037500D03*
X112700000Y-84037500D03*
X113100000Y-84037500D03*
X113500000Y-84037500D03*
X113900000Y-84037500D03*
X114300000Y-84037500D03*
D32*
X115137500Y-83200000D03*
X115137500Y-82800000D03*
X115137500Y-82400000D03*
X115137500Y-82000000D03*
X115137500Y-81600000D03*
X115137500Y-81200000D03*
X115137500Y-80800000D03*
X115137500Y-80400000D03*
X115137500Y-80000000D03*
X115137500Y-79600000D03*
X115137500Y-79200000D03*
X115137500Y-78800000D03*
X115137500Y-78400000D03*
X115137500Y-78000000D03*
D33*
X114300000Y-77162500D03*
X113900000Y-77162500D03*
X113500000Y-77162500D03*
X113100000Y-77162500D03*
X112700000Y-77162500D03*
X112300000Y-77162500D03*
X111900000Y-77162500D03*
X111500000Y-77162500D03*
X111100000Y-77162500D03*
X110700000Y-77162500D03*
X110300000Y-77162500D03*
X109900000Y-77162500D03*
X109500000Y-77162500D03*
X109100000Y-77162500D03*
D34*
X111699999Y-80599999D03*
D14*
X104032500Y-77700000D03*
X105167500Y-77700000D03*
D30*
X92100000Y-64000000D03*
D35*
X125344999Y-61374999D03*
D36*
X127884999Y-61374999D03*
D37*
X112399999Y-89799999D03*
X110199999Y-89799999D03*
X110199999Y-91499999D03*
X112399999Y-91499999D03*
D38*
X90462500Y-103200000D03*
X88737500Y-103200000D03*
D19*
X113517500Y-87100000D03*
X112382500Y-87100000D03*
D25*
X135812500Y-82900000D03*
X133987500Y-82900000D03*
D39*
X124387500Y-68100000D03*
X126212500Y-68100000D03*
D40*
X103649999Y-62549999D03*
X103649999Y-59249999D03*
X98749999Y-59249999D03*
X98749999Y-62549999D03*
D31*
X125300000Y-103862500D03*
X125300000Y-102137500D03*
D19*
X119617500Y-77200000D03*
X118482500Y-77200000D03*
D41*
X123825000Y-98237500D03*
X123175000Y-98237500D03*
X122525000Y-98237500D03*
X121875000Y-98237500D03*
X121225000Y-98237500D03*
X120575000Y-98237500D03*
X119925000Y-98237500D03*
X119275000Y-98237500D03*
X118625000Y-98237500D03*
X117975000Y-98237500D03*
X117975000Y-103962500D03*
X118625000Y-103962500D03*
X119275000Y-103962500D03*
X119925000Y-103962500D03*
X120575000Y-103962500D03*
X121225000Y-103962500D03*
X121875000Y-103962500D03*
X122525000Y-103962500D03*
X123175000Y-103962500D03*
X123825000Y-103962500D03*
D42*
X96500000Y-70650000D03*
D43*
X96500000Y-69350000D03*
D25*
X94512500Y-87000000D03*
X92687500Y-87000000D03*
D15*
X106700000Y-61137500D03*
X106700000Y-62862500D03*
D16*
X113800000Y-74612500D03*
X113800000Y-72787500D03*
D28*
X106237500Y-67900000D03*
X107962500Y-67900000D03*
D30*
X131500000Y-64000000D03*
D28*
X92537500Y-84100000D03*
X94262500Y-84100000D03*
D15*
X125300000Y-98037500D03*
X125300000Y-99762500D03*
D44*
X100700000Y-69795000D03*
X100700000Y-71065000D03*
X100700000Y-72335000D03*
X100700000Y-73605000D03*
X107900000Y-73605000D03*
X107900000Y-72335000D03*
X107900000Y-71065000D03*
X107900000Y-69795000D03*
D39*
X129627500Y-68100000D03*
X131452500Y-68100000D03*
D41*
X103325000Y-98237500D03*
X102675000Y-98237500D03*
X102025000Y-98237500D03*
X101375000Y-98237500D03*
X100725000Y-98237500D03*
X100075000Y-98237500D03*
X99425000Y-98237500D03*
X98775000Y-98237500D03*
X98125000Y-98237500D03*
X97475000Y-98237500D03*
X97475000Y-103962500D03*
X98125000Y-103962500D03*
X98775000Y-103962500D03*
X99425000Y-103962500D03*
X100075000Y-103962500D03*
X100725000Y-103962500D03*
X101375000Y-103962500D03*
X102025000Y-103962500D03*
X102675000Y-103962500D03*
X103325000Y-103962500D03*
X132725000Y-98137500D03*
X132075000Y-98137500D03*
X131425000Y-98137500D03*
X130775000Y-98137500D03*
X130125000Y-98137500D03*
X129475000Y-98137500D03*
X128825000Y-98137500D03*
X128175000Y-98137500D03*
X127525000Y-98137500D03*
X126875000Y-98137500D03*
X126875000Y-103862500D03*
X127525000Y-103862500D03*
X128175000Y-103862500D03*
X128825000Y-103862500D03*
X129475000Y-103862500D03*
X130125000Y-103862500D03*
X130775000Y-103862500D03*
X131425000Y-103862500D03*
X132075000Y-103862500D03*
X132725000Y-103862500D03*
D45*
X88200000Y-71400000D03*
X91000000Y-71400000D03*
D28*
X88837500Y-84100000D03*
X90562500Y-84100000D03*
D46*
X135849999Y-89699999D03*
X133949999Y-89699999D03*
X134899999Y-92699999D03*
D47*
X90900000Y-87300000D03*
X88100000Y-87300000D03*
D39*
X100687500Y-67900000D03*
X102512500Y-67900000D03*
D48*
X93649999Y-101899999D03*
X93649999Y-101399999D03*
X93649999Y-100899999D03*
X93649999Y-100399999D03*
X90549999Y-100399999D03*
X90549999Y-100899999D03*
X90549999Y-101399999D03*
X90549999Y-101899999D03*
D15*
X118500000Y-72837500D03*
X118500000Y-74562500D03*
X117000000Y-72837500D03*
X117000000Y-74562500D03*
D49*
X124500000Y-85400000D03*
X124100000Y-65300000D03*
X137700000Y-104200000D03*
X112800000Y-79500000D03*
X85900000Y-76200000D03*
X127900000Y-56200000D03*
X105400000Y-105300000D03*
X85900000Y-94200000D03*
X85900000Y-100200000D03*
X135000000Y-67600000D03*
X137700000Y-106200000D03*
X133953022Y-87630570D03*
X85900000Y-92200000D03*
X118500000Y-71600000D03*
X95200000Y-98400000D03*
X121900000Y-56200000D03*
X110200000Y-83000000D03*
X107500000Y-84700000D03*
X98400000Y-78900000D03*
X85900000Y-62200000D03*
X135000000Y-60900000D03*
X116900000Y-66500000D03*
X85900000Y-102200000D03*
X85900000Y-78200000D03*
X96800000Y-65900000D03*
X85900000Y-66200000D03*
X85900000Y-68200000D03*
X130700000Y-76900000D03*
X91900000Y-56200000D03*
X85900000Y-64200000D03*
X134200000Y-96700000D03*
X137700000Y-70200000D03*
X121900000Y-58100000D03*
X134200000Y-105400000D03*
X125900000Y-56200000D03*
X96600000Y-94000000D03*
X137700000Y-86200000D03*
X117400000Y-105100000D03*
X96700000Y-67900000D03*
X105800000Y-98000000D03*
X111800000Y-71300000D03*
X120550000Y-77360000D03*
X129900000Y-58000000D03*
X111700000Y-80700000D03*
X119900000Y-56200000D03*
X113500000Y-87800000D03*
X96800000Y-57900000D03*
X126600000Y-105300000D03*
X137700000Y-84200000D03*
X137700000Y-60200000D03*
X92100000Y-106500000D03*
X107800000Y-90000000D03*
X137700000Y-72200000D03*
X132000000Y-60900000D03*
X125300000Y-105300000D03*
X137700000Y-76200000D03*
X93400000Y-77400000D03*
X127900000Y-100900000D03*
X123000000Y-92900000D03*
X94900000Y-57900000D03*
X135000000Y-79700000D03*
X90000000Y-65400000D03*
X137700000Y-68200000D03*
X135000000Y-69700000D03*
X85900000Y-56200000D03*
X94600000Y-106500000D03*
X85900000Y-70200000D03*
X137700000Y-100200000D03*
X112400000Y-73000000D03*
X114900000Y-57700000D03*
X137700000Y-98200000D03*
X123900000Y-72400000D03*
X111900000Y-56200000D03*
X109900000Y-56200000D03*
X112800000Y-57700000D03*
X91900000Y-76600000D03*
X137700000Y-94200000D03*
X111400000Y-73000000D03*
X85900000Y-90200000D03*
X89900000Y-56200000D03*
X118700000Y-100000000D03*
X100800000Y-57900000D03*
X112800000Y-68800000D03*
X123300000Y-81600000D03*
X129900000Y-65300000D03*
X135000000Y-77800000D03*
X103000000Y-82800000D03*
X92200000Y-101550000D03*
X115900000Y-56200000D03*
X85900000Y-74200000D03*
X137700000Y-78200000D03*
X120560000Y-81600000D03*
X85900000Y-104200000D03*
X113900000Y-56200000D03*
X104600000Y-68300000D03*
X95800000Y-90400000D03*
X126800000Y-89700000D03*
X99900000Y-59300000D03*
X111350000Y-88650000D03*
X115700000Y-86000000D03*
X137700000Y-66200000D03*
X105900000Y-56200000D03*
X124800000Y-76900000D03*
X85900000Y-86200000D03*
X107900000Y-56200000D03*
X129532265Y-74450793D03*
X135000000Y-75700000D03*
X137700000Y-88200000D03*
X127900000Y-58000000D03*
X111700000Y-79500000D03*
X137700000Y-74200000D03*
X112700000Y-66500000D03*
X101900000Y-56200000D03*
X95200000Y-103500000D03*
X129900000Y-56200000D03*
X106900000Y-57900000D03*
X92200000Y-94200000D03*
X137700000Y-90200000D03*
X112400000Y-94250000D03*
X110505474Y-63864476D03*
X117900000Y-56200000D03*
X112800000Y-81800000D03*
X85900000Y-60200000D03*
X137700000Y-82200000D03*
X121100000Y-100000000D03*
X91000000Y-68200000D03*
X107200000Y-106500000D03*
X85900000Y-82200000D03*
X89500000Y-102100000D03*
X99900000Y-56200000D03*
X117905474Y-63864476D03*
X91900000Y-78700000D03*
X92700000Y-89300000D03*
X136400000Y-58900000D03*
X100300000Y-65900000D03*
X106700000Y-60100000D03*
X85900000Y-96200000D03*
X97900000Y-56200000D03*
X92200000Y-98100000D03*
X85900000Y-80200000D03*
X116900000Y-68800000D03*
X95300000Y-105400000D03*
X85900000Y-98200000D03*
X135000000Y-63200000D03*
X103900000Y-56200000D03*
X137700000Y-96200000D03*
X137700000Y-62200000D03*
X111700000Y-81800000D03*
X92500000Y-85400000D03*
X93700000Y-105400000D03*
X85900000Y-106200000D03*
X100700000Y-74700000D03*
X108400000Y-94200000D03*
X123900000Y-56200000D03*
X110600000Y-81800000D03*
X110600000Y-79500000D03*
X135000000Y-65200000D03*
X102700000Y-100900000D03*
X135000000Y-71700000D03*
X97000000Y-105400000D03*
X85900000Y-58200000D03*
X93900000Y-56200000D03*
X95900000Y-56200000D03*
X135300000Y-100900000D03*
X85900000Y-84200000D03*
X103000000Y-57900000D03*
X131900000Y-56200000D03*
X137700000Y-80200000D03*
X133550000Y-58900000D03*
X85900000Y-72200000D03*
X137700000Y-92200000D03*
X126275838Y-74456437D03*
X88800000Y-82900000D03*
X110600000Y-80700000D03*
X98800000Y-57900000D03*
X131300000Y-100900000D03*
X131900000Y-58000000D03*
X125300000Y-93700000D03*
X117000000Y-71600000D03*
X112800000Y-80700000D03*
X104500000Y-71700000D03*
X102900000Y-77800000D03*
X87900000Y-56200000D03*
X127500000Y-77900000D03*
X125900000Y-58100000D03*
X137700000Y-102200000D03*
X137700000Y-64200000D03*
X94100000Y-65400000D03*
X104900000Y-57900000D03*
X85900000Y-88200000D03*
X135000000Y-73700000D03*
X125300000Y-97000000D03*
X102700000Y-99600000D03*
X123200000Y-99600000D03*
X106200000Y-81900000D03*
X117500000Y-76300000D03*
X132100000Y-99400000D03*
X109475000Y-78425000D03*
X106200000Y-69800000D03*
X132500000Y-68100000D03*
X115100000Y-77200000D03*
X117460000Y-81600000D03*
X95200000Y-99450000D03*
X116600000Y-77200000D03*
X123000000Y-91800000D03*
X106700000Y-77800000D03*
X111300000Y-82950000D03*
X93700000Y-78500000D03*
X92700000Y-88200000D03*
X94500000Y-77700000D03*
X112800000Y-78200000D03*
X120800000Y-92650000D03*
X113543466Y-85156974D03*
X126800000Y-78500000D03*
X113850000Y-82950000D03*
X126000000Y-89100000D03*
X118000000Y-89100000D03*
X114200000Y-85800500D03*
X123200000Y-102500000D03*
X132100000Y-102500000D03*
X88265112Y-106594801D03*
X88272528Y-105663384D03*
X102700000Y-102700000D03*
X111705474Y-63864476D03*
X91000000Y-69300000D03*
X116605474Y-63864476D03*
X121174500Y-105400000D03*
X121200000Y-106400000D03*
X122500000Y-105400000D03*
X123800000Y-105400000D03*
X129424500Y-105400000D03*
X129904610Y-106039295D03*
X130724500Y-105400000D03*
X132700000Y-105400000D03*
X111500000Y-78300000D03*
X113000000Y-82900000D03*
X113700000Y-78500000D03*
X118000000Y-99500000D03*
X95800000Y-91500000D03*
X97500000Y-93600000D03*
X122800000Y-72400000D03*
X98800000Y-66000000D03*
D50*
X110550000Y-88650000D02*
X111350000Y-88650000D01*
X126875000Y-105025000D02*
X126600000Y-105300000D01*
X133950000Y-87633592D02*
X133953022Y-87630570D01*
X106237500Y-67900000D02*
X105000000Y-67900000D01*
X123041435Y-86880000D02*
X124500000Y-85421435D01*
X119617500Y-77360000D02*
X120550000Y-77360000D01*
X104800000Y-103762500D02*
X104800000Y-104700000D01*
X134200000Y-97937500D02*
X134200000Y-96700000D01*
D51*
X117360000Y-63319002D02*
X117905474Y-63864476D01*
D50*
X115967500Y-87100000D02*
X115967500Y-86267500D01*
D51*
X129531472Y-74450000D02*
X129532265Y-74450793D01*
D50*
X90462500Y-103062500D02*
X89500000Y-102100000D01*
D51*
X110960000Y-63409950D02*
X110505474Y-63864476D01*
D50*
X108437500Y-94162500D02*
X108400000Y-94200000D01*
D51*
X98750000Y-59250000D02*
X99850000Y-59250000D01*
D50*
X125300000Y-103862500D02*
X125300000Y-105300000D01*
X133950000Y-87627548D02*
X133950000Y-85637500D01*
X118500000Y-72837500D02*
X118500000Y-71600000D01*
X110700000Y-83500000D02*
X110200000Y-83000000D01*
X117000000Y-72837500D02*
X117000000Y-71600000D01*
X112400000Y-93287500D02*
X112387500Y-93300000D01*
D51*
X129532265Y-74450793D02*
X129533058Y-74450000D01*
D50*
X90462500Y-103200000D02*
X90462500Y-103062500D01*
X103500000Y-82300000D02*
X103000000Y-82800000D01*
X126875000Y-103862500D02*
X126875000Y-105025000D01*
D52*
X92537500Y-84100000D02*
X92537500Y-83237500D01*
D50*
X104800000Y-98037500D02*
X105762500Y-98037500D01*
X122735000Y-86880000D02*
X123041435Y-86880000D01*
X96500000Y-69350000D02*
X96500000Y-68100000D01*
X92350000Y-101400000D02*
X92200000Y-101550000D01*
X115967500Y-86267500D02*
X115700000Y-86000000D01*
X100700000Y-73605000D02*
X100700000Y-74500000D01*
X110200000Y-89000000D02*
X110550000Y-88650000D01*
X104032500Y-77800000D02*
X102900000Y-77800000D01*
X133953022Y-87630570D02*
X133950000Y-87627548D01*
D51*
X126282275Y-74450000D02*
X129531472Y-74450000D01*
D50*
X93650000Y-101400000D02*
X92350000Y-101400000D01*
X111400000Y-73932500D02*
X111400000Y-73000000D01*
X124500000Y-85421435D02*
X124500000Y-85400000D01*
D52*
X91900000Y-82600000D02*
X91900000Y-80873800D01*
D50*
X112400000Y-73932500D02*
X112400000Y-73000000D01*
X113517500Y-87782500D02*
X113500000Y-87800000D01*
D51*
X88837500Y-82937500D02*
X88800000Y-82900000D01*
D50*
X112387500Y-93300000D02*
X112387500Y-94237500D01*
X117975000Y-104525000D02*
X117400000Y-105100000D01*
D52*
X92537500Y-85362500D02*
X92500000Y-85400000D01*
D50*
X105762500Y-98037500D02*
X105800000Y-98000000D01*
X117975000Y-103962500D02*
X117975000Y-104525000D01*
X133950000Y-89700000D02*
X133950000Y-87633592D01*
X134200000Y-104062500D02*
X134200000Y-105400000D01*
X97475000Y-104925000D02*
X97000000Y-105400000D01*
X95200000Y-102312500D02*
X95200000Y-103500000D01*
X119627500Y-81600000D02*
X120560000Y-81600000D01*
X97475000Y-103962500D02*
X97475000Y-104925000D01*
X108437500Y-93300000D02*
X108437500Y-94162500D01*
D52*
X92537500Y-84100000D02*
X92537500Y-85362500D01*
X91900000Y-76600000D02*
X91900000Y-80873800D01*
D50*
X110200000Y-89800000D02*
X110200000Y-89000000D01*
X105000000Y-67900000D02*
X104600000Y-68300000D01*
X112387500Y-94237500D02*
X112400000Y-94250000D01*
X125300000Y-98037500D02*
X125300000Y-97000000D01*
D51*
X110960000Y-62740000D02*
X110960000Y-63409950D01*
X106700000Y-61137500D02*
X106700000Y-60100000D01*
X99850000Y-59250000D02*
X99900000Y-59300000D01*
X88837500Y-84100000D02*
X88837500Y-82937500D01*
X126269401Y-74450000D02*
X126275838Y-74456437D01*
X117360000Y-62740000D02*
X117360000Y-63319002D01*
D50*
X100700000Y-74500000D02*
X100700000Y-74700000D01*
D51*
X124760000Y-74450000D02*
X126269401Y-74450000D01*
D52*
X92537500Y-83237500D02*
X91900000Y-82600000D01*
D50*
X104800000Y-104700000D02*
X105400000Y-105300000D01*
D52*
X91900000Y-74600000D02*
X91900000Y-76600000D01*
D50*
X113517500Y-87100000D02*
X113517500Y-87782500D01*
X112400000Y-91500000D02*
X112400000Y-93287500D01*
X110700000Y-84037500D02*
X110700000Y-83500000D01*
D51*
X129533058Y-74450000D02*
X131060000Y-74450000D01*
D50*
X104032500Y-82300000D02*
X103500000Y-82300000D01*
X96500000Y-68100000D02*
X96700000Y-67900000D01*
D51*
X126275838Y-74456437D02*
X126282275Y-74450000D01*
X106700000Y-64500000D02*
X106700000Y-62862500D01*
D52*
X94262500Y-83362500D02*
X93170000Y-82270000D01*
D50*
X111900000Y-84037500D02*
X111900000Y-83505025D01*
X106900000Y-78000000D02*
X106700000Y-77800000D01*
X94562500Y-100587500D02*
X95200000Y-100587500D01*
X105167500Y-77700000D02*
X106600000Y-77700000D01*
X105800000Y-82300000D02*
X106200000Y-81900000D01*
X117500000Y-76300000D02*
X116800000Y-76300000D01*
X95200000Y-100587500D02*
X95200000Y-99450000D01*
X106600000Y-77700000D02*
X106700000Y-77800000D01*
X118492500Y-81600000D02*
X117460000Y-81600000D01*
X92687500Y-88187500D02*
X92700000Y-88200000D01*
D51*
X107962500Y-67900000D02*
X107962500Y-65762500D01*
D50*
X112300000Y-78200000D02*
X112800000Y-78200000D01*
X111900000Y-84037500D02*
X111900000Y-85950000D01*
X132075000Y-99375000D02*
X132100000Y-99400000D01*
X107900000Y-69795000D02*
X107900000Y-67962500D01*
X118500000Y-74762500D02*
X118500000Y-75900000D01*
X106500000Y-81600000D02*
X108262500Y-81600000D01*
D51*
X105450000Y-62550000D02*
X105762500Y-62862500D01*
D50*
X116600000Y-76500000D02*
X116600000Y-77162500D01*
X113900000Y-77162500D02*
X114300000Y-77162500D01*
X106500000Y-81600000D02*
X106200000Y-81900000D01*
X111900000Y-76300000D02*
X112400000Y-75800000D01*
X103200000Y-69800000D02*
X106200000Y-69800000D01*
X94250000Y-100900000D02*
X94562500Y-100587500D01*
X115062500Y-77162500D02*
X116600000Y-77200000D01*
X116600000Y-77162500D02*
X118445000Y-77162500D01*
X108262500Y-78000000D02*
X109050000Y-78000000D01*
D52*
X93170000Y-79030000D02*
X93700000Y-78500000D01*
D50*
X115062500Y-77162500D02*
X115100000Y-77200000D01*
X118100000Y-76300000D02*
X117500000Y-76300000D01*
X125300000Y-99762500D02*
X123362500Y-99762500D01*
D52*
X93700000Y-78500000D02*
X94500000Y-77700000D01*
D50*
X107900000Y-67962500D02*
X107962500Y-67900000D01*
X112300000Y-77162500D02*
X111900000Y-77162500D01*
X107900000Y-69795000D02*
X106205000Y-69795000D01*
X102862500Y-99762500D02*
X102700000Y-99600000D01*
X114300000Y-77162500D02*
X115062500Y-77162500D01*
D51*
X103650000Y-62550000D02*
X105450000Y-62550000D01*
D50*
X111900000Y-85950000D02*
X112382500Y-86432500D01*
X111344975Y-82950000D02*
X111300000Y-82950000D01*
X123175000Y-99575000D02*
X123200000Y-99600000D01*
D52*
X93170000Y-82270000D02*
X93170000Y-80873800D01*
D50*
X92687500Y-87000000D02*
X92687500Y-88187500D01*
X132075000Y-98137500D02*
X132075000Y-99375000D01*
X116600000Y-77200000D02*
X116600000Y-77162500D01*
D51*
X105762500Y-62862500D02*
X106700000Y-62862500D01*
D50*
X122735000Y-89420000D02*
X123000000Y-89685000D01*
X131452500Y-68100000D02*
X132500000Y-68100000D01*
X111900000Y-77800000D02*
X112300000Y-78200000D01*
X102675000Y-98237500D02*
X102675000Y-99575000D01*
D52*
X94262500Y-84100000D02*
X94262500Y-83362500D01*
D50*
X115137500Y-77237500D02*
X115137500Y-78000000D01*
X111900000Y-83505025D02*
X111344975Y-82950000D01*
X123000000Y-89685000D02*
X123000000Y-91800000D01*
X116800000Y-76300000D02*
X116600000Y-76500000D01*
X93650000Y-100900000D02*
X94250000Y-100900000D01*
X111900000Y-77162500D02*
X111900000Y-76300000D01*
X115100000Y-77200000D02*
X115137500Y-77237500D01*
X111900000Y-77162500D02*
X111900000Y-77800000D01*
X102512500Y-67900000D02*
X102512500Y-69112500D01*
X108262500Y-78000000D02*
X106900000Y-78000000D01*
X102675000Y-99575000D02*
X102700000Y-99600000D01*
X106205000Y-69795000D02*
X106200000Y-69800000D01*
X104800000Y-99762500D02*
X102862500Y-99762500D01*
X105167500Y-82300000D02*
X105800000Y-82300000D01*
X109050000Y-78000000D02*
X109475000Y-78425000D01*
X134200000Y-99662500D02*
X132362500Y-99662500D01*
X115137500Y-81600000D02*
X117460000Y-81600000D01*
X123362500Y-99762500D02*
X123200000Y-99600000D01*
X112382500Y-86432500D02*
X112382500Y-87100000D01*
X118445000Y-77162500D02*
X118482500Y-77200000D01*
D51*
X107962500Y-65762500D02*
X106700000Y-64500000D01*
D50*
X112400000Y-75800000D02*
X112400000Y-75067500D01*
X102512500Y-69112500D02*
X103200000Y-69800000D01*
X123175000Y-98237500D02*
X123175000Y-99575000D01*
D52*
X93170000Y-80873800D02*
X93170000Y-79030000D01*
D50*
X132362500Y-99662500D02*
X132100000Y-99400000D01*
X118500000Y-75900000D02*
X118100000Y-76300000D01*
X121175000Y-89710000D02*
X121175000Y-92275000D01*
X113100000Y-84037500D02*
X113100000Y-84713508D01*
X121175000Y-92275000D02*
X120800000Y-92650000D01*
X121465000Y-89420000D02*
X121175000Y-89710000D01*
X113100000Y-84713508D02*
X113543466Y-85156974D01*
X122735000Y-88150000D02*
X123685000Y-89100000D01*
X129627500Y-68100000D02*
X128400000Y-68100000D01*
X133200000Y-71600000D02*
X132250000Y-70650000D01*
X132300000Y-78500000D02*
X133200000Y-77600000D01*
X126800000Y-78500000D02*
X132300000Y-78500000D01*
X132250000Y-70650000D02*
X131060000Y-70650000D01*
D51*
X124760000Y-70650000D02*
X127900000Y-70650000D01*
D50*
X113500000Y-84037500D02*
X113500000Y-83300000D01*
X133200000Y-77600000D02*
X133200000Y-71600000D01*
X123685000Y-89100000D02*
X126000000Y-89100000D01*
X113500000Y-83300000D02*
X113850000Y-82950000D01*
X128400000Y-68100000D02*
X127900000Y-68600000D01*
X127900000Y-68600000D02*
X127900000Y-70650000D01*
D51*
X127900000Y-70650000D02*
X131060000Y-70650000D01*
D50*
X113116186Y-85800500D02*
X114200000Y-85800500D01*
X121465000Y-88150000D02*
X120509714Y-89105286D01*
X117844714Y-89105286D02*
X120509714Y-89105286D01*
X112700000Y-84037500D02*
X112700000Y-85384314D01*
X112700000Y-85384314D02*
X113116186Y-85800500D01*
X135812500Y-85600000D02*
X135812500Y-82900000D01*
X135850000Y-89700000D02*
X135850000Y-85637500D01*
X122600000Y-68100000D02*
X121700000Y-69000000D01*
X116017359Y-78800000D02*
X116227360Y-78590000D01*
X121700000Y-69000000D02*
X121700000Y-77590000D01*
X115137500Y-78800000D02*
X116017359Y-78800000D01*
X121700000Y-77590000D02*
X120700000Y-78590000D01*
X116227360Y-78590000D02*
X120700000Y-78590000D01*
X124387500Y-68100000D02*
X122600000Y-68100000D01*
X132016962Y-109283715D02*
X132016962Y-108183038D01*
X132016962Y-108183038D02*
X132800000Y-107400000D01*
X136000000Y-106400000D02*
X136000000Y-95700000D01*
X134900000Y-94600000D02*
X134900000Y-92700000D01*
X132800000Y-107400000D02*
X135000000Y-107400000D01*
X136000000Y-95700000D02*
X134900000Y-94600000D01*
X135000000Y-107400000D02*
X136000000Y-106400000D01*
X104800000Y-102037500D02*
X103362500Y-102037500D01*
X102675000Y-103962500D02*
X102675000Y-102725000D01*
X132262500Y-102337500D02*
X132100000Y-102500000D01*
X123175000Y-103962500D02*
X123175000Y-102525000D01*
X123562500Y-102137500D02*
X123200000Y-102500000D01*
X90550000Y-101400000D02*
X88266962Y-101400000D01*
D53*
X88266962Y-106596651D02*
X88265112Y-106594801D01*
D50*
X134200000Y-102337500D02*
X132262500Y-102337500D01*
X132075000Y-102525000D02*
X132100000Y-102500000D01*
D53*
X88266962Y-105657818D02*
X88266962Y-101400000D01*
X88272528Y-105663384D02*
X88266962Y-105657818D01*
X88266962Y-106592951D02*
X88266962Y-105668950D01*
X88266962Y-101400000D02*
X88266962Y-87466962D01*
X88266962Y-109283715D02*
X88266962Y-106596651D01*
D50*
X132075000Y-103862500D02*
X132075000Y-102525000D01*
D53*
X88265112Y-106594801D02*
X88266962Y-106592951D01*
D50*
X123175000Y-102525000D02*
X123200000Y-102500000D01*
D53*
X88266962Y-87466962D02*
X88100000Y-87300000D01*
X88266962Y-105668950D02*
X88272528Y-105663384D01*
D50*
X102675000Y-102725000D02*
X102700000Y-102700000D01*
X103362500Y-102037500D02*
X102700000Y-102700000D01*
X125300000Y-102137500D02*
X123562500Y-102137500D01*
D52*
X88200000Y-71400000D02*
X88200000Y-76500000D01*
X88200000Y-76500000D02*
X88250000Y-76550000D01*
D53*
X90900000Y-85900000D02*
X90562500Y-85562500D01*
D50*
X89360000Y-80873800D02*
X90630000Y-80873800D01*
D52*
X90630000Y-80873800D02*
X90630000Y-84032500D01*
X90630000Y-80873800D02*
X90630000Y-78930000D01*
X90630000Y-78930000D02*
X88250000Y-76550000D01*
D53*
X90562500Y-85562500D02*
X90562500Y-84100000D01*
X90900000Y-87300000D02*
X90900000Y-85900000D01*
D52*
X90630000Y-84032500D02*
X90562500Y-84100000D01*
D51*
X111760000Y-63809950D02*
X111705474Y-63864476D01*
X116560000Y-62740000D02*
X116560000Y-63819002D01*
X116560000Y-63819002D02*
X116605474Y-63864476D01*
X111760000Y-62740000D02*
X111760000Y-63809950D01*
D52*
X91000000Y-71400000D02*
X91000000Y-69300000D01*
D50*
X109100000Y-77162500D02*
X107962500Y-77162500D01*
X98805000Y-69795000D02*
X98400000Y-70200000D01*
X107962500Y-77162500D02*
X107400000Y-76600000D01*
X98400000Y-76100000D02*
X98900000Y-76600000D01*
X98350000Y-70650000D02*
X98400000Y-70700000D01*
X107400000Y-76600000D02*
X98900000Y-76600000D01*
X96500000Y-70650000D02*
X98350000Y-70650000D01*
X100700000Y-69795000D02*
X100700000Y-67912500D01*
X100700000Y-67912500D02*
X100687500Y-67900000D01*
X100700000Y-69795000D02*
X98805000Y-69795000D01*
X98400000Y-70700000D02*
X98400000Y-76100000D01*
X98400000Y-70200000D02*
X98400000Y-70700000D01*
X99335000Y-71065000D02*
X100700000Y-71065000D01*
X99750000Y-75650000D02*
X99100000Y-75000000D01*
X99100000Y-71300000D02*
X99335000Y-71065000D01*
X99100000Y-75000000D02*
X99100000Y-71300000D01*
X102850000Y-75650000D02*
X99750000Y-75650000D01*
X109500000Y-76630025D02*
X109069975Y-76200000D01*
X109500000Y-77162500D02*
X109500000Y-76630025D01*
X103400000Y-76200000D02*
X102850000Y-75650000D01*
X109069975Y-76200000D02*
X103400000Y-76200000D01*
X109900000Y-76400000D02*
X109300000Y-75800000D01*
X100700000Y-72335000D02*
X101935000Y-72335000D01*
X103100000Y-75000000D02*
X103900000Y-75800000D01*
X109900000Y-77162500D02*
X109900000Y-76400000D01*
X103100000Y-73500000D02*
X103100000Y-75000000D01*
X101935000Y-72335000D02*
X103100000Y-73500000D01*
X109300000Y-75800000D02*
X103900000Y-75800000D01*
X107900000Y-74700000D02*
X107900000Y-73605000D01*
X109165686Y-75100000D02*
X110300000Y-76234314D01*
X110300000Y-77162500D02*
X110300000Y-76234314D01*
X109165686Y-75100000D02*
X108300000Y-75100000D01*
X108300000Y-75100000D02*
X107900000Y-74700000D01*
X107900000Y-72335000D02*
X109335000Y-72335000D01*
X110700000Y-77162500D02*
X110700000Y-76068628D01*
X109631372Y-72631372D02*
X109631372Y-75000000D01*
X110700000Y-76068628D02*
X109631372Y-75000000D01*
X109335000Y-72335000D02*
X109631372Y-72631372D01*
X109765000Y-71065000D02*
X107900000Y-71065000D01*
X111100000Y-77162500D02*
X111100000Y-75902942D01*
X110400000Y-71700000D02*
X109765000Y-71065000D01*
X111100000Y-75902942D02*
X110400000Y-75202942D01*
X110400000Y-75202942D02*
X110400000Y-71700000D01*
X115137500Y-83200000D02*
X115437500Y-83500000D01*
X127525000Y-98137500D02*
X127525000Y-84000000D01*
X115437500Y-83500000D02*
X127025000Y-83500000D01*
X127025000Y-83500000D02*
X127525000Y-84000000D01*
X127675000Y-83100000D02*
X128175000Y-83600000D01*
X128175000Y-98137500D02*
X128175000Y-83600000D01*
X116320100Y-82800000D02*
X116620101Y-83100000D01*
X115137500Y-82800000D02*
X116320100Y-82800000D01*
X116620101Y-83100000D02*
X127675000Y-83100000D01*
X128225000Y-82700000D02*
X128825000Y-83300000D01*
X116785786Y-82700000D02*
X128225000Y-82700000D01*
X116485785Y-82400000D02*
X116785786Y-82700000D01*
X128825000Y-98137500D02*
X128825000Y-83300000D01*
X115137500Y-82400000D02*
X116485785Y-82400000D01*
X128875000Y-82300000D02*
X129475000Y-82900000D01*
X115137500Y-82000000D02*
X116651471Y-82000000D01*
X116651471Y-82000000D02*
X116951471Y-82300000D01*
X129475000Y-98137500D02*
X129475000Y-82900000D01*
X116951471Y-82300000D02*
X128875000Y-82300000D01*
X115137500Y-81200000D02*
X117011471Y-81200000D01*
X130125000Y-82225000D02*
X130125000Y-98137500D01*
X117011471Y-81200000D02*
X117221471Y-80990000D01*
X117221471Y-80990000D02*
X128890000Y-80990000D01*
X128890000Y-80990000D02*
X130125000Y-82225000D01*
X117055786Y-80590000D02*
X129290000Y-80590000D01*
X116845785Y-80800000D02*
X117055786Y-80590000D01*
X115137500Y-80800000D02*
X116845785Y-80800000D01*
X129290000Y-80590000D02*
X130775000Y-82075000D01*
X130775000Y-82075000D02*
X130775000Y-98137500D01*
X131425000Y-81825000D02*
X131425000Y-98137500D01*
X116890101Y-80190000D02*
X129790000Y-80190000D01*
X129790000Y-80190000D02*
X131425000Y-81825000D01*
X116680101Y-80400000D02*
X116890101Y-80190000D01*
X115137500Y-80400000D02*
X116680101Y-80400000D01*
X116724415Y-79790000D02*
X130190000Y-79790000D01*
X132725000Y-95125000D02*
X132100000Y-94500000D01*
X116514415Y-80000000D02*
X116724415Y-79790000D01*
X130190000Y-79790000D02*
X132100000Y-81700000D01*
X132100000Y-94500000D02*
X132100000Y-81700000D01*
X115137500Y-80000000D02*
X116514415Y-80000000D01*
X132725000Y-98137500D02*
X132725000Y-95125000D01*
X96016962Y-107383038D02*
X98125000Y-105275000D01*
X98125000Y-105275000D02*
X98125000Y-103962500D01*
X96016962Y-109283715D02*
X96016962Y-107383038D01*
X98775000Y-106325000D02*
X98775000Y-103962500D01*
X97516962Y-107583038D02*
X98775000Y-106325000D01*
X97516962Y-109283715D02*
X97516962Y-107583038D01*
X99425000Y-103962500D02*
X99425000Y-107175000D01*
X99016962Y-107583038D02*
X99016962Y-109283715D01*
X99425000Y-107175000D02*
X99016962Y-107583038D01*
X100516962Y-107516962D02*
X100075000Y-107075000D01*
X100516962Y-109283715D02*
X100516962Y-107516962D01*
X100075000Y-107075000D02*
X100075000Y-103962500D01*
X100725000Y-106725000D02*
X100725000Y-103962500D01*
X102016962Y-109283715D02*
X102016962Y-108016962D01*
X102016962Y-108016962D02*
X100725000Y-106725000D01*
X101375000Y-106075000D02*
X101375000Y-103962500D01*
X103516962Y-108216962D02*
X101375000Y-106075000D01*
X103516962Y-109283715D02*
X103516962Y-108216962D01*
X102025000Y-105225000D02*
X102025000Y-105200000D01*
X102025000Y-105200000D02*
X102025000Y-103962500D01*
X105016962Y-108216962D02*
X102025000Y-105225000D01*
X105016962Y-109283715D02*
X105016962Y-108216962D01*
X103325000Y-103962500D02*
X103325000Y-104925000D01*
X106516962Y-108116962D02*
X106516962Y-109283715D01*
X103325000Y-104925000D02*
X106516962Y-108116962D01*
X118100000Y-105700000D02*
X118625000Y-105175000D01*
X108016962Y-109283715D02*
X108016962Y-107283038D01*
X108016962Y-107283038D02*
X109600000Y-105700000D01*
X118625000Y-105175000D02*
X118625000Y-103962500D01*
X109600000Y-105700000D02*
X118100000Y-105700000D01*
X109516962Y-106983038D02*
X110200000Y-106300000D01*
X118700000Y-106300000D02*
X119275000Y-105725000D01*
X109516962Y-109283715D02*
X109516962Y-106983038D01*
X110200000Y-106300000D02*
X118700000Y-106300000D01*
X119275000Y-105725000D02*
X119275000Y-103962500D01*
X111016962Y-107583038D02*
X111500000Y-107100000D01*
X119925000Y-106275000D02*
X119925000Y-103962500D01*
X111016962Y-109283715D02*
X111016962Y-107583038D01*
X119100000Y-107100000D02*
X119925000Y-106275000D01*
X111500000Y-107100000D02*
X119100000Y-107100000D01*
X120575000Y-107225000D02*
X120575000Y-103962500D01*
X113000000Y-107800000D02*
X120000000Y-107800000D01*
X112516962Y-108283038D02*
X113000000Y-107800000D01*
X112516962Y-109283715D02*
X112516962Y-108283038D01*
X120000000Y-107800000D02*
X120575000Y-107225000D01*
X121225000Y-105349500D02*
X121174500Y-105400000D01*
X121225000Y-103962500D02*
X121225000Y-105349500D01*
X121875000Y-105725000D02*
X121200000Y-106400000D01*
X121875000Y-103962500D02*
X121875000Y-105725000D01*
X122525000Y-105375000D02*
X122500000Y-105400000D01*
X122525000Y-103962500D02*
X122525000Y-105375000D01*
X123825000Y-105375000D02*
X123800000Y-105400000D01*
X123825000Y-103962500D02*
X123825000Y-105375000D01*
X126600000Y-106300000D02*
X122500000Y-106300000D01*
X127525000Y-105375000D02*
X126600000Y-106300000D01*
X127525000Y-103862500D02*
X127525000Y-105375000D01*
X120016962Y-109283715D02*
X120016962Y-108783038D01*
X120016962Y-108783038D02*
X122500000Y-106300000D01*
X121516962Y-109283715D02*
X121516962Y-108883038D01*
X128175000Y-106425000D02*
X128175000Y-103862500D01*
X123300000Y-107100000D02*
X127500000Y-107100000D01*
X121516962Y-108883038D02*
X123300000Y-107100000D01*
X127500000Y-107100000D02*
X128175000Y-106425000D01*
X123016962Y-108783038D02*
X124000000Y-107800000D01*
X123016962Y-109283715D02*
X123016962Y-108783038D01*
X124000000Y-107800000D02*
X128100000Y-107800000D01*
X128825000Y-107075000D02*
X128100000Y-107800000D01*
X128825000Y-103862500D02*
X128825000Y-107075000D01*
X129475000Y-105349500D02*
X129424500Y-105400000D01*
X129475000Y-103862500D02*
X129475000Y-105349500D01*
X129904610Y-106039295D02*
X130125000Y-105818905D01*
X130125000Y-105818905D02*
X130125000Y-103862500D01*
X130775000Y-105349500D02*
X130724500Y-105400000D01*
X130775000Y-103862500D02*
X130775000Y-105349500D01*
X129016962Y-109283715D02*
X129016962Y-108283038D01*
X129500000Y-107800000D02*
X130600000Y-107800000D01*
X129016962Y-108283038D02*
X129500000Y-107800000D01*
X131425000Y-106975000D02*
X131425000Y-103862500D01*
X130600000Y-107800000D02*
X131425000Y-106975000D01*
X132725000Y-103862500D02*
X132725000Y-105375000D01*
X132725000Y-105375000D02*
X132700000Y-105400000D01*
X118625000Y-97225000D02*
X118300000Y-96900000D01*
X104971574Y-96900000D02*
X103900000Y-95828426D01*
X103900000Y-95828426D02*
X103900000Y-84800000D01*
X106079899Y-84000000D02*
X107279901Y-82800000D01*
X106079899Y-84000000D02*
X104700000Y-84000000D01*
X107279901Y-82800000D02*
X108262500Y-82800000D01*
X104700000Y-84000000D02*
X103900000Y-84800000D01*
X118625000Y-98237500D02*
X118625000Y-97225000D01*
X118300000Y-96900000D02*
X104971574Y-96900000D01*
X107445586Y-83454414D02*
X106300000Y-84600000D01*
X119275000Y-96975000D02*
X119275000Y-98237500D01*
X107445586Y-83200000D02*
X107445586Y-83454414D01*
X104500000Y-85500000D02*
X104500000Y-95600000D01*
X105400000Y-84600000D02*
X104500000Y-85500000D01*
X108262500Y-83200000D02*
X107445586Y-83200000D01*
X104500000Y-95600000D02*
X105400000Y-96500000D01*
X118800000Y-96500000D02*
X119275000Y-96975000D01*
X105400000Y-96500000D02*
X118800000Y-96500000D01*
X106300000Y-84600000D02*
X105400000Y-84600000D01*
X105100000Y-95400000D02*
X105800000Y-96100000D01*
X119925000Y-96725000D02*
X119925000Y-98237500D01*
X105800000Y-85500000D02*
X105100000Y-86200000D01*
X119300000Y-96100000D02*
X119925000Y-96725000D01*
X108900000Y-85500000D02*
X105800000Y-85500000D01*
X109100000Y-84037500D02*
X109100000Y-85300000D01*
X105100000Y-86200000D02*
X105100000Y-95400000D01*
X109100000Y-85300000D02*
X108900000Y-85500000D01*
X105800000Y-96100000D02*
X119300000Y-96100000D01*
X106300000Y-85900000D02*
X105700000Y-86500000D01*
X106300000Y-95700000D02*
X120000000Y-95700000D01*
X120000000Y-95700000D02*
X120575000Y-96275000D01*
X120575000Y-96275000D02*
X120575000Y-98237500D01*
X109331372Y-85634314D02*
X109065686Y-85900000D01*
X105750000Y-95150000D02*
X106300000Y-95700000D01*
X105700000Y-95100000D02*
X105750000Y-95150000D01*
X109500000Y-85468628D02*
X109334314Y-85634314D01*
X109065686Y-85900000D02*
X106300000Y-85900000D01*
X109500000Y-84037500D02*
X109500000Y-85468628D01*
X109334314Y-85634314D02*
X109331372Y-85634314D01*
X105700000Y-86500000D02*
X105700000Y-95100000D01*
X106300000Y-86800000D02*
X106800000Y-86300000D01*
X106900000Y-95300000D02*
X106300000Y-94700000D01*
X121225000Y-98237500D02*
X121225000Y-95925000D01*
X120600000Y-95300000D02*
X106900000Y-95300000D01*
X106300000Y-94700000D02*
X106300000Y-86800000D01*
X109234314Y-86300000D02*
X109900000Y-85634314D01*
X106800000Y-86300000D02*
X109234314Y-86300000D01*
X121225000Y-95925000D02*
X120600000Y-95300000D01*
X109900000Y-85634314D02*
X109900000Y-84037500D01*
X109399999Y-86700000D02*
X107400000Y-86700000D01*
X110300000Y-84037500D02*
X110300000Y-85800000D01*
X110300000Y-85800000D02*
X109399999Y-86700000D01*
X106900000Y-94200000D02*
X107600000Y-94900000D01*
X106900000Y-87200000D02*
X106900000Y-94200000D01*
X107600000Y-94900000D02*
X121200000Y-94900000D01*
X107400000Y-86700000D02*
X106900000Y-87200000D01*
X121875000Y-95575000D02*
X121875000Y-98237500D01*
X121200000Y-94900000D02*
X121875000Y-95575000D01*
X115057843Y-85200000D02*
X116550000Y-85200000D01*
X114522182Y-85192157D02*
X115050000Y-85192157D01*
X116550000Y-85200000D02*
X116850000Y-85500000D01*
X122525000Y-98237500D02*
X122525000Y-95225000D01*
X122525000Y-95225000D02*
X121800000Y-94500000D01*
X113900000Y-84037500D02*
X113900000Y-84569975D01*
X117250000Y-94500000D02*
X116850000Y-94100000D01*
X115050000Y-85192157D02*
X115057843Y-85200000D01*
X121800000Y-94500000D02*
X117250000Y-94500000D01*
X116850000Y-85500000D02*
X116850000Y-94000000D01*
X113900000Y-84569975D02*
X113900000Y-84665686D01*
X116850000Y-94000000D02*
X116850000Y-94100000D01*
X113900000Y-84665686D02*
X114426471Y-85192157D01*
X103200000Y-97000000D02*
X103200000Y-84500000D01*
X103325000Y-98237500D02*
X103325000Y-97125000D01*
X104100000Y-83600000D02*
X105914214Y-83600000D01*
X103200000Y-84500000D02*
X104100000Y-83600000D01*
X105914214Y-83600000D02*
X107114215Y-82400000D01*
X107114215Y-82400000D02*
X108262500Y-82400000D01*
X103325000Y-97125000D02*
X103200000Y-97000000D01*
X98125000Y-83865198D02*
X102790198Y-79200000D01*
X98125000Y-98237500D02*
X98125000Y-83865198D01*
X102790198Y-79200000D02*
X108262500Y-79200000D01*
X102955884Y-79600000D02*
X98775000Y-83780884D01*
X98775000Y-83780884D02*
X98775000Y-98237500D01*
X108262500Y-79600000D02*
X102955884Y-79600000D01*
X103121570Y-80000000D02*
X108262500Y-80000000D01*
X99425000Y-98237500D02*
X99425000Y-83696570D01*
X99425000Y-83696570D02*
X103121570Y-80000000D01*
X100075000Y-83612256D02*
X103287256Y-80400000D01*
X100075000Y-98237500D02*
X100075000Y-83612256D01*
X103287256Y-80400000D02*
X108262500Y-80400000D01*
X103452942Y-80800000D02*
X108262500Y-80800000D01*
X100725000Y-98237500D02*
X100725000Y-83527942D01*
X100725000Y-83527942D02*
X103452942Y-80800000D01*
X101375000Y-83443628D02*
X103618628Y-81200000D01*
X101375000Y-98237500D02*
X101375000Y-83443628D01*
X103618628Y-81200000D02*
X108262500Y-81200000D01*
X102025000Y-98237500D02*
X102025000Y-84718628D01*
X103543628Y-83200000D02*
X105748529Y-83200000D01*
X106948529Y-82000000D02*
X108262500Y-82000000D01*
X102025000Y-84718628D02*
X103543628Y-83200000D01*
X105748529Y-83200000D02*
X106948529Y-82000000D01*
X117000000Y-75100000D02*
X116100000Y-76000000D01*
X113150000Y-86400000D02*
X114550000Y-86400000D01*
X113500000Y-76500000D02*
X114000000Y-76000000D01*
X112300000Y-83200000D02*
X112600000Y-82900000D01*
X112300000Y-84037500D02*
X112300000Y-85550000D01*
X111500000Y-75167500D02*
X111400000Y-75067500D01*
X111500000Y-77162500D02*
X111500000Y-78300000D01*
X113700000Y-78100000D02*
X113700000Y-78500000D01*
X113500000Y-77162500D02*
X113500000Y-76500000D01*
X113500000Y-77900000D02*
X113700000Y-78100000D01*
X111500000Y-77162500D02*
X111500000Y-75167500D01*
X114000000Y-76000000D02*
X116100000Y-76000000D01*
X113500000Y-77162500D02*
X113500000Y-77900000D01*
X114832500Y-86682500D02*
X114832500Y-87100000D01*
X112300000Y-85550000D02*
X113150000Y-86400000D01*
X114550000Y-86400000D02*
X114832500Y-86682500D01*
X112600000Y-82900000D02*
X113000000Y-82900000D01*
X112300000Y-84037500D02*
X112300000Y-83200000D01*
X117000000Y-74762500D02*
X117000000Y-75100000D01*
X117750000Y-94100000D02*
X117250000Y-93600000D01*
X114300000Y-84500000D02*
X114592157Y-84792157D01*
X114300000Y-84037500D02*
X114300000Y-84500000D01*
X116707842Y-84792157D02*
X117250000Y-85334315D01*
X123825000Y-98237500D02*
X123825000Y-94625000D01*
X117250000Y-85334315D02*
X117250000Y-93600000D01*
X114592157Y-84792157D02*
X116707842Y-84792157D01*
X123300000Y-94100000D02*
X117750000Y-94100000D01*
X123825000Y-94625000D02*
X123300000Y-94100000D01*
X116558730Y-79390000D02*
X130890000Y-79390000D01*
X116348729Y-79600000D02*
X116558730Y-79390000D01*
X115137500Y-79600000D02*
X116348729Y-79600000D01*
X133987500Y-82487500D02*
X133987500Y-82900000D01*
X130890000Y-79390000D02*
X133987500Y-82487500D01*
X96400000Y-92400000D02*
X91350000Y-92400000D01*
X96900000Y-91900000D02*
X96400000Y-92400000D01*
X96900000Y-83958826D02*
X96900000Y-91900000D01*
X102458826Y-78400000D02*
X96900000Y-83958826D01*
X90550000Y-100400000D02*
X90550000Y-93200000D01*
X108262500Y-78400000D02*
X102458826Y-78400000D01*
X91350000Y-92400000D02*
X90550000Y-93200000D01*
X97500000Y-92600000D02*
X96900000Y-93200000D01*
X93650000Y-100400000D02*
X93650000Y-94400000D01*
X102624512Y-78800000D02*
X97500000Y-83924512D01*
X96900000Y-93200000D02*
X94850000Y-93200000D01*
X108262500Y-78800000D02*
X102624512Y-78800000D01*
X97500000Y-83924512D02*
X97500000Y-92600000D01*
X94850000Y-93200000D02*
X93650000Y-94400000D01*
X90016962Y-107483038D02*
X91800000Y-105700000D01*
X91800000Y-105700000D02*
X91800000Y-102300000D01*
X90016962Y-109283715D02*
X90016962Y-107483038D01*
X91400000Y-101900000D02*
X90550000Y-101900000D01*
X91800000Y-102300000D02*
X91400000Y-101900000D01*
X93650000Y-102950000D02*
X93650000Y-101900000D01*
X93016962Y-103583038D02*
X93650000Y-102950000D01*
X93016962Y-109283715D02*
X93016962Y-103583038D01*
X108500000Y-91300000D02*
X108700000Y-91500000D01*
X108500000Y-88450000D02*
X108500000Y-91300000D01*
X108750000Y-88200000D02*
X108500000Y-88450000D01*
X111100000Y-84037500D02*
X111100000Y-87600000D01*
X110500000Y-88200000D02*
X108750000Y-88200000D01*
X110200000Y-93262500D02*
X110162500Y-93300000D01*
X110200000Y-91500000D02*
X110200000Y-93262500D01*
X111100000Y-87600000D02*
X110500000Y-88200000D01*
X108700000Y-91500000D02*
X110200000Y-91500000D01*
X112800000Y-89800000D02*
X112400000Y-89800000D01*
X114112500Y-92637500D02*
X114112500Y-93300000D01*
X114300000Y-91300000D02*
X112800000Y-89800000D01*
X114300000Y-92450000D02*
X114112500Y-92637500D01*
X114300000Y-91562500D02*
X114300000Y-92450000D01*
X114300000Y-91562500D02*
X114300000Y-91300000D01*
X126212500Y-66912500D02*
X126212500Y-68100000D01*
X125345000Y-61375000D02*
X125345000Y-66045000D01*
X125345000Y-66045000D02*
X126212500Y-66912500D01*
X113800000Y-74965686D02*
X112700000Y-76065686D01*
X112700000Y-76065686D02*
X112700000Y-77162500D01*
X113800000Y-74612500D02*
X113800000Y-74965686D01*
X115300000Y-75600000D02*
X115500000Y-75400000D01*
X113800000Y-75600000D02*
X115300000Y-75600000D01*
X115500000Y-75400000D02*
X115500000Y-74812500D01*
X113100000Y-77162500D02*
X113100000Y-76300000D01*
X113100000Y-76300000D02*
X113800000Y-75600000D01*
X111500000Y-84037500D02*
X111500000Y-87600000D01*
X114300000Y-88700000D02*
X114300000Y-89737500D01*
X111500000Y-87600000D02*
X112400000Y-88500000D01*
X114100000Y-88500000D02*
X114300000Y-88700000D01*
X112400000Y-88500000D02*
X114100000Y-88500000D01*
X95700000Y-83500000D02*
X94440000Y-82240000D01*
X95700000Y-86700000D02*
X95700000Y-83500000D01*
X89700000Y-100900000D02*
X89400000Y-100600000D01*
X89400000Y-100600000D02*
X89400000Y-93200000D01*
X118000000Y-99500000D02*
X118000000Y-100700000D01*
X118300000Y-101000000D02*
X118000000Y-100700000D01*
X117975000Y-99475000D02*
X118000000Y-99500000D01*
X94500000Y-91500000D02*
X95800000Y-91500000D01*
X94440000Y-82240000D02*
X94440000Y-80873800D01*
X95400000Y-87000000D02*
X95700000Y-86700000D01*
X117975000Y-98237500D02*
X117975000Y-99475000D01*
X126875000Y-100625000D02*
X126500000Y-101000000D01*
X94512500Y-87000000D02*
X94500000Y-87012500D01*
X89400000Y-93200000D02*
X91100000Y-91500000D01*
X90550000Y-100900000D02*
X89700000Y-100900000D01*
X94500000Y-87012500D02*
X94500000Y-91500000D01*
X91100000Y-91500000D02*
X94500000Y-91500000D01*
X97475000Y-98237500D02*
X97475000Y-93625000D01*
X94512500Y-87000000D02*
X95400000Y-87000000D01*
X126875000Y-98137500D02*
X126875000Y-100625000D01*
X97475000Y-93625000D02*
X97500000Y-93600000D01*
X126500000Y-101000000D02*
X118300000Y-101000000D01*
X116183045Y-79200000D02*
X116393045Y-78990000D01*
X115137500Y-79200000D02*
X116183045Y-79200000D01*
X98750000Y-65950000D02*
X98750000Y-62550000D01*
X122000000Y-78990000D02*
X122800000Y-78190000D01*
X116393045Y-78990000D02*
X122000000Y-78990000D01*
X98800000Y-66000000D02*
X98750000Y-65950000D01*
X122800000Y-78190000D02*
X122800000Y-72400000D01*
X113910000Y-61759950D02*
X113910000Y-62740000D01*
X114105474Y-61564476D02*
X113910000Y-61759950D01*
D54*
X114992000Y-72279500D02*
X114992000Y-64530002D01*
D50*
X114705474Y-61564476D02*
X114105474Y-61564476D01*
X114910000Y-62740000D02*
X114910000Y-61769002D01*
X114910000Y-62740000D02*
X114910000Y-64448002D01*
D54*
X115500000Y-72787500D02*
X114992000Y-72279500D01*
D50*
X114910000Y-64448002D02*
X114992000Y-64530002D01*
X114910000Y-61769002D02*
X114705474Y-61564476D01*
X114410000Y-63764476D02*
X114410000Y-62740000D01*
X114410000Y-64428002D02*
X114308000Y-64530002D01*
X113410000Y-62740000D02*
X113410000Y-63569002D01*
D54*
X113800000Y-72787500D02*
X114308000Y-72279500D01*
X114308000Y-72279500D02*
X114308000Y-64530002D01*
D50*
X113410000Y-63569002D02*
X113605474Y-63764476D01*
X114410000Y-63764476D02*
X114410000Y-64428002D01*
X113605474Y-63764476D02*
X114410000Y-63764476D01*
M02*
