M48
; DRILL file {KiCad (7.0.0)} date Sat Nov 11 15:55:24 2023
; FORMAT={-:-/ absolute / metric / decimal}
; #@! TF.CreationDate,2023-11-11T15:55:24+01:00
; #@! TF.GenerationSoftware,Kicad,Pcbnew,(7.0.0)
; #@! TF.FileFunction,Plated,1,4,PTH
FMAT,2
METRIC
; #@! TA.AperFunction,Plated,PTH,ViaDrill
T1C0.300
; #@! TA.AperFunction,Plated,PTH,ComponentDrill
T2C0.600
; #@! TA.AperFunction,Plated,PTH,ComponentDrill
T3C1.000
%
G90
G05
T1
X85.9Y-56.2
X85.9Y-58.2
X85.9Y-60.2
X85.9Y-62.2
X85.9Y-64.2
X85.9Y-66.2
X85.9Y-68.2
X85.9Y-70.2
X85.9Y-72.2
X85.9Y-74.2
X85.9Y-76.2
X85.9Y-78.2
X85.9Y-80.2
X85.9Y-82.2
X85.9Y-84.2
X85.9Y-86.2
X85.9Y-88.2
X85.9Y-90.2
X85.9Y-92.2
X85.9Y-94.2
X85.9Y-96.2
X85.9Y-98.2
X85.9Y-100.2
X85.9Y-102.2
X85.9Y-104.2
X85.9Y-106.2
X87.9Y-56.2
X88.265Y-106.595
X88.273Y-105.663
X88.8Y-82.9
X89.5Y-102.1
X89.9Y-56.2
X90.0Y-65.4
X91.0Y-68.2
X91.0Y-69.3
X91.9Y-56.2
X91.9Y-76.6
X91.9Y-78.7
X92.1Y-106.5
X92.2Y-94.2
X92.2Y-98.1
X92.2Y-101.55
X92.5Y-85.4
X92.7Y-88.2
X92.7Y-89.3
X93.4Y-77.4
X93.7Y-78.5
X93.7Y-105.4
X93.9Y-56.2
X94.1Y-65.4
X94.5Y-77.7
X94.6Y-106.5
X94.9Y-57.9
X95.2Y-98.4
X95.2Y-99.45
X95.2Y-103.5
X95.3Y-105.4
X95.8Y-90.4
X95.8Y-91.5
X95.9Y-56.2
X96.6Y-94.0
X96.7Y-67.9
X96.8Y-57.9
X96.8Y-65.9
X97.0Y-105.4
X97.5Y-93.6
X97.9Y-56.2
X98.4Y-78.9
X98.8Y-57.9
X98.8Y-66.0
X99.9Y-56.2
X99.9Y-59.3
X100.3Y-65.9
X100.7Y-74.7
X100.8Y-57.9
X101.9Y-56.2
X102.7Y-99.6
X102.7Y-100.9
X102.7Y-102.7
X102.9Y-77.8
X103.0Y-57.9
X103.0Y-82.8
X103.9Y-56.2
X104.5Y-71.7
X104.6Y-68.3
X104.9Y-57.9
X105.4Y-105.3
X105.8Y-98.0
X105.9Y-56.2
X106.2Y-69.8
X106.2Y-81.9
X106.7Y-60.1
X106.7Y-77.8
X106.9Y-57.9
X107.2Y-106.5
X107.5Y-84.7
X107.8Y-90.0
X107.9Y-56.2
X108.4Y-94.2
X109.475Y-78.425
X109.9Y-56.2
X110.2Y-83.0
X110.505Y-63.864
X110.6Y-79.5
X110.6Y-80.7
X110.6Y-81.8
X111.3Y-82.95
X111.35Y-88.65
X111.4Y-73.0
X111.5Y-78.3
X111.7Y-79.5
X111.7Y-80.7
X111.7Y-81.8
X111.705Y-63.864
X111.8Y-71.3
X111.9Y-56.2
X112.4Y-73.0
X112.4Y-94.25
X112.7Y-66.5
X112.8Y-57.7
X112.8Y-68.8
X112.8Y-78.2
X112.8Y-79.5
X112.8Y-80.7
X112.8Y-81.8
X113.0Y-82.9
X113.5Y-87.8
X113.543Y-85.157
X113.7Y-78.5
X113.85Y-82.95
X113.9Y-56.2
X114.2Y-85.8
X114.9Y-57.7
X115.1Y-77.2
X115.7Y-86.0
X115.9Y-56.2
X116.6Y-77.2
X116.605Y-63.864
X116.9Y-66.5
X116.9Y-68.8
X117.0Y-71.6
X117.4Y-105.1
X117.46Y-81.6
X117.5Y-76.3
X117.9Y-56.2
X117.905Y-63.864
X118.0Y-89.1
X118.0Y-99.5
X118.5Y-71.6
X118.7Y-100.0
X119.9Y-56.2
X120.55Y-77.36
X120.56Y-81.6
X120.8Y-92.65
X121.1Y-100.0
X121.174Y-105.4
X121.2Y-106.4
X121.9Y-56.2
X121.9Y-58.1
X122.5Y-105.4
X122.8Y-72.4
X123.0Y-91.8
X123.0Y-92.9
X123.2Y-99.6
X123.2Y-102.5
X123.3Y-81.6
X123.8Y-105.4
X123.9Y-56.2
X123.9Y-72.4
X124.1Y-65.3
X124.5Y-85.4
X124.8Y-76.9
X125.3Y-93.7
X125.3Y-97.0
X125.3Y-105.3
X125.9Y-56.2
X125.9Y-58.1
X126.0Y-89.1
X126.276Y-74.456
X126.6Y-105.3
X126.8Y-78.5
X126.8Y-89.7
X127.5Y-77.9
X127.9Y-56.2
X127.9Y-58.0
X127.9Y-100.9
X129.424Y-105.4
X129.532Y-74.451
X129.9Y-56.2
X129.9Y-58.0
X129.9Y-65.3
X129.905Y-106.039
X130.7Y-76.9
X130.725Y-105.4
X131.3Y-100.9
X131.9Y-56.2
X131.9Y-58.0
X132.0Y-60.9
X132.1Y-99.4
X132.1Y-102.5
X132.5Y-68.1
X132.7Y-105.4
X133.55Y-58.9
X133.953Y-87.631
X134.2Y-96.7
X134.2Y-105.4
X135.0Y-60.9
X135.0Y-63.2
X135.0Y-65.2
X135.0Y-67.6
X135.0Y-69.7
X135.0Y-71.7
X135.0Y-73.7
X135.0Y-75.7
X135.0Y-77.8
X135.0Y-79.7
X135.3Y-100.9
X136.4Y-58.9
X137.7Y-60.2
X137.7Y-62.2
X137.7Y-64.2
X137.7Y-66.2
X137.7Y-68.2
X137.7Y-70.2
X137.7Y-72.2
X137.7Y-74.2
X137.7Y-76.2
X137.7Y-78.2
X137.7Y-80.2
X137.7Y-82.2
X137.7Y-84.2
X137.7Y-86.2
X137.7Y-88.2
X137.7Y-90.2
X137.7Y-92.2
X137.7Y-94.2
X137.7Y-96.2
X137.7Y-98.2
X137.7Y-100.2
X137.7Y-102.2
X137.7Y-104.2
X137.7Y-106.2
T2
X88.267Y-109.284
X90.017Y-109.284
X91.517Y-109.284
X93.017Y-109.284
X94.517Y-109.284
X96.017Y-109.284
X97.517Y-109.284
X99.017Y-109.284
X100.517Y-109.284
X102.017Y-109.284
X103.517Y-109.284
X105.017Y-109.284
X106.517Y-109.284
X108.017Y-109.284
X109.517Y-109.284
X111.017Y-109.284
X112.517Y-109.284
X114.017Y-109.284
X115.517Y-109.284
X117.017Y-109.284
X118.517Y-109.284
X120.017Y-109.284
X121.517Y-109.284
X123.017Y-109.284
X124.517Y-109.284
X126.017Y-109.284
X127.517Y-109.284
X129.017Y-109.284
X130.517Y-109.284
X132.017Y-109.284
X133.517Y-109.284
X135.267Y-109.284
T3
X125.345Y-61.375
X127.885Y-61.375
T2
X109.84Y-58.385G85X109.84Y-57.585
G05
X109.84Y-62.715G85X109.84Y-61.615
G05
X118.48Y-58.385G85X118.48Y-57.585
G05
X118.48Y-62.715G85X118.48Y-61.615
G05
T0
M30
