G04 #@! TF.GenerationSoftware,KiCad,Pcbnew,(7.0.0)*
G04 #@! TF.CreationDate,2023-11-11T15:55:20+01:00*
G04 #@! TF.ProjectId,GameboyCartridgeV1.1,47616d65-626f-4794-9361-727472696467,rev?*
G04 #@! TF.SameCoordinates,Original*
G04 #@! TF.FileFunction,Legend,Top*
G04 #@! TF.FilePolarity,Positive*
%FSLAX46Y46*%
G04 Gerber Fmt 4.6, Leading zero omitted, Abs format (unit mm)*
G04 Created by KiCad (PCBNEW (7.0.0)) date 2023-11-11 15:55:20*
%MOMM*%
%LPD*%
G01*
G04 APERTURE LIST*
G04 Aperture macros list*
%AMRoundRect*
0 Rectangle with rounded corners*
0 $1 Rounding radius*
0 $2 $3 $4 $5 $6 $7 $8 $9 X,Y pos of 4 corners*
0 Add a 4 corners polygon primitive as box body*
4,1,4,$2,$3,$4,$5,$6,$7,$8,$9,$2,$3,0*
0 Add four circle primitives for the rounded corners*
1,1,$1+$1,$2,$3*
1,1,$1+$1,$4,$5*
1,1,$1+$1,$6,$7*
1,1,$1+$1,$8,$9*
0 Add four rect primitives between the rounded corners*
20,1,$1+$1,$2,$3,$4,$5,0*
20,1,$1+$1,$4,$5,$6,$7,0*
20,1,$1+$1,$6,$7,$8,$9,0*
20,1,$1+$1,$8,$9,$2,$3,0*%
%AMFreePoly0*
4,1,19,0.500000,-0.750000,0.000000,-0.750000,0.000000,-0.744911,-0.071157,-0.744911,-0.207708,-0.704816,-0.327430,-0.627875,-0.420627,-0.520320,-0.479746,-0.390866,-0.500000,-0.250000,-0.500000,0.250000,-0.479746,0.390866,-0.420627,0.520320,-0.327430,0.627875,-0.207708,0.704816,-0.071157,0.744911,0.000000,0.744911,0.000000,0.750000,0.500000,0.750000,0.500000,-0.750000,0.500000,-0.750000,
$1*%
%AMFreePoly1*
4,1,19,0.000000,0.744911,0.071157,0.744911,0.207708,0.704816,0.327430,0.627875,0.420627,0.520320,0.479746,0.390866,0.500000,0.250000,0.500000,-0.250000,0.479746,-0.390866,0.420627,-0.520320,0.327430,-0.627875,0.207708,-0.704816,0.071157,-0.744911,0.000000,-0.744911,0.000000,-0.750000,-0.500000,-0.750000,-0.500000,0.750000,0.000000,0.750000,0.000000,0.744911,0.000000,0.744911,
$1*%
G04 Aperture macros list end*
%ADD10C,0.300000*%
%ADD11C,0.200000*%
%ADD12C,0.150000*%
%ADD13C,0.120000*%
%ADD14C,0.152400*%
%ADD15C,0.650000*%
%ADD16R,0.600000X1.150000*%
%ADD17R,0.300000X1.150000*%
%ADD18O,1.000000X2.100000*%
%ADD19O,1.000000X1.800000*%
%ADD20RoundRect,0.155000X-0.212500X-0.155000X0.212500X-0.155000X0.212500X0.155000X-0.212500X0.155000X0*%
%ADD21RoundRect,0.237500X-0.237500X0.300000X-0.237500X-0.300000X0.237500X-0.300000X0.237500X0.300000X0*%
%ADD22RoundRect,0.237500X0.237500X-0.250000X0.237500X0.250000X-0.237500X0.250000X-0.237500X-0.250000X0*%
%ADD23RoundRect,0.237500X-0.237500X0.250000X-0.237500X-0.250000X0.237500X-0.250000X0.237500X0.250000X0*%
%ADD24RoundRect,0.155000X-0.155000X0.212500X-0.155000X-0.212500X0.155000X-0.212500X0.155000X0.212500X0*%
%ADD25RoundRect,0.155000X0.212500X0.155000X-0.212500X0.155000X-0.212500X-0.155000X0.212500X-0.155000X0*%
%ADD26C,0.800000*%
%ADD27R,1.700000X1.000000*%
%ADD28RoundRect,0.237500X0.250000X0.237500X-0.250000X0.237500X-0.250000X-0.237500X0.250000X-0.237500X0*%
%ADD29R,0.609600X1.625600*%
%ADD30R,3.175000X1.854200*%
%ADD31RoundRect,0.237500X-0.300000X-0.237500X0.300000X-0.237500X0.300000X0.237500X-0.300000X0.237500X0*%
%ADD32C,2.374900*%
%ADD33C,0.990600*%
%ADD34C,0.787400*%
%ADD35C,2.000000*%
%ADD36RoundRect,0.237500X0.237500X-0.300000X0.237500X0.300000X-0.237500X0.300000X-0.237500X-0.300000X0*%
%ADD37C,7.200000*%
%ADD38RoundRect,0.050000X-0.387500X-0.050000X0.387500X-0.050000X0.387500X0.050000X-0.387500X0.050000X0*%
%ADD39RoundRect,0.050000X-0.050000X-0.387500X0.050000X-0.387500X0.050000X0.387500X-0.050000X0.387500X0*%
%ADD40R,3.200000X3.200000*%
%ADD41R,1.700000X1.700000*%
%ADD42O,1.700000X1.700000*%
%ADD43R,1.400000X1.200000*%
%ADD44RoundRect,0.237500X0.300000X0.237500X-0.300000X0.237500X-0.300000X-0.237500X0.300000X-0.237500X0*%
%ADD45RoundRect,0.237500X-0.250000X-0.237500X0.250000X-0.237500X0.250000X0.237500X-0.250000X0.237500X0*%
%ADD46R,1.500000X0.900000*%
%ADD47RoundRect,0.100000X-0.100000X0.637500X-0.100000X-0.637500X0.100000X-0.637500X0.100000X0.637500X0*%
%ADD48FreePoly0,90.000000*%
%ADD49FreePoly1,90.000000*%
%ADD50RoundRect,0.150000X-0.650000X-0.150000X0.650000X-0.150000X0.650000X0.150000X-0.650000X0.150000X0*%
%ADD51RoundRect,0.250000X-0.300000X-0.300000X0.300000X-0.300000X0.300000X0.300000X-0.300000X0.300000X0*%
%ADD52R,0.800000X1.900000*%
%ADD53RoundRect,0.250000X0.300000X0.300000X-0.300000X0.300000X-0.300000X-0.300000X0.300000X-0.300000X0*%
%ADD54R,0.750000X0.250000*%
G04 APERTURE END LIST*
D10*
X123950000Y-96700000D02*
G75*
G03*
X123950000Y-96700000I-150000J0D01*
G01*
D11*
X94400000Y-101900000D02*
G75*
G03*
X94400000Y-101900000I-100000J0D01*
G01*
D10*
X107250000Y-77200000D02*
G75*
G03*
X107250000Y-77200000I-150000J0D01*
G01*
X103450000Y-96700000D02*
G75*
G03*
X103450000Y-96700000I-150000J0D01*
G01*
X103850000Y-64000000D02*
G75*
G03*
X103850000Y-64000000I-150000J0D01*
G01*
X132850000Y-96700000D02*
G75*
G03*
X132850000Y-96700000I-150000J0D01*
G01*
X99550000Y-69800000D02*
G75*
G03*
X99550000Y-69800000I-150000J0D01*
G01*
D12*
X114493333Y-65192619D02*
X114493333Y-64478333D01*
X114493333Y-64478333D02*
X114540952Y-64335476D01*
X114540952Y-64335476D02*
X114636190Y-64240238D01*
X114636190Y-64240238D02*
X114779047Y-64192619D01*
X114779047Y-64192619D02*
X114874285Y-64192619D01*
X113493333Y-64192619D02*
X114064761Y-64192619D01*
X113779047Y-64192619D02*
X113779047Y-65192619D01*
X113779047Y-65192619D02*
X113874285Y-65049761D01*
X113874285Y-65049761D02*
X113969523Y-64954523D01*
X113969523Y-64954523D02*
X114064761Y-64906904D01*
X104433333Y-81412142D02*
X104385714Y-81459761D01*
X104385714Y-81459761D02*
X104242857Y-81507380D01*
X104242857Y-81507380D02*
X104147619Y-81507380D01*
X104147619Y-81507380D02*
X104004762Y-81459761D01*
X104004762Y-81459761D02*
X103909524Y-81364523D01*
X103909524Y-81364523D02*
X103861905Y-81269285D01*
X103861905Y-81269285D02*
X103814286Y-81078809D01*
X103814286Y-81078809D02*
X103814286Y-80935952D01*
X103814286Y-80935952D02*
X103861905Y-80745476D01*
X103861905Y-80745476D02*
X103909524Y-80650238D01*
X103909524Y-80650238D02*
X104004762Y-80555000D01*
X104004762Y-80555000D02*
X104147619Y-80507380D01*
X104147619Y-80507380D02*
X104242857Y-80507380D01*
X104242857Y-80507380D02*
X104385714Y-80555000D01*
X104385714Y-80555000D02*
X104433333Y-80602619D01*
X105004762Y-80935952D02*
X104909524Y-80888333D01*
X104909524Y-80888333D02*
X104861905Y-80840714D01*
X104861905Y-80840714D02*
X104814286Y-80745476D01*
X104814286Y-80745476D02*
X104814286Y-80697857D01*
X104814286Y-80697857D02*
X104861905Y-80602619D01*
X104861905Y-80602619D02*
X104909524Y-80555000D01*
X104909524Y-80555000D02*
X105004762Y-80507380D01*
X105004762Y-80507380D02*
X105195238Y-80507380D01*
X105195238Y-80507380D02*
X105290476Y-80555000D01*
X105290476Y-80555000D02*
X105338095Y-80602619D01*
X105338095Y-80602619D02*
X105385714Y-80697857D01*
X105385714Y-80697857D02*
X105385714Y-80745476D01*
X105385714Y-80745476D02*
X105338095Y-80840714D01*
X105338095Y-80840714D02*
X105290476Y-80888333D01*
X105290476Y-80888333D02*
X105195238Y-80935952D01*
X105195238Y-80935952D02*
X105004762Y-80935952D01*
X105004762Y-80935952D02*
X104909524Y-80983571D01*
X104909524Y-80983571D02*
X104861905Y-81031190D01*
X104861905Y-81031190D02*
X104814286Y-81126428D01*
X104814286Y-81126428D02*
X104814286Y-81316904D01*
X104814286Y-81316904D02*
X104861905Y-81412142D01*
X104861905Y-81412142D02*
X104909524Y-81459761D01*
X104909524Y-81459761D02*
X105004762Y-81507380D01*
X105004762Y-81507380D02*
X105195238Y-81507380D01*
X105195238Y-81507380D02*
X105290476Y-81459761D01*
X105290476Y-81459761D02*
X105338095Y-81412142D01*
X105338095Y-81412142D02*
X105385714Y-81316904D01*
X105385714Y-81316904D02*
X105385714Y-81126428D01*
X105385714Y-81126428D02*
X105338095Y-81031190D01*
X105338095Y-81031190D02*
X105290476Y-80983571D01*
X105290476Y-80983571D02*
X105195238Y-80935952D01*
X136072142Y-99342857D02*
X136119761Y-99390476D01*
X136119761Y-99390476D02*
X136167380Y-99533333D01*
X136167380Y-99533333D02*
X136167380Y-99628571D01*
X136167380Y-99628571D02*
X136119761Y-99771428D01*
X136119761Y-99771428D02*
X136024523Y-99866666D01*
X136024523Y-99866666D02*
X135929285Y-99914285D01*
X135929285Y-99914285D02*
X135738809Y-99961904D01*
X135738809Y-99961904D02*
X135595952Y-99961904D01*
X135595952Y-99961904D02*
X135405476Y-99914285D01*
X135405476Y-99914285D02*
X135310238Y-99866666D01*
X135310238Y-99866666D02*
X135215000Y-99771428D01*
X135215000Y-99771428D02*
X135167380Y-99628571D01*
X135167380Y-99628571D02*
X135167380Y-99533333D01*
X135167380Y-99533333D02*
X135215000Y-99390476D01*
X135215000Y-99390476D02*
X135262619Y-99342857D01*
X136167380Y-98390476D02*
X136167380Y-98961904D01*
X136167380Y-98676190D02*
X135167380Y-98676190D01*
X135167380Y-98676190D02*
X135310238Y-98771428D01*
X135310238Y-98771428D02*
X135405476Y-98866666D01*
X135405476Y-98866666D02*
X135453095Y-98961904D01*
X135595952Y-97819047D02*
X135548333Y-97914285D01*
X135548333Y-97914285D02*
X135500714Y-97961904D01*
X135500714Y-97961904D02*
X135405476Y-98009523D01*
X135405476Y-98009523D02*
X135357857Y-98009523D01*
X135357857Y-98009523D02*
X135262619Y-97961904D01*
X135262619Y-97961904D02*
X135215000Y-97914285D01*
X135215000Y-97914285D02*
X135167380Y-97819047D01*
X135167380Y-97819047D02*
X135167380Y-97628571D01*
X135167380Y-97628571D02*
X135215000Y-97533333D01*
X135215000Y-97533333D02*
X135262619Y-97485714D01*
X135262619Y-97485714D02*
X135357857Y-97438095D01*
X135357857Y-97438095D02*
X135405476Y-97438095D01*
X135405476Y-97438095D02*
X135500714Y-97485714D01*
X135500714Y-97485714D02*
X135548333Y-97533333D01*
X135548333Y-97533333D02*
X135595952Y-97628571D01*
X135595952Y-97628571D02*
X135595952Y-97819047D01*
X135595952Y-97819047D02*
X135643571Y-97914285D01*
X135643571Y-97914285D02*
X135691190Y-97961904D01*
X135691190Y-97961904D02*
X135786428Y-98009523D01*
X135786428Y-98009523D02*
X135976904Y-98009523D01*
X135976904Y-98009523D02*
X136072142Y-97961904D01*
X136072142Y-97961904D02*
X136119761Y-97914285D01*
X136119761Y-97914285D02*
X136167380Y-97819047D01*
X136167380Y-97819047D02*
X136167380Y-97628571D01*
X136167380Y-97628571D02*
X136119761Y-97533333D01*
X136119761Y-97533333D02*
X136072142Y-97485714D01*
X136072142Y-97485714D02*
X135976904Y-97438095D01*
X135976904Y-97438095D02*
X135786428Y-97438095D01*
X135786428Y-97438095D02*
X135691190Y-97485714D01*
X135691190Y-97485714D02*
X135643571Y-97533333D01*
X135643571Y-97533333D02*
X135595952Y-97628571D01*
X115967380Y-71366666D02*
X115491190Y-71699999D01*
X115967380Y-71938094D02*
X114967380Y-71938094D01*
X114967380Y-71938094D02*
X114967380Y-71557142D01*
X114967380Y-71557142D02*
X115015000Y-71461904D01*
X115015000Y-71461904D02*
X115062619Y-71414285D01*
X115062619Y-71414285D02*
X115157857Y-71366666D01*
X115157857Y-71366666D02*
X115300714Y-71366666D01*
X115300714Y-71366666D02*
X115395952Y-71414285D01*
X115395952Y-71414285D02*
X115443571Y-71461904D01*
X115443571Y-71461904D02*
X115491190Y-71557142D01*
X115491190Y-71557142D02*
X115491190Y-71938094D01*
X114967380Y-71033332D02*
X114967380Y-70414285D01*
X114967380Y-70414285D02*
X115348333Y-70747618D01*
X115348333Y-70747618D02*
X115348333Y-70604761D01*
X115348333Y-70604761D02*
X115395952Y-70509523D01*
X115395952Y-70509523D02*
X115443571Y-70461904D01*
X115443571Y-70461904D02*
X115538809Y-70414285D01*
X115538809Y-70414285D02*
X115776904Y-70414285D01*
X115776904Y-70414285D02*
X115872142Y-70461904D01*
X115872142Y-70461904D02*
X115919761Y-70509523D01*
X115919761Y-70509523D02*
X115967380Y-70604761D01*
X115967380Y-70604761D02*
X115967380Y-70890475D01*
X115967380Y-70890475D02*
X115919761Y-70985713D01*
X115919761Y-70985713D02*
X115872142Y-71033332D01*
X116097380Y-90816666D02*
X115621190Y-91149999D01*
X116097380Y-91388094D02*
X115097380Y-91388094D01*
X115097380Y-91388094D02*
X115097380Y-91007142D01*
X115097380Y-91007142D02*
X115145000Y-90911904D01*
X115145000Y-90911904D02*
X115192619Y-90864285D01*
X115192619Y-90864285D02*
X115287857Y-90816666D01*
X115287857Y-90816666D02*
X115430714Y-90816666D01*
X115430714Y-90816666D02*
X115525952Y-90864285D01*
X115525952Y-90864285D02*
X115573571Y-90911904D01*
X115573571Y-90911904D02*
X115621190Y-91007142D01*
X115621190Y-91007142D02*
X115621190Y-91388094D01*
X115430714Y-89959523D02*
X116097380Y-89959523D01*
X115049761Y-90197618D02*
X115764047Y-90435713D01*
X115764047Y-90435713D02*
X115764047Y-89816666D01*
X111672142Y-72642857D02*
X111719761Y-72690476D01*
X111719761Y-72690476D02*
X111767380Y-72833333D01*
X111767380Y-72833333D02*
X111767380Y-72928571D01*
X111767380Y-72928571D02*
X111719761Y-73071428D01*
X111719761Y-73071428D02*
X111624523Y-73166666D01*
X111624523Y-73166666D02*
X111529285Y-73214285D01*
X111529285Y-73214285D02*
X111338809Y-73261904D01*
X111338809Y-73261904D02*
X111195952Y-73261904D01*
X111195952Y-73261904D02*
X111005476Y-73214285D01*
X111005476Y-73214285D02*
X110910238Y-73166666D01*
X110910238Y-73166666D02*
X110815000Y-73071428D01*
X110815000Y-73071428D02*
X110767380Y-72928571D01*
X110767380Y-72928571D02*
X110767380Y-72833333D01*
X110767380Y-72833333D02*
X110815000Y-72690476D01*
X110815000Y-72690476D02*
X110862619Y-72642857D01*
X111767380Y-71690476D02*
X111767380Y-72261904D01*
X111767380Y-71976190D02*
X110767380Y-71976190D01*
X110767380Y-71976190D02*
X110910238Y-72071428D01*
X110910238Y-72071428D02*
X111005476Y-72166666D01*
X111005476Y-72166666D02*
X111053095Y-72261904D01*
X110862619Y-71309523D02*
X110815000Y-71261904D01*
X110815000Y-71261904D02*
X110767380Y-71166666D01*
X110767380Y-71166666D02*
X110767380Y-70928571D01*
X110767380Y-70928571D02*
X110815000Y-70833333D01*
X110815000Y-70833333D02*
X110862619Y-70785714D01*
X110862619Y-70785714D02*
X110957857Y-70738095D01*
X110957857Y-70738095D02*
X111053095Y-70738095D01*
X111053095Y-70738095D02*
X111195952Y-70785714D01*
X111195952Y-70785714D02*
X111767380Y-71357142D01*
X111767380Y-71357142D02*
X111767380Y-70738095D01*
X112872142Y-72166666D02*
X112919761Y-72214285D01*
X112919761Y-72214285D02*
X112967380Y-72357142D01*
X112967380Y-72357142D02*
X112967380Y-72452380D01*
X112967380Y-72452380D02*
X112919761Y-72595237D01*
X112919761Y-72595237D02*
X112824523Y-72690475D01*
X112824523Y-72690475D02*
X112729285Y-72738094D01*
X112729285Y-72738094D02*
X112538809Y-72785713D01*
X112538809Y-72785713D02*
X112395952Y-72785713D01*
X112395952Y-72785713D02*
X112205476Y-72738094D01*
X112205476Y-72738094D02*
X112110238Y-72690475D01*
X112110238Y-72690475D02*
X112015000Y-72595237D01*
X112015000Y-72595237D02*
X111967380Y-72452380D01*
X111967380Y-72452380D02*
X111967380Y-72357142D01*
X111967380Y-72357142D02*
X112015000Y-72214285D01*
X112015000Y-72214285D02*
X112062619Y-72166666D01*
X112062619Y-71785713D02*
X112015000Y-71738094D01*
X112015000Y-71738094D02*
X111967380Y-71642856D01*
X111967380Y-71642856D02*
X111967380Y-71404761D01*
X111967380Y-71404761D02*
X112015000Y-71309523D01*
X112015000Y-71309523D02*
X112062619Y-71261904D01*
X112062619Y-71261904D02*
X112157857Y-71214285D01*
X112157857Y-71214285D02*
X112253095Y-71214285D01*
X112253095Y-71214285D02*
X112395952Y-71261904D01*
X112395952Y-71261904D02*
X112967380Y-71833332D01*
X112967380Y-71833332D02*
X112967380Y-71214285D01*
X114857142Y-86372142D02*
X114809523Y-86419761D01*
X114809523Y-86419761D02*
X114666666Y-86467380D01*
X114666666Y-86467380D02*
X114571428Y-86467380D01*
X114571428Y-86467380D02*
X114428571Y-86419761D01*
X114428571Y-86419761D02*
X114333333Y-86324523D01*
X114333333Y-86324523D02*
X114285714Y-86229285D01*
X114285714Y-86229285D02*
X114238095Y-86038809D01*
X114238095Y-86038809D02*
X114238095Y-85895952D01*
X114238095Y-85895952D02*
X114285714Y-85705476D01*
X114285714Y-85705476D02*
X114333333Y-85610238D01*
X114333333Y-85610238D02*
X114428571Y-85515000D01*
X114428571Y-85515000D02*
X114571428Y-85467380D01*
X114571428Y-85467380D02*
X114666666Y-85467380D01*
X114666666Y-85467380D02*
X114809523Y-85515000D01*
X114809523Y-85515000D02*
X114857142Y-85562619D01*
X115809523Y-86467380D02*
X115238095Y-86467380D01*
X115523809Y-86467380D02*
X115523809Y-85467380D01*
X115523809Y-85467380D02*
X115428571Y-85610238D01*
X115428571Y-85610238D02*
X115333333Y-85705476D01*
X115333333Y-85705476D02*
X115238095Y-85753095D01*
X116142857Y-85467380D02*
X116761904Y-85467380D01*
X116761904Y-85467380D02*
X116428571Y-85848333D01*
X116428571Y-85848333D02*
X116571428Y-85848333D01*
X116571428Y-85848333D02*
X116666666Y-85895952D01*
X116666666Y-85895952D02*
X116714285Y-85943571D01*
X116714285Y-85943571D02*
X116761904Y-86038809D01*
X116761904Y-86038809D02*
X116761904Y-86276904D01*
X116761904Y-86276904D02*
X116714285Y-86372142D01*
X116714285Y-86372142D02*
X116666666Y-86419761D01*
X116666666Y-86419761D02*
X116571428Y-86467380D01*
X116571428Y-86467380D02*
X116285714Y-86467380D01*
X116285714Y-86467380D02*
X116190476Y-86419761D01*
X116190476Y-86419761D02*
X116142857Y-86372142D01*
X134619342Y-107327619D02*
X135114580Y-107327619D01*
X135114580Y-107327619D02*
X134847914Y-107632381D01*
X134847914Y-107632381D02*
X134962199Y-107632381D01*
X134962199Y-107632381D02*
X135038390Y-107670476D01*
X135038390Y-107670476D02*
X135076485Y-107708572D01*
X135076485Y-107708572D02*
X135114580Y-107784762D01*
X135114580Y-107784762D02*
X135114580Y-107975238D01*
X135114580Y-107975238D02*
X135076485Y-108051429D01*
X135076485Y-108051429D02*
X135038390Y-108089524D01*
X135038390Y-108089524D02*
X134962199Y-108127619D01*
X134962199Y-108127619D02*
X134733628Y-108127619D01*
X134733628Y-108127619D02*
X134657437Y-108089524D01*
X134657437Y-108089524D02*
X134619342Y-108051429D01*
X135419342Y-107403810D02*
X135457438Y-107365715D01*
X135457438Y-107365715D02*
X135533628Y-107327619D01*
X135533628Y-107327619D02*
X135724104Y-107327619D01*
X135724104Y-107327619D02*
X135800295Y-107365715D01*
X135800295Y-107365715D02*
X135838390Y-107403810D01*
X135838390Y-107403810D02*
X135876485Y-107480000D01*
X135876485Y-107480000D02*
X135876485Y-107556191D01*
X135876485Y-107556191D02*
X135838390Y-107670476D01*
X135838390Y-107670476D02*
X135381247Y-108127619D01*
X135381247Y-108127619D02*
X135876485Y-108127619D01*
X88495533Y-108127619D02*
X88038390Y-108127619D01*
X88266962Y-108127619D02*
X88266962Y-107327619D01*
X88266962Y-107327619D02*
X88190771Y-107441905D01*
X88190771Y-107441905D02*
X88114581Y-107518095D01*
X88114581Y-107518095D02*
X88038390Y-107556191D01*
X118833333Y-80872142D02*
X118785714Y-80919761D01*
X118785714Y-80919761D02*
X118642857Y-80967380D01*
X118642857Y-80967380D02*
X118547619Y-80967380D01*
X118547619Y-80967380D02*
X118404762Y-80919761D01*
X118404762Y-80919761D02*
X118309524Y-80824523D01*
X118309524Y-80824523D02*
X118261905Y-80729285D01*
X118261905Y-80729285D02*
X118214286Y-80538809D01*
X118214286Y-80538809D02*
X118214286Y-80395952D01*
X118214286Y-80395952D02*
X118261905Y-80205476D01*
X118261905Y-80205476D02*
X118309524Y-80110238D01*
X118309524Y-80110238D02*
X118404762Y-80015000D01*
X118404762Y-80015000D02*
X118547619Y-79967380D01*
X118547619Y-79967380D02*
X118642857Y-79967380D01*
X118642857Y-79967380D02*
X118785714Y-80015000D01*
X118785714Y-80015000D02*
X118833333Y-80062619D01*
X119738095Y-79967380D02*
X119261905Y-79967380D01*
X119261905Y-79967380D02*
X119214286Y-80443571D01*
X119214286Y-80443571D02*
X119261905Y-80395952D01*
X119261905Y-80395952D02*
X119357143Y-80348333D01*
X119357143Y-80348333D02*
X119595238Y-80348333D01*
X119595238Y-80348333D02*
X119690476Y-80395952D01*
X119690476Y-80395952D02*
X119738095Y-80443571D01*
X119738095Y-80443571D02*
X119785714Y-80538809D01*
X119785714Y-80538809D02*
X119785714Y-80776904D01*
X119785714Y-80776904D02*
X119738095Y-80872142D01*
X119738095Y-80872142D02*
X119690476Y-80919761D01*
X119690476Y-80919761D02*
X119595238Y-80967380D01*
X119595238Y-80967380D02*
X119357143Y-80967380D01*
X119357143Y-80967380D02*
X119261905Y-80919761D01*
X119261905Y-80919761D02*
X119214286Y-80872142D01*
X120846667Y-70679761D02*
X120989524Y-70727380D01*
X120989524Y-70727380D02*
X121227619Y-70727380D01*
X121227619Y-70727380D02*
X121322857Y-70679761D01*
X121322857Y-70679761D02*
X121370476Y-70632142D01*
X121370476Y-70632142D02*
X121418095Y-70536904D01*
X121418095Y-70536904D02*
X121418095Y-70441666D01*
X121418095Y-70441666D02*
X121370476Y-70346428D01*
X121370476Y-70346428D02*
X121322857Y-70298809D01*
X121322857Y-70298809D02*
X121227619Y-70251190D01*
X121227619Y-70251190D02*
X121037143Y-70203571D01*
X121037143Y-70203571D02*
X120941905Y-70155952D01*
X120941905Y-70155952D02*
X120894286Y-70108333D01*
X120894286Y-70108333D02*
X120846667Y-70013095D01*
X120846667Y-70013095D02*
X120846667Y-69917857D01*
X120846667Y-69917857D02*
X120894286Y-69822619D01*
X120894286Y-69822619D02*
X120941905Y-69775000D01*
X120941905Y-69775000D02*
X121037143Y-69727380D01*
X121037143Y-69727380D02*
X121275238Y-69727380D01*
X121275238Y-69727380D02*
X121418095Y-69775000D01*
X121751429Y-69727380D02*
X121989524Y-70727380D01*
X121989524Y-70727380D02*
X122180000Y-70013095D01*
X122180000Y-70013095D02*
X122370476Y-70727380D01*
X122370476Y-70727380D02*
X122608572Y-69727380D01*
X123513333Y-70727380D02*
X122941905Y-70727380D01*
X123227619Y-70727380D02*
X123227619Y-69727380D01*
X123227619Y-69727380D02*
X123132381Y-69870238D01*
X123132381Y-69870238D02*
X123037143Y-69965476D01*
X123037143Y-69965476D02*
X122941905Y-70013095D01*
X134733333Y-84767380D02*
X134400000Y-84291190D01*
X134161905Y-84767380D02*
X134161905Y-83767380D01*
X134161905Y-83767380D02*
X134542857Y-83767380D01*
X134542857Y-83767380D02*
X134638095Y-83815000D01*
X134638095Y-83815000D02*
X134685714Y-83862619D01*
X134685714Y-83862619D02*
X134733333Y-83957857D01*
X134733333Y-83957857D02*
X134733333Y-84100714D01*
X134733333Y-84100714D02*
X134685714Y-84195952D01*
X134685714Y-84195952D02*
X134638095Y-84243571D01*
X134638095Y-84243571D02*
X134542857Y-84291190D01*
X134542857Y-84291190D02*
X134161905Y-84291190D01*
X135209524Y-84767380D02*
X135400000Y-84767380D01*
X135400000Y-84767380D02*
X135495238Y-84719761D01*
X135495238Y-84719761D02*
X135542857Y-84672142D01*
X135542857Y-84672142D02*
X135638095Y-84529285D01*
X135638095Y-84529285D02*
X135685714Y-84338809D01*
X135685714Y-84338809D02*
X135685714Y-83957857D01*
X135685714Y-83957857D02*
X135638095Y-83862619D01*
X135638095Y-83862619D02*
X135590476Y-83815000D01*
X135590476Y-83815000D02*
X135495238Y-83767380D01*
X135495238Y-83767380D02*
X135304762Y-83767380D01*
X135304762Y-83767380D02*
X135209524Y-83815000D01*
X135209524Y-83815000D02*
X135161905Y-83862619D01*
X135161905Y-83862619D02*
X135114286Y-83957857D01*
X135114286Y-83957857D02*
X135114286Y-84195952D01*
X135114286Y-84195952D02*
X135161905Y-84291190D01*
X135161905Y-84291190D02*
X135209524Y-84338809D01*
X135209524Y-84338809D02*
X135304762Y-84386428D01*
X135304762Y-84386428D02*
X135495238Y-84386428D01*
X135495238Y-84386428D02*
X135590476Y-84338809D01*
X135590476Y-84338809D02*
X135638095Y-84291190D01*
X135638095Y-84291190D02*
X135685714Y-84195952D01*
X86662081Y-78650033D02*
X87990242Y-78650033D01*
X87990242Y-78650033D02*
X88146496Y-78571906D01*
X88146496Y-78571906D02*
X88224623Y-78493779D01*
X88224623Y-78493779D02*
X88302750Y-78337525D01*
X88302750Y-78337525D02*
X88302750Y-78025016D01*
X88302750Y-78025016D02*
X88224623Y-77868762D01*
X88224623Y-77868762D02*
X88146496Y-77790635D01*
X88146496Y-77790635D02*
X87990242Y-77712508D01*
X87990242Y-77712508D02*
X86662081Y-77712508D01*
X87208971Y-76228093D02*
X88302750Y-76228093D01*
X86583954Y-76618729D02*
X87755861Y-77009364D01*
X87755861Y-77009364D02*
X87755861Y-75993712D01*
X106533333Y-93672142D02*
X106485714Y-93719761D01*
X106485714Y-93719761D02*
X106342857Y-93767380D01*
X106342857Y-93767380D02*
X106247619Y-93767380D01*
X106247619Y-93767380D02*
X106104762Y-93719761D01*
X106104762Y-93719761D02*
X106009524Y-93624523D01*
X106009524Y-93624523D02*
X105961905Y-93529285D01*
X105961905Y-93529285D02*
X105914286Y-93338809D01*
X105914286Y-93338809D02*
X105914286Y-93195952D01*
X105914286Y-93195952D02*
X105961905Y-93005476D01*
X105961905Y-93005476D02*
X106009524Y-92910238D01*
X106009524Y-92910238D02*
X106104762Y-92815000D01*
X106104762Y-92815000D02*
X106247619Y-92767380D01*
X106247619Y-92767380D02*
X106342857Y-92767380D01*
X106342857Y-92767380D02*
X106485714Y-92815000D01*
X106485714Y-92815000D02*
X106533333Y-92862619D01*
X106866667Y-92767380D02*
X107485714Y-92767380D01*
X107485714Y-92767380D02*
X107152381Y-93148333D01*
X107152381Y-93148333D02*
X107295238Y-93148333D01*
X107295238Y-93148333D02*
X107390476Y-93195952D01*
X107390476Y-93195952D02*
X107438095Y-93243571D01*
X107438095Y-93243571D02*
X107485714Y-93338809D01*
X107485714Y-93338809D02*
X107485714Y-93576904D01*
X107485714Y-93576904D02*
X107438095Y-93672142D01*
X107438095Y-93672142D02*
X107390476Y-93719761D01*
X107390476Y-93719761D02*
X107295238Y-93767380D01*
X107295238Y-93767380D02*
X107009524Y-93767380D01*
X107009524Y-93767380D02*
X106914286Y-93719761D01*
X106914286Y-93719761D02*
X106866667Y-93672142D01*
X106502142Y-99542857D02*
X106549761Y-99590476D01*
X106549761Y-99590476D02*
X106597380Y-99733333D01*
X106597380Y-99733333D02*
X106597380Y-99828571D01*
X106597380Y-99828571D02*
X106549761Y-99971428D01*
X106549761Y-99971428D02*
X106454523Y-100066666D01*
X106454523Y-100066666D02*
X106359285Y-100114285D01*
X106359285Y-100114285D02*
X106168809Y-100161904D01*
X106168809Y-100161904D02*
X106025952Y-100161904D01*
X106025952Y-100161904D02*
X105835476Y-100114285D01*
X105835476Y-100114285D02*
X105740238Y-100066666D01*
X105740238Y-100066666D02*
X105645000Y-99971428D01*
X105645000Y-99971428D02*
X105597380Y-99828571D01*
X105597380Y-99828571D02*
X105597380Y-99733333D01*
X105597380Y-99733333D02*
X105645000Y-99590476D01*
X105645000Y-99590476D02*
X105692619Y-99542857D01*
X105692619Y-99161904D02*
X105645000Y-99114285D01*
X105645000Y-99114285D02*
X105597380Y-99019047D01*
X105597380Y-99019047D02*
X105597380Y-98780952D01*
X105597380Y-98780952D02*
X105645000Y-98685714D01*
X105645000Y-98685714D02*
X105692619Y-98638095D01*
X105692619Y-98638095D02*
X105787857Y-98590476D01*
X105787857Y-98590476D02*
X105883095Y-98590476D01*
X105883095Y-98590476D02*
X106025952Y-98638095D01*
X106025952Y-98638095D02*
X106597380Y-99209523D01*
X106597380Y-99209523D02*
X106597380Y-98590476D01*
X106597380Y-97638095D02*
X106597380Y-98209523D01*
X106597380Y-97923809D02*
X105597380Y-97923809D01*
X105597380Y-97923809D02*
X105740238Y-98019047D01*
X105740238Y-98019047D02*
X105835476Y-98114285D01*
X105835476Y-98114285D02*
X105883095Y-98209523D01*
X119366666Y-83267380D02*
X119366666Y-83981666D01*
X119366666Y-83981666D02*
X119319047Y-84124523D01*
X119319047Y-84124523D02*
X119223809Y-84219761D01*
X119223809Y-84219761D02*
X119080952Y-84267380D01*
X119080952Y-84267380D02*
X118985714Y-84267380D01*
X119747619Y-83267380D02*
X120366666Y-83267380D01*
X120366666Y-83267380D02*
X120033333Y-83648333D01*
X120033333Y-83648333D02*
X120176190Y-83648333D01*
X120176190Y-83648333D02*
X120271428Y-83695952D01*
X120271428Y-83695952D02*
X120319047Y-83743571D01*
X120319047Y-83743571D02*
X120366666Y-83838809D01*
X120366666Y-83838809D02*
X120366666Y-84076904D01*
X120366666Y-84076904D02*
X120319047Y-84172142D01*
X120319047Y-84172142D02*
X120271428Y-84219761D01*
X120271428Y-84219761D02*
X120176190Y-84267380D01*
X120176190Y-84267380D02*
X119890476Y-84267380D01*
X119890476Y-84267380D02*
X119795238Y-84219761D01*
X119795238Y-84219761D02*
X119747619Y-84172142D01*
X115633333Y-93672142D02*
X115585714Y-93719761D01*
X115585714Y-93719761D02*
X115442857Y-93767380D01*
X115442857Y-93767380D02*
X115347619Y-93767380D01*
X115347619Y-93767380D02*
X115204762Y-93719761D01*
X115204762Y-93719761D02*
X115109524Y-93624523D01*
X115109524Y-93624523D02*
X115061905Y-93529285D01*
X115061905Y-93529285D02*
X115014286Y-93338809D01*
X115014286Y-93338809D02*
X115014286Y-93195952D01*
X115014286Y-93195952D02*
X115061905Y-93005476D01*
X115061905Y-93005476D02*
X115109524Y-92910238D01*
X115109524Y-92910238D02*
X115204762Y-92815000D01*
X115204762Y-92815000D02*
X115347619Y-92767380D01*
X115347619Y-92767380D02*
X115442857Y-92767380D01*
X115442857Y-92767380D02*
X115585714Y-92815000D01*
X115585714Y-92815000D02*
X115633333Y-92862619D01*
X116490476Y-93100714D02*
X116490476Y-93767380D01*
X116252381Y-92719761D02*
X116014286Y-93434047D01*
X116014286Y-93434047D02*
X116633333Y-93434047D01*
X135972142Y-103842857D02*
X136019761Y-103890476D01*
X136019761Y-103890476D02*
X136067380Y-104033333D01*
X136067380Y-104033333D02*
X136067380Y-104128571D01*
X136067380Y-104128571D02*
X136019761Y-104271428D01*
X136019761Y-104271428D02*
X135924523Y-104366666D01*
X135924523Y-104366666D02*
X135829285Y-104414285D01*
X135829285Y-104414285D02*
X135638809Y-104461904D01*
X135638809Y-104461904D02*
X135495952Y-104461904D01*
X135495952Y-104461904D02*
X135305476Y-104414285D01*
X135305476Y-104414285D02*
X135210238Y-104366666D01*
X135210238Y-104366666D02*
X135115000Y-104271428D01*
X135115000Y-104271428D02*
X135067380Y-104128571D01*
X135067380Y-104128571D02*
X135067380Y-104033333D01*
X135067380Y-104033333D02*
X135115000Y-103890476D01*
X135115000Y-103890476D02*
X135162619Y-103842857D01*
X135162619Y-103461904D02*
X135115000Y-103414285D01*
X135115000Y-103414285D02*
X135067380Y-103319047D01*
X135067380Y-103319047D02*
X135067380Y-103080952D01*
X135067380Y-103080952D02*
X135115000Y-102985714D01*
X135115000Y-102985714D02*
X135162619Y-102938095D01*
X135162619Y-102938095D02*
X135257857Y-102890476D01*
X135257857Y-102890476D02*
X135353095Y-102890476D01*
X135353095Y-102890476D02*
X135495952Y-102938095D01*
X135495952Y-102938095D02*
X136067380Y-103509523D01*
X136067380Y-103509523D02*
X136067380Y-102890476D01*
X135067380Y-102271428D02*
X135067380Y-102176190D01*
X135067380Y-102176190D02*
X135115000Y-102080952D01*
X135115000Y-102080952D02*
X135162619Y-102033333D01*
X135162619Y-102033333D02*
X135257857Y-101985714D01*
X135257857Y-101985714D02*
X135448333Y-101938095D01*
X135448333Y-101938095D02*
X135686428Y-101938095D01*
X135686428Y-101938095D02*
X135876904Y-101985714D01*
X135876904Y-101985714D02*
X135972142Y-102033333D01*
X135972142Y-102033333D02*
X136019761Y-102080952D01*
X136019761Y-102080952D02*
X136067380Y-102176190D01*
X136067380Y-102176190D02*
X136067380Y-102271428D01*
X136067380Y-102271428D02*
X136019761Y-102366666D01*
X136019761Y-102366666D02*
X135972142Y-102414285D01*
X135972142Y-102414285D02*
X135876904Y-102461904D01*
X135876904Y-102461904D02*
X135686428Y-102509523D01*
X135686428Y-102509523D02*
X135448333Y-102509523D01*
X135448333Y-102509523D02*
X135257857Y-102461904D01*
X135257857Y-102461904D02*
X135162619Y-102414285D01*
X135162619Y-102414285D02*
X135115000Y-102366666D01*
X135115000Y-102366666D02*
X135067380Y-102271428D01*
X95572142Y-98842857D02*
X95619761Y-98890476D01*
X95619761Y-98890476D02*
X95667380Y-99033333D01*
X95667380Y-99033333D02*
X95667380Y-99128571D01*
X95667380Y-99128571D02*
X95619761Y-99271428D01*
X95619761Y-99271428D02*
X95524523Y-99366666D01*
X95524523Y-99366666D02*
X95429285Y-99414285D01*
X95429285Y-99414285D02*
X95238809Y-99461904D01*
X95238809Y-99461904D02*
X95095952Y-99461904D01*
X95095952Y-99461904D02*
X94905476Y-99414285D01*
X94905476Y-99414285D02*
X94810238Y-99366666D01*
X94810238Y-99366666D02*
X94715000Y-99271428D01*
X94715000Y-99271428D02*
X94667380Y-99128571D01*
X94667380Y-99128571D02*
X94667380Y-99033333D01*
X94667380Y-99033333D02*
X94715000Y-98890476D01*
X94715000Y-98890476D02*
X94762619Y-98842857D01*
X95667380Y-97890476D02*
X95667380Y-98461904D01*
X95667380Y-98176190D02*
X94667380Y-98176190D01*
X94667380Y-98176190D02*
X94810238Y-98271428D01*
X94810238Y-98271428D02*
X94905476Y-98366666D01*
X94905476Y-98366666D02*
X94953095Y-98461904D01*
X94667380Y-97557142D02*
X94667380Y-96890476D01*
X94667380Y-96890476D02*
X95667380Y-97319047D01*
X106572142Y-103642857D02*
X106619761Y-103690476D01*
X106619761Y-103690476D02*
X106667380Y-103833333D01*
X106667380Y-103833333D02*
X106667380Y-103928571D01*
X106667380Y-103928571D02*
X106619761Y-104071428D01*
X106619761Y-104071428D02*
X106524523Y-104166666D01*
X106524523Y-104166666D02*
X106429285Y-104214285D01*
X106429285Y-104214285D02*
X106238809Y-104261904D01*
X106238809Y-104261904D02*
X106095952Y-104261904D01*
X106095952Y-104261904D02*
X105905476Y-104214285D01*
X105905476Y-104214285D02*
X105810238Y-104166666D01*
X105810238Y-104166666D02*
X105715000Y-104071428D01*
X105715000Y-104071428D02*
X105667380Y-103928571D01*
X105667380Y-103928571D02*
X105667380Y-103833333D01*
X105667380Y-103833333D02*
X105715000Y-103690476D01*
X105715000Y-103690476D02*
X105762619Y-103642857D01*
X105762619Y-103261904D02*
X105715000Y-103214285D01*
X105715000Y-103214285D02*
X105667380Y-103119047D01*
X105667380Y-103119047D02*
X105667380Y-102880952D01*
X105667380Y-102880952D02*
X105715000Y-102785714D01*
X105715000Y-102785714D02*
X105762619Y-102738095D01*
X105762619Y-102738095D02*
X105857857Y-102690476D01*
X105857857Y-102690476D02*
X105953095Y-102690476D01*
X105953095Y-102690476D02*
X106095952Y-102738095D01*
X106095952Y-102738095D02*
X106667380Y-103309523D01*
X106667380Y-103309523D02*
X106667380Y-102690476D01*
X105667380Y-102357142D02*
X105667380Y-101738095D01*
X105667380Y-101738095D02*
X106048333Y-102071428D01*
X106048333Y-102071428D02*
X106048333Y-101928571D01*
X106048333Y-101928571D02*
X106095952Y-101833333D01*
X106095952Y-101833333D02*
X106143571Y-101785714D01*
X106143571Y-101785714D02*
X106238809Y-101738095D01*
X106238809Y-101738095D02*
X106476904Y-101738095D01*
X106476904Y-101738095D02*
X106572142Y-101785714D01*
X106572142Y-101785714D02*
X106619761Y-101833333D01*
X106619761Y-101833333D02*
X106667380Y-101928571D01*
X106667380Y-101928571D02*
X106667380Y-102214285D01*
X106667380Y-102214285D02*
X106619761Y-102309523D01*
X106619761Y-102309523D02*
X106572142Y-102357142D01*
X107338095Y-75367380D02*
X107338095Y-76176904D01*
X107338095Y-76176904D02*
X107385714Y-76272142D01*
X107385714Y-76272142D02*
X107433333Y-76319761D01*
X107433333Y-76319761D02*
X107528571Y-76367380D01*
X107528571Y-76367380D02*
X107719047Y-76367380D01*
X107719047Y-76367380D02*
X107814285Y-76319761D01*
X107814285Y-76319761D02*
X107861904Y-76272142D01*
X107861904Y-76272142D02*
X107909523Y-76176904D01*
X107909523Y-76176904D02*
X107909523Y-75367380D01*
X108338095Y-75462619D02*
X108385714Y-75415000D01*
X108385714Y-75415000D02*
X108480952Y-75367380D01*
X108480952Y-75367380D02*
X108719047Y-75367380D01*
X108719047Y-75367380D02*
X108814285Y-75415000D01*
X108814285Y-75415000D02*
X108861904Y-75462619D01*
X108861904Y-75462619D02*
X108909523Y-75557857D01*
X108909523Y-75557857D02*
X108909523Y-75653095D01*
X108909523Y-75653095D02*
X108861904Y-75795952D01*
X108861904Y-75795952D02*
X108290476Y-76367380D01*
X108290476Y-76367380D02*
X108909523Y-76367380D01*
X104433333Y-76812142D02*
X104385714Y-76859761D01*
X104385714Y-76859761D02*
X104242857Y-76907380D01*
X104242857Y-76907380D02*
X104147619Y-76907380D01*
X104147619Y-76907380D02*
X104004762Y-76859761D01*
X104004762Y-76859761D02*
X103909524Y-76764523D01*
X103909524Y-76764523D02*
X103861905Y-76669285D01*
X103861905Y-76669285D02*
X103814286Y-76478809D01*
X103814286Y-76478809D02*
X103814286Y-76335952D01*
X103814286Y-76335952D02*
X103861905Y-76145476D01*
X103861905Y-76145476D02*
X103909524Y-76050238D01*
X103909524Y-76050238D02*
X104004762Y-75955000D01*
X104004762Y-75955000D02*
X104147619Y-75907380D01*
X104147619Y-75907380D02*
X104242857Y-75907380D01*
X104242857Y-75907380D02*
X104385714Y-75955000D01*
X104385714Y-75955000D02*
X104433333Y-76002619D01*
X105290476Y-75907380D02*
X105100000Y-75907380D01*
X105100000Y-75907380D02*
X105004762Y-75955000D01*
X105004762Y-75955000D02*
X104957143Y-76002619D01*
X104957143Y-76002619D02*
X104861905Y-76145476D01*
X104861905Y-76145476D02*
X104814286Y-76335952D01*
X104814286Y-76335952D02*
X104814286Y-76716904D01*
X104814286Y-76716904D02*
X104861905Y-76812142D01*
X104861905Y-76812142D02*
X104909524Y-76859761D01*
X104909524Y-76859761D02*
X105004762Y-76907380D01*
X105004762Y-76907380D02*
X105195238Y-76907380D01*
X105195238Y-76907380D02*
X105290476Y-76859761D01*
X105290476Y-76859761D02*
X105338095Y-76812142D01*
X105338095Y-76812142D02*
X105385714Y-76716904D01*
X105385714Y-76716904D02*
X105385714Y-76478809D01*
X105385714Y-76478809D02*
X105338095Y-76383571D01*
X105338095Y-76383571D02*
X105290476Y-76335952D01*
X105290476Y-76335952D02*
X105195238Y-76288333D01*
X105195238Y-76288333D02*
X105004762Y-76288333D01*
X105004762Y-76288333D02*
X104909524Y-76335952D01*
X104909524Y-76335952D02*
X104861905Y-76383571D01*
X104861905Y-76383571D02*
X104814286Y-76478809D01*
X122447854Y-56987809D02*
X123162140Y-56987809D01*
X123162140Y-56987809D02*
X123304997Y-57035428D01*
X123304997Y-57035428D02*
X123400235Y-57130666D01*
X123400235Y-57130666D02*
X123447854Y-57273523D01*
X123447854Y-57273523D02*
X123447854Y-57368761D01*
X122543093Y-56559237D02*
X122495474Y-56511618D01*
X122495474Y-56511618D02*
X122447854Y-56416380D01*
X122447854Y-56416380D02*
X122447854Y-56178285D01*
X122447854Y-56178285D02*
X122495474Y-56083047D01*
X122495474Y-56083047D02*
X122543093Y-56035428D01*
X122543093Y-56035428D02*
X122638331Y-55987809D01*
X122638331Y-55987809D02*
X122733569Y-55987809D01*
X122733569Y-55987809D02*
X122876426Y-56035428D01*
X122876426Y-56035428D02*
X123447854Y-56606856D01*
X123447854Y-56606856D02*
X123447854Y-55987809D01*
X110823809Y-92991190D02*
X110823809Y-93467380D01*
X110490476Y-92467380D02*
X110823809Y-92991190D01*
X110823809Y-92991190D02*
X111157142Y-92467380D01*
X112014285Y-93467380D02*
X111442857Y-93467380D01*
X111728571Y-93467380D02*
X111728571Y-92467380D01*
X111728571Y-92467380D02*
X111633333Y-92610238D01*
X111633333Y-92610238D02*
X111538095Y-92705476D01*
X111538095Y-92705476D02*
X111442857Y-92753095D01*
X87857142Y-102172142D02*
X87809523Y-102219761D01*
X87809523Y-102219761D02*
X87666666Y-102267380D01*
X87666666Y-102267380D02*
X87571428Y-102267380D01*
X87571428Y-102267380D02*
X87428571Y-102219761D01*
X87428571Y-102219761D02*
X87333333Y-102124523D01*
X87333333Y-102124523D02*
X87285714Y-102029285D01*
X87285714Y-102029285D02*
X87238095Y-101838809D01*
X87238095Y-101838809D02*
X87238095Y-101695952D01*
X87238095Y-101695952D02*
X87285714Y-101505476D01*
X87285714Y-101505476D02*
X87333333Y-101410238D01*
X87333333Y-101410238D02*
X87428571Y-101315000D01*
X87428571Y-101315000D02*
X87571428Y-101267380D01*
X87571428Y-101267380D02*
X87666666Y-101267380D01*
X87666666Y-101267380D02*
X87809523Y-101315000D01*
X87809523Y-101315000D02*
X87857142Y-101362619D01*
X88809523Y-102267380D02*
X88238095Y-102267380D01*
X88523809Y-102267380D02*
X88523809Y-101267380D01*
X88523809Y-101267380D02*
X88428571Y-101410238D01*
X88428571Y-101410238D02*
X88333333Y-101505476D01*
X88333333Y-101505476D02*
X88238095Y-101553095D01*
X89285714Y-102267380D02*
X89476190Y-102267380D01*
X89476190Y-102267380D02*
X89571428Y-102219761D01*
X89571428Y-102219761D02*
X89619047Y-102172142D01*
X89619047Y-102172142D02*
X89714285Y-102029285D01*
X89714285Y-102029285D02*
X89761904Y-101838809D01*
X89761904Y-101838809D02*
X89761904Y-101457857D01*
X89761904Y-101457857D02*
X89714285Y-101362619D01*
X89714285Y-101362619D02*
X89666666Y-101315000D01*
X89666666Y-101315000D02*
X89571428Y-101267380D01*
X89571428Y-101267380D02*
X89380952Y-101267380D01*
X89380952Y-101267380D02*
X89285714Y-101315000D01*
X89285714Y-101315000D02*
X89238095Y-101362619D01*
X89238095Y-101362619D02*
X89190476Y-101457857D01*
X89190476Y-101457857D02*
X89190476Y-101695952D01*
X89190476Y-101695952D02*
X89238095Y-101791190D01*
X89238095Y-101791190D02*
X89285714Y-101838809D01*
X89285714Y-101838809D02*
X89380952Y-101886428D01*
X89380952Y-101886428D02*
X89571428Y-101886428D01*
X89571428Y-101886428D02*
X89666666Y-101838809D01*
X89666666Y-101838809D02*
X89714285Y-101791190D01*
X89714285Y-101791190D02*
X89761904Y-101695952D01*
X112833333Y-86372142D02*
X112785714Y-86419761D01*
X112785714Y-86419761D02*
X112642857Y-86467380D01*
X112642857Y-86467380D02*
X112547619Y-86467380D01*
X112547619Y-86467380D02*
X112404762Y-86419761D01*
X112404762Y-86419761D02*
X112309524Y-86324523D01*
X112309524Y-86324523D02*
X112261905Y-86229285D01*
X112261905Y-86229285D02*
X112214286Y-86038809D01*
X112214286Y-86038809D02*
X112214286Y-85895952D01*
X112214286Y-85895952D02*
X112261905Y-85705476D01*
X112261905Y-85705476D02*
X112309524Y-85610238D01*
X112309524Y-85610238D02*
X112404762Y-85515000D01*
X112404762Y-85515000D02*
X112547619Y-85467380D01*
X112547619Y-85467380D02*
X112642857Y-85467380D01*
X112642857Y-85467380D02*
X112785714Y-85515000D01*
X112785714Y-85515000D02*
X112833333Y-85562619D01*
X113309524Y-86467380D02*
X113500000Y-86467380D01*
X113500000Y-86467380D02*
X113595238Y-86419761D01*
X113595238Y-86419761D02*
X113642857Y-86372142D01*
X113642857Y-86372142D02*
X113738095Y-86229285D01*
X113738095Y-86229285D02*
X113785714Y-86038809D01*
X113785714Y-86038809D02*
X113785714Y-85657857D01*
X113785714Y-85657857D02*
X113738095Y-85562619D01*
X113738095Y-85562619D02*
X113690476Y-85515000D01*
X113690476Y-85515000D02*
X113595238Y-85467380D01*
X113595238Y-85467380D02*
X113404762Y-85467380D01*
X113404762Y-85467380D02*
X113309524Y-85515000D01*
X113309524Y-85515000D02*
X113261905Y-85562619D01*
X113261905Y-85562619D02*
X113214286Y-85657857D01*
X113214286Y-85657857D02*
X113214286Y-85895952D01*
X113214286Y-85895952D02*
X113261905Y-85991190D01*
X113261905Y-85991190D02*
X113309524Y-86038809D01*
X113309524Y-86038809D02*
X113404762Y-86086428D01*
X113404762Y-86086428D02*
X113595238Y-86086428D01*
X113595238Y-86086428D02*
X113690476Y-86038809D01*
X113690476Y-86038809D02*
X113738095Y-85991190D01*
X113738095Y-85991190D02*
X113785714Y-85895952D01*
X134733333Y-81967380D02*
X134400000Y-81491190D01*
X134161905Y-81967380D02*
X134161905Y-80967380D01*
X134161905Y-80967380D02*
X134542857Y-80967380D01*
X134542857Y-80967380D02*
X134638095Y-81015000D01*
X134638095Y-81015000D02*
X134685714Y-81062619D01*
X134685714Y-81062619D02*
X134733333Y-81157857D01*
X134733333Y-81157857D02*
X134733333Y-81300714D01*
X134733333Y-81300714D02*
X134685714Y-81395952D01*
X134685714Y-81395952D02*
X134638095Y-81443571D01*
X134638095Y-81443571D02*
X134542857Y-81491190D01*
X134542857Y-81491190D02*
X134161905Y-81491190D01*
X135304762Y-81395952D02*
X135209524Y-81348333D01*
X135209524Y-81348333D02*
X135161905Y-81300714D01*
X135161905Y-81300714D02*
X135114286Y-81205476D01*
X135114286Y-81205476D02*
X135114286Y-81157857D01*
X135114286Y-81157857D02*
X135161905Y-81062619D01*
X135161905Y-81062619D02*
X135209524Y-81015000D01*
X135209524Y-81015000D02*
X135304762Y-80967380D01*
X135304762Y-80967380D02*
X135495238Y-80967380D01*
X135495238Y-80967380D02*
X135590476Y-81015000D01*
X135590476Y-81015000D02*
X135638095Y-81062619D01*
X135638095Y-81062619D02*
X135685714Y-81157857D01*
X135685714Y-81157857D02*
X135685714Y-81205476D01*
X135685714Y-81205476D02*
X135638095Y-81300714D01*
X135638095Y-81300714D02*
X135590476Y-81348333D01*
X135590476Y-81348333D02*
X135495238Y-81395952D01*
X135495238Y-81395952D02*
X135304762Y-81395952D01*
X135304762Y-81395952D02*
X135209524Y-81443571D01*
X135209524Y-81443571D02*
X135161905Y-81491190D01*
X135161905Y-81491190D02*
X135114286Y-81586428D01*
X135114286Y-81586428D02*
X135114286Y-81776904D01*
X135114286Y-81776904D02*
X135161905Y-81872142D01*
X135161905Y-81872142D02*
X135209524Y-81919761D01*
X135209524Y-81919761D02*
X135304762Y-81967380D01*
X135304762Y-81967380D02*
X135495238Y-81967380D01*
X135495238Y-81967380D02*
X135590476Y-81919761D01*
X135590476Y-81919761D02*
X135638095Y-81872142D01*
X135638095Y-81872142D02*
X135685714Y-81776904D01*
X135685714Y-81776904D02*
X135685714Y-81586428D01*
X135685714Y-81586428D02*
X135638095Y-81491190D01*
X135638095Y-81491190D02*
X135590476Y-81443571D01*
X135590476Y-81443571D02*
X135495238Y-81395952D01*
X125033333Y-67167380D02*
X124700000Y-66691190D01*
X124461905Y-67167380D02*
X124461905Y-66167380D01*
X124461905Y-66167380D02*
X124842857Y-66167380D01*
X124842857Y-66167380D02*
X124938095Y-66215000D01*
X124938095Y-66215000D02*
X124985714Y-66262619D01*
X124985714Y-66262619D02*
X125033333Y-66357857D01*
X125033333Y-66357857D02*
X125033333Y-66500714D01*
X125033333Y-66500714D02*
X124985714Y-66595952D01*
X124985714Y-66595952D02*
X124938095Y-66643571D01*
X124938095Y-66643571D02*
X124842857Y-66691190D01*
X124842857Y-66691190D02*
X124461905Y-66691190D01*
X125938095Y-66167380D02*
X125461905Y-66167380D01*
X125461905Y-66167380D02*
X125414286Y-66643571D01*
X125414286Y-66643571D02*
X125461905Y-66595952D01*
X125461905Y-66595952D02*
X125557143Y-66548333D01*
X125557143Y-66548333D02*
X125795238Y-66548333D01*
X125795238Y-66548333D02*
X125890476Y-66595952D01*
X125890476Y-66595952D02*
X125938095Y-66643571D01*
X125938095Y-66643571D02*
X125985714Y-66738809D01*
X125985714Y-66738809D02*
X125985714Y-66976904D01*
X125985714Y-66976904D02*
X125938095Y-67072142D01*
X125938095Y-67072142D02*
X125890476Y-67119761D01*
X125890476Y-67119761D02*
X125795238Y-67167380D01*
X125795238Y-67167380D02*
X125557143Y-67167380D01*
X125557143Y-67167380D02*
X125461905Y-67119761D01*
X125461905Y-67119761D02*
X125414286Y-67072142D01*
X97661905Y-57967380D02*
X97661905Y-56967380D01*
X97661905Y-56967380D02*
X97900000Y-56967380D01*
X97900000Y-56967380D02*
X98042857Y-57015000D01*
X98042857Y-57015000D02*
X98138095Y-57110238D01*
X98138095Y-57110238D02*
X98185714Y-57205476D01*
X98185714Y-57205476D02*
X98233333Y-57395952D01*
X98233333Y-57395952D02*
X98233333Y-57538809D01*
X98233333Y-57538809D02*
X98185714Y-57729285D01*
X98185714Y-57729285D02*
X98138095Y-57824523D01*
X98138095Y-57824523D02*
X98042857Y-57919761D01*
X98042857Y-57919761D02*
X97900000Y-57967380D01*
X97900000Y-57967380D02*
X97661905Y-57967380D01*
X99185714Y-57967380D02*
X98614286Y-57967380D01*
X98900000Y-57967380D02*
X98900000Y-56967380D01*
X98900000Y-56967380D02*
X98804762Y-57110238D01*
X98804762Y-57110238D02*
X98709524Y-57205476D01*
X98709524Y-57205476D02*
X98614286Y-57253095D01*
X125672142Y-106742857D02*
X125719761Y-106790476D01*
X125719761Y-106790476D02*
X125767380Y-106933333D01*
X125767380Y-106933333D02*
X125767380Y-107028571D01*
X125767380Y-107028571D02*
X125719761Y-107171428D01*
X125719761Y-107171428D02*
X125624523Y-107266666D01*
X125624523Y-107266666D02*
X125529285Y-107314285D01*
X125529285Y-107314285D02*
X125338809Y-107361904D01*
X125338809Y-107361904D02*
X125195952Y-107361904D01*
X125195952Y-107361904D02*
X125005476Y-107314285D01*
X125005476Y-107314285D02*
X124910238Y-107266666D01*
X124910238Y-107266666D02*
X124815000Y-107171428D01*
X124815000Y-107171428D02*
X124767380Y-107028571D01*
X124767380Y-107028571D02*
X124767380Y-106933333D01*
X124767380Y-106933333D02*
X124815000Y-106790476D01*
X124815000Y-106790476D02*
X124862619Y-106742857D01*
X124862619Y-106361904D02*
X124815000Y-106314285D01*
X124815000Y-106314285D02*
X124767380Y-106219047D01*
X124767380Y-106219047D02*
X124767380Y-105980952D01*
X124767380Y-105980952D02*
X124815000Y-105885714D01*
X124815000Y-105885714D02*
X124862619Y-105838095D01*
X124862619Y-105838095D02*
X124957857Y-105790476D01*
X124957857Y-105790476D02*
X125053095Y-105790476D01*
X125053095Y-105790476D02*
X125195952Y-105838095D01*
X125195952Y-105838095D02*
X125767380Y-106409523D01*
X125767380Y-106409523D02*
X125767380Y-105790476D01*
X125100714Y-104933333D02*
X125767380Y-104933333D01*
X124719761Y-105171428D02*
X125434047Y-105409523D01*
X125434047Y-105409523D02*
X125434047Y-104790476D01*
X118557142Y-76472142D02*
X118509523Y-76519761D01*
X118509523Y-76519761D02*
X118366666Y-76567380D01*
X118366666Y-76567380D02*
X118271428Y-76567380D01*
X118271428Y-76567380D02*
X118128571Y-76519761D01*
X118128571Y-76519761D02*
X118033333Y-76424523D01*
X118033333Y-76424523D02*
X117985714Y-76329285D01*
X117985714Y-76329285D02*
X117938095Y-76138809D01*
X117938095Y-76138809D02*
X117938095Y-75995952D01*
X117938095Y-75995952D02*
X117985714Y-75805476D01*
X117985714Y-75805476D02*
X118033333Y-75710238D01*
X118033333Y-75710238D02*
X118128571Y-75615000D01*
X118128571Y-75615000D02*
X118271428Y-75567380D01*
X118271428Y-75567380D02*
X118366666Y-75567380D01*
X118366666Y-75567380D02*
X118509523Y-75615000D01*
X118509523Y-75615000D02*
X118557142Y-75662619D01*
X119509523Y-76567380D02*
X118938095Y-76567380D01*
X119223809Y-76567380D02*
X119223809Y-75567380D01*
X119223809Y-75567380D02*
X119128571Y-75710238D01*
X119128571Y-75710238D02*
X119033333Y-75805476D01*
X119033333Y-75805476D02*
X118938095Y-75853095D01*
X120128571Y-75567380D02*
X120223809Y-75567380D01*
X120223809Y-75567380D02*
X120319047Y-75615000D01*
X120319047Y-75615000D02*
X120366666Y-75662619D01*
X120366666Y-75662619D02*
X120414285Y-75757857D01*
X120414285Y-75757857D02*
X120461904Y-75948333D01*
X120461904Y-75948333D02*
X120461904Y-76186428D01*
X120461904Y-76186428D02*
X120414285Y-76376904D01*
X120414285Y-76376904D02*
X120366666Y-76472142D01*
X120366666Y-76472142D02*
X120319047Y-76519761D01*
X120319047Y-76519761D02*
X120223809Y-76567380D01*
X120223809Y-76567380D02*
X120128571Y-76567380D01*
X120128571Y-76567380D02*
X120033333Y-76519761D01*
X120033333Y-76519761D02*
X119985714Y-76472142D01*
X119985714Y-76472142D02*
X119938095Y-76376904D01*
X119938095Y-76376904D02*
X119890476Y-76186428D01*
X119890476Y-76186428D02*
X119890476Y-75948333D01*
X119890476Y-75948333D02*
X119938095Y-75757857D01*
X119938095Y-75757857D02*
X119985714Y-75662619D01*
X119985714Y-75662619D02*
X120033333Y-75615000D01*
X120033333Y-75615000D02*
X120128571Y-75567380D01*
X117338095Y-96067380D02*
X117338095Y-96876904D01*
X117338095Y-96876904D02*
X117385714Y-96972142D01*
X117385714Y-96972142D02*
X117433333Y-97019761D01*
X117433333Y-97019761D02*
X117528571Y-97067380D01*
X117528571Y-97067380D02*
X117719047Y-97067380D01*
X117719047Y-97067380D02*
X117814285Y-97019761D01*
X117814285Y-97019761D02*
X117861904Y-96972142D01*
X117861904Y-96972142D02*
X117909523Y-96876904D01*
X117909523Y-96876904D02*
X117909523Y-96067380D01*
X118528571Y-96495952D02*
X118433333Y-96448333D01*
X118433333Y-96448333D02*
X118385714Y-96400714D01*
X118385714Y-96400714D02*
X118338095Y-96305476D01*
X118338095Y-96305476D02*
X118338095Y-96257857D01*
X118338095Y-96257857D02*
X118385714Y-96162619D01*
X118385714Y-96162619D02*
X118433333Y-96115000D01*
X118433333Y-96115000D02*
X118528571Y-96067380D01*
X118528571Y-96067380D02*
X118719047Y-96067380D01*
X118719047Y-96067380D02*
X118814285Y-96115000D01*
X118814285Y-96115000D02*
X118861904Y-96162619D01*
X118861904Y-96162619D02*
X118909523Y-96257857D01*
X118909523Y-96257857D02*
X118909523Y-96305476D01*
X118909523Y-96305476D02*
X118861904Y-96400714D01*
X118861904Y-96400714D02*
X118814285Y-96448333D01*
X118814285Y-96448333D02*
X118719047Y-96495952D01*
X118719047Y-96495952D02*
X118528571Y-96495952D01*
X118528571Y-96495952D02*
X118433333Y-96543571D01*
X118433333Y-96543571D02*
X118385714Y-96591190D01*
X118385714Y-96591190D02*
X118338095Y-96686428D01*
X118338095Y-96686428D02*
X118338095Y-96876904D01*
X118338095Y-96876904D02*
X118385714Y-96972142D01*
X118385714Y-96972142D02*
X118433333Y-97019761D01*
X118433333Y-97019761D02*
X118528571Y-97067380D01*
X118528571Y-97067380D02*
X118719047Y-97067380D01*
X118719047Y-97067380D02*
X118814285Y-97019761D01*
X118814285Y-97019761D02*
X118861904Y-96972142D01*
X118861904Y-96972142D02*
X118909523Y-96876904D01*
X118909523Y-96876904D02*
X118909523Y-96686428D01*
X118909523Y-96686428D02*
X118861904Y-96591190D01*
X118861904Y-96591190D02*
X118814285Y-96543571D01*
X118814285Y-96543571D02*
X118719047Y-96495952D01*
X94067380Y-70833333D02*
X94781666Y-70833333D01*
X94781666Y-70833333D02*
X94924523Y-70880952D01*
X94924523Y-70880952D02*
X95019761Y-70976190D01*
X95019761Y-70976190D02*
X95067380Y-71119047D01*
X95067380Y-71119047D02*
X95067380Y-71214285D01*
X95067380Y-70357142D02*
X94067380Y-70357142D01*
X94067380Y-70357142D02*
X94067380Y-69976190D01*
X94067380Y-69976190D02*
X94115000Y-69880952D01*
X94115000Y-69880952D02*
X94162619Y-69833333D01*
X94162619Y-69833333D02*
X94257857Y-69785714D01*
X94257857Y-69785714D02*
X94400714Y-69785714D01*
X94400714Y-69785714D02*
X94495952Y-69833333D01*
X94495952Y-69833333D02*
X94543571Y-69880952D01*
X94543571Y-69880952D02*
X94591190Y-69976190D01*
X94591190Y-69976190D02*
X94591190Y-70357142D01*
X95067380Y-68833333D02*
X95067380Y-69404761D01*
X95067380Y-69119047D02*
X94067380Y-69119047D01*
X94067380Y-69119047D02*
X94210238Y-69214285D01*
X94210238Y-69214285D02*
X94305476Y-69309523D01*
X94305476Y-69309523D02*
X94353095Y-69404761D01*
X93333333Y-86067380D02*
X93000000Y-85591190D01*
X92761905Y-86067380D02*
X92761905Y-85067380D01*
X92761905Y-85067380D02*
X93142857Y-85067380D01*
X93142857Y-85067380D02*
X93238095Y-85115000D01*
X93238095Y-85115000D02*
X93285714Y-85162619D01*
X93285714Y-85162619D02*
X93333333Y-85257857D01*
X93333333Y-85257857D02*
X93333333Y-85400714D01*
X93333333Y-85400714D02*
X93285714Y-85495952D01*
X93285714Y-85495952D02*
X93238095Y-85543571D01*
X93238095Y-85543571D02*
X93142857Y-85591190D01*
X93142857Y-85591190D02*
X92761905Y-85591190D01*
X93666667Y-85067380D02*
X94333333Y-85067380D01*
X94333333Y-85067380D02*
X93904762Y-86067380D01*
X107072142Y-59342857D02*
X107119761Y-59390476D01*
X107119761Y-59390476D02*
X107167380Y-59533333D01*
X107167380Y-59533333D02*
X107167380Y-59628571D01*
X107167380Y-59628571D02*
X107119761Y-59771428D01*
X107119761Y-59771428D02*
X107024523Y-59866666D01*
X107024523Y-59866666D02*
X106929285Y-59914285D01*
X106929285Y-59914285D02*
X106738809Y-59961904D01*
X106738809Y-59961904D02*
X106595952Y-59961904D01*
X106595952Y-59961904D02*
X106405476Y-59914285D01*
X106405476Y-59914285D02*
X106310238Y-59866666D01*
X106310238Y-59866666D02*
X106215000Y-59771428D01*
X106215000Y-59771428D02*
X106167380Y-59628571D01*
X106167380Y-59628571D02*
X106167380Y-59533333D01*
X106167380Y-59533333D02*
X106215000Y-59390476D01*
X106215000Y-59390476D02*
X106262619Y-59342857D01*
X107167380Y-58390476D02*
X107167380Y-58961904D01*
X107167380Y-58676190D02*
X106167380Y-58676190D01*
X106167380Y-58676190D02*
X106310238Y-58771428D01*
X106310238Y-58771428D02*
X106405476Y-58866666D01*
X106405476Y-58866666D02*
X106453095Y-58961904D01*
X106500714Y-57533333D02*
X107167380Y-57533333D01*
X106119761Y-57771428D02*
X106834047Y-58009523D01*
X106834047Y-58009523D02*
X106834047Y-57390476D01*
X114367380Y-71366666D02*
X113891190Y-71699999D01*
X114367380Y-71938094D02*
X113367380Y-71938094D01*
X113367380Y-71938094D02*
X113367380Y-71557142D01*
X113367380Y-71557142D02*
X113415000Y-71461904D01*
X113415000Y-71461904D02*
X113462619Y-71414285D01*
X113462619Y-71414285D02*
X113557857Y-71366666D01*
X113557857Y-71366666D02*
X113700714Y-71366666D01*
X113700714Y-71366666D02*
X113795952Y-71414285D01*
X113795952Y-71414285D02*
X113843571Y-71461904D01*
X113843571Y-71461904D02*
X113891190Y-71557142D01*
X113891190Y-71557142D02*
X113891190Y-71938094D01*
X113462619Y-70985713D02*
X113415000Y-70938094D01*
X113415000Y-70938094D02*
X113367380Y-70842856D01*
X113367380Y-70842856D02*
X113367380Y-70604761D01*
X113367380Y-70604761D02*
X113415000Y-70509523D01*
X113415000Y-70509523D02*
X113462619Y-70461904D01*
X113462619Y-70461904D02*
X113557857Y-70414285D01*
X113557857Y-70414285D02*
X113653095Y-70414285D01*
X113653095Y-70414285D02*
X113795952Y-70461904D01*
X113795952Y-70461904D02*
X114367380Y-71033332D01*
X114367380Y-71033332D02*
X114367380Y-70414285D01*
X106933333Y-66742142D02*
X106885714Y-66789761D01*
X106885714Y-66789761D02*
X106742857Y-66837380D01*
X106742857Y-66837380D02*
X106647619Y-66837380D01*
X106647619Y-66837380D02*
X106504762Y-66789761D01*
X106504762Y-66789761D02*
X106409524Y-66694523D01*
X106409524Y-66694523D02*
X106361905Y-66599285D01*
X106361905Y-66599285D02*
X106314286Y-66408809D01*
X106314286Y-66408809D02*
X106314286Y-66265952D01*
X106314286Y-66265952D02*
X106361905Y-66075476D01*
X106361905Y-66075476D02*
X106409524Y-65980238D01*
X106409524Y-65980238D02*
X106504762Y-65885000D01*
X106504762Y-65885000D02*
X106647619Y-65837380D01*
X106647619Y-65837380D02*
X106742857Y-65837380D01*
X106742857Y-65837380D02*
X106885714Y-65885000D01*
X106885714Y-65885000D02*
X106933333Y-65932619D01*
X107885714Y-66837380D02*
X107314286Y-66837380D01*
X107600000Y-66837380D02*
X107600000Y-65837380D01*
X107600000Y-65837380D02*
X107504762Y-65980238D01*
X107504762Y-65980238D02*
X107409524Y-66075476D01*
X107409524Y-66075476D02*
X107314286Y-66123095D01*
X92757142Y-82942142D02*
X92709523Y-82989761D01*
X92709523Y-82989761D02*
X92566666Y-83037380D01*
X92566666Y-83037380D02*
X92471428Y-83037380D01*
X92471428Y-83037380D02*
X92328571Y-82989761D01*
X92328571Y-82989761D02*
X92233333Y-82894523D01*
X92233333Y-82894523D02*
X92185714Y-82799285D01*
X92185714Y-82799285D02*
X92138095Y-82608809D01*
X92138095Y-82608809D02*
X92138095Y-82465952D01*
X92138095Y-82465952D02*
X92185714Y-82275476D01*
X92185714Y-82275476D02*
X92233333Y-82180238D01*
X92233333Y-82180238D02*
X92328571Y-82085000D01*
X92328571Y-82085000D02*
X92471428Y-82037380D01*
X92471428Y-82037380D02*
X92566666Y-82037380D01*
X92566666Y-82037380D02*
X92709523Y-82085000D01*
X92709523Y-82085000D02*
X92757142Y-82132619D01*
X93709523Y-83037380D02*
X93138095Y-83037380D01*
X93423809Y-83037380D02*
X93423809Y-82037380D01*
X93423809Y-82037380D02*
X93328571Y-82180238D01*
X93328571Y-82180238D02*
X93233333Y-82275476D01*
X93233333Y-82275476D02*
X93138095Y-82323095D01*
X94566666Y-82037380D02*
X94376190Y-82037380D01*
X94376190Y-82037380D02*
X94280952Y-82085000D01*
X94280952Y-82085000D02*
X94233333Y-82132619D01*
X94233333Y-82132619D02*
X94138095Y-82275476D01*
X94138095Y-82275476D02*
X94090476Y-82465952D01*
X94090476Y-82465952D02*
X94090476Y-82846904D01*
X94090476Y-82846904D02*
X94138095Y-82942142D01*
X94138095Y-82942142D02*
X94185714Y-82989761D01*
X94185714Y-82989761D02*
X94280952Y-83037380D01*
X94280952Y-83037380D02*
X94471428Y-83037380D01*
X94471428Y-83037380D02*
X94566666Y-82989761D01*
X94566666Y-82989761D02*
X94614285Y-82942142D01*
X94614285Y-82942142D02*
X94661904Y-82846904D01*
X94661904Y-82846904D02*
X94661904Y-82608809D01*
X94661904Y-82608809D02*
X94614285Y-82513571D01*
X94614285Y-82513571D02*
X94566666Y-82465952D01*
X94566666Y-82465952D02*
X94471428Y-82418333D01*
X94471428Y-82418333D02*
X94280952Y-82418333D01*
X94280952Y-82418333D02*
X94185714Y-82465952D01*
X94185714Y-82465952D02*
X94138095Y-82513571D01*
X94138095Y-82513571D02*
X94090476Y-82608809D01*
X125672142Y-96442857D02*
X125719761Y-96490476D01*
X125719761Y-96490476D02*
X125767380Y-96633333D01*
X125767380Y-96633333D02*
X125767380Y-96728571D01*
X125767380Y-96728571D02*
X125719761Y-96871428D01*
X125719761Y-96871428D02*
X125624523Y-96966666D01*
X125624523Y-96966666D02*
X125529285Y-97014285D01*
X125529285Y-97014285D02*
X125338809Y-97061904D01*
X125338809Y-97061904D02*
X125195952Y-97061904D01*
X125195952Y-97061904D02*
X125005476Y-97014285D01*
X125005476Y-97014285D02*
X124910238Y-96966666D01*
X124910238Y-96966666D02*
X124815000Y-96871428D01*
X124815000Y-96871428D02*
X124767380Y-96728571D01*
X124767380Y-96728571D02*
X124767380Y-96633333D01*
X124767380Y-96633333D02*
X124815000Y-96490476D01*
X124815000Y-96490476D02*
X124862619Y-96442857D01*
X124862619Y-96061904D02*
X124815000Y-96014285D01*
X124815000Y-96014285D02*
X124767380Y-95919047D01*
X124767380Y-95919047D02*
X124767380Y-95680952D01*
X124767380Y-95680952D02*
X124815000Y-95585714D01*
X124815000Y-95585714D02*
X124862619Y-95538095D01*
X124862619Y-95538095D02*
X124957857Y-95490476D01*
X124957857Y-95490476D02*
X125053095Y-95490476D01*
X125053095Y-95490476D02*
X125195952Y-95538095D01*
X125195952Y-95538095D02*
X125767380Y-96109523D01*
X125767380Y-96109523D02*
X125767380Y-95490476D01*
X124862619Y-95109523D02*
X124815000Y-95061904D01*
X124815000Y-95061904D02*
X124767380Y-94966666D01*
X124767380Y-94966666D02*
X124767380Y-94728571D01*
X124767380Y-94728571D02*
X124815000Y-94633333D01*
X124815000Y-94633333D02*
X124862619Y-94585714D01*
X124862619Y-94585714D02*
X124957857Y-94538095D01*
X124957857Y-94538095D02*
X125053095Y-94538095D01*
X125053095Y-94538095D02*
X125195952Y-94585714D01*
X125195952Y-94585714D02*
X125767380Y-95157142D01*
X125767380Y-95157142D02*
X125767380Y-94538095D01*
X103438095Y-67567380D02*
X103438095Y-68376904D01*
X103438095Y-68376904D02*
X103485714Y-68472142D01*
X103485714Y-68472142D02*
X103533333Y-68519761D01*
X103533333Y-68519761D02*
X103628571Y-68567380D01*
X103628571Y-68567380D02*
X103819047Y-68567380D01*
X103819047Y-68567380D02*
X103914285Y-68519761D01*
X103914285Y-68519761D02*
X103961904Y-68472142D01*
X103961904Y-68472142D02*
X104009523Y-68376904D01*
X104009523Y-68376904D02*
X104009523Y-67567380D01*
X105009523Y-68567380D02*
X104438095Y-68567380D01*
X104723809Y-68567380D02*
X104723809Y-67567380D01*
X104723809Y-67567380D02*
X104628571Y-67710238D01*
X104628571Y-67710238D02*
X104533333Y-67805476D01*
X104533333Y-67805476D02*
X104438095Y-67853095D01*
X130333333Y-67167380D02*
X130000000Y-66691190D01*
X129761905Y-67167380D02*
X129761905Y-66167380D01*
X129761905Y-66167380D02*
X130142857Y-66167380D01*
X130142857Y-66167380D02*
X130238095Y-66215000D01*
X130238095Y-66215000D02*
X130285714Y-66262619D01*
X130285714Y-66262619D02*
X130333333Y-66357857D01*
X130333333Y-66357857D02*
X130333333Y-66500714D01*
X130333333Y-66500714D02*
X130285714Y-66595952D01*
X130285714Y-66595952D02*
X130238095Y-66643571D01*
X130238095Y-66643571D02*
X130142857Y-66691190D01*
X130142857Y-66691190D02*
X129761905Y-66691190D01*
X131190476Y-66167380D02*
X131000000Y-66167380D01*
X131000000Y-66167380D02*
X130904762Y-66215000D01*
X130904762Y-66215000D02*
X130857143Y-66262619D01*
X130857143Y-66262619D02*
X130761905Y-66405476D01*
X130761905Y-66405476D02*
X130714286Y-66595952D01*
X130714286Y-66595952D02*
X130714286Y-66976904D01*
X130714286Y-66976904D02*
X130761905Y-67072142D01*
X130761905Y-67072142D02*
X130809524Y-67119761D01*
X130809524Y-67119761D02*
X130904762Y-67167380D01*
X130904762Y-67167380D02*
X131095238Y-67167380D01*
X131095238Y-67167380D02*
X131190476Y-67119761D01*
X131190476Y-67119761D02*
X131238095Y-67072142D01*
X131238095Y-67072142D02*
X131285714Y-66976904D01*
X131285714Y-66976904D02*
X131285714Y-66738809D01*
X131285714Y-66738809D02*
X131238095Y-66643571D01*
X131238095Y-66643571D02*
X131190476Y-66595952D01*
X131190476Y-66595952D02*
X131095238Y-66548333D01*
X131095238Y-66548333D02*
X130904762Y-66548333D01*
X130904762Y-66548333D02*
X130809524Y-66595952D01*
X130809524Y-66595952D02*
X130761905Y-66643571D01*
X130761905Y-66643571D02*
X130714286Y-66738809D01*
X96938095Y-96167380D02*
X96938095Y-96976904D01*
X96938095Y-96976904D02*
X96985714Y-97072142D01*
X96985714Y-97072142D02*
X97033333Y-97119761D01*
X97033333Y-97119761D02*
X97128571Y-97167380D01*
X97128571Y-97167380D02*
X97319047Y-97167380D01*
X97319047Y-97167380D02*
X97414285Y-97119761D01*
X97414285Y-97119761D02*
X97461904Y-97072142D01*
X97461904Y-97072142D02*
X97509523Y-96976904D01*
X97509523Y-96976904D02*
X97509523Y-96167380D01*
X97890476Y-96167380D02*
X98557142Y-96167380D01*
X98557142Y-96167380D02*
X98128571Y-97167380D01*
X126238095Y-95967380D02*
X126238095Y-96776904D01*
X126238095Y-96776904D02*
X126285714Y-96872142D01*
X126285714Y-96872142D02*
X126333333Y-96919761D01*
X126333333Y-96919761D02*
X126428571Y-96967380D01*
X126428571Y-96967380D02*
X126619047Y-96967380D01*
X126619047Y-96967380D02*
X126714285Y-96919761D01*
X126714285Y-96919761D02*
X126761904Y-96872142D01*
X126761904Y-96872142D02*
X126809523Y-96776904D01*
X126809523Y-96776904D02*
X126809523Y-95967380D01*
X127714285Y-95967380D02*
X127523809Y-95967380D01*
X127523809Y-95967380D02*
X127428571Y-96015000D01*
X127428571Y-96015000D02*
X127380952Y-96062619D01*
X127380952Y-96062619D02*
X127285714Y-96205476D01*
X127285714Y-96205476D02*
X127238095Y-96395952D01*
X127238095Y-96395952D02*
X127238095Y-96776904D01*
X127238095Y-96776904D02*
X127285714Y-96872142D01*
X127285714Y-96872142D02*
X127333333Y-96919761D01*
X127333333Y-96919761D02*
X127428571Y-96967380D01*
X127428571Y-96967380D02*
X127619047Y-96967380D01*
X127619047Y-96967380D02*
X127714285Y-96919761D01*
X127714285Y-96919761D02*
X127761904Y-96872142D01*
X127761904Y-96872142D02*
X127809523Y-96776904D01*
X127809523Y-96776904D02*
X127809523Y-96538809D01*
X127809523Y-96538809D02*
X127761904Y-96443571D01*
X127761904Y-96443571D02*
X127714285Y-96395952D01*
X127714285Y-96395952D02*
X127619047Y-96348333D01*
X127619047Y-96348333D02*
X127428571Y-96348333D01*
X127428571Y-96348333D02*
X127333333Y-96395952D01*
X127333333Y-96395952D02*
X127285714Y-96443571D01*
X127285714Y-96443571D02*
X127238095Y-96538809D01*
X88734905Y-69862380D02*
X88734905Y-68862380D01*
X88734905Y-68862380D02*
X88973000Y-68862380D01*
X88973000Y-68862380D02*
X89115857Y-68910000D01*
X89115857Y-68910000D02*
X89211095Y-69005238D01*
X89211095Y-69005238D02*
X89258714Y-69100476D01*
X89258714Y-69100476D02*
X89306333Y-69290952D01*
X89306333Y-69290952D02*
X89306333Y-69433809D01*
X89306333Y-69433809D02*
X89258714Y-69624285D01*
X89258714Y-69624285D02*
X89211095Y-69719523D01*
X89211095Y-69719523D02*
X89115857Y-69814761D01*
X89115857Y-69814761D02*
X88973000Y-69862380D01*
X88973000Y-69862380D02*
X88734905Y-69862380D01*
X89639667Y-68862380D02*
X90258714Y-68862380D01*
X90258714Y-68862380D02*
X89925381Y-69243333D01*
X89925381Y-69243333D02*
X90068238Y-69243333D01*
X90068238Y-69243333D02*
X90163476Y-69290952D01*
X90163476Y-69290952D02*
X90211095Y-69338571D01*
X90211095Y-69338571D02*
X90258714Y-69433809D01*
X90258714Y-69433809D02*
X90258714Y-69671904D01*
X90258714Y-69671904D02*
X90211095Y-69767142D01*
X90211095Y-69767142D02*
X90163476Y-69814761D01*
X90163476Y-69814761D02*
X90068238Y-69862380D01*
X90068238Y-69862380D02*
X89782524Y-69862380D01*
X89782524Y-69862380D02*
X89687286Y-69814761D01*
X89687286Y-69814761D02*
X89639667Y-69767142D01*
X89057142Y-82942142D02*
X89009523Y-82989761D01*
X89009523Y-82989761D02*
X88866666Y-83037380D01*
X88866666Y-83037380D02*
X88771428Y-83037380D01*
X88771428Y-83037380D02*
X88628571Y-82989761D01*
X88628571Y-82989761D02*
X88533333Y-82894523D01*
X88533333Y-82894523D02*
X88485714Y-82799285D01*
X88485714Y-82799285D02*
X88438095Y-82608809D01*
X88438095Y-82608809D02*
X88438095Y-82465952D01*
X88438095Y-82465952D02*
X88485714Y-82275476D01*
X88485714Y-82275476D02*
X88533333Y-82180238D01*
X88533333Y-82180238D02*
X88628571Y-82085000D01*
X88628571Y-82085000D02*
X88771428Y-82037380D01*
X88771428Y-82037380D02*
X88866666Y-82037380D01*
X88866666Y-82037380D02*
X89009523Y-82085000D01*
X89009523Y-82085000D02*
X89057142Y-82132619D01*
X90009523Y-83037380D02*
X89438095Y-83037380D01*
X89723809Y-83037380D02*
X89723809Y-82037380D01*
X89723809Y-82037380D02*
X89628571Y-82180238D01*
X89628571Y-82180238D02*
X89533333Y-82275476D01*
X89533333Y-82275476D02*
X89438095Y-82323095D01*
X90914285Y-82037380D02*
X90438095Y-82037380D01*
X90438095Y-82037380D02*
X90390476Y-82513571D01*
X90390476Y-82513571D02*
X90438095Y-82465952D01*
X90438095Y-82465952D02*
X90533333Y-82418333D01*
X90533333Y-82418333D02*
X90771428Y-82418333D01*
X90771428Y-82418333D02*
X90866666Y-82465952D01*
X90866666Y-82465952D02*
X90914285Y-82513571D01*
X90914285Y-82513571D02*
X90961904Y-82608809D01*
X90961904Y-82608809D02*
X90961904Y-82846904D01*
X90961904Y-82846904D02*
X90914285Y-82942142D01*
X90914285Y-82942142D02*
X90866666Y-82989761D01*
X90866666Y-82989761D02*
X90771428Y-83037380D01*
X90771428Y-83037380D02*
X90533333Y-83037380D01*
X90533333Y-83037380D02*
X90438095Y-82989761D01*
X90438095Y-82989761D02*
X90390476Y-82942142D01*
X133062619Y-91295238D02*
X133015000Y-91390476D01*
X133015000Y-91390476D02*
X132919761Y-91485714D01*
X132919761Y-91485714D02*
X132776904Y-91628571D01*
X132776904Y-91628571D02*
X132729285Y-91723809D01*
X132729285Y-91723809D02*
X132729285Y-91819047D01*
X132967380Y-91771428D02*
X132919761Y-91866666D01*
X132919761Y-91866666D02*
X132824523Y-91961904D01*
X132824523Y-91961904D02*
X132634047Y-92009523D01*
X132634047Y-92009523D02*
X132300714Y-92009523D01*
X132300714Y-92009523D02*
X132110238Y-91961904D01*
X132110238Y-91961904D02*
X132015000Y-91866666D01*
X132015000Y-91866666D02*
X131967380Y-91771428D01*
X131967380Y-91771428D02*
X131967380Y-91580952D01*
X131967380Y-91580952D02*
X132015000Y-91485714D01*
X132015000Y-91485714D02*
X132110238Y-91390476D01*
X132110238Y-91390476D02*
X132300714Y-91342857D01*
X132300714Y-91342857D02*
X132634047Y-91342857D01*
X132634047Y-91342857D02*
X132824523Y-91390476D01*
X132824523Y-91390476D02*
X132919761Y-91485714D01*
X132919761Y-91485714D02*
X132967380Y-91580952D01*
X132967380Y-91580952D02*
X132967380Y-91771428D01*
X132967380Y-90390476D02*
X132967380Y-90961904D01*
X132967380Y-90676190D02*
X131967380Y-90676190D01*
X131967380Y-90676190D02*
X132110238Y-90771428D01*
X132110238Y-90771428D02*
X132205476Y-90866666D01*
X132205476Y-90866666D02*
X132253095Y-90961904D01*
X88961905Y-86067380D02*
X88961905Y-85067380D01*
X88961905Y-85067380D02*
X89200000Y-85067380D01*
X89200000Y-85067380D02*
X89342857Y-85115000D01*
X89342857Y-85115000D02*
X89438095Y-85210238D01*
X89438095Y-85210238D02*
X89485714Y-85305476D01*
X89485714Y-85305476D02*
X89533333Y-85495952D01*
X89533333Y-85495952D02*
X89533333Y-85638809D01*
X89533333Y-85638809D02*
X89485714Y-85829285D01*
X89485714Y-85829285D02*
X89438095Y-85924523D01*
X89438095Y-85924523D02*
X89342857Y-86019761D01*
X89342857Y-86019761D02*
X89200000Y-86067380D01*
X89200000Y-86067380D02*
X88961905Y-86067380D01*
X89914286Y-85162619D02*
X89961905Y-85115000D01*
X89961905Y-85115000D02*
X90057143Y-85067380D01*
X90057143Y-85067380D02*
X90295238Y-85067380D01*
X90295238Y-85067380D02*
X90390476Y-85115000D01*
X90390476Y-85115000D02*
X90438095Y-85162619D01*
X90438095Y-85162619D02*
X90485714Y-85257857D01*
X90485714Y-85257857D02*
X90485714Y-85353095D01*
X90485714Y-85353095D02*
X90438095Y-85495952D01*
X90438095Y-85495952D02*
X89866667Y-86067380D01*
X89866667Y-86067380D02*
X90485714Y-86067380D01*
X101433333Y-66837380D02*
X101100000Y-66361190D01*
X100861905Y-66837380D02*
X100861905Y-65837380D01*
X100861905Y-65837380D02*
X101242857Y-65837380D01*
X101242857Y-65837380D02*
X101338095Y-65885000D01*
X101338095Y-65885000D02*
X101385714Y-65932619D01*
X101385714Y-65932619D02*
X101433333Y-66027857D01*
X101433333Y-66027857D02*
X101433333Y-66170714D01*
X101433333Y-66170714D02*
X101385714Y-66265952D01*
X101385714Y-66265952D02*
X101338095Y-66313571D01*
X101338095Y-66313571D02*
X101242857Y-66361190D01*
X101242857Y-66361190D02*
X100861905Y-66361190D01*
X102385714Y-66837380D02*
X101814286Y-66837380D01*
X102100000Y-66837380D02*
X102100000Y-65837380D01*
X102100000Y-65837380D02*
X102004762Y-65980238D01*
X102004762Y-65980238D02*
X101909524Y-66075476D01*
X101909524Y-66075476D02*
X101814286Y-66123095D01*
X89838095Y-98767380D02*
X89838095Y-99576904D01*
X89838095Y-99576904D02*
X89885714Y-99672142D01*
X89885714Y-99672142D02*
X89933333Y-99719761D01*
X89933333Y-99719761D02*
X90028571Y-99767380D01*
X90028571Y-99767380D02*
X90219047Y-99767380D01*
X90219047Y-99767380D02*
X90314285Y-99719761D01*
X90314285Y-99719761D02*
X90361904Y-99672142D01*
X90361904Y-99672142D02*
X90409523Y-99576904D01*
X90409523Y-99576904D02*
X90409523Y-98767380D01*
X91361904Y-98767380D02*
X90885714Y-98767380D01*
X90885714Y-98767380D02*
X90838095Y-99243571D01*
X90838095Y-99243571D02*
X90885714Y-99195952D01*
X90885714Y-99195952D02*
X90980952Y-99148333D01*
X90980952Y-99148333D02*
X91219047Y-99148333D01*
X91219047Y-99148333D02*
X91314285Y-99195952D01*
X91314285Y-99195952D02*
X91361904Y-99243571D01*
X91361904Y-99243571D02*
X91409523Y-99338809D01*
X91409523Y-99338809D02*
X91409523Y-99576904D01*
X91409523Y-99576904D02*
X91361904Y-99672142D01*
X91361904Y-99672142D02*
X91314285Y-99719761D01*
X91314285Y-99719761D02*
X91219047Y-99767380D01*
X91219047Y-99767380D02*
X90980952Y-99767380D01*
X90980952Y-99767380D02*
X90885714Y-99719761D01*
X90885714Y-99719761D02*
X90838095Y-99672142D01*
X118872142Y-71242857D02*
X118919761Y-71290476D01*
X118919761Y-71290476D02*
X118967380Y-71433333D01*
X118967380Y-71433333D02*
X118967380Y-71528571D01*
X118967380Y-71528571D02*
X118919761Y-71671428D01*
X118919761Y-71671428D02*
X118824523Y-71766666D01*
X118824523Y-71766666D02*
X118729285Y-71814285D01*
X118729285Y-71814285D02*
X118538809Y-71861904D01*
X118538809Y-71861904D02*
X118395952Y-71861904D01*
X118395952Y-71861904D02*
X118205476Y-71814285D01*
X118205476Y-71814285D02*
X118110238Y-71766666D01*
X118110238Y-71766666D02*
X118015000Y-71671428D01*
X118015000Y-71671428D02*
X117967380Y-71528571D01*
X117967380Y-71528571D02*
X117967380Y-71433333D01*
X117967380Y-71433333D02*
X118015000Y-71290476D01*
X118015000Y-71290476D02*
X118062619Y-71242857D01*
X118967380Y-70290476D02*
X118967380Y-70861904D01*
X118967380Y-70576190D02*
X117967380Y-70576190D01*
X117967380Y-70576190D02*
X118110238Y-70671428D01*
X118110238Y-70671428D02*
X118205476Y-70766666D01*
X118205476Y-70766666D02*
X118253095Y-70861904D01*
X118967380Y-69338095D02*
X118967380Y-69909523D01*
X118967380Y-69623809D02*
X117967380Y-69623809D01*
X117967380Y-69623809D02*
X118110238Y-69719047D01*
X118110238Y-69719047D02*
X118205476Y-69814285D01*
X118205476Y-69814285D02*
X118253095Y-69909523D01*
X117372142Y-70766666D02*
X117419761Y-70814285D01*
X117419761Y-70814285D02*
X117467380Y-70957142D01*
X117467380Y-70957142D02*
X117467380Y-71052380D01*
X117467380Y-71052380D02*
X117419761Y-71195237D01*
X117419761Y-71195237D02*
X117324523Y-71290475D01*
X117324523Y-71290475D02*
X117229285Y-71338094D01*
X117229285Y-71338094D02*
X117038809Y-71385713D01*
X117038809Y-71385713D02*
X116895952Y-71385713D01*
X116895952Y-71385713D02*
X116705476Y-71338094D01*
X116705476Y-71338094D02*
X116610238Y-71290475D01*
X116610238Y-71290475D02*
X116515000Y-71195237D01*
X116515000Y-71195237D02*
X116467380Y-71052380D01*
X116467380Y-71052380D02*
X116467380Y-70957142D01*
X116467380Y-70957142D02*
X116515000Y-70814285D01*
X116515000Y-70814285D02*
X116562619Y-70766666D01*
X116467380Y-70433332D02*
X116467380Y-69766666D01*
X116467380Y-69766666D02*
X117467380Y-70195237D01*
D13*
X118830000Y-59060000D02*
X118830000Y-60860000D01*
X118830000Y-56960000D02*
X118830000Y-55810000D01*
X109490000Y-59060000D02*
X109490000Y-60860000D01*
X109490000Y-56960000D02*
X109490000Y-55810000D01*
X104484165Y-81940000D02*
X104715835Y-81940000D01*
X104484165Y-82660000D02*
X104715835Y-82660000D01*
X134710000Y-98653733D02*
X134710000Y-98946267D01*
X133690000Y-98653733D02*
X133690000Y-98946267D01*
X114977500Y-73954724D02*
X114977500Y-73445276D01*
X116022500Y-73954724D02*
X116022500Y-73445276D01*
X114822500Y-90395276D02*
X114822500Y-90904724D01*
X113777500Y-90395276D02*
X113777500Y-90904724D01*
X111760000Y-74384165D02*
X111760000Y-74615835D01*
X111040000Y-74384165D02*
X111040000Y-74615835D01*
X112760000Y-74384165D02*
X112760000Y-74615835D01*
X112040000Y-74384165D02*
X112040000Y-74615835D01*
X115515835Y-87460000D02*
X115284165Y-87460000D01*
X115515835Y-86740000D02*
X115284165Y-86740000D01*
X119175835Y-81960000D02*
X118944165Y-81960000D01*
X119175835Y-81240000D02*
X118944165Y-81240000D01*
X125160000Y-71550000D02*
X125160000Y-73550000D01*
X126210000Y-70250000D02*
X126660000Y-69800000D01*
X126210000Y-74850000D02*
X126660000Y-75300000D01*
X126660000Y-69800000D02*
X129160000Y-69800000D01*
X126660000Y-75300000D02*
X129160000Y-75300000D01*
X129610000Y-70250000D02*
X129160000Y-69800000D01*
X129610000Y-74850000D02*
X129160000Y-75300000D01*
X130660000Y-71550000D02*
X130660000Y-73550000D01*
X135154724Y-86122500D02*
X134645276Y-86122500D01*
X135154724Y-85077500D02*
X134645276Y-85077500D01*
D14*
X88547200Y-79527600D02*
X95252800Y-79527600D01*
X95252800Y-79527600D02*
X95252800Y-75819200D01*
X88547200Y-75819200D02*
X88547200Y-79527600D01*
X90147400Y-75819200D02*
X88547200Y-75819200D01*
X95252800Y-75819200D02*
X93652600Y-75819200D01*
D13*
X109153733Y-92790000D02*
X109446267Y-92790000D01*
X109153733Y-93810000D02*
X109446267Y-93810000D01*
X105310000Y-98753733D02*
X105310000Y-99046267D01*
X104290000Y-98753733D02*
X104290000Y-99046267D01*
X123370000Y-90055000D02*
X122735000Y-90055000D01*
X123370000Y-89420000D02*
X123370000Y-90055000D01*
X113103733Y-92790000D02*
X113396267Y-92790000D01*
X113103733Y-93810000D02*
X113396267Y-93810000D01*
X133690000Y-103346267D02*
X133690000Y-103053733D01*
X134710000Y-103346267D02*
X134710000Y-103053733D01*
X94690000Y-101596267D02*
X94690000Y-101303733D01*
X95710000Y-101596267D02*
X95710000Y-101303733D01*
X104290000Y-103046267D02*
X104290000Y-102753733D01*
X105310000Y-103046267D02*
X105310000Y-102753733D01*
X108090000Y-84210000D02*
X108090000Y-83560000D01*
X108740000Y-76990000D02*
X108090000Y-76990000D01*
X108740000Y-84210000D02*
X108090000Y-84210000D01*
X114660000Y-76990000D02*
X115310000Y-76990000D01*
X114660000Y-84210000D02*
X115310000Y-84210000D01*
X115310000Y-76990000D02*
X115310000Y-77640000D01*
X115310000Y-84210000D02*
X115310000Y-83560000D01*
X104484165Y-77340000D02*
X104715835Y-77340000D01*
X104484165Y-78060000D02*
X104715835Y-78060000D01*
X124075000Y-62645000D02*
X124075000Y-61375000D01*
X125345000Y-62645000D02*
X124075000Y-62645000D01*
X127505000Y-60332071D02*
X127505000Y-59935000D01*
X128265000Y-60332071D02*
X128265000Y-59935000D01*
X124965000Y-60265000D02*
X124965000Y-59935000D01*
X125725000Y-60265000D02*
X125725000Y-59935000D01*
X124015000Y-59935000D02*
X129215000Y-59935000D01*
X126615000Y-59935000D02*
X126615000Y-57275000D01*
X129215000Y-59935000D02*
X129215000Y-57275000D01*
X124015000Y-57275000D02*
X124015000Y-59935000D01*
X124965000Y-57275000D02*
X124965000Y-51275000D01*
X125025000Y-57275000D02*
X125025000Y-51275000D01*
X125145000Y-57275000D02*
X125145000Y-51275000D01*
X125265000Y-57275000D02*
X125265000Y-51275000D01*
X125385000Y-57275000D02*
X125385000Y-51275000D01*
X125505000Y-57275000D02*
X125505000Y-51275000D01*
X125625000Y-57275000D02*
X125625000Y-51275000D01*
X127505000Y-57275000D02*
X127505000Y-51275000D01*
X129215000Y-57275000D02*
X124015000Y-57275000D01*
X124965000Y-51275000D02*
X125725000Y-51275000D01*
X125725000Y-51275000D02*
X125725000Y-57275000D01*
X127505000Y-51275000D02*
X128265000Y-51275000D01*
X128265000Y-51275000D02*
X128265000Y-57275000D01*
X113300000Y-92300000D02*
X113300000Y-89000000D01*
X113300000Y-89000000D02*
X109300000Y-89000000D01*
X89746267Y-103710000D02*
X89453733Y-103710000D01*
X89746267Y-102690000D02*
X89453733Y-102690000D01*
X113065835Y-87460000D02*
X112834165Y-87460000D01*
X113065835Y-86740000D02*
X112834165Y-86740000D01*
X135154724Y-83422500D02*
X134645276Y-83422500D01*
X135154724Y-82377500D02*
X134645276Y-82377500D01*
X125045276Y-67577500D02*
X125554724Y-67577500D01*
X125045276Y-68622500D02*
X125554724Y-68622500D01*
X104850000Y-63650000D02*
X97550000Y-63650000D01*
X104850000Y-58150000D02*
X97550000Y-58150000D01*
X97550000Y-58150000D02*
X97550000Y-59300000D01*
X124790000Y-103146267D02*
X124790000Y-102853733D01*
X125810000Y-103146267D02*
X125810000Y-102853733D01*
X119165835Y-77560000D02*
X118934165Y-77560000D01*
X119165835Y-76840000D02*
X118934165Y-76840000D01*
X124285000Y-101100000D02*
X124285000Y-97500000D01*
X124285000Y-101100000D02*
X124285000Y-103300000D01*
X117515000Y-101100000D02*
X117515000Y-98900000D01*
X117515000Y-101100000D02*
X117515000Y-103300000D01*
X96800000Y-71400000D02*
X96200000Y-71400000D01*
X95500000Y-70700000D02*
X95500000Y-69300000D01*
X97500000Y-69300000D02*
X97500000Y-70700000D01*
X96200000Y-68600000D02*
X96800000Y-68600000D01*
X95500000Y-70700000D02*
G75*
G03*
X96200000Y-71400000I699999J-1D01*
G01*
X96800000Y-71400000D02*
G75*
G03*
X97500000Y-70700000I1J699999D01*
G01*
X96200000Y-68600000D02*
G75*
G03*
X95500000Y-69300000I0J-700000D01*
G01*
X97500000Y-69300000D02*
G75*
G03*
X96800000Y-68600000I-700000J0D01*
G01*
X93854724Y-87522500D02*
X93345276Y-87522500D01*
X93854724Y-86477500D02*
X93345276Y-86477500D01*
X107210000Y-61853733D02*
X107210000Y-62146267D01*
X106190000Y-61853733D02*
X106190000Y-62146267D01*
X113277500Y-73954724D02*
X113277500Y-73445276D01*
X114322500Y-73954724D02*
X114322500Y-73445276D01*
X106953733Y-67390000D02*
X107246267Y-67390000D01*
X106953733Y-68410000D02*
X107246267Y-68410000D01*
X93253733Y-83590000D02*
X93546267Y-83590000D01*
X93253733Y-84610000D02*
X93546267Y-84610000D01*
X125810000Y-98753733D02*
X125810000Y-99046267D01*
X124790000Y-98753733D02*
X124790000Y-99046267D01*
X101575000Y-68975000D02*
X101575000Y-69235000D01*
X101575000Y-69235000D02*
X99900000Y-69235000D01*
X101575000Y-74425000D02*
X101575000Y-74165000D01*
X104300000Y-68975000D02*
X101575000Y-68975000D01*
X104300000Y-68975000D02*
X107025000Y-68975000D01*
X104300000Y-74425000D02*
X101575000Y-74425000D01*
X104300000Y-74425000D02*
X107025000Y-74425000D01*
X107025000Y-68975000D02*
X107025000Y-69235000D01*
X107025000Y-74425000D02*
X107025000Y-74165000D01*
X130285276Y-67577500D02*
X130794724Y-67577500D01*
X130285276Y-68622500D02*
X130794724Y-68622500D01*
X103785000Y-101100000D02*
X103785000Y-97500000D01*
X103785000Y-101100000D02*
X103785000Y-103300000D01*
X97015000Y-101100000D02*
X97015000Y-98900000D01*
X97015000Y-101100000D02*
X97015000Y-103300000D01*
X133185000Y-101000000D02*
X133185000Y-97400000D01*
X133185000Y-101000000D02*
X133185000Y-103200000D01*
X126415000Y-101000000D02*
X126415000Y-98800000D01*
X126415000Y-101000000D02*
X126415000Y-103200000D01*
X87390000Y-70400000D02*
X87390000Y-72400000D01*
X87390000Y-70400000D02*
X91250000Y-70400000D01*
X87390000Y-72400000D02*
X91250000Y-72400000D01*
X89553733Y-83590000D02*
X89846267Y-83590000D01*
X89553733Y-84610000D02*
X89846267Y-84610000D01*
X136480000Y-91960000D02*
X136480000Y-88800000D01*
X136480000Y-91960000D02*
X135550000Y-91960000D01*
X133320000Y-91960000D02*
X133320000Y-90500000D01*
X133320000Y-91960000D02*
X134250000Y-91960000D01*
X91710000Y-88300000D02*
X91710000Y-86300000D01*
X91710000Y-88300000D02*
X87850000Y-88300000D01*
X91710000Y-86300000D02*
X87850000Y-86300000D01*
X101345276Y-67377500D02*
X101854724Y-67377500D01*
X101345276Y-68422500D02*
X101854724Y-68422500D01*
X93400000Y-102350000D02*
X93400000Y-102250000D01*
X93400000Y-102250000D02*
X93800000Y-102250000D01*
X93400000Y-99950000D02*
X93400000Y-100150000D01*
X93400000Y-99950000D02*
X90800000Y-99950000D01*
X90800000Y-102350000D02*
X93400000Y-102350000D01*
X90800000Y-102150000D02*
X90800000Y-102350000D01*
X90800000Y-99950000D02*
X90800000Y-100150000D01*
X119010000Y-73553733D02*
X119010000Y-73846267D01*
X117990000Y-73553733D02*
X117990000Y-73846267D01*
X117510000Y-73553733D02*
X117510000Y-73846267D01*
X116490000Y-73553733D02*
X116490000Y-73846267D01*
%LPC*%
G36*
X136416962Y-116783715D02*
G01*
X87116962Y-116783715D01*
X87116962Y-109783715D01*
X136416962Y-109783715D01*
X136416962Y-116783715D01*
G37*
D15*
X117050000Y-61665000D03*
X111270000Y-61665000D03*
D16*
X117359999Y-62739999D03*
X116559999Y-62739999D03*
D17*
X115409999Y-62739999D03*
X114409999Y-62739999D03*
X113909999Y-62739999D03*
X112909999Y-62739999D03*
D16*
X111759999Y-62739999D03*
X110959999Y-62739999D03*
X110959999Y-62739999D03*
X111759999Y-62739999D03*
D17*
X112409999Y-62739999D03*
X113409999Y-62739999D03*
X114909999Y-62739999D03*
X115909999Y-62739999D03*
D16*
X116559999Y-62739999D03*
X117359999Y-62739999D03*
D18*
X118479999Y-62164999D03*
D19*
X118479999Y-57984999D03*
D18*
X109839999Y-62164999D03*
D19*
X109839999Y-57984999D03*
D20*
X104032500Y-82300000D03*
X105167500Y-82300000D03*
D21*
X134200000Y-97937500D03*
X134200000Y-99662500D03*
D22*
X115500000Y-74612500D03*
X115500000Y-72787500D03*
D23*
X114300000Y-89737500D03*
X114300000Y-91562500D03*
D24*
X111400000Y-73932500D03*
X111400000Y-75067500D03*
X112400000Y-73932500D03*
X112400000Y-75067500D03*
D25*
X115967500Y-87100000D03*
X114832500Y-87100000D03*
D26*
X88266962Y-109283715D03*
X90016962Y-109283715D03*
X91516962Y-109283715D03*
X93016962Y-109283715D03*
X94516962Y-109283715D03*
X96016962Y-109283715D03*
X97516962Y-109283715D03*
X99016962Y-109283715D03*
X100516962Y-109283715D03*
X102016962Y-109283715D03*
X103516962Y-109283715D03*
X105016962Y-109283715D03*
X106516962Y-109283715D03*
X108016962Y-109283715D03*
X109516962Y-109283715D03*
X111016962Y-109283715D03*
X112516962Y-109283715D03*
X114016962Y-109283715D03*
X115516962Y-109283715D03*
X117016962Y-109283715D03*
X118516962Y-109283715D03*
X120016962Y-109283715D03*
X121516962Y-109283715D03*
X123016962Y-109283715D03*
X124516962Y-109283715D03*
X126016962Y-109283715D03*
X127516962Y-109283715D03*
X129016962Y-109283715D03*
X130516962Y-109283715D03*
X132016962Y-109283715D03*
X133516962Y-109283715D03*
X135266962Y-109283715D03*
D25*
X119627500Y-81600000D03*
X118492500Y-81600000D03*
D27*
X124759999Y-70649999D03*
X131059999Y-70649999D03*
X124759999Y-74449999D03*
X131059999Y-74449999D03*
D28*
X135812500Y-85600000D03*
X133987500Y-85600000D03*
D29*
X89359999Y-80873799D03*
X90629999Y-80873799D03*
X91899999Y-80873799D03*
X93169999Y-80873799D03*
X94439999Y-80873799D03*
D30*
X91899999Y-74599999D03*
D31*
X108437500Y-93300000D03*
X110162500Y-93300000D03*
D21*
X104800000Y-98037500D03*
X104800000Y-99762500D03*
D32*
X119560000Y-90690000D03*
D33*
X122100000Y-90690000D03*
D32*
X124640000Y-90690000D03*
X119560000Y-87515000D03*
X124640000Y-87515000D03*
D33*
X121084000Y-85610000D03*
X123116000Y-85610000D03*
D34*
X122735000Y-89420000D03*
X121465000Y-89420000D03*
X122735000Y-88150000D03*
X121465000Y-88150000D03*
X122735000Y-86880000D03*
X121465000Y-86880000D03*
D35*
X92100000Y-96100000D03*
D31*
X112387500Y-93300000D03*
X114112500Y-93300000D03*
D36*
X134200000Y-104062500D03*
X134200000Y-102337500D03*
X95200000Y-102312500D03*
X95200000Y-100587500D03*
X104800000Y-103762500D03*
X104800000Y-102037500D03*
D37*
X111770000Y-101359673D03*
D38*
X108262500Y-78000000D03*
X108262500Y-78400000D03*
X108262500Y-78800000D03*
X108262500Y-79200000D03*
X108262500Y-79600000D03*
X108262500Y-80000000D03*
X108262500Y-80400000D03*
X108262500Y-80800000D03*
X108262500Y-81200000D03*
X108262500Y-81600000D03*
X108262500Y-82000000D03*
X108262500Y-82400000D03*
X108262500Y-82800000D03*
X108262500Y-83200000D03*
D39*
X109100000Y-84037500D03*
X109500000Y-84037500D03*
X109900000Y-84037500D03*
X110300000Y-84037500D03*
X110700000Y-84037500D03*
X111100000Y-84037500D03*
X111500000Y-84037500D03*
X111900000Y-84037500D03*
X112300000Y-84037500D03*
X112700000Y-84037500D03*
X113100000Y-84037500D03*
X113500000Y-84037500D03*
X113900000Y-84037500D03*
X114300000Y-84037500D03*
D38*
X115137500Y-83200000D03*
X115137500Y-82800000D03*
X115137500Y-82400000D03*
X115137500Y-82000000D03*
X115137500Y-81600000D03*
X115137500Y-81200000D03*
X115137500Y-80800000D03*
X115137500Y-80400000D03*
X115137500Y-80000000D03*
X115137500Y-79600000D03*
X115137500Y-79200000D03*
X115137500Y-78800000D03*
X115137500Y-78400000D03*
X115137500Y-78000000D03*
D39*
X114300000Y-77162500D03*
X113900000Y-77162500D03*
X113500000Y-77162500D03*
X113100000Y-77162500D03*
X112700000Y-77162500D03*
X112300000Y-77162500D03*
X111900000Y-77162500D03*
X111500000Y-77162500D03*
X111100000Y-77162500D03*
X110700000Y-77162500D03*
X110300000Y-77162500D03*
X109900000Y-77162500D03*
X109500000Y-77162500D03*
X109100000Y-77162500D03*
D40*
X111699999Y-80599999D03*
D20*
X104032500Y-77700000D03*
X105167500Y-77700000D03*
D35*
X92100000Y-64000000D03*
D41*
X125344999Y-61374999D03*
D42*
X127884999Y-61374999D03*
D43*
X112399999Y-89799999D03*
X110199999Y-89799999D03*
X110199999Y-91499999D03*
X112399999Y-91499999D03*
D44*
X90462500Y-103200000D03*
X88737500Y-103200000D03*
D25*
X113517500Y-87100000D03*
X112382500Y-87100000D03*
D28*
X135812500Y-82900000D03*
X133987500Y-82900000D03*
D45*
X124387500Y-68100000D03*
X126212500Y-68100000D03*
D46*
X103649999Y-62549999D03*
X103649999Y-59249999D03*
X98749999Y-59249999D03*
X98749999Y-62549999D03*
D36*
X125300000Y-103862500D03*
X125300000Y-102137500D03*
D25*
X119617500Y-77200000D03*
X118482500Y-77200000D03*
D47*
X123825000Y-98237500D03*
X123175000Y-98237500D03*
X122525000Y-98237500D03*
X121875000Y-98237500D03*
X121225000Y-98237500D03*
X120575000Y-98237500D03*
X119925000Y-98237500D03*
X119275000Y-98237500D03*
X118625000Y-98237500D03*
X117975000Y-98237500D03*
X117975000Y-103962500D03*
X118625000Y-103962500D03*
X119275000Y-103962500D03*
X119925000Y-103962500D03*
X120575000Y-103962500D03*
X121225000Y-103962500D03*
X121875000Y-103962500D03*
X122525000Y-103962500D03*
X123175000Y-103962500D03*
X123825000Y-103962500D03*
D48*
X96500000Y-70650000D03*
D49*
X96500000Y-69350000D03*
D28*
X94512500Y-87000000D03*
X92687500Y-87000000D03*
D21*
X106700000Y-61137500D03*
X106700000Y-62862500D03*
D22*
X113800000Y-74612500D03*
X113800000Y-72787500D03*
D31*
X106237500Y-67900000D03*
X107962500Y-67900000D03*
D35*
X131500000Y-64000000D03*
D31*
X92537500Y-84100000D03*
X94262500Y-84100000D03*
D21*
X125300000Y-98037500D03*
X125300000Y-99762500D03*
D50*
X100700000Y-69795000D03*
X100700000Y-71065000D03*
X100700000Y-72335000D03*
X100700000Y-73605000D03*
X107900000Y-73605000D03*
X107900000Y-72335000D03*
X107900000Y-71065000D03*
X107900000Y-69795000D03*
D45*
X129627500Y-68100000D03*
X131452500Y-68100000D03*
D47*
X103325000Y-98237500D03*
X102675000Y-98237500D03*
X102025000Y-98237500D03*
X101375000Y-98237500D03*
X100725000Y-98237500D03*
X100075000Y-98237500D03*
X99425000Y-98237500D03*
X98775000Y-98237500D03*
X98125000Y-98237500D03*
X97475000Y-98237500D03*
X97475000Y-103962500D03*
X98125000Y-103962500D03*
X98775000Y-103962500D03*
X99425000Y-103962500D03*
X100075000Y-103962500D03*
X100725000Y-103962500D03*
X101375000Y-103962500D03*
X102025000Y-103962500D03*
X102675000Y-103962500D03*
X103325000Y-103962500D03*
X132725000Y-98137500D03*
X132075000Y-98137500D03*
X131425000Y-98137500D03*
X130775000Y-98137500D03*
X130125000Y-98137500D03*
X129475000Y-98137500D03*
X128825000Y-98137500D03*
X128175000Y-98137500D03*
X127525000Y-98137500D03*
X126875000Y-98137500D03*
X126875000Y-103862500D03*
X127525000Y-103862500D03*
X128175000Y-103862500D03*
X128825000Y-103862500D03*
X129475000Y-103862500D03*
X130125000Y-103862500D03*
X130775000Y-103862500D03*
X131425000Y-103862500D03*
X132075000Y-103862500D03*
X132725000Y-103862500D03*
D51*
X88200000Y-71400000D03*
X91000000Y-71400000D03*
D31*
X88837500Y-84100000D03*
X90562500Y-84100000D03*
D52*
X135849999Y-89699999D03*
X133949999Y-89699999D03*
X134899999Y-92699999D03*
D53*
X90900000Y-87300000D03*
X88100000Y-87300000D03*
D45*
X100687500Y-67900000D03*
X102512500Y-67900000D03*
D54*
X93649999Y-101899999D03*
X93649999Y-101399999D03*
X93649999Y-100899999D03*
X93649999Y-100399999D03*
X90549999Y-100399999D03*
X90549999Y-100899999D03*
X90549999Y-101399999D03*
X90549999Y-101899999D03*
D21*
X118500000Y-72837500D03*
X118500000Y-74562500D03*
X117000000Y-72837500D03*
X117000000Y-74562500D03*
M02*
